solid CATIA STL
  facet normal  7.071068e-001 -7.071068e-001  0.000000e+000
    outer loop
      vertex  5.150000e+001  1.431357e+001  1.000000e+001
      vertex  4.750000e+001  1.031357e+001  1.000000e+001
      vertex  5.150000e+001  1.431357e+001  0.000000e+000
    endloop
  endfacet
  facet normal  7.071068e-001 -7.071068e-001  0.000000e+000
    outer loop
      vertex  5.150000e+001  1.431357e+001  0.000000e+000
      vertex  4.750000e+001  1.031357e+001  1.000000e+001
      vertex  4.750000e+001  1.031357e+001  1.130926e-015
    endloop
  endfacet
  facet normal  0.000000e+000 -1.000000e+000  0.000000e+000
    outer loop
      vertex  4.750000e+001  1.031357e+001  1.000000e+001
      vertex  4.400000e+001  1.031357e+001  1.000000e+001
      vertex  4.750000e+001  1.031357e+001  1.130926e-015
    endloop
  endfacet
  facet normal  -0.000000e+000 -1.000000e+000  0.000000e+000
    outer loop
      vertex  4.750000e+001  1.031357e+001  1.130926e-015
      vertex  4.400000e+001  1.031357e+001  1.000000e+001
      vertex  4.400000e+001  1.031357e+001  1.033782e-015
    endloop
  endfacet
  facet normal  2.775558e-017  2.343295e-017 -1.000000e+000
    outer loop
      vertex  4.600000e+001  1.631357e+001  1.229891e-015
      vertex  5.000000e+001  1.631357e+001  1.340913e-015
      vertex  6.275000e+001  1.431357e+001  1.647931e-015
    endloop
  endfacet
  facet normal  1.464827e-016  1.017773e-015 -1.000000e+000
    outer loop
      vertex  4.600000e+001  1.631357e+001  1.229891e-015
      vertex  6.275000e+001  1.431357e+001  1.647931e-015
      vertex  5.150000e+001  1.431357e+001  0.000000e+000
    endloop
  endfacet
  facet normal -1.603684e-016  1.739321e-016 -1.000000e+000
    outer loop
      vertex  4.600000e+001  1.631357e+001  1.229891e-015
      vertex  5.150000e+001  1.431357e+001  0.000000e+000
      vertex  4.400000e+001  1.381357e+001  1.115797e-015
    endloop
  endfacet
  facet normal  2.775558e-017  2.343292e-017 -1.000000e+000
    outer loop
      vertex  4.600000e+001  1.631357e+001  1.229891e-015
      vertex  4.400000e+001  1.381357e+001  1.115797e-015
      vertex  2.775558e-016  1.831357e+001  0.000000e+000
    endloop
  endfacet
  facet normal  2.775558e-017  2.343295e-017 -1.000000e+000
    outer loop
      vertex  4.600000e+001  1.631357e+001  1.229891e-015
      vertex  2.775558e-016  1.831357e+001  0.000000e+000
      vertex  4.600000e+001  1.831357e+001  1.276756e-015
    endloop
  endfacet
  facet normal  2.775558e-017  2.343299e-017 -1.000000e+000
    outer loop
      vertex  2.775558e-016  1.831357e+001  0.000000e+000
      vertex  4.400000e+001  1.381357e+001  1.115797e-015
      vertex  3.550000e+001  1.381357e+001  8.798747e-016
    endloop
  endfacet
  facet normal  2.775558e-017  2.343294e-017 -1.000000e+000
    outer loop
      vertex  2.775558e-016  1.831357e+001  0.000000e+000
      vertex  3.550000e+001  1.381357e+001  8.798747e-016
      vertex  2.888848e+001  1.231108e+001  6.611605e-016
    endloop
  endfacet
  facet normal  2.775554e-017  2.343278e-017 -1.000000e+000
    outer loop
      vertex  2.775558e-016  1.831357e+001  0.000000e+000
      vertex  2.888848e+001  1.231108e+001  6.611605e-016
      vertex  2.844975e+001  1.225227e+001  6.476051e-016
    endloop
  endfacet
  facet normal  2.775559e-017  2.343302e-017 -9.999999e-001
    outer loop
      vertex  2.775558e-016  1.831357e+001  0.000000e+000
      vertex  2.844975e+001  1.225227e+001  6.476051e-016
      vertex  2.802827e+001  1.211699e+001  6.327368e-016
    endloop
  endfacet
  facet normal  2.775557e-017  2.343290e-017 -1.000000e+000
    outer loop
      vertex  2.775558e-016  1.831357e+001  0.000000e+000
      vertex  2.802827e+001  1.211699e+001  6.327368e-016
      vertex  2.763726e+001  1.190951e+001  6.170220e-016
    endloop
  endfacet
  facet normal  2.775556e-017  2.343288e-017 -1.000000e+000
    outer loop
      vertex  2.775558e-016  1.831357e+001  0.000000e+000
      vertex  2.763726e+001  1.190951e+001  6.170220e-016
      vertex  2.728897e+001  1.163631e+001  6.009532e-016
    endloop
  endfacet
  facet normal  2.775563e-017  2.343314e-017 -1.000000e+000
    outer loop
      vertex  2.775558e-016  1.831357e+001  0.000000e+000
      vertex  2.728897e+001  1.163631e+001  6.009532e-016
      vertex  2.699432e+001  1.130597e+001  5.850342e-016
    endloop
  endfacet
  facet normal  2.775555e-017  2.343287e-017 -9.999999e-001
    outer loop
      vertex  2.775558e-016  1.831357e+001  0.000000e+000
      vertex  2.699432e+001  1.130597e+001  5.850342e-016
      vertex  2.676255e+001  1.092884e+001  5.697641e-016
    endloop
  endfacet
  facet normal  2.775560e-017  2.343304e-017 -1.000000e+000
    outer loop
      vertex  2.775558e-016  1.831357e+001  0.000000e+000
      vertex  2.676255e+001  1.092884e+001  5.697641e-016
      vertex  2.660093e+001  1.051675e+001  5.556215e-016
    endloop
  endfacet
  facet normal  2.775553e-017  2.343302e-017 -1.000000e+000
    outer loop
      vertex  3.550000e+001  1.381357e+001  8.798747e-016
      vertex  3.112915e+001  1.112382e+001  6.955302e-016
      vertex  3.086469e+001  1.147879e+001  6.965080e-016
    endloop
  endfacet
  facet normal  2.775555e-017  2.343299e-017 -1.000000e+000
    outer loop
      vertex  3.550000e+001  1.381357e+001  8.798747e-016
      vertex  3.086469e+001  1.147879e+001  6.965080e-016
      vertex  3.054177e+001  1.178155e+001  6.946400e-016
    endloop
  endfacet
  facet normal  2.775559e-017  2.343290e-017 -9.999999e-001
    outer loop
      vertex  3.550000e+001  1.381357e+001  8.798747e-016
      vertex  3.054177e+001  1.178155e+001  6.946400e-016
      vertex  3.017052e+001  1.202262e+001  6.899845e-016
    endloop
  endfacet
  facet normal  2.775558e-017  2.343291e-017 -1.000000e+000
    outer loop
      vertex  3.550000e+001  1.381357e+001  8.798747e-016
      vertex  3.017052e+001  1.202262e+001  6.899845e-016
      vertex  2.976257e+001  1.219443e+001  6.826877e-016
    endloop
  endfacet
  facet normal  2.775557e-017  2.343297e-017 -9.999999e-001
    outer loop
      vertex  3.550000e+001  1.381357e+001  8.798747e-016
      vertex  2.976257e+001  1.219443e+001  6.826877e-016
      vertex  2.933071e+001  1.229160e+001  6.729782e-016
    endloop
  endfacet
  facet normal  2.775561e-017  2.343282e-017 -1.000000e+000
    outer loop
      vertex  3.550000e+001  1.381357e+001  8.798747e-016
      vertex  2.933071e+001  1.229160e+001  6.729782e-016
      vertex  2.888848e+001  1.231108e+001  6.611605e-016
    endloop
  endfacet
  facet normal -1.503352e-016  2.343296e-017 -1.000000e+000
    outer loop
      vertex  4.400000e+001  1.381357e+001  1.115797e-015
      vertex  5.150000e+001  1.431357e+001  0.000000e+000
      vertex  4.400000e+001  1.031357e+001  1.033782e-015
    endloop
  endfacet
  facet normal  2.775558e-017 -3.104872e-016 -1.000000e+000
    outer loop
      vertex  4.400000e+001  1.031357e+001  1.033782e-015
      vertex  5.150000e+001  1.431357e+001  0.000000e+000
      vertex  4.750000e+001  1.031357e+001  1.130926e-015
    endloop
  endfacet
  facet normal  2.775559e-017  2.343294e-017 -1.000000e+000
    outer loop
      vertex  7.500000e+001  1.006357e+001  1.888346e-015
      vertex  6.275000e+001  1.006357e+001  1.548341e-015
      vertex  7.500000e+001  1.831357e+001  2.081668e-015
    endloop
  endfacet
  facet normal  2.775558e-017  2.343294e-017 -9.999999e-001
    outer loop
      vertex  7.500000e+001  1.831357e+001  2.081668e-015
      vertex  6.275000e+001  1.006357e+001  1.548341e-015
      vertex  6.275000e+001  1.431357e+001  1.647931e-015
    endloop
  endfacet
  facet normal  2.775558e-017  2.343295e-017 -1.000000e+000
    outer loop
      vertex  7.500000e+001  1.831357e+001  2.081668e-015
      vertex  6.275000e+001  1.431357e+001  1.647931e-015
      vertex  5.000000e+001  1.831357e+001  1.387779e-015
    endloop
  endfacet
  facet normal  2.775558e-017  2.343296e-017 -1.000000e+000
    outer loop
      vertex  5.000000e+001  1.831357e+001  1.387779e-015
      vertex  6.275000e+001  1.431357e+001  1.647931e-015
      vertex  5.000000e+001  1.631357e+001  1.340913e-015
    endloop
  endfacet
  facet normal  0.000000e+000  0.000000e+000  1.000000e+000
    outer loop
      vertex  4.600000e+001  1.631357e+001  1.000000e+001
      vertex  4.600000e+001  1.831357e+001  1.000000e+001
      vertex  0.000000e+000  1.831357e+001  1.000000e+001
    endloop
  endfacet
  facet normal  0.000000e+000  0.000000e+000  1.000000e+000
    outer loop
      vertex  4.600000e+001  1.631357e+001  1.000000e+001
      vertex  0.000000e+000  1.831357e+001  1.000000e+001
      vertex  4.400000e+001  1.381357e+001  1.000000e+001
    endloop
  endfacet
  facet normal  0.000000e+000  0.000000e+000  1.000000e+000
    outer loop
      vertex  4.600000e+001  1.631357e+001  1.000000e+001
      vertex  4.400000e+001  1.381357e+001  1.000000e+001
      vertex  5.150000e+001  1.431357e+001  1.000000e+001
    endloop
  endfacet
  facet normal  0.000000e+000  -0.000000e+000  1.000000e+000
    outer loop
      vertex  4.600000e+001  1.631357e+001  1.000000e+001
      vertex  5.150000e+001  1.431357e+001  1.000000e+001
      vertex  6.275000e+001  1.431357e+001  1.000000e+001
    endloop
  endfacet
  facet normal  0.000000e+000  0.000000e+000  1.000000e+000
    outer loop
      vertex  4.600000e+001  1.631357e+001  1.000000e+001
      vertex  6.275000e+001  1.431357e+001  1.000000e+001
      vertex  5.000000e+001  1.631357e+001  1.000000e+001
    endloop
  endfacet
  facet normal  0.000000e+000  -0.000000e+000  1.000000e+000
    outer loop
      vertex  0.000000e+000  1.831357e+001  1.000000e+001
      vertex  2.660093e+001  1.051675e+001  1.000000e+001
      vertex  2.676255e+001  1.092884e+001  1.000000e+001
    endloop
  endfacet
  facet normal  0.000000e+000  -0.000000e+000  9.999999e-001
    outer loop
      vertex  0.000000e+000  1.831357e+001  1.000000e+001
      vertex  2.676255e+001  1.092884e+001  1.000000e+001
      vertex  2.699432e+001  1.130597e+001  1.000000e+001
    endloop
  endfacet
  facet normal  0.000000e+000  -0.000000e+000  1.000000e+000
    outer loop
      vertex  0.000000e+000  1.831357e+001  1.000000e+001
      vertex  2.699432e+001  1.130597e+001  1.000000e+001
      vertex  2.728897e+001  1.163631e+001  1.000000e+001
    endloop
  endfacet
  facet normal  0.000000e+000  -0.000000e+000  1.000000e+000
    outer loop
      vertex  0.000000e+000  1.831357e+001  1.000000e+001
      vertex  2.728897e+001  1.163631e+001  1.000000e+001
      vertex  2.763726e+001  1.190951e+001  1.000000e+001
    endloop
  endfacet
  facet normal  0.000000e+000  -0.000000e+000  1.000000e+000
    outer loop
      vertex  0.000000e+000  1.831357e+001  1.000000e+001
      vertex  2.763726e+001  1.190951e+001  1.000000e+001
      vertex  2.802827e+001  1.211699e+001  1.000000e+001
    endloop
  endfacet
  facet normal  0.000000e+000  -0.000000e+000  9.999999e-001
    outer loop
      vertex  0.000000e+000  1.831357e+001  1.000000e+001
      vertex  2.802827e+001  1.211699e+001  1.000000e+001
      vertex  2.844975e+001  1.225227e+001  1.000000e+001
    endloop
  endfacet
  facet normal  0.000000e+000  -0.000000e+000  1.000000e+000
    outer loop
      vertex  0.000000e+000  1.831357e+001  1.000000e+001
      vertex  2.844975e+001  1.225227e+001  1.000000e+001
      vertex  2.888848e+001  1.231108e+001  1.000000e+001
    endloop
  endfacet
  facet normal  0.000000e+000  -0.000000e+000  1.000000e+000
    outer loop
      vertex  0.000000e+000  1.831357e+001  1.000000e+001
      vertex  2.888848e+001  1.231108e+001  1.000000e+001
      vertex  3.550000e+001  1.381357e+001  1.000000e+001
    endloop
  endfacet
  facet normal  0.000000e+000  -0.000000e+000  1.000000e+000
    outer loop
      vertex  0.000000e+000  1.831357e+001  1.000000e+001
      vertex  3.550000e+001  1.381357e+001  1.000000e+001
      vertex  4.400000e+001  1.381357e+001  1.000000e+001
    endloop
  endfacet
  facet normal  -0.000000e+000  0.000000e+000  1.000000e+000
    outer loop
      vertex  3.550000e+001  1.381357e+001  1.000000e+001
      vertex  2.888848e+001  1.231108e+001  1.000000e+001
      vertex  2.933071e+001  1.229160e+001  1.000000e+001
    endloop
  endfacet
  facet normal  -0.000000e+000  0.000000e+000  9.999999e-001
    outer loop
      vertex  3.550000e+001  1.381357e+001  1.000000e+001
      vertex  2.933071e+001  1.229160e+001  1.000000e+001
      vertex  2.976257e+001  1.219443e+001  1.000000e+001
    endloop
  endfacet
  facet normal  -0.000000e+000  0.000000e+000  1.000000e+000
    outer loop
      vertex  3.550000e+001  1.381357e+001  1.000000e+001
      vertex  2.976257e+001  1.219443e+001  1.000000e+001
      vertex  3.017052e+001  1.202262e+001  1.000000e+001
    endloop
  endfacet
  facet normal  -0.000000e+000  0.000000e+000  9.999999e-001
    outer loop
      vertex  3.550000e+001  1.381357e+001  1.000000e+001
      vertex  3.017052e+001  1.202262e+001  1.000000e+001
      vertex  3.054177e+001  1.178155e+001  1.000000e+001
    endloop
  endfacet
  facet normal  -0.000000e+000  0.000000e+000  1.000000e+000
    outer loop
      vertex  3.550000e+001  1.381357e+001  1.000000e+001
      vertex  3.054177e+001  1.178155e+001  1.000000e+001
      vertex  3.086469e+001  1.147879e+001  1.000000e+001
    endloop
  endfacet
  facet normal  -0.000000e+000  0.000000e+000  1.000000e+000
    outer loop
      vertex  3.550000e+001  1.381357e+001  1.000000e+001
      vertex  3.086469e+001  1.147879e+001  1.000000e+001
      vertex  3.112915e+001  1.112382e+001  1.000000e+001
    endloop
  endfacet
  facet normal  0.000000e+000  0.000000e+000  1.000000e+000
    outer loop
      vertex  4.400000e+001  1.381357e+001  1.000000e+001
      vertex  4.400000e+001  1.031357e+001  1.000000e+001
      vertex  5.150000e+001  1.431357e+001  1.000000e+001
    endloop
  endfacet
  facet normal  0.000000e+000  0.000000e+000  1.000000e+000
    outer loop
      vertex  5.150000e+001  1.431357e+001  1.000000e+001
      vertex  4.400000e+001  1.031357e+001  1.000000e+001
      vertex  4.750000e+001  1.031357e+001  1.000000e+001
    endloop
  endfacet
  facet normal  0.000000e+000  0.000000e+000  1.000000e+000
    outer loop
      vertex  7.500000e+001  1.006357e+001  1.000000e+001
      vertex  7.500000e+001  1.831357e+001  1.000000e+001
      vertex  6.275000e+001  1.006357e+001  1.000000e+001
    endloop
  endfacet
  facet normal  0.000000e+000  0.000000e+000  9.999999e-001
    outer loop
      vertex  6.275000e+001  1.006357e+001  1.000000e+001
      vertex  7.500000e+001  1.831357e+001  1.000000e+001
      vertex  6.275000e+001  1.431357e+001  1.000000e+001
    endloop
  endfacet
  facet normal  -0.000000e+000  0.000000e+000  1.000000e+000
    outer loop
      vertex  7.500000e+001  1.831357e+001  1.000000e+001
      vertex  5.000000e+001  1.831357e+001  1.000000e+001
      vertex  6.275000e+001  1.431357e+001  1.000000e+001
    endloop
  endfacet
  facet normal  0.000000e+000  0.000000e+000  1.000000e+000
    outer loop
      vertex  6.275000e+001  1.431357e+001  1.000000e+001
      vertex  5.000000e+001  1.831357e+001  1.000000e+001
      vertex  5.000000e+001  1.631357e+001  1.000000e+001
    endloop
  endfacet
  facet normal  5.240975e-001 -8.516583e-001  0.000000e+000
    outer loop
      vertex  3.550000e+001  1.381357e+001  1.000000e+001
      vertex  3.112915e+001  1.112382e+001  1.000000e+001
      vertex  3.550000e+001  1.381357e+001  8.798747e-016
    endloop
  endfacet
  facet normal  5.240975e-001 -8.516583e-001  0.000000e+000
    outer loop
      vertex  3.550000e+001  1.381357e+001  8.798747e-016
      vertex  3.112915e+001  1.112382e+001  1.000000e+001
      vertex  3.112915e+001  1.112382e+001  6.955302e-016
    endloop
  endfacet
  facet normal  0.000000e+000  9.999999e-001  0.000000e+000
    outer loop
      vertex  2.775558e-016  1.831357e+001  0.000000e+000
      vertex  0.000000e+000  1.831357e+001  1.000000e+001
      vertex  4.600000e+001  1.831357e+001  1.276756e-015
    endloop
  endfacet
  facet normal  0.000000e+000  9.999999e-001  -0.000000e+000
    outer loop
      vertex  4.600000e+001  1.831357e+001  1.276756e-015
      vertex  0.000000e+000  1.831357e+001  1.000000e+001
      vertex  4.600000e+001  1.831357e+001  1.000000e+001
    endloop
  endfacet
  facet normal  1.000000e+000  -0.000000e+000  0.000000e+000
    outer loop
      vertex  4.600000e+001  1.831357e+001  1.000000e+001
      vertex  4.600000e+001  1.631357e+001  1.000000e+001
      vertex  4.600000e+001  1.831357e+001  1.276756e-015
    endloop
  endfacet
  facet normal  1.000000e+000  0.000000e+000  0.000000e+000
    outer loop
      vertex  4.600000e+001  1.831357e+001  1.276756e-015
      vertex  4.600000e+001  1.631357e+001  1.000000e+001
      vertex  4.600000e+001  1.631357e+001  1.229891e-015
    endloop
  endfacet
  facet normal  0.000000e+000  1.000000e+000  0.000000e+000
    outer loop
      vertex  4.600000e+001  1.631357e+001  1.000000e+001
      vertex  5.000000e+001  1.631357e+001  1.000000e+001
      vertex  4.600000e+001  1.631357e+001  1.229891e-015
    endloop
  endfacet
  facet normal  0.000000e+000  1.000000e+000  0.000000e+000
    outer loop
      vertex  4.600000e+001  1.631357e+001  1.229891e-015
      vertex  5.000000e+001  1.631357e+001  1.000000e+001
      vertex  5.000000e+001  1.631357e+001  1.340913e-015
    endloop
  endfacet
  facet normal -1.000000e+000  -0.000000e+000  0.000000e+000
    outer loop
      vertex  5.000000e+001  1.631357e+001  1.000000e+001
      vertex  5.000000e+001  1.831357e+001  1.000000e+001
      vertex  5.000000e+001  1.631357e+001  1.340913e-015
    endloop
  endfacet
  facet normal -1.000000e+000  0.000000e+000  0.000000e+000
    outer loop
      vertex  5.000000e+001  1.631357e+001  1.340913e-015
      vertex  5.000000e+001  1.831357e+001  1.000000e+001
      vertex  5.000000e+001  1.831357e+001  1.387779e-015
    endloop
  endfacet
  facet normal  0.000000e+000  1.000000e+000  0.000000e+000
    outer loop
      vertex  5.000000e+001  1.831357e+001  1.387779e-015
      vertex  5.000000e+001  1.831357e+001  1.000000e+001
      vertex  7.500000e+001  1.831357e+001  2.081668e-015
    endloop
  endfacet
  facet normal  0.000000e+000  1.000000e+000  -0.000000e+000
    outer loop
      vertex  7.500000e+001  1.831357e+001  2.081668e-015
      vertex  5.000000e+001  1.831357e+001  1.000000e+001
      vertex  7.500000e+001  1.831357e+001  1.000000e+001
    endloop
  endfacet
  facet normal  9.999999e-001  -0.000000e+000  0.000000e+000
    outer loop
      vertex  7.500000e+001  1.831357e+001  1.000000e+001
      vertex  7.500000e+001  1.006357e+001  1.000000e+001
      vertex  7.500000e+001  1.831357e+001  2.081668e-015
    endloop
  endfacet
  facet normal  9.999999e-001  0.000000e+000  0.000000e+000
    outer loop
      vertex  7.500000e+001  1.831357e+001  2.081668e-015
      vertex  7.500000e+001  1.006357e+001  1.000000e+001
      vertex  7.500000e+001  1.006357e+001  1.888346e-015
    endloop
  endfacet
  facet normal  0.000000e+000 -9.999999e-001  -0.000000e+000
    outer loop
      vertex  7.500000e+001  1.006357e+001  1.888346e-015
      vertex  7.500000e+001  1.006357e+001  1.000000e+001
      vertex  6.275000e+001  1.006357e+001  1.548341e-015
    endloop
  endfacet
  facet normal  0.000000e+000 -9.999999e-001  0.000000e+000
    outer loop
      vertex  6.275000e+001  1.006357e+001  1.548341e-015
      vertex  7.500000e+001  1.006357e+001  1.000000e+001
      vertex  6.275000e+001  1.006357e+001  1.000000e+001
    endloop
  endfacet
  facet normal -1.000000e+000  -0.000000e+000  0.000000e+000
    outer loop
      vertex  6.275000e+001  1.006357e+001  1.000000e+001
      vertex  6.275000e+001  1.431357e+001  1.000000e+001
      vertex  6.275000e+001  1.006357e+001  1.548341e-015
    endloop
  endfacet
  facet normal -1.000000e+000  0.000000e+000  0.000000e+000
    outer loop
      vertex  6.275000e+001  1.006357e+001  1.548341e-015
      vertex  6.275000e+001  1.431357e+001  1.000000e+001
      vertex  6.275000e+001  1.431357e+001  1.647931e-015
    endloop
  endfacet
  facet normal  0.000000e+000 -1.000000e+000  -0.000000e+000
    outer loop
      vertex  6.275000e+001  1.431357e+001  1.647931e-015
      vertex  6.275000e+001  1.431357e+001  1.000000e+001
      vertex  5.150000e+001  1.431357e+001  0.000000e+000
    endloop
  endfacet
  facet normal  0.000000e+000 -1.000000e+000  0.000000e+000
    outer loop
      vertex  5.150000e+001  1.431357e+001  0.000000e+000
      vertex  6.275000e+001  1.431357e+001  1.000000e+001
      vertex  5.150000e+001  1.431357e+001  1.000000e+001
    endloop
  endfacet
  facet normal -1.000000e+000  -0.000000e+000  0.000000e+000
    outer loop
      vertex  4.400000e+001  1.031357e+001  1.000000e+001
      vertex  4.400000e+001  1.381357e+001  1.000000e+001
      vertex  4.400000e+001  1.031357e+001  1.033782e-015
    endloop
  endfacet
  facet normal -1.000000e+000  0.000000e+000  0.000000e+000
    outer loop
      vertex  4.400000e+001  1.031357e+001  1.033782e-015
      vertex  4.400000e+001  1.381357e+001  1.000000e+001
      vertex  4.400000e+001  1.381357e+001  1.115797e-015
    endloop
  endfacet
  facet normal  0.000000e+000 -1.000000e+000  0.000000e+000
    outer loop
      vertex  4.400000e+001  1.381357e+001  1.000000e+001
      vertex  3.550000e+001  1.381357e+001  1.000000e+001
      vertex  4.400000e+001  1.381357e+001  1.115797e-015
    endloop
  endfacet
  facet normal  -0.000000e+000 -1.000000e+000  0.000000e+000
    outer loop
      vertex  4.400000e+001  1.381357e+001  1.115797e-015
      vertex  3.550000e+001  1.381357e+001  1.000000e+001
      vertex  3.550000e+001  1.381357e+001  8.798747e-016
    endloop
  endfacet
  facet normal -2.812704e-001 -9.596286e-001  -0.000000e+000
    outer loop
      vertex  2.660093e+001  1.051675e+001  5.556215e-016
      vertex  2.660093e+001  1.051675e+001  1.000000e+001
      vertex  2.775558e-016  1.831357e+001  0.000000e+000
    endloop
  endfacet
  facet normal -2.812704e-001 -9.596286e-001 -7.806822e-018
    outer loop
      vertex  2.775558e-016  1.831357e+001  0.000000e+000
      vertex  2.660093e+001  1.051675e+001  1.000000e+001
      vertex  0.000000e+000  1.831357e+001  1.000000e+001
    endloop
  endfacet
  facet normal  3.055952e-001 -9.521616e-001  0.000000e+000
    outer loop
      vertex  2.844975e+001  1.225227e+001  6.476051e-016
      vertex  2.802827e+001  1.211699e+001  1.000000e+001
      vertex  2.802827e+001  1.211699e+001  6.327368e-016
    endloop
  endfacet
  facet normal  4.687338e-001 -8.833394e-001  0.000000e+000
    outer loop
      vertex  2.802827e+001  1.211699e+001  6.327368e-016
      vertex  2.802827e+001  1.211699e+001  1.000000e+001
      vertex  2.763726e+001  1.190951e+001  1.000000e+001
    endloop
  endfacet
  facet normal  4.687338e-001 -8.833394e-001  0.000000e+000
    outer loop
      vertex  2.802827e+001  1.211699e+001  6.327368e-016
      vertex  2.763726e+001  1.190951e+001  1.000000e+001
      vertex  2.763726e+001  1.190951e+001  6.170220e-016
    endloop
  endfacet
  facet normal  6.171770e-001 -7.868244e-001  0.000000e+000
    outer loop
      vertex  2.763726e+001  1.190951e+001  6.170220e-016
      vertex  2.763726e+001  1.190951e+001  1.000000e+001
      vertex  2.728897e+001  1.163631e+001  1.000000e+001
    endloop
  endfacet
  facet normal  6.171770e-001 -7.868244e-001  0.000000e+000
    outer loop
      vertex  2.763726e+001  1.190951e+001  6.170220e-016
      vertex  2.728897e+001  1.163631e+001  1.000000e+001
      vertex  2.728897e+001  1.163631e+001  6.009532e-016
    endloop
  endfacet
  facet normal  7.462738e-001 -6.656391e-001  0.000000e+000
    outer loop
      vertex  2.728897e+001  1.163631e+001  6.009532e-016
      vertex  2.728897e+001  1.163631e+001  1.000000e+001
      vertex  2.699432e+001  1.130597e+001  1.000000e+001
    endloop
  endfacet
  facet normal  7.462738e-001 -6.656391e-001  0.000000e+000
    outer loop
      vertex  2.728897e+001  1.163631e+001  6.009532e-016
      vertex  2.699432e+001  1.130597e+001  1.000000e+001
      vertex  2.699432e+001  1.130597e+001  5.850342e-016
    endloop
  endfacet
  facet normal  8.519704e-001 -5.235901e-001  0.000000e+000
    outer loop
      vertex  2.699432e+001  1.130597e+001  5.850342e-016
      vertex  2.699432e+001  1.130597e+001  1.000000e+001
      vertex  2.676255e+001  1.092884e+001  1.000000e+001
    endloop
  endfacet
  facet normal  8.519704e-001 -5.235901e-001  0.000000e+000
    outer loop
      vertex  2.699432e+001  1.130597e+001  5.850342e-016
      vertex  2.676255e+001  1.092884e+001  1.000000e+001
      vertex  2.676255e+001  1.092884e+001  5.697641e-016
    endloop
  endfacet
  facet normal  9.309595e-001 -3.651225e-001  0.000000e+000
    outer loop
      vertex  2.676255e+001  1.092884e+001  5.697641e-016
      vertex  2.676255e+001  1.092884e+001  1.000000e+001
      vertex  2.660093e+001  1.051675e+001  1.000000e+001
    endloop
  endfacet
  facet normal  9.309595e-001 -3.651225e-001  0.000000e+000
    outer loop
      vertex  2.676255e+001  1.092884e+001  5.697641e-016
      vertex  2.660093e+001  1.051675e+001  1.000000e+001
      vertex  2.660093e+001  1.051675e+001  5.556215e-016
    endloop
  endfacet
  facet normal  3.055952e-001 -9.521616e-001  0.000000e+000
    outer loop
      vertex  2.802827e+001  1.211699e+001  1.000000e+001
      vertex  2.844975e+001  1.225227e+001  6.476051e-016
      vertex  2.844975e+001  1.225227e+001  1.000000e+001
    endloop
  endfacet
  facet normal  1.328730e-001 -9.911331e-001  0.000000e+000
    outer loop
      vertex  2.844975e+001  1.225227e+001  1.000000e+001
      vertex  2.844975e+001  1.225227e+001  6.476051e-016
      vertex  2.888848e+001  1.231108e+001  6.611605e-016
    endloop
  endfacet
  facet normal  1.328730e-001 -9.911331e-001  0.000000e+000
    outer loop
      vertex  2.844975e+001  1.225227e+001  1.000000e+001
      vertex  2.888848e+001  1.231108e+001  6.611605e-016
      vertex  2.888848e+001  1.231108e+001  1.000000e+001
    endloop
  endfacet
  facet normal -4.401109e-002 -9.990311e-001  -0.000000e+000
    outer loop
      vertex  2.888848e+001  1.231108e+001  1.000000e+001
      vertex  2.888848e+001  1.231108e+001  6.611605e-016
      vertex  2.933071e+001  1.229160e+001  6.729782e-016
    endloop
  endfacet
  facet normal -4.401109e-002 -9.990311e-001  0.000000e+000
    outer loop
      vertex  2.888848e+001  1.231108e+001  1.000000e+001
      vertex  2.933071e+001  1.229160e+001  6.729782e-016
      vertex  2.933071e+001  1.229160e+001  1.000000e+001
    endloop
  endfacet
  facet normal -2.195161e-001 -9.756089e-001  -0.000000e+000
    outer loop
      vertex  2.933071e+001  1.229160e+001  1.000000e+001
      vertex  2.933071e+001  1.229160e+001  6.729782e-016
      vertex  2.976257e+001  1.219443e+001  6.826877e-016
    endloop
  endfacet
  facet normal -2.195161e-001 -9.756089e-001  0.000000e+000
    outer loop
      vertex  2.933071e+001  1.229160e+001  1.000000e+001
      vertex  2.976257e+001  1.219443e+001  6.826877e-016
      vertex  2.976257e+001  1.219443e+001  1.000000e+001
    endloop
  endfacet
  facet normal -3.881412e-001 -9.215999e-001  -0.000000e+000
    outer loop
      vertex  2.976257e+001  1.219443e+001  1.000000e+001
      vertex  2.976257e+001  1.219443e+001  6.826877e-016
      vertex  3.017052e+001  1.202262e+001  6.899845e-016
    endloop
  endfacet
  facet normal -3.881412e-001 -9.215999e-001  0.000000e+000
    outer loop
      vertex  2.976257e+001  1.219443e+001  1.000000e+001
      vertex  3.017052e+001  1.202262e+001  6.899845e-016
      vertex  3.017052e+001  1.202262e+001  1.000000e+001
    endloop
  endfacet
  facet normal -5.445957e-001 -8.386987e-001  -0.000000e+000
    outer loop
      vertex  3.017052e+001  1.202262e+001  1.000000e+001
      vertex  3.017052e+001  1.202262e+001  6.899845e-016
      vertex  3.054177e+001  1.178155e+001  6.946400e-016
    endloop
  endfacet
  facet normal -5.445957e-001 -8.386987e-001  0.000000e+000
    outer loop
      vertex  3.017052e+001  1.202262e+001  1.000000e+001
      vertex  3.054177e+001  1.178155e+001  6.946400e-016
      vertex  3.054177e+001  1.178155e+001  1.000000e+001
    endloop
  endfacet
  facet normal -6.839764e-001 -7.295042e-001  -0.000000e+000
    outer loop
      vertex  3.054177e+001  1.178155e+001  1.000000e+001
      vertex  3.054177e+001  1.178155e+001  6.946400e-016
      vertex  3.086469e+001  1.147879e+001  6.965080e-016
    endloop
  endfacet
  facet normal -6.839764e-001 -7.295042e-001  0.000000e+000
    outer loop
      vertex  3.054177e+001  1.178155e+001  1.000000e+001
      vertex  3.086469e+001  1.147879e+001  6.965080e-016
      vertex  3.086469e+001  1.147879e+001  1.000000e+001
    endloop
  endfacet
  facet normal -8.019144e-001 -5.974388e-001  -0.000000e+000
    outer loop
      vertex  3.086469e+001  1.147879e+001  1.000000e+001
      vertex  3.086469e+001  1.147879e+001  6.965080e-016
      vertex  3.112915e+001  1.112382e+001  6.955302e-016
    endloop
  endfacet
  facet normal -8.019144e-001 -5.974388e-001  0.000000e+000
    outer loop
      vertex  3.086469e+001  1.147879e+001  1.000000e+001
      vertex  3.112915e+001  1.112382e+001  6.955302e-016
      vertex  3.112915e+001  1.112382e+001  1.000000e+001
    endloop
  endfacet
  facet normal  7.071068e-001  7.071068e-001  0.000000e+000
    outer loop
      vertex  5.150000e+001  5.313572e+000  0.000000e+000
      vertex  4.750000e+001  9.313572e+000  0.000000e+000
      vertex  5.150000e+001  5.313572e+000  1.000000e+001
    endloop
  endfacet
  facet normal  7.071068e-001  7.071068e-001  0.000000e+000
    outer loop
      vertex  5.150000e+001  5.313572e+000  1.000000e+001
      vertex  4.750000e+001  9.313572e+000  0.000000e+000
      vertex  4.750000e+001  9.313572e+000  1.000000e+001
    endloop
  endfacet
  facet normal  0.000000e+000  1.000000e+000  0.000000e+000
    outer loop
      vertex  4.750000e+001  9.313572e+000  0.000000e+000
      vertex  4.400000e+001  9.313572e+000  0.000000e+000
      vertex  4.750000e+001  9.313572e+000  1.000000e+001
    endloop
  endfacet
  facet normal  0.000000e+000  1.000000e+000  0.000000e+000
    outer loop
      vertex  4.750000e+001  9.313572e+000  1.000000e+001
      vertex  4.400000e+001  9.313572e+000  0.000000e+000
      vertex  4.400000e+001  9.313572e+000  1.000000e+001
    endloop
  endfacet
  facet normal  0.000000e+000  -0.000000e+000  1.000000e+000
    outer loop
      vertex  4.600000e+001  3.313572e+000  1.000000e+001
      vertex  5.000000e+001  3.313572e+000  1.000000e+001
      vertex  6.275000e+001  5.313572e+000  1.000000e+001
    endloop
  endfacet
  facet normal  0.000000e+000  0.000000e+000  1.000000e+000
    outer loop
      vertex  4.600000e+001  3.313572e+000  1.000000e+001
      vertex  6.275000e+001  5.313572e+000  1.000000e+001
      vertex  5.150000e+001  5.313572e+000  1.000000e+001
    endloop
  endfacet
  facet normal  0.000000e+000  0.000000e+000  1.000000e+000
    outer loop
      vertex  4.600000e+001  3.313572e+000  1.000000e+001
      vertex  5.150000e+001  5.313572e+000  1.000000e+001
      vertex  4.400000e+001  5.813572e+000  1.000000e+001
    endloop
  endfacet
  facet normal  0.000000e+000  0.000000e+000  1.000000e+000
    outer loop
      vertex  4.600000e+001  3.313572e+000  1.000000e+001
      vertex  4.400000e+001  5.813572e+000  1.000000e+001
      vertex  0.000000e+000  1.313572e+000  1.000000e+001
    endloop
  endfacet
  facet normal  0.000000e+000  0.000000e+000  1.000000e+000
    outer loop
      vertex  4.600000e+001  3.313572e+000  1.000000e+001
      vertex  0.000000e+000  1.313572e+000  1.000000e+001
      vertex  4.600000e+001  1.313572e+000  1.000000e+001
    endloop
  endfacet
  facet normal  0.000000e+000  0.000000e+000  1.000000e+000
    outer loop
      vertex  0.000000e+000  1.313572e+000  1.000000e+001
      vertex  4.400000e+001  5.813572e+000  1.000000e+001
      vertex  3.550000e+001  5.813572e+000  1.000000e+001
    endloop
  endfacet
  facet normal  0.000000e+000  0.000000e+000  1.000000e+000
    outer loop
      vertex  0.000000e+000  1.313572e+000  1.000000e+001
      vertex  3.550000e+001  5.813572e+000  1.000000e+001
      vertex  2.888848e+001  7.316061e+000  1.000000e+001
    endloop
  endfacet
  facet normal  0.000000e+000  0.000000e+000  1.000000e+000
    outer loop
      vertex  0.000000e+000  1.313572e+000  1.000000e+001
      vertex  2.888848e+001  7.316061e+000  1.000000e+001
      vertex  2.844975e+001  7.374878e+000  1.000000e+001
    endloop
  endfacet
  facet normal  0.000000e+000  0.000000e+000  9.999999e-001
    outer loop
      vertex  0.000000e+000  1.313572e+000  1.000000e+001
      vertex  2.844975e+001  7.374878e+000  1.000000e+001
      vertex  2.802827e+001  7.510151e+000  1.000000e+001
    endloop
  endfacet
  facet normal  0.000000e+000  0.000000e+000  1.000000e+000
    outer loop
      vertex  0.000000e+000  1.313572e+000  1.000000e+001
      vertex  2.802827e+001  7.510151e+000  1.000000e+001
      vertex  2.763726e+001  7.717638e+000  1.000000e+001
    endloop
  endfacet
  facet normal  0.000000e+000  0.000000e+000  1.000000e+000
    outer loop
      vertex  0.000000e+000  1.313572e+000  1.000000e+001
      vertex  2.763726e+001  7.717638e+000  1.000000e+001
      vertex  2.728897e+001  7.990834e+000  1.000000e+001
    endloop
  endfacet
  facet normal  0.000000e+000  0.000000e+000  1.000000e+000
    outer loop
      vertex  0.000000e+000  1.313572e+000  1.000000e+001
      vertex  2.728897e+001  7.990834e+000  1.000000e+001
      vertex  2.699432e+001  8.321175e+000  1.000000e+001
    endloop
  endfacet
  facet normal  0.000000e+000  0.000000e+000  9.999999e-001
    outer loop
      vertex  0.000000e+000  1.313572e+000  1.000000e+001
      vertex  2.699432e+001  8.321175e+000  1.000000e+001
      vertex  2.676255e+001  8.698303e+000  1.000000e+001
    endloop
  endfacet
  facet normal  0.000000e+000  0.000000e+000  1.000000e+000
    outer loop
      vertex  0.000000e+000  1.313572e+000  1.000000e+001
      vertex  2.676255e+001  8.698303e+000  1.000000e+001
      vertex  2.660093e+001  9.110396e+000  1.000000e+001
    endloop
  endfacet
  facet normal  0.000000e+000  0.000000e+000  1.000000e+000
    outer loop
      vertex  3.550000e+001  5.813572e+000  1.000000e+001
      vertex  3.112915e+001  8.503328e+000  1.000000e+001
      vertex  3.086469e+001  8.148357e+000  1.000000e+001
    endloop
  endfacet
  facet normal  0.000000e+000  0.000000e+000  1.000000e+000
    outer loop
      vertex  3.550000e+001  5.813572e+000  1.000000e+001
      vertex  3.086469e+001  8.148357e+000  1.000000e+001
      vertex  3.054177e+001  7.845592e+000  1.000000e+001
    endloop
  endfacet
  facet normal  0.000000e+000  0.000000e+000  9.999999e-001
    outer loop
      vertex  3.550000e+001  5.813572e+000  1.000000e+001
      vertex  3.054177e+001  7.845592e+000  1.000000e+001
      vertex  3.017052e+001  7.604525e+000  1.000000e+001
    endloop
  endfacet
  facet normal  0.000000e+000  0.000000e+000  1.000000e+000
    outer loop
      vertex  3.550000e+001  5.813572e+000  1.000000e+001
      vertex  3.017052e+001  7.604525e+000  1.000000e+001
      vertex  2.976257e+001  7.432713e+000  1.000000e+001
    endloop
  endfacet
  facet normal  0.000000e+000  0.000000e+000  1.000000e+000
    outer loop
      vertex  3.550000e+001  5.813572e+000  1.000000e+001
      vertex  2.976257e+001  7.432713e+000  1.000000e+001
      vertex  2.933071e+001  7.335543e+000  1.000000e+001
    endloop
  endfacet
  facet normal  0.000000e+000  0.000000e+000  1.000000e+000
    outer loop
      vertex  3.550000e+001  5.813572e+000  1.000000e+001
      vertex  2.933071e+001  7.335543e+000  1.000000e+001
      vertex  2.888848e+001  7.316061e+000  1.000000e+001
    endloop
  endfacet
  facet normal  0.000000e+000  0.000000e+000  1.000000e+000
    outer loop
      vertex  4.400000e+001  5.813572e+000  1.000000e+001
      vertex  5.150000e+001  5.313572e+000  1.000000e+001
      vertex  4.400000e+001  9.313572e+000  1.000000e+001
    endloop
  endfacet
  facet normal  -0.000000e+000  0.000000e+000  1.000000e+000
    outer loop
      vertex  4.400000e+001  9.313572e+000  1.000000e+001
      vertex  5.150000e+001  5.313572e+000  1.000000e+001
      vertex  4.750000e+001  9.313572e+000  1.000000e+001
    endloop
  endfacet
  facet normal  -0.000000e+000  0.000000e+000  1.000000e+000
    outer loop
      vertex  7.500000e+001  9.563572e+000  1.000000e+001
      vertex  6.275000e+001  9.563572e+000  1.000000e+001
      vertex  7.500000e+001  1.313572e+000  1.000000e+001
    endloop
  endfacet
  facet normal  0.000000e+000  0.000000e+000  9.999999e-001
    outer loop
      vertex  7.500000e+001  1.313572e+000  1.000000e+001
      vertex  6.275000e+001  9.563572e+000  1.000000e+001
      vertex  6.275000e+001  5.313572e+000  1.000000e+001
    endloop
  endfacet
  facet normal  0.000000e+000  0.000000e+000  1.000000e+000
    outer loop
      vertex  7.500000e+001  1.313572e+000  1.000000e+001
      vertex  6.275000e+001  5.313572e+000  1.000000e+001
      vertex  5.000000e+001  1.313572e+000  1.000000e+001
    endloop
  endfacet
  facet normal  0.000000e+000  0.000000e+000  1.000000e+000
    outer loop
      vertex  5.000000e+001  1.313572e+000  1.000000e+001
      vertex  6.275000e+001  5.313572e+000  1.000000e+001
      vertex  5.000000e+001  3.313572e+000  1.000000e+001
    endloop
  endfacet
  facet normal  0.000000e+000  0.000000e+000 -1.000000e+000
    outer loop
      vertex  4.600000e+001  3.313572e+000  0.000000e+000
      vertex  4.600000e+001  1.313572e+000  0.000000e+000
      vertex  0.000000e+000  1.313572e+000  0.000000e+000
    endloop
  endfacet
  facet normal  0.000000e+000  0.000000e+000 -1.000000e+000
    outer loop
      vertex  4.600000e+001  3.313572e+000  0.000000e+000
      vertex  0.000000e+000  1.313572e+000  0.000000e+000
      vertex  4.400000e+001  5.813572e+000  0.000000e+000
    endloop
  endfacet
  facet normal  0.000000e+000  0.000000e+000 -1.000000e+000
    outer loop
      vertex  4.600000e+001  3.313572e+000  0.000000e+000
      vertex  4.400000e+001  5.813572e+000  0.000000e+000
      vertex  5.150000e+001  5.313572e+000  0.000000e+000
    endloop
  endfacet
  facet normal  0.000000e+000  -0.000000e+000 -1.000000e+000
    outer loop
      vertex  4.600000e+001  3.313572e+000  0.000000e+000
      vertex  5.150000e+001  5.313572e+000  0.000000e+000
      vertex  6.275000e+001  5.313572e+000  0.000000e+000
    endloop
  endfacet
  facet normal  0.000000e+000  0.000000e+000 -1.000000e+000
    outer loop
      vertex  4.600000e+001  3.313572e+000  0.000000e+000
      vertex  6.275000e+001  5.313572e+000  0.000000e+000
      vertex  5.000000e+001  3.313572e+000  0.000000e+000
    endloop
  endfacet
  facet normal  0.000000e+000  -0.000000e+000 -1.000000e+000
    outer loop
      vertex  0.000000e+000  1.313572e+000  0.000000e+000
      vertex  2.660093e+001  9.110396e+000  0.000000e+000
      vertex  2.676255e+001  8.698303e+000  0.000000e+000
    endloop
  endfacet
  facet normal  0.000000e+000  -0.000000e+000 -9.999999e-001
    outer loop
      vertex  0.000000e+000  1.313572e+000  0.000000e+000
      vertex  2.676255e+001  8.698303e+000  0.000000e+000
      vertex  2.699432e+001  8.321175e+000  0.000000e+000
    endloop
  endfacet
  facet normal  0.000000e+000  -0.000000e+000 -1.000000e+000
    outer loop
      vertex  0.000000e+000  1.313572e+000  0.000000e+000
      vertex  2.699432e+001  8.321175e+000  0.000000e+000
      vertex  2.728897e+001  7.990834e+000  0.000000e+000
    endloop
  endfacet
  facet normal  0.000000e+000  -0.000000e+000 -1.000000e+000
    outer loop
      vertex  0.000000e+000  1.313572e+000  0.000000e+000
      vertex  2.728897e+001  7.990834e+000  0.000000e+000
      vertex  2.763726e+001  7.717638e+000  0.000000e+000
    endloop
  endfacet
  facet normal  0.000000e+000  -0.000000e+000 -1.000000e+000
    outer loop
      vertex  0.000000e+000  1.313572e+000  0.000000e+000
      vertex  2.763726e+001  7.717638e+000  0.000000e+000
      vertex  2.802827e+001  7.510151e+000  0.000000e+000
    endloop
  endfacet
  facet normal  0.000000e+000  -0.000000e+000 -9.999999e-001
    outer loop
      vertex  0.000000e+000  1.313572e+000  0.000000e+000
      vertex  2.802827e+001  7.510151e+000  0.000000e+000
      vertex  2.844975e+001  7.374878e+000  0.000000e+000
    endloop
  endfacet
  facet normal  0.000000e+000  -0.000000e+000 -1.000000e+000
    outer loop
      vertex  0.000000e+000  1.313572e+000  0.000000e+000
      vertex  2.844975e+001  7.374878e+000  0.000000e+000
      vertex  2.888848e+001  7.316061e+000  0.000000e+000
    endloop
  endfacet
  facet normal  0.000000e+000  -0.000000e+000 -1.000000e+000
    outer loop
      vertex  0.000000e+000  1.313572e+000  0.000000e+000
      vertex  2.888848e+001  7.316061e+000  0.000000e+000
      vertex  3.550000e+001  5.813572e+000  0.000000e+000
    endloop
  endfacet
  facet normal  0.000000e+000  -0.000000e+000 -1.000000e+000
    outer loop
      vertex  0.000000e+000  1.313572e+000  0.000000e+000
      vertex  3.550000e+001  5.813572e+000  0.000000e+000
      vertex  4.400000e+001  5.813572e+000  0.000000e+000
    endloop
  endfacet
  facet normal  0.000000e+000  0.000000e+000 -1.000000e+000
    outer loop
      vertex  3.550000e+001  5.813572e+000  0.000000e+000
      vertex  2.888848e+001  7.316061e+000  0.000000e+000
      vertex  2.933071e+001  7.335543e+000  0.000000e+000
    endloop
  endfacet
  facet normal  0.000000e+000  0.000000e+000 -1.000000e+000
    outer loop
      vertex  3.550000e+001  5.813572e+000  0.000000e+000
      vertex  2.933071e+001  7.335543e+000  0.000000e+000
      vertex  2.976257e+001  7.432713e+000  0.000000e+000
    endloop
  endfacet
  facet normal  0.000000e+000  0.000000e+000 -1.000000e+000
    outer loop
      vertex  3.550000e+001  5.813572e+000  0.000000e+000
      vertex  2.976257e+001  7.432713e+000  0.000000e+000
      vertex  3.017052e+001  7.604525e+000  0.000000e+000
    endloop
  endfacet
  facet normal  0.000000e+000  0.000000e+000 -9.999999e-001
    outer loop
      vertex  3.550000e+001  5.813572e+000  0.000000e+000
      vertex  3.017052e+001  7.604525e+000  0.000000e+000
      vertex  3.054177e+001  7.845592e+000  0.000000e+000
    endloop
  endfacet
  facet normal  0.000000e+000  0.000000e+000 -1.000000e+000
    outer loop
      vertex  3.550000e+001  5.813572e+000  0.000000e+000
      vertex  3.054177e+001  7.845592e+000  0.000000e+000
      vertex  3.086469e+001  8.148357e+000  0.000000e+000
    endloop
  endfacet
  facet normal  0.000000e+000  0.000000e+000 -1.000000e+000
    outer loop
      vertex  3.550000e+001  5.813572e+000  0.000000e+000
      vertex  3.086469e+001  8.148357e+000  0.000000e+000
      vertex  3.112915e+001  8.503328e+000  0.000000e+000
    endloop
  endfacet
  facet normal  0.000000e+000  0.000000e+000 -1.000000e+000
    outer loop
      vertex  4.400000e+001  5.813572e+000  0.000000e+000
      vertex  4.400000e+001  9.313572e+000  0.000000e+000
      vertex  5.150000e+001  5.313572e+000  0.000000e+000
    endloop
  endfacet
  facet normal  0.000000e+000  0.000000e+000 -1.000000e+000
    outer loop
      vertex  5.150000e+001  5.313572e+000  0.000000e+000
      vertex  4.400000e+001  9.313572e+000  0.000000e+000
      vertex  4.750000e+001  9.313572e+000  0.000000e+000
    endloop
  endfacet
  facet normal  0.000000e+000  0.000000e+000 -1.000000e+000
    outer loop
      vertex  7.500000e+001  9.563572e+000  0.000000e+000
      vertex  7.500000e+001  1.313572e+000  0.000000e+000
      vertex  6.275000e+001  9.563572e+000  0.000000e+000
    endloop
  endfacet
  facet normal  0.000000e+000  0.000000e+000 -1.000000e+000
    outer loop
      vertex  6.275000e+001  9.563572e+000  0.000000e+000
      vertex  7.500000e+001  1.313572e+000  0.000000e+000
      vertex  6.275000e+001  5.313572e+000  0.000000e+000
    endloop
  endfacet
  facet normal  0.000000e+000  0.000000e+000 -1.000000e+000
    outer loop
      vertex  7.500000e+001  1.313572e+000  0.000000e+000
      vertex  5.000000e+001  1.313572e+000  0.000000e+000
      vertex  6.275000e+001  5.313572e+000  0.000000e+000
    endloop
  endfacet
  facet normal  0.000000e+000  0.000000e+000 -1.000000e+000
    outer loop
      vertex  6.275000e+001  5.313572e+000  0.000000e+000
      vertex  5.000000e+001  1.313572e+000  0.000000e+000
      vertex  5.000000e+001  3.313572e+000  0.000000e+000
    endloop
  endfacet
  facet normal  5.240974e-001  8.516583e-001  0.000000e+000
    outer loop
      vertex  3.550000e+001  5.813572e+000  0.000000e+000
      vertex  3.112915e+001  8.503328e+000  0.000000e+000
      vertex  3.550000e+001  5.813572e+000  1.000000e+001
    endloop
  endfacet
  facet normal  5.240974e-001  8.516583e-001  0.000000e+000
    outer loop
      vertex  3.550000e+001  5.813572e+000  1.000000e+001
      vertex  3.112915e+001  8.503328e+000  0.000000e+000
      vertex  3.112915e+001  8.503328e+000  1.000000e+001
    endloop
  endfacet
  facet normal  0.000000e+000 -9.999999e-001  0.000000e+000
    outer loop
      vertex  0.000000e+000  1.313572e+000  1.000000e+001
      vertex  0.000000e+000  1.313572e+000  0.000000e+000
      vertex  4.600000e+001  1.313572e+000  1.000000e+001
    endloop
  endfacet
  facet normal  0.000000e+000 -9.999999e-001  -0.000000e+000
    outer loop
      vertex  4.600000e+001  1.313572e+000  1.000000e+001
      vertex  0.000000e+000  1.313572e+000  0.000000e+000
      vertex  4.600000e+001  1.313572e+000  0.000000e+000
    endloop
  endfacet
  facet normal  1.000000e+000  0.000000e+000  0.000000e+000
    outer loop
      vertex  4.600000e+001  1.313572e+000  0.000000e+000
      vertex  4.600000e+001  3.313572e+000  0.000000e+000
      vertex  4.600000e+001  1.313572e+000  1.000000e+001
    endloop
  endfacet
  facet normal  1.000000e+000  -0.000000e+000  0.000000e+000
    outer loop
      vertex  4.600000e+001  1.313572e+000  1.000000e+001
      vertex  4.600000e+001  3.313572e+000  0.000000e+000
      vertex  4.600000e+001  3.313572e+000  1.000000e+001
    endloop
  endfacet
  facet normal  0.000000e+000 -1.000000e+000  0.000000e+000
    outer loop
      vertex  4.600000e+001  3.313572e+000  0.000000e+000
      vertex  5.000000e+001  3.313572e+000  0.000000e+000
      vertex  4.600000e+001  3.313572e+000  1.000000e+001
    endloop
  endfacet
  facet normal  0.000000e+000 -1.000000e+000  0.000000e+000
    outer loop
      vertex  4.600000e+001  3.313572e+000  1.000000e+001
      vertex  5.000000e+001  3.313572e+000  0.000000e+000
      vertex  5.000000e+001  3.313572e+000  1.000000e+001
    endloop
  endfacet
  facet normal -1.000000e+000  0.000000e+000  0.000000e+000
    outer loop
      vertex  5.000000e+001  3.313572e+000  0.000000e+000
      vertex  5.000000e+001  1.313572e+000  0.000000e+000
      vertex  5.000000e+001  3.313572e+000  1.000000e+001
    endloop
  endfacet
  facet normal -1.000000e+000  -0.000000e+000  0.000000e+000
    outer loop
      vertex  5.000000e+001  3.313572e+000  1.000000e+001
      vertex  5.000000e+001  1.313572e+000  0.000000e+000
      vertex  5.000000e+001  1.313572e+000  1.000000e+001
    endloop
  endfacet
  facet normal  0.000000e+000 -1.000000e+000  0.000000e+000
    outer loop
      vertex  5.000000e+001  1.313572e+000  1.000000e+001
      vertex  5.000000e+001  1.313572e+000  0.000000e+000
      vertex  7.500000e+001  1.313572e+000  1.000000e+001
    endloop
  endfacet
  facet normal  0.000000e+000 -1.000000e+000  -0.000000e+000
    outer loop
      vertex  7.500000e+001  1.313572e+000  1.000000e+001
      vertex  5.000000e+001  1.313572e+000  0.000000e+000
      vertex  7.500000e+001  1.313572e+000  0.000000e+000
    endloop
  endfacet
  facet normal  9.999999e-001  0.000000e+000  0.000000e+000
    outer loop
      vertex  7.500000e+001  1.313572e+000  0.000000e+000
      vertex  7.500000e+001  9.563572e+000  0.000000e+000
      vertex  7.500000e+001  1.313572e+000  1.000000e+001
    endloop
  endfacet
  facet normal  9.999999e-001  -0.000000e+000  0.000000e+000
    outer loop
      vertex  7.500000e+001  1.313572e+000  1.000000e+001
      vertex  7.500000e+001  9.563572e+000  0.000000e+000
      vertex  7.500000e+001  9.563572e+000  1.000000e+001
    endloop
  endfacet
  facet normal  0.000000e+000  9.999999e-001  -0.000000e+000
    outer loop
      vertex  7.500000e+001  9.563572e+000  1.000000e+001
      vertex  7.500000e+001  9.563572e+000  0.000000e+000
      vertex  6.275000e+001  9.563572e+000  1.000000e+001
    endloop
  endfacet
  facet normal  0.000000e+000  9.999999e-001  0.000000e+000
    outer loop
      vertex  6.275000e+001  9.563572e+000  1.000000e+001
      vertex  7.500000e+001  9.563572e+000  0.000000e+000
      vertex  6.275000e+001  9.563572e+000  0.000000e+000
    endloop
  endfacet
  facet normal -1.000000e+000  0.000000e+000  0.000000e+000
    outer loop
      vertex  6.275000e+001  9.563572e+000  0.000000e+000
      vertex  6.275000e+001  5.313572e+000  0.000000e+000
      vertex  6.275000e+001  9.563572e+000  1.000000e+001
    endloop
  endfacet
  facet normal -1.000000e+000  -0.000000e+000  0.000000e+000
    outer loop
      vertex  6.275000e+001  9.563572e+000  1.000000e+001
      vertex  6.275000e+001  5.313572e+000  0.000000e+000
      vertex  6.275000e+001  5.313572e+000  1.000000e+001
    endloop
  endfacet
  facet normal  0.000000e+000  1.000000e+000  -0.000000e+000
    outer loop
      vertex  6.275000e+001  5.313572e+000  1.000000e+001
      vertex  6.275000e+001  5.313572e+000  0.000000e+000
      vertex  5.150000e+001  5.313572e+000  1.000000e+001
    endloop
  endfacet
  facet normal  0.000000e+000  1.000000e+000  0.000000e+000
    outer loop
      vertex  5.150000e+001  5.313572e+000  1.000000e+001
      vertex  6.275000e+001  5.313572e+000  0.000000e+000
      vertex  5.150000e+001  5.313572e+000  0.000000e+000
    endloop
  endfacet
  facet normal -1.000000e+000  0.000000e+000  0.000000e+000
    outer loop
      vertex  4.400000e+001  9.313572e+000  0.000000e+000
      vertex  4.400000e+001  5.813572e+000  0.000000e+000
      vertex  4.400000e+001  9.313572e+000  1.000000e+001
    endloop
  endfacet
  facet normal -1.000000e+000  -0.000000e+000  0.000000e+000
    outer loop
      vertex  4.400000e+001  9.313572e+000  1.000000e+001
      vertex  4.400000e+001  5.813572e+000  0.000000e+000
      vertex  4.400000e+001  5.813572e+000  1.000000e+001
    endloop
  endfacet
  facet normal  0.000000e+000  1.000000e+000  0.000000e+000
    outer loop
      vertex  4.400000e+001  5.813572e+000  0.000000e+000
      vertex  3.550000e+001  5.813572e+000  0.000000e+000
      vertex  4.400000e+001  5.813572e+000  1.000000e+001
    endloop
  endfacet
  facet normal  0.000000e+000  1.000000e+000  0.000000e+000
    outer loop
      vertex  4.400000e+001  5.813572e+000  1.000000e+001
      vertex  3.550000e+001  5.813572e+000  0.000000e+000
      vertex  3.550000e+001  5.813572e+000  1.000000e+001
    endloop
  endfacet
  facet normal -2.812704e-001  9.596286e-001  0.000000e+000
    outer loop
      vertex  2.660093e+001  9.110396e+000  1.000000e+001
      vertex  2.660093e+001  9.110396e+000  0.000000e+000
      vertex  0.000000e+000  1.313572e+000  1.000000e+001
    endloop
  endfacet
  facet normal -2.812704e-001  9.596286e-001  0.000000e+000
    outer loop
      vertex  0.000000e+000  1.313572e+000  1.000000e+001
      vertex  2.660093e+001  9.110396e+000  0.000000e+000
      vertex  0.000000e+000  1.313572e+000  0.000000e+000
    endloop
  endfacet
  facet normal  3.055942e-001  9.521618e-001  -0.000000e+000
    outer loop
      vertex  2.844975e+001  7.374878e+000  1.000000e+001
      vertex  2.802827e+001  7.510151e+000  0.000000e+000
      vertex  2.802827e+001  7.510151e+000  1.000000e+001
    endloop
  endfacet
  facet normal  4.687330e-001  8.833399e-001  0.000000e+000
    outer loop
      vertex  2.802827e+001  7.510151e+000  1.000000e+001
      vertex  2.802827e+001  7.510151e+000  0.000000e+000
      vertex  2.763726e+001  7.717638e+000  0.000000e+000
    endloop
  endfacet
  facet normal  4.687330e-001  8.833399e-001  -0.000000e+000
    outer loop
      vertex  2.802827e+001  7.510151e+000  1.000000e+001
      vertex  2.763726e+001  7.717638e+000  0.000000e+000
      vertex  2.763726e+001  7.717638e+000  1.000000e+001
    endloop
  endfacet
  facet normal  6.171770e-001  7.868244e-001  0.000000e+000
    outer loop
      vertex  2.763726e+001  7.717638e+000  1.000000e+001
      vertex  2.763726e+001  7.717638e+000  0.000000e+000
      vertex  2.728897e+001  7.990834e+000  0.000000e+000
    endloop
  endfacet
  facet normal  6.171770e-001  7.868244e-001  -0.000000e+000
    outer loop
      vertex  2.763726e+001  7.717638e+000  1.000000e+001
      vertex  2.728897e+001  7.990834e+000  0.000000e+000
      vertex  2.728897e+001  7.990834e+000  1.000000e+001
    endloop
  endfacet
  facet normal  7.462743e-001  6.656386e-001  0.000000e+000
    outer loop
      vertex  2.728897e+001  7.990834e+000  1.000000e+001
      vertex  2.728897e+001  7.990834e+000  0.000000e+000
      vertex  2.699432e+001  8.321175e+000  0.000000e+000
    endloop
  endfacet
  facet normal  7.462743e-001  6.656386e-001  -0.000000e+000
    outer loop
      vertex  2.728897e+001  7.990834e+000  1.000000e+001
      vertex  2.699432e+001  8.321175e+000  0.000000e+000
      vertex  2.699432e+001  8.321175e+000  1.000000e+001
    endloop
  endfacet
  facet normal  8.519704e-001  5.235901e-001  0.000000e+000
    outer loop
      vertex  2.699432e+001  8.321175e+000  1.000000e+001
      vertex  2.699432e+001  8.321175e+000  0.000000e+000
      vertex  2.676255e+001  8.698303e+000  0.000000e+000
    endloop
  endfacet
  facet normal  8.519704e-001  5.235901e-001  -0.000000e+000
    outer loop
      vertex  2.699432e+001  8.321175e+000  1.000000e+001
      vertex  2.676255e+001  8.698303e+000  0.000000e+000
      vertex  2.676255e+001  8.698303e+000  1.000000e+001
    endloop
  endfacet
  facet normal  9.309595e-001  3.651225e-001  0.000000e+000
    outer loop
      vertex  2.676255e+001  8.698303e+000  1.000000e+001
      vertex  2.676255e+001  8.698303e+000  0.000000e+000
      vertex  2.660093e+001  9.110396e+000  0.000000e+000
    endloop
  endfacet
  facet normal  9.309595e-001  3.651225e-001  -0.000000e+000
    outer loop
      vertex  2.676255e+001  8.698303e+000  1.000000e+001
      vertex  2.660093e+001  9.110396e+000  0.000000e+000
      vertex  2.660093e+001  9.110396e+000  1.000000e+001
    endloop
  endfacet
  facet normal  3.055942e-001  9.521618e-001  0.000000e+000
    outer loop
      vertex  2.802827e+001  7.510151e+000  0.000000e+000
      vertex  2.844975e+001  7.374878e+000  1.000000e+001
      vertex  2.844975e+001  7.374878e+000  0.000000e+000
    endloop
  endfacet
  facet normal  1.328740e-001  9.911330e-001  -0.000000e+000
    outer loop
      vertex  2.844975e+001  7.374878e+000  0.000000e+000
      vertex  2.844975e+001  7.374878e+000  1.000000e+001
      vertex  2.888848e+001  7.316061e+000  1.000000e+001
    endloop
  endfacet
  facet normal  1.328740e-001  9.911330e-001  0.000000e+000
    outer loop
      vertex  2.844975e+001  7.374878e+000  0.000000e+000
      vertex  2.888848e+001  7.316061e+000  1.000000e+001
      vertex  2.888848e+001  7.316061e+000  0.000000e+000
    endloop
  endfacet
  facet normal -4.401109e-002  9.990311e-001  0.000000e+000
    outer loop
      vertex  2.888848e+001  7.316061e+000  0.000000e+000
      vertex  2.888848e+001  7.316061e+000  1.000000e+001
      vertex  2.933071e+001  7.335543e+000  1.000000e+001
    endloop
  endfacet
  facet normal -4.401109e-002  9.990311e-001  0.000000e+000
    outer loop
      vertex  2.888848e+001  7.316061e+000  0.000000e+000
      vertex  2.933071e+001  7.335543e+000  1.000000e+001
      vertex  2.933071e+001  7.335543e+000  0.000000e+000
    endloop
  endfacet
  facet normal -2.195161e-001  9.756089e-001  0.000000e+000
    outer loop
      vertex  2.933071e+001  7.335543e+000  0.000000e+000
      vertex  2.933071e+001  7.335543e+000  1.000000e+001
      vertex  2.976257e+001  7.432713e+000  1.000000e+001
    endloop
  endfacet
  facet normal -2.195161e-001  9.756089e-001  0.000000e+000
    outer loop
      vertex  2.933071e+001  7.335543e+000  0.000000e+000
      vertex  2.976257e+001  7.432713e+000  1.000000e+001
      vertex  2.976257e+001  7.432713e+000  0.000000e+000
    endloop
  endfacet
  facet normal -3.881412e-001  9.215999e-001  0.000000e+000
    outer loop
      vertex  2.976257e+001  7.432713e+000  0.000000e+000
      vertex  2.976257e+001  7.432713e+000  1.000000e+001
      vertex  3.017052e+001  7.604525e+000  1.000000e+001
    endloop
  endfacet
  facet normal -3.881412e-001  9.215999e-001  0.000000e+000
    outer loop
      vertex  2.976257e+001  7.432713e+000  0.000000e+000
      vertex  3.017052e+001  7.604525e+000  1.000000e+001
      vertex  3.017052e+001  7.604525e+000  0.000000e+000
    endloop
  endfacet
  facet normal -5.445949e-001  8.386992e-001  0.000000e+000
    outer loop
      vertex  3.017052e+001  7.604525e+000  0.000000e+000
      vertex  3.017052e+001  7.604525e+000  1.000000e+001
      vertex  3.054177e+001  7.845592e+000  1.000000e+001
    endloop
  endfacet
  facet normal -5.445949e-001  8.386992e-001  0.000000e+000
    outer loop
      vertex  3.017052e+001  7.604525e+000  0.000000e+000
      vertex  3.054177e+001  7.845592e+000  1.000000e+001
      vertex  3.054177e+001  7.845592e+000  0.000000e+000
    endloop
  endfacet
  facet normal -6.839770e-001  7.295036e-001  0.000000e+000
    outer loop
      vertex  3.054177e+001  7.845592e+000  0.000000e+000
      vertex  3.054177e+001  7.845592e+000  1.000000e+001
      vertex  3.086469e+001  8.148357e+000  1.000000e+001
    endloop
  endfacet
  facet normal -6.839770e-001  7.295036e-001  0.000000e+000
    outer loop
      vertex  3.054177e+001  7.845592e+000  0.000000e+000
      vertex  3.086469e+001  8.148357e+000  1.000000e+001
      vertex  3.086469e+001  8.148357e+000  0.000000e+000
    endloop
  endfacet
  facet normal -8.019137e-001  5.974399e-001  0.000000e+000
    outer loop
      vertex  3.086469e+001  8.148357e+000  0.000000e+000
      vertex  3.086469e+001  8.148357e+000  1.000000e+001
      vertex  3.112915e+001  8.503328e+000  1.000000e+001
    endloop
  endfacet
  facet normal -8.019137e-001  5.974399e-001  0.000000e+000
    outer loop
      vertex  3.086469e+001  8.148357e+000  0.000000e+000
      vertex  3.112915e+001  8.503328e+000  1.000000e+001
      vertex  3.112915e+001  8.503328e+000  0.000000e+000
    endloop
  endfacet
  facet normal  0.000000e+000  0.000000e+000  1.000000e+000
    outer loop
      vertex  4.000000e+001  8.333635e+000  1.000000e+001
      vertex  3.969403e+001  8.368110e+000  1.000000e+001
      vertex  3.818064e+001  8.182015e+000  1.000000e+001
    endloop
  endfacet
  facet normal  -0.000000e+000  0.000000e+000  1.000000e+000
    outer loop
      vertex  4.400000e+001  8.333635e+000  1.000000e+001
      vertex  4.000000e+001  8.333635e+000  1.000000e+001
      vertex  3.818064e+001  8.182015e+000  1.000000e+001
    endloop
  endfacet
  facet normal  -0.000000e+000  0.000000e+000  9.999999e-001
    outer loop
      vertex  4.400000e+001  8.333635e+000  1.000000e+001
      vertex  3.818064e+001  8.182015e+000  1.000000e+001
      vertex  3.847338e+001  7.889280e+000  1.000000e+001
    endloop
  endfacet
  facet normal  -0.000000e+000  0.000000e+000  1.000000e+000
    outer loop
      vertex  4.400000e+001  8.333635e+000  1.000000e+001
      vertex  3.847338e+001  7.889280e+000  1.000000e+001
      vertex  3.881250e+001  7.651825e+000  1.000000e+001
    endloop
  endfacet
  facet normal  -0.000000e+000  0.000000e+000  1.000000e+000
    outer loop
      vertex  4.400000e+001  8.333635e+000  1.000000e+001
      vertex  3.881250e+001  7.651825e+000  1.000000e+001
      vertex  3.918770e+001  7.476866e+000  1.000000e+001
    endloop
  endfacet
  facet normal  -0.000000e+000  0.000000e+000  1.000000e+000
    outer loop
      vertex  4.400000e+001  8.333635e+000  1.000000e+001
      vertex  3.918770e+001  7.476866e+000  1.000000e+001
      vertex  3.958759e+001  7.369717e+000  1.000000e+001
    endloop
  endfacet
  facet normal  -0.000000e+000  0.000000e+000  1.000000e+000
    outer loop
      vertex  4.400000e+001  8.333635e+000  1.000000e+001
      vertex  3.958759e+001  7.369717e+000  1.000000e+001
      vertex  4.000000e+001  7.333635e+000  1.000000e+001
    endloop
  endfacet
  facet normal  0.000000e+000  0.000000e+000  1.000000e+000
    outer loop
      vertex  4.400000e+001  8.333635e+000  1.000000e+001
      vertex  4.000000e+001  7.333635e+000  1.000000e+001
      vertex  4.400000e+001  7.333635e+000  1.000000e+001
    endloop
  endfacet
  facet normal  0.000000e+000  0.000000e+000  1.000000e+000
    outer loop
      vertex  3.818064e+001  1.123526e+001  1.000000e+001
      vertex  3.794319e+001  1.089614e+001  1.000000e+001
      vertex  3.940341e+001  1.094747e+001  1.000000e+001
    endloop
  endfacet
  facet normal  0.000000e+000  -0.000000e+000  1.000000e+000
    outer loop
      vertex  3.818064e+001  1.123526e+001  1.000000e+001
      vertex  3.940341e+001  1.094747e+001  1.000000e+001
      vertex  3.969403e+001  1.104916e+001  1.000000e+001
    endloop
  endfacet
  facet normal  0.000000e+000  -0.000000e+000  9.999999e-001
    outer loop
      vertex  3.818064e+001  1.123526e+001  1.000000e+001
      vertex  3.969403e+001  1.104916e+001  1.000000e+001
      vertex  4.000000e+001  1.108364e+001  1.000000e+001
    endloop
  endfacet
  facet normal  0.000000e+000  -0.000000e+000  1.000000e+000
    outer loop
      vertex  3.818064e+001  1.123526e+001  1.000000e+001
      vertex  4.000000e+001  1.108364e+001  1.000000e+001
      vertex  4.400000e+001  1.108364e+001  1.000000e+001
    endloop
  endfacet
  facet normal  -0.000000e+000  0.000000e+000  1.000000e+000
    outer loop
      vertex  4.400000e+001  1.208364e+001  1.000000e+001
      vertex  4.000000e+001  1.208364e+001  1.000000e+001
      vertex  3.958759e+001  1.204755e+001  1.000000e+001
    endloop
  endfacet
  facet normal  -0.000000e+000  0.000000e+000  1.000000e+000
    outer loop
      vertex  4.400000e+001  1.208364e+001  1.000000e+001
      vertex  3.958759e+001  1.204755e+001  1.000000e+001
      vertex  3.918770e+001  1.194041e+001  1.000000e+001
    endloop
  endfacet
  facet normal  -0.000000e+000  0.000000e+000  1.000000e+000
    outer loop
      vertex  4.400000e+001  1.208364e+001  1.000000e+001
      vertex  3.918770e+001  1.194041e+001  1.000000e+001
      vertex  3.881250e+001  1.176545e+001  1.000000e+001
    endloop
  endfacet
  facet normal  -0.000000e+000  0.000000e+000  1.000000e+000
    outer loop
      vertex  4.400000e+001  1.208364e+001  1.000000e+001
      vertex  3.881250e+001  1.176545e+001  1.000000e+001
      vertex  3.847338e+001  1.152799e+001  1.000000e+001
    endloop
  endfacet
  facet normal  -0.000000e+000  0.000000e+000  1.000000e+000
    outer loop
      vertex  4.400000e+001  1.208364e+001  1.000000e+001
      vertex  3.847338e+001  1.152799e+001  1.000000e+001
      vertex  3.818064e+001  1.123526e+001  1.000000e+001
    endloop
  endfacet
  facet normal  -0.000000e+000  0.000000e+000  1.000000e+000
    outer loop
      vertex  4.400000e+001  1.208364e+001  1.000000e+001
      vertex  3.818064e+001  1.123526e+001  1.000000e+001
      vertex  4.400000e+001  1.108364e+001  1.000000e+001
    endloop
  endfacet
  facet normal  0.000000e+000  0.000000e+000  1.000000e+000
    outer loop
      vertex  3.818064e+001  8.182015e+000  1.000000e+001
      vertex  3.969403e+001  8.368110e+000  1.000000e+001
      vertex  3.794319e+001  8.521135e+000  1.000000e+001
    endloop
  endfacet
  facet normal  0.000000e+000  0.000000e+000  1.000000e+000
    outer loop
      vertex  3.794319e+001  8.521135e+000  1.000000e+001
      vertex  3.969403e+001  8.368110e+000  1.000000e+001
      vertex  3.940341e+001  8.469803e+000  1.000000e+001
    endloop
  endfacet
  facet normal  0.000000e+000  0.000000e+000  1.000000e+000
    outer loop
      vertex  3.794319e+001  8.521135e+000  1.000000e+001
      vertex  3.940341e+001  8.469803e+000  1.000000e+001
      vertex  3.776823e+001  8.896338e+000  1.000000e+001
    endloop
  endfacet
  facet normal  0.000000e+000  0.000000e+000  1.000000e+000
    outer loop
      vertex  3.776823e+001  8.896338e+000  1.000000e+001
      vertex  3.940341e+001  8.469803e+000  1.000000e+001
      vertex  3.914270e+001  8.633617e+000  1.000000e+001
    endloop
  endfacet
  facet normal  0.000000e+000  0.000000e+000  1.000000e+000
    outer loop
      vertex  3.776823e+001  8.896338e+000  1.000000e+001
      vertex  3.914270e+001  8.633617e+000  1.000000e+001
      vertex  3.892498e+001  8.851337e+000  1.000000e+001
    endloop
  endfacet
  facet normal  0.000000e+000  0.000000e+000  1.000000e+000
    outer loop
      vertex  3.776823e+001  8.896338e+000  1.000000e+001
      vertex  3.892498e+001  8.851337e+000  1.000000e+001
      vertex  3.766108e+001  9.296221e+000  1.000000e+001
    endloop
  endfacet
  facet normal  0.000000e+000  0.000000e+000  1.000000e+000
    outer loop
      vertex  3.766108e+001  9.296221e+000  1.000000e+001
      vertex  3.892498e+001  8.851337e+000  1.000000e+001
      vertex  3.876117e+001  9.112045e+000  1.000000e+001
    endloop
  endfacet
  facet normal  0.000000e+000  0.000000e+000  1.000000e+000
    outer loop
      vertex  3.766108e+001  9.296221e+000  1.000000e+001
      vertex  3.876117e+001  9.112045e+000  1.000000e+001
      vertex  3.865947e+001  9.402669e+000  1.000000e+001
    endloop
  endfacet
  facet normal  0.000000e+000  0.000000e+000  1.000000e+000
    outer loop
      vertex  3.766108e+001  9.296221e+000  1.000000e+001
      vertex  3.865947e+001  9.402669e+000  1.000000e+001
      vertex  3.762500e+001  9.708635e+000  1.000000e+001
    endloop
  endfacet
  facet normal  -0.000000e+000  0.000000e+000  1.000000e+000
    outer loop
      vertex  3.762500e+001  9.708635e+000  1.000000e+001
      vertex  3.865947e+001  9.402669e+000  1.000000e+001
      vertex  3.862500e+001  9.708635e+000  1.000000e+001
    endloop
  endfacet
  facet normal  0.000000e+000  0.000000e+000  9.999999e-001
    outer loop
      vertex  3.762500e+001  9.708635e+000  1.000000e+001
      vertex  3.862500e+001  9.708635e+000  1.000000e+001
      vertex  3.766108e+001  1.012105e+001  1.000000e+001
    endloop
  endfacet
  facet normal  0.000000e+000  0.000000e+000  1.000000e+000
    outer loop
      vertex  3.766108e+001  1.012105e+001  1.000000e+001
      vertex  3.862500e+001  9.708635e+000  1.000000e+001
      vertex  3.865947e+001  1.001460e+001  1.000000e+001
    endloop
  endfacet
  facet normal  0.000000e+000  0.000000e+000  1.000000e+000
    outer loop
      vertex  3.766108e+001  1.012105e+001  1.000000e+001
      vertex  3.865947e+001  1.001460e+001  1.000000e+001
      vertex  3.776823e+001  1.052093e+001  1.000000e+001
    endloop
  endfacet
  facet normal  0.000000e+000  0.000000e+000  1.000000e+000
    outer loop
      vertex  3.776823e+001  1.052093e+001  1.000000e+001
      vertex  3.865947e+001  1.001460e+001  1.000000e+001
      vertex  3.876117e+001  1.030523e+001  1.000000e+001
    endloop
  endfacet
  facet normal  0.000000e+000  -0.000000e+000  1.000000e+000
    outer loop
      vertex  3.776823e+001  1.052093e+001  1.000000e+001
      vertex  3.876117e+001  1.030523e+001  1.000000e+001
      vertex  3.892498e+001  1.056593e+001  1.000000e+001
    endloop
  endfacet
  facet normal  0.000000e+000  0.000000e+000  1.000000e+000
    outer loop
      vertex  3.776823e+001  1.052093e+001  1.000000e+001
      vertex  3.892498e+001  1.056593e+001  1.000000e+001
      vertex  3.794319e+001  1.089614e+001  1.000000e+001
    endloop
  endfacet
  facet normal  0.000000e+000  0.000000e+000  1.000000e+000
    outer loop
      vertex  3.794319e+001  1.089614e+001  1.000000e+001
      vertex  3.892498e+001  1.056593e+001  1.000000e+001
      vertex  3.914270e+001  1.078365e+001  1.000000e+001
    endloop
  endfacet
  facet normal  0.000000e+000  -0.000000e+000  1.000000e+000
    outer loop
      vertex  3.794319e+001  1.089614e+001  1.000000e+001
      vertex  3.914270e+001  1.078365e+001  1.000000e+001
      vertex  3.940341e+001  1.094747e+001  1.000000e+001
    endloop
  endfacet
  facet normal -3.139184e-016  3.051207e-015 -1.000000e+000
    outer loop
      vertex  3.818064e+001  8.182015e+000  1.603816e-015
      vertex  3.969403e+001  8.368110e+000  1.696547e-015
      vertex  4.000000e+001  8.333635e+000  1.495311e-015
    endloop
  endfacet
  facet normal  1.359779e-018  4.686591e-017 -1.000000e+000
    outer loop
      vertex  4.400000e+001  8.333635e+000  1.717355e-015
      vertex  4.400000e+001  7.333635e+000  1.670489e-015
      vertex  4.000000e+001  7.333635e+000  1.665050e-015
    endloop
  endfacet
  facet normal  4.147321e-017 -1.135878e-016 -1.000000e+000
    outer loop
      vertex  4.400000e+001  8.333635e+000  1.717355e-015
      vertex  4.000000e+001  7.333635e+000  1.665050e-015
      vertex  3.958759e+001  7.369717e+000  1.643848e-015
    endloop
  endfacet
  facet normal  2.846857e-017 -5.405800e-017 -1.000000e+000
    outer loop
      vertex  4.400000e+001  8.333635e+000  1.717355e-015
      vertex  3.958759e+001  7.369717e+000  1.643848e-015
      vertex  3.918770e+001  7.476866e+000  1.626671e-015
    endloop
  endfacet
  facet normal  2.293721e-017 -2.298947e-017 -1.000000e+000
    outer loop
      vertex  4.400000e+001  8.333635e+000  1.717355e-015
      vertex  3.918770e+001  7.476866e+000  1.626671e-015
      vertex  3.881250e+001  7.651825e+000  1.614043e-015
    endloop
  endfacet
  facet normal  2.035495e-017 -3.342573e-018 -1.000000e+000
    outer loop
      vertex  4.400000e+001  8.333635e+000  1.717355e-015
      vertex  3.881250e+001  7.651825e+000  1.614043e-015
      vertex  3.847338e+001  7.889280e+000  1.606347e-015
    endloop
  endfacet
  facet normal  1.923475e-017  1.058970e-017 -9.999999e-001
    outer loop
      vertex  4.400000e+001  8.333635e+000  1.717355e-015
      vertex  3.847338e+001  7.889280e+000  1.606347e-015
      vertex  3.818064e+001  8.182015e+000  1.603816e-015
    endloop
  endfacet
  facet normal  5.551115e-017 -1.381742e-015 -1.000000e+000
    outer loop
      vertex  4.400000e+001  8.333635e+000  1.717355e-015
      vertex  3.818064e+001  8.182015e+000  1.603816e-015
      vertex  4.000000e+001  8.333635e+000  1.495311e-015
    endloop
  endfacet
  facet normal  1.359806e-018 -6.029161e-016 -1.000000e+000
    outer loop
      vertex  3.818064e+001  1.123526e+001  1.746909e-015
      vertex  4.400000e+001  1.108364e+001  1.846237e-015
      vertex  4.000000e+001  1.108364e+001  1.840797e-015
    endloop
  endfacet
  facet normal  5.551120e-017  4.686666e-017 -9.999999e-001
    outer loop
      vertex  3.818064e+001  1.123526e+001  1.746909e-015
      vertex  4.000000e+001  1.108364e+001  1.840797e-015
      vertex  3.969403e+001  1.104916e+001  1.822197e-015
    endloop
  endfacet
  facet normal  5.551102e-017  4.686518e-017 -1.000000e+000
    outer loop
      vertex  3.818064e+001  1.123526e+001  1.746909e-015
      vertex  3.969403e+001  1.104916e+001  1.822197e-015
      vertex  3.940341e+001  1.094747e+001  1.801298e-015
    endloop
  endfacet
  facet normal  5.551124e-017  4.686613e-017 -1.000000e+000
    outer loop
      vertex  3.818064e+001  1.123526e+001  1.746909e-015
      vertex  3.940341e+001  1.094747e+001  1.801298e-015
      vertex  3.794319e+001  1.089614e+001  1.717834e-015
    endloop
  endfacet
  facet normal  1.828961e-017  4.686591e-017 -1.000000e+000
    outer loop
      vertex  4.400000e+001  1.208364e+001  1.893103e-015
      vertex  4.400000e+001  1.108364e+001  1.846237e-015
      vertex  3.818064e+001  1.123526e+001  1.746909e-015
    endloop
  endfacet
  facet normal  1.193711e-017  9.044006e-017 -1.000000e+000
    outer loop
      vertex  4.400000e+001  1.208364e+001  1.893103e-015
      vertex  3.818064e+001  1.123526e+001  1.746909e-015
      vertex  3.847338e+001  1.152799e+001  1.776878e-015
    endloop
  endfacet
  facet normal  9.746989e-018  1.122238e-016 -1.000000e+000
    outer loop
      vertex  4.400000e+001  1.208364e+001  1.893103e-015
      vertex  3.847338e+001  1.152799e+001  1.776878e-015
      vertex  3.881250e+001  1.176545e+001  1.806832e-015
    endloop
  endfacet
  facet normal  7.431543e-018  1.499729e-016 -1.000000e+000
    outer loop
      vertex  4.400000e+001  1.208364e+001  1.893103e-015
      vertex  3.881250e+001  1.176545e+001  1.806832e-015
      vertex  3.918770e+001  1.194041e+001  1.835859e-015
    endloop
  endfacet
  facet normal  4.875855e-018  2.358402e-016 -1.000000e+000
    outer loop
      vertex  4.400000e+001  1.208364e+001  1.893103e-015
      vertex  3.918770e+001  1.194041e+001  1.835859e-015
      vertex  3.958759e+001  1.204755e+001  1.863079e-015
    endloop
  endfacet
  facet normal  5.551118e-017 -5.956397e-015 -1.000000e+000
    outer loop
      vertex  4.400000e+001  1.208364e+001  1.893103e-015
      vertex  3.958759e+001  1.204755e+001  1.863079e-015
      vertex  4.000000e+001  1.208364e+001  1.671058e-015
    endloop
  endfacet
  facet normal  5.551122e-017  4.686611e-017 -1.000000e+000
    outer loop
      vertex  3.892498e+001  8.851337e+000  1.676503e-015
      vertex  3.914270e+001  8.633617e+000  1.678386e-015
      vertex  3.776823e+001  8.896338e+000  1.614400e-015
    endloop
  endfacet
  facet normal  5.551116e-017  4.686577e-017 -1.000000e+000
    outer loop
      vertex  3.776823e+001  8.896338e+000  1.614400e-015
      vertex  3.914270e+001  8.633617e+000  1.678386e-015
      vertex  3.940341e+001  8.469803e+000  1.685180e-015
    endloop
  endfacet
  facet normal  5.551128e-017  4.686625e-017 -1.000000e+000
    outer loop
      vertex  3.776823e+001  8.896338e+000  1.614400e-015
      vertex  3.940341e+001  8.469803e+000  1.685180e-015
      vertex  3.794319e+001  8.521135e+000  1.606528e-015
    endloop
  endfacet
  facet normal  5.551132e-017  4.686738e-017 -1.000000e+000
    outer loop
      vertex  3.794319e+001  8.521135e+000  1.606528e-015
      vertex  3.940341e+001  8.469803e+000  1.685180e-015
      vertex  3.969403e+001  8.368110e+000  1.696547e-015
    endloop
  endfacet
  facet normal  5.551117e-017  4.686571e-017 -1.000000e+000
    outer loop
      vertex  3.794319e+001  8.521135e+000  1.606528e-015
      vertex  3.969403e+001  8.368110e+000  1.696547e-015
      vertex  3.818064e+001  8.182015e+000  1.603816e-015
    endloop
  endfacet
  facet normal  5.551122e-017  4.686648e-017 -1.000000e+000
    outer loop
      vertex  3.865947e+001  9.402669e+000  1.687603e-015
      vertex  3.876117e+001  9.112045e+000  1.679628e-015
      vertex  3.766108e+001  9.296221e+000  1.627193e-015
    endloop
  endfacet
  facet normal  5.551099e-017  4.686513e-017 -1.000000e+000
    outer loop
      vertex  3.766108e+001  9.296221e+000  1.627193e-015
      vertex  3.876117e+001  9.112045e+000  1.679628e-015
      vertex  3.892498e+001  8.851337e+000  1.676503e-015
    endloop
  endfacet
  facet normal  5.551120e-017  4.686573e-017 -1.000000e+000
    outer loop
      vertex  3.766108e+001  9.296221e+000  1.627193e-015
      vertex  3.892498e+001  8.851337e+000  1.676503e-015
      vertex  3.776823e+001  8.896338e+000  1.614400e-015
    endloop
  endfacet
  facet normal  5.551120e-017  4.686664e-017 -1.000000e+000
    outer loop
      vertex  3.892498e+001  1.056593e+001  1.756859e-015
      vertex  3.876117e+001  1.030523e+001  1.735548e-015
      vertex  3.776823e+001  1.052093e+001  1.690538e-015
    endloop
  endfacet
  facet normal  5.551094e-017  4.686544e-017 -1.000000e+000
    outer loop
      vertex  3.776823e+001  1.052093e+001  1.690538e-015
      vertex  3.876117e+001  1.030523e+001  1.735548e-015
      vertex  3.865947e+001  1.001460e+001  1.716282e-015
    endloop
  endfacet
  facet normal  5.551124e-017  4.686596e-017 -1.000000e+000
    outer loop
      vertex  3.776823e+001  1.052093e+001  1.690538e-015
      vertex  3.865947e+001  1.001460e+001  1.716282e-015
      vertex  3.766108e+001  1.012105e+001  1.665849e-015
    endloop
  endfacet
  facet normal  5.551125e-017  4.686600e-017 -1.000000e+000
    outer loop
      vertex  3.766108e+001  1.012105e+001  1.665849e-015
      vertex  3.865947e+001  1.001460e+001  1.716282e-015
      vertex  3.862500e+001  9.708635e+000  1.700029e-015
    endloop
  endfacet
  facet normal  5.551115e-017  4.686577e-017 -9.999999e-001
    outer loop
      vertex  3.766108e+001  1.012105e+001  1.665849e-015
      vertex  3.862500e+001  9.708635e+000  1.700029e-015
      vertex  3.762500e+001  9.708635e+000  1.644518e-015
    endloop
  endfacet
  facet normal  5.551115e-017  4.686565e-017 -1.000000e+000
    outer loop
      vertex  3.762500e+001  9.708635e+000  1.644518e-015
      vertex  3.862500e+001  9.708635e+000  1.700029e-015
      vertex  3.865947e+001  9.402669e+000  1.687603e-015
    endloop
  endfacet
  facet normal  5.551127e-017  4.686604e-017 -1.000000e+000
    outer loop
      vertex  3.762500e+001  9.708635e+000  1.644518e-015
      vertex  3.865947e+001  9.402669e+000  1.687603e-015
      vertex  3.766108e+001  9.296221e+000  1.627193e-015
    endloop
  endfacet
  facet normal  5.551126e-017  4.686588e-017 -1.000000e+000
    outer loop
      vertex  3.940341e+001  1.094747e+001  1.801298e-015
      vertex  3.914270e+001  1.078365e+001  1.779149e-015
      vertex  3.794319e+001  1.089614e+001  1.717834e-015
    endloop
  endfacet
  facet normal  5.551121e-017  4.686549e-017 -1.000000e+000
    outer loop
      vertex  3.794319e+001  1.089614e+001  1.717834e-015
      vertex  3.914270e+001  1.078365e+001  1.779149e-015
      vertex  3.892498e+001  1.056593e+001  1.756859e-015
    endloop
  endfacet
  facet normal  5.551125e-017  4.686559e-017 -1.000000e+000
    outer loop
      vertex  3.794319e+001  1.089614e+001  1.717834e-015
      vertex  3.892498e+001  1.056593e+001  1.756859e-015
      vertex  3.776823e+001  1.052093e+001  1.690538e-015
    endloop
  endfacet
  facet normal  1.000000e+000  0.000000e+000  0.000000e+000
    outer loop
      vertex  4.400000e+001  1.108364e+001  1.846237e-015
      vertex  4.400000e+001  1.208364e+001  1.893103e-015
      vertex  4.400000e+001  1.108364e+001  1.000000e+001
    endloop
  endfacet
  facet normal  1.000000e+000  -0.000000e+000  0.000000e+000
    outer loop
      vertex  4.400000e+001  1.108364e+001  1.000000e+001
      vertex  4.400000e+001  1.208364e+001  1.893103e-015
      vertex  4.400000e+001  1.208364e+001  1.000000e+001
    endloop
  endfacet
  facet normal  0.000000e+000 -1.000000e+000  -0.000000e+000
    outer loop
      vertex  4.400000e+001  1.108364e+001  1.846237e-015
      vertex  4.400000e+001  1.108364e+001  1.000000e+001
      vertex  4.000000e+001  1.108364e+001  1.840797e-015
    endloop
  endfacet
  facet normal  0.000000e+000 -1.000000e+000  0.000000e+000
    outer loop
      vertex  4.000000e+001  1.108364e+001  1.840797e-015
      vertex  4.400000e+001  1.108364e+001  1.000000e+001
      vertex  4.000000e+001  1.108364e+001  1.000000e+001
    endloop
  endfacet
  facet normal  8.467293e-001 -5.320240e-001  0.000000e+000
    outer loop
      vertex  3.892498e+001  1.056593e+001  1.756859e-015
      vertex  3.876117e+001  1.030523e+001  1.000000e+001
      vertex  3.876117e+001  1.030523e+001  1.735548e-015
    endloop
  endfacet
  facet normal  9.438809e-001 -3.302860e-001  0.000000e+000
    outer loop
      vertex  3.876117e+001  1.030523e+001  1.735548e-015
      vertex  3.876117e+001  1.030523e+001  1.000000e+001
      vertex  3.865947e+001  1.001460e+001  1.000000e+001
    endloop
  endfacet
  facet normal  9.438809e-001 -3.302860e-001  0.000000e+000
    outer loop
      vertex  3.876117e+001  1.030523e+001  1.735548e-015
      vertex  3.865947e+001  1.001460e+001  1.000000e+001
      vertex  3.865947e+001  1.001460e+001  1.716282e-015
    endloop
  endfacet
  facet normal  9.937125e-001 -1.119622e-001  0.000000e+000
    outer loop
      vertex  3.865947e+001  1.001460e+001  1.716282e-015
      vertex  3.865947e+001  1.001460e+001  1.000000e+001
      vertex  3.862500e+001  9.708635e+000  1.000000e+001
    endloop
  endfacet
  facet normal  9.937125e-001 -1.119622e-001  0.000000e+000
    outer loop
      vertex  3.865947e+001  1.001460e+001  1.716282e-015
      vertex  3.862500e+001  9.708635e+000  1.000000e+001
      vertex  3.862500e+001  9.708635e+000  1.700029e-015
    endloop
  endfacet
  facet normal  8.467293e-001 -5.320240e-001  0.000000e+000
    outer loop
      vertex  3.876117e+001  1.030523e+001  1.000000e+001
      vertex  3.892498e+001  1.056593e+001  1.756859e-015
      vertex  3.892498e+001  1.056593e+001  1.000000e+001
    endloop
  endfacet
  facet normal  7.071068e-001 -7.071068e-001  0.000000e+000
    outer loop
      vertex  3.892498e+001  1.056593e+001  1.000000e+001
      vertex  3.892498e+001  1.056593e+001  1.756859e-015
      vertex  3.914270e+001  1.078365e+001  1.779149e-015
    endloop
  endfacet
  facet normal  7.071068e-001 -7.071068e-001  0.000000e+000
    outer loop
      vertex  3.892498e+001  1.056593e+001  1.000000e+001
      vertex  3.914270e+001  1.078365e+001  1.779149e-015
      vertex  3.914270e+001  1.078365e+001  1.000000e+001
    endloop
  endfacet
  facet normal  5.320321e-001 -8.467242e-001  0.000000e+000
    outer loop
      vertex  3.914270e+001  1.078365e+001  1.000000e+001
      vertex  3.914270e+001  1.078365e+001  1.779149e-015
      vertex  3.940341e+001  1.094747e+001  1.801298e-015
    endloop
  endfacet
  facet normal  5.320321e-001 -8.467242e-001  0.000000e+000
    outer loop
      vertex  3.914270e+001  1.078365e+001  1.000000e+001
      vertex  3.940341e+001  1.094747e+001  1.801298e-015
      vertex  3.940341e+001  1.094747e+001  1.000000e+001
    endloop
  endfacet
  facet normal  3.302748e-001 -9.438848e-001  0.000000e+000
    outer loop
      vertex  3.940341e+001  1.094747e+001  1.000000e+001
      vertex  3.940341e+001  1.094747e+001  1.801298e-015
      vertex  3.969403e+001  1.104916e+001  1.822197e-015
    endloop
  endfacet
  facet normal  3.302748e-001 -9.438848e-001  0.000000e+000
    outer loop
      vertex  3.940341e+001  1.094747e+001  1.000000e+001
      vertex  3.969403e+001  1.104916e+001  1.822197e-015
      vertex  3.969403e+001  1.104916e+001  1.000000e+001
    endloop
  endfacet
  facet normal  1.119656e-001 -9.937121e-001  0.000000e+000
    outer loop
      vertex  3.969403e+001  1.104916e+001  1.000000e+001
      vertex  3.969403e+001  1.104916e+001  1.822197e-015
      vertex  4.000000e+001  1.108364e+001  1.840797e-015
    endloop
  endfacet
  facet normal  1.119656e-001 -9.937121e-001  0.000000e+000
    outer loop
      vertex  3.969403e+001  1.104916e+001  1.000000e+001
      vertex  4.000000e+001  1.108364e+001  1.840797e-015
      vertex  4.000000e+001  1.108364e+001  1.000000e+001
    endloop
  endfacet
  facet normal  5.320343e-001  8.467228e-001  0.000000e+000
    outer loop
      vertex  3.914270e+001  8.633617e+000  1.678386e-015
      vertex  3.940341e+001  8.469803e+000  1.000000e+001
      vertex  3.940341e+001  8.469803e+000  1.685180e-015
    endloop
  endfacet
  facet normal  3.302748e-001  9.438848e-001  -0.000000e+000
    outer loop
      vertex  3.940341e+001  8.469803e+000  1.685180e-015
      vertex  3.940341e+001  8.469803e+000  1.000000e+001
      vertex  3.969403e+001  8.368110e+000  1.000000e+001
    endloop
  endfacet
  facet normal  3.302748e-001  9.438848e-001  0.000000e+000
    outer loop
      vertex  3.940341e+001  8.469803e+000  1.685180e-015
      vertex  3.969403e+001  8.368110e+000  1.000000e+001
      vertex  3.969403e+001  8.368110e+000  1.696547e-015
    endloop
  endfacet
  facet normal  1.119656e-001  9.937121e-001  -0.000000e+000
    outer loop
      vertex  3.969403e+001  8.368110e+000  1.696547e-015
      vertex  3.969403e+001  8.368110e+000  1.000000e+001
      vertex  4.000000e+001  8.333635e+000  1.000000e+001
    endloop
  endfacet
  facet normal  1.119656e-001  9.937121e-001  0.000000e+000
    outer loop
      vertex  3.969403e+001  8.368110e+000  1.696547e-015
      vertex  4.000000e+001  8.333635e+000  1.000000e+001
      vertex  4.000000e+001  8.333635e+000  1.495311e-015
    endloop
  endfacet
  facet normal  5.320343e-001  8.467228e-001  -0.000000e+000
    outer loop
      vertex  3.940341e+001  8.469803e+000  1.000000e+001
      vertex  3.914270e+001  8.633617e+000  1.678386e-015
      vertex  3.914270e+001  8.633617e+000  1.000000e+001
    endloop
  endfacet
  facet normal  7.071068e-001  7.071068e-001  0.000000e+000
    outer loop
      vertex  3.914270e+001  8.633617e+000  1.000000e+001
      vertex  3.914270e+001  8.633617e+000  1.678386e-015
      vertex  3.892498e+001  8.851337e+000  1.676503e-015
    endloop
  endfacet
  facet normal  7.071068e-001  7.071068e-001  -0.000000e+000
    outer loop
      vertex  3.914270e+001  8.633617e+000  1.000000e+001
      vertex  3.892498e+001  8.851337e+000  1.676503e-015
      vertex  3.892498e+001  8.851337e+000  1.000000e+001
    endloop
  endfacet
  facet normal  8.467284e-001  5.320254e-001  0.000000e+000
    outer loop
      vertex  3.892498e+001  8.851337e+000  1.000000e+001
      vertex  3.892498e+001  8.851337e+000  1.676503e-015
      vertex  3.876117e+001  9.112045e+000  1.679628e-015
    endloop
  endfacet
  facet normal  8.467284e-001  5.320254e-001  -0.000000e+000
    outer loop
      vertex  3.892498e+001  8.851337e+000  1.000000e+001
      vertex  3.876117e+001  9.112045e+000  1.679628e-015
      vertex  3.876117e+001  9.112045e+000  1.000000e+001
    endloop
  endfacet
  facet normal  9.438809e-001  3.302860e-001  0.000000e+000
    outer loop
      vertex  3.876117e+001  9.112045e+000  1.000000e+001
      vertex  3.876117e+001  9.112045e+000  1.679628e-015
      vertex  3.865947e+001  9.402669e+000  1.687603e-015
    endloop
  endfacet
  facet normal  9.438809e-001  3.302860e-001  -0.000000e+000
    outer loop
      vertex  3.876117e+001  9.112045e+000  1.000000e+001
      vertex  3.865947e+001  9.402669e+000  1.687603e-015
      vertex  3.865947e+001  9.402669e+000  1.000000e+001
    endloop
  endfacet
  facet normal  9.937125e-001  1.119622e-001  0.000000e+000
    outer loop
      vertex  3.865947e+001  9.402669e+000  1.000000e+001
      vertex  3.865947e+001  9.402669e+000  1.687603e-015
      vertex  3.862500e+001  9.708635e+000  1.700029e-015
    endloop
  endfacet
  facet normal  9.937125e-001  1.119622e-001  -0.000000e+000
    outer loop
      vertex  3.865947e+001  9.402669e+000  1.000000e+001
      vertex  3.862500e+001  9.708635e+000  1.700029e-015
      vertex  3.862500e+001  9.708635e+000  1.000000e+001
    endloop
  endfacet
  facet normal  0.000000e+000  1.000000e+000  0.000000e+000
    outer loop
      vertex  4.400000e+001  8.333635e+000  1.717355e-015
      vertex  4.000000e+001  8.333635e+000  1.495311e-015
      vertex  4.400000e+001  8.333635e+000  1.000000e+001
    endloop
  endfacet
  facet normal  0.000000e+000  1.000000e+000  0.000000e+000
    outer loop
      vertex  4.400000e+001  8.333635e+000  1.000000e+001
      vertex  4.000000e+001  8.333635e+000  1.495311e-015
      vertex  4.000000e+001  8.333635e+000  1.000000e+001
    endloop
  endfacet
  facet normal  1.000000e+000  0.000000e+000  0.000000e+000
    outer loop
      vertex  4.400000e+001  7.333635e+000  1.670489e-015
      vertex  4.400000e+001  8.333635e+000  1.717355e-015
      vertex  4.400000e+001  7.333635e+000  1.000000e+001
    endloop
  endfacet
  facet normal  1.000000e+000  -0.000000e+000  0.000000e+000
    outer loop
      vertex  4.400000e+001  7.333635e+000  1.000000e+001
      vertex  4.400000e+001  8.333635e+000  1.717355e-015
      vertex  4.400000e+001  8.333635e+000  1.000000e+001
    endloop
  endfacet
  facet normal  0.000000e+000 -1.000000e+000  -0.000000e+000
    outer loop
      vertex  4.400000e+001  7.333635e+000  1.670489e-015
      vertex  4.400000e+001  7.333635e+000  1.000000e+001
      vertex  4.000000e+001  7.333635e+000  1.665050e-015
    endloop
  endfacet
  facet normal  0.000000e+000 -1.000000e+000  0.000000e+000
    outer loop
      vertex  4.000000e+001  7.333635e+000  1.665050e-015
      vertex  4.400000e+001  7.333635e+000  1.000000e+001
      vertex  4.000000e+001  7.333635e+000  1.000000e+001
    endloop
  endfacet
  facet normal -8.715621e-002 -9.961947e-001  -0.000000e+000
    outer loop
      vertex  4.000000e+001  7.333635e+000  1.665050e-015
      vertex  4.000000e+001  7.333635e+000  1.000000e+001
      vertex  3.958759e+001  7.369717e+000  1.643848e-015
    endloop
  endfacet
  facet normal -8.715621e-002 -9.961947e-001  0.000000e+000
    outer loop
      vertex  3.958759e+001  7.369717e+000  1.643848e-015
      vertex  4.000000e+001  7.333635e+000  1.000000e+001
      vertex  3.958759e+001  7.369717e+000  1.000000e+001
    endloop
  endfacet
  facet normal -2.588196e-001 -9.659256e-001  -0.000000e+000
    outer loop
      vertex  3.958759e+001  7.369717e+000  1.643848e-015
      vertex  3.958759e+001  7.369717e+000  1.000000e+001
      vertex  3.918770e+001  7.476866e+000  1.626671e-015
    endloop
  endfacet
  facet normal -2.588196e-001 -9.659256e-001  0.000000e+000
    outer loop
      vertex  3.918770e+001  7.476866e+000  1.626671e-015
      vertex  3.958759e+001  7.369717e+000  1.000000e+001
      vertex  3.918770e+001  7.476866e+000  1.000000e+001
    endloop
  endfacet
  facet normal -4.226173e-001 -9.063082e-001  -0.000000e+000
    outer loop
      vertex  3.918770e+001  7.476866e+000  1.626671e-015
      vertex  3.918770e+001  7.476866e+000  1.000000e+001
      vertex  3.881250e+001  7.651825e+000  1.614043e-015
    endloop
  endfacet
  facet normal -4.226173e-001 -9.063082e-001  0.000000e+000
    outer loop
      vertex  3.881250e+001  7.651825e+000  1.614043e-015
      vertex  3.918770e+001  7.476866e+000  1.000000e+001
      vertex  3.881250e+001  7.651825e+000  1.000000e+001
    endloop
  endfacet
  facet normal -5.735785e-001 -8.191507e-001  -0.000000e+000
    outer loop
      vertex  3.881250e+001  7.651825e+000  1.614043e-015
      vertex  3.881250e+001  7.651825e+000  1.000000e+001
      vertex  3.847338e+001  7.889280e+000  1.606347e-015
    endloop
  endfacet
  facet normal -5.735785e-001 -8.191507e-001  0.000000e+000
    outer loop
      vertex  3.847338e+001  7.889280e+000  1.606347e-015
      vertex  3.881250e+001  7.651825e+000  1.000000e+001
      vertex  3.847338e+001  7.889280e+000  1.000000e+001
    endloop
  endfacet
  facet normal -7.071062e-001 -7.071073e-001  -0.000000e+000
    outer loop
      vertex  3.847338e+001  7.889280e+000  1.606347e-015
      vertex  3.847338e+001  7.889280e+000  1.000000e+001
      vertex  3.818064e+001  8.182015e+000  1.603816e-015
    endloop
  endfacet
  facet normal -7.071062e-001 -7.071073e-001  0.000000e+000
    outer loop
      vertex  3.818064e+001  8.182015e+000  1.603816e-015
      vertex  3.847338e+001  7.889280e+000  1.000000e+001
      vertex  3.818064e+001  8.182015e+000  1.000000e+001
    endloop
  endfacet
  facet normal -8.191531e-001 -5.735751e-001  -0.000000e+000
    outer loop
      vertex  3.818064e+001  8.182015e+000  1.603816e-015
      vertex  3.818064e+001  8.182015e+000  1.000000e+001
      vertex  3.794319e+001  8.521135e+000  1.606528e-015
    endloop
  endfacet
  facet normal -8.191531e-001 -5.735751e-001  0.000000e+000
    outer loop
      vertex  3.794319e+001  8.521135e+000  1.606528e-015
      vertex  3.818064e+001  8.182015e+000  1.000000e+001
      vertex  3.794319e+001  8.521135e+000  1.000000e+001
    endloop
  endfacet
  facet normal -9.063064e-001 -4.226211e-001  -0.000000e+000
    outer loop
      vertex  3.794319e+001  8.521135e+000  1.606528e-015
      vertex  3.794319e+001  8.521135e+000  1.000000e+001
      vertex  3.776823e+001  8.896338e+000  1.614400e-015
    endloop
  endfacet
  facet normal -9.063064e-001 -4.226211e-001  0.000000e+000
    outer loop
      vertex  3.776823e+001  8.896338e+000  1.614400e-015
      vertex  3.794319e+001  8.521135e+000  1.000000e+001
      vertex  3.776823e+001  8.896338e+000  1.000000e+001
    endloop
  endfacet
  facet normal -9.659265e-001 -2.588164e-001  -0.000000e+000
    outer loop
      vertex  3.776823e+001  8.896338e+000  1.614400e-015
      vertex  3.776823e+001  8.896338e+000  1.000000e+001
      vertex  3.766108e+001  9.296221e+000  1.627193e-015
    endloop
  endfacet
  facet normal -9.659265e-001 -2.588164e-001  0.000000e+000
    outer loop
      vertex  3.766108e+001  9.296221e+000  1.627193e-015
      vertex  3.776823e+001  8.896338e+000  1.000000e+001
      vertex  3.766108e+001  9.296221e+000  1.000000e+001
    endloop
  endfacet
  facet normal -9.961943e-001 -8.715963e-002  -0.000000e+000
    outer loop
      vertex  3.766108e+001  9.296221e+000  1.627193e-015
      vertex  3.766108e+001  9.296221e+000  1.000000e+001
      vertex  3.762500e+001  9.708635e+000  1.644518e-015
    endloop
  endfacet
  facet normal -9.961943e-001 -8.715963e-002  0.000000e+000
    outer loop
      vertex  3.762500e+001  9.708635e+000  1.644518e-015
      vertex  3.766108e+001  9.296221e+000  1.000000e+001
      vertex  3.762500e+001  9.708635e+000  1.000000e+001
    endloop
  endfacet
  facet normal -9.961943e-001  8.715963e-002  0.000000e+000
    outer loop
      vertex  3.762500e+001  9.708635e+000  1.644518e-015
      vertex  3.762500e+001  9.708635e+000  1.000000e+001
      vertex  3.766108e+001  1.012105e+001  1.665849e-015
    endloop
  endfacet
  facet normal -9.961943e-001  8.715963e-002  0.000000e+000
    outer loop
      vertex  3.766108e+001  1.012105e+001  1.665849e-015
      vertex  3.762500e+001  9.708635e+000  1.000000e+001
      vertex  3.766108e+001  1.012105e+001  1.000000e+001
    endloop
  endfacet
  facet normal -9.659265e-001  2.588164e-001  0.000000e+000
    outer loop
      vertex  3.766108e+001  1.012105e+001  1.665849e-015
      vertex  3.766108e+001  1.012105e+001  1.000000e+001
      vertex  3.776823e+001  1.052093e+001  1.690538e-015
    endloop
  endfacet
  facet normal -9.659265e-001  2.588164e-001  0.000000e+000
    outer loop
      vertex  3.776823e+001  1.052093e+001  1.690538e-015
      vertex  3.766108e+001  1.012105e+001  1.000000e+001
      vertex  3.776823e+001  1.052093e+001  1.000000e+001
    endloop
  endfacet
  facet normal -9.063064e-001  4.226211e-001  0.000000e+000
    outer loop
      vertex  3.776823e+001  1.052093e+001  1.690538e-015
      vertex  3.776823e+001  1.052093e+001  1.000000e+001
      vertex  3.794319e+001  1.089614e+001  1.717834e-015
    endloop
  endfacet
  facet normal -9.063064e-001  4.226211e-001  0.000000e+000
    outer loop
      vertex  3.794319e+001  1.089614e+001  1.717834e-015
      vertex  3.776823e+001  1.052093e+001  1.000000e+001
      vertex  3.794319e+001  1.089614e+001  1.000000e+001
    endloop
  endfacet
  facet normal -8.191538e-001  5.735739e-001  0.000000e+000
    outer loop
      vertex  3.794319e+001  1.089614e+001  1.717834e-015
      vertex  3.794319e+001  1.089614e+001  1.000000e+001
      vertex  3.818064e+001  1.123526e+001  1.746909e-015
    endloop
  endfacet
  facet normal -8.191538e-001  5.735739e-001  0.000000e+000
    outer loop
      vertex  3.818064e+001  1.123526e+001  1.746909e-015
      vertex  3.794319e+001  1.089614e+001  1.000000e+001
      vertex  3.818064e+001  1.123526e+001  1.000000e+001
    endloop
  endfacet
  facet normal -7.071056e-001  7.071079e-001  0.000000e+000
    outer loop
      vertex  3.818064e+001  1.123526e+001  1.746909e-015
      vertex  3.818064e+001  1.123526e+001  1.000000e+001
      vertex  3.847338e+001  1.152799e+001  1.776878e-015
    endloop
  endfacet
  facet normal -7.071056e-001  7.071079e-001  0.000000e+000
    outer loop
      vertex  3.847338e+001  1.152799e+001  1.776878e-015
      vertex  3.818064e+001  1.123526e+001  1.000000e+001
      vertex  3.847338e+001  1.152799e+001  1.000000e+001
    endloop
  endfacet
  facet normal -5.735776e-001  8.191512e-001  0.000000e+000
    outer loop
      vertex  3.847338e+001  1.152799e+001  1.776878e-015
      vertex  3.847338e+001  1.152799e+001  1.000000e+001
      vertex  3.881250e+001  1.176545e+001  1.806832e-015
    endloop
  endfacet
  facet normal -5.735776e-001  8.191512e-001  0.000000e+000
    outer loop
      vertex  3.881250e+001  1.176545e+001  1.806832e-015
      vertex  3.847338e+001  1.152799e+001  1.000000e+001
      vertex  3.881250e+001  1.176545e+001  1.000000e+001
    endloop
  endfacet
  facet normal -4.226192e-001  9.063073e-001  0.000000e+000
    outer loop
      vertex  3.881250e+001  1.176545e+001  1.806832e-015
      vertex  3.881250e+001  1.176545e+001  1.000000e+001
      vertex  3.918770e+001  1.194041e+001  1.835859e-015
    endloop
  endfacet
  facet normal -4.226192e-001  9.063073e-001  0.000000e+000
    outer loop
      vertex  3.918770e+001  1.194041e+001  1.835859e-015
      vertex  3.881250e+001  1.176545e+001  1.000000e+001
      vertex  3.918770e+001  1.194041e+001  1.000000e+001
    endloop
  endfacet
  facet normal -2.588185e-001  9.659259e-001  0.000000e+000
    outer loop
      vertex  3.918770e+001  1.194041e+001  1.835859e-015
      vertex  3.918770e+001  1.194041e+001  1.000000e+001
      vertex  3.958759e+001  1.204755e+001  1.863079e-015
    endloop
  endfacet
  facet normal -2.588185e-001  9.659259e-001  0.000000e+000
    outer loop
      vertex  3.958759e+001  1.204755e+001  1.863079e-015
      vertex  3.918770e+001  1.194041e+001  1.000000e+001
      vertex  3.958759e+001  1.204755e+001  1.000000e+001
    endloop
  endfacet
  facet normal -8.715507e-002  9.961948e-001  0.000000e+000
    outer loop
      vertex  3.958759e+001  1.204755e+001  1.863079e-015
      vertex  3.958759e+001  1.204755e+001  1.000000e+001
      vertex  4.000000e+001  1.208364e+001  1.671058e-015
    endloop
  endfacet
  facet normal -8.715507e-002  9.961948e-001  0.000000e+000
    outer loop
      vertex  4.000000e+001  1.208364e+001  1.671058e-015
      vertex  3.958759e+001  1.204755e+001  1.000000e+001
      vertex  4.000000e+001  1.208364e+001  1.000000e+001
    endloop
  endfacet
  facet normal  0.000000e+000  1.000000e+000  0.000000e+000
    outer loop
      vertex  4.400000e+001  1.208364e+001  1.893103e-015
      vertex  4.000000e+001  1.208364e+001  1.671058e-015
      vertex  4.400000e+001  1.208364e+001  1.000000e+001
    endloop
  endfacet
  facet normal  0.000000e+000  1.000000e+000  0.000000e+000
    outer loop
      vertex  4.400000e+001  1.208364e+001  1.000000e+001
      vertex  4.000000e+001  1.208364e+001  1.671058e-015
      vertex  4.000000e+001  1.208364e+001  1.000000e+001
    endloop
  endfacet
endsolid CATIA STL
