M48
; DRILL file {KiCad (5.1.4)-1} date 4/9/2020 1:39:28 PM
; FORMAT={-:-/ absolute / metric / decimal}
; #@! TF.CreationDate,2020-04-09T13:39:28+02:00
; #@! TF.GenerationSoftware,Kicad,Pcbnew,(5.1.4)-1
FMAT,2
METRIC
T1C0.400
T2C0.600
T3C0.650
T4C0.762
T5C0.800
T6C0.900
T7C1.450
T8C2.000
T9C0.800
%
G90
G05
T1
X136.9Y-146.935
X137.025Y-104.06
X143.175Y-146.895
X143.3Y-104.02
X152.615Y-153.04
X152.627Y-144.643
X152.74Y-110.165
X152.752Y-101.768
X159.76Y-149.015
X159.885Y-106.14
X162.26Y-149.015
X162.385Y-106.14
X162.829Y-139.097
X162.954Y-96.222
X163.905Y-141.535
X163.945Y-152.005
X164.03Y-98.66
X164.07Y-109.13
X166.48Y-138.435
X166.605Y-95.56
X167.7Y-144.184
X167.825Y-101.309
X168.09Y-137.775
X168.215Y-94.9
X168.241Y-145.025
X168.366Y-102.15
X168.63Y-147.815
X168.755Y-104.94
X172.03Y-146.145
X172.155Y-103.27
X173.18Y-149.01
X173.305Y-106.135
X174.1Y-137.75
X174.1Y-139.5
X174.12Y-144.54
X174.225Y-94.875
X174.225Y-96.625
X174.245Y-101.665
X175.64Y-137.735
X175.64Y-139.485
X175.725Y-125.475
X175.725Y-128.575
X175.765Y-94.86
X175.765Y-96.61
X175.85Y-82.6
X175.85Y-85.7
X176.07Y-149.345
X176.195Y-106.47
X177.125Y-119.975
X177.25Y-77.1
X177.65Y-149.33
X177.65Y-151.08
X177.66Y-153.075
X177.775Y-106.455
X177.775Y-108.205
X177.785Y-110.2
X178.85Y-117.775
X178.975Y-74.9
X179.18Y-149.33
X179.18Y-151.08
X179.3Y-124.385
X179.305Y-106.455
X179.305Y-108.205
X179.425Y-81.51
X179.46Y-144.715
X179.585Y-101.84
X180.68Y-149.335
X180.68Y-151.085
X180.8Y-121.175
X180.805Y-106.46
X180.805Y-108.21
X180.925Y-78.3
X181.225Y-124.605
X181.26Y-141.965
X181.275Y-128.575
X181.35Y-81.73
X181.385Y-99.09
X181.4Y-85.7
X181.525Y-116.675
X181.65Y-73.8
X182.636Y-115.971
X182.761Y-73.096
X183.277Y-124.905
X183.402Y-82.03
X184.125Y-124.375
X184.25Y-81.5
X184.725Y-120.975
X184.85Y-78.1
X187.225Y-129.875
X187.35Y-87.0
X187.425Y-127.575
X187.55Y-84.7
X187.862Y-126.338
X187.987Y-83.463
X196.271Y-79.139
X196.975Y-80.25
X198.075Y-82.925
X200.275Y-84.65
X201.275Y-77.05
X201.475Y-80.975
X204.675Y-77.65
X204.685Y-82.475
X204.905Y-80.55
X205.205Y-78.498
X205.775Y-86.05
X206.638Y-73.913
X207.875Y-74.35
X208.875Y-80.5
X208.875Y-86.05
X210.175Y-74.55
X218.035Y-86.135
X218.05Y-87.675
X218.075Y-93.685
X218.735Y-95.295
X219.397Y-98.946
X219.785Y-86.135
X219.8Y-87.675
X221.835Y-97.87
X222.265Y-80.515
X224.484Y-94.075
X224.84Y-87.655
X224.943Y-109.148
X225.015Y-82.315
X225.325Y-93.534
X226.445Y-89.745
X227.195Y-118.6
X227.235Y-124.875
X228.115Y-93.145
X229.31Y-88.595
X229.315Y-99.515
X229.315Y-102.015
X229.63Y-82.595
X229.63Y-84.125
X229.635Y-81.095
X229.645Y-85.705
X231.38Y-82.595
X231.38Y-84.125
X231.385Y-81.095
X232.305Y-97.83
X233.34Y-109.16
X233.375Y-84.115
T2
X154.45Y-138.835
X219.243Y-110.207
X200.275Y-106.525
X155.25Y-119.975
X200.275Y-109.2
X145.9Y-119.875
X203.285Y-111.825
X152.95Y-122.985
X150.075Y-80.11
X154.575Y-99.01
X155.625Y-80.225
X151.693Y-99.068
X154.45Y-141.885
X152.575Y-119.975
X151.693Y-96.068
X155.5Y-123.1
X219.135Y-107.325
X203.285Y-108.825
X200.175Y-115.875
X200.285Y-111.825
X151.568Y-138.943
X154.575Y-95.96
X155.375Y-77.1
X153.075Y-80.11
X146.025Y-77.0
X149.95Y-122.985
X203.4Y-106.275
X149.95Y-119.985
X222.243Y-110.207
X151.568Y-141.943
X152.7Y-77.1
X222.185Y-107.325
X150.075Y-77.11
T3
X187.825Y-116.335
X187.825Y-117.605
X187.825Y-118.875
X206.135Y-88.25
X207.405Y-88.25
X208.675Y-88.25
X173.525Y-122.205
X173.525Y-123.475
X187.95Y-73.46
X187.95Y-74.73
X187.95Y-76.0
X173.65Y-82.96
X173.65Y-84.23
X173.65Y-85.5
X173.525Y-125.835
X173.525Y-127.105
X173.525Y-128.375
X202.505Y-88.25
X203.775Y-88.25
X196.635Y-73.95
X197.905Y-73.95
X199.175Y-73.95
X173.65Y-79.33
X173.65Y-80.6
T4
X178.45Y-83.5
X183.55Y-83.5
X137.575Y-116.225
X144.575Y-116.225
X178.325Y-126.375
X183.425Y-126.375
X196.525Y-117.2
X196.525Y-124.2
X206.675Y-78.35
X206.675Y-83.45
X137.7Y-73.35
X144.7Y-73.35
T5
X148.18Y-142.735
X148.305Y-99.86
X151.54Y-150.365
X151.665Y-107.49
X169.47Y-150.915
X169.595Y-108.04
X177.755Y-137.865
X177.88Y-94.99
X183.205Y-137.865
X183.205Y-141.865
X183.33Y-94.99
X183.33Y-98.99
X218.165Y-78.57
X218.165Y-84.02
X222.165Y-78.57
X223.035Y-113.595
X230.665Y-110.235
X231.215Y-92.305
T6
X158.985Y-109.14
X165.785Y-109.14
X158.86Y-152.015
X165.66Y-152.015
X232.315Y-96.115
X232.315Y-102.915
T7
X135.45Y-138.845
X135.45Y-150.245
X141.8Y-138.845
X141.8Y-150.245
X148.15Y-138.845
X148.15Y-150.245
X219.145Y-113.625
X219.145Y-119.975
X219.145Y-126.325
X230.545Y-113.625
X230.545Y-119.975
X230.545Y-126.325
X135.575Y-95.97
X135.575Y-107.37
X141.925Y-95.97
X141.925Y-107.37
X148.275Y-95.97
X148.275Y-107.37
T8
X187.355Y-109.0
X187.225Y-94.27
X217.445Y-74.675
X187.265Y-101.37
X232.175Y-74.545
X224.545Y-74.635
X187.23Y-151.875
X187.14Y-144.245
X187.1Y-137.145
T9
X172.077Y-119.965
X172.077Y-121.424
X172.078Y-122.882
X172.078Y-124.341
X146.187Y-115.421
X147.645Y-115.423
X149.104Y-115.426
X150.562Y-115.428
X144.93Y-129.792
X146.388Y-129.792
X147.846Y-129.792
X149.305Y-129.791
X162.05Y-77.682
X162.05Y-79.141
X162.05Y-80.599
X162.05Y-82.058
X178.331Y-135.241
X179.79Y-135.241
X181.248Y-135.241
X182.707Y-135.241
X195.819Y-82.595
X195.82Y-81.137
X195.821Y-79.678
X195.822Y-78.22
X178.957Y-110.916
X180.415Y-110.916
X181.874Y-110.916
X183.332Y-110.916
X210.091Y-111.485
X210.092Y-112.944
X210.092Y-114.402
X210.092Y-115.861
X195.708Y-124.713
X195.71Y-123.255
X195.712Y-121.796
X195.714Y-120.338
X189.09Y-82.554
X189.091Y-81.095
X189.093Y-79.637
X189.094Y-78.178
X178.291Y-131.335
X179.75Y-131.335
X181.208Y-131.335
X182.667Y-131.335
X215.541Y-111.766
X215.541Y-113.225
X215.541Y-114.683
X215.541Y-116.142
X178.913Y-92.366
X180.372Y-92.366
X181.83Y-92.366
X183.289Y-92.366
X144.875Y-135.241
X146.334Y-135.241
X147.792Y-135.241
X149.251Y-135.241
X211.635Y-79.246
X211.635Y-80.704
X211.635Y-82.163
X211.635Y-83.621
X188.966Y-124.712
X188.967Y-123.254
X188.969Y-121.796
X188.97Y-120.337
X146.187Y-110.916
X147.646Y-110.916
X149.104Y-110.916
X150.563Y-110.916
X161.925Y-119.862
X161.925Y-121.321
X161.925Y-122.779
X161.925Y-124.238
X145.981Y-86.917
X147.439Y-86.917
X148.898Y-86.917
X150.356Y-86.916
X178.925Y-115.519
X180.383Y-115.52
X181.842Y-115.521
X183.3Y-115.522
X145.802Y-92.366
X147.26Y-92.366
X148.719Y-92.366
X150.177Y-92.366
X215.541Y-79.462
X215.541Y-80.92
X215.541Y-82.379
X215.541Y-83.837
X179.006Y-88.46
X180.464Y-88.46
X181.923Y-88.46
X183.381Y-88.46
X172.202Y-77.827
X172.203Y-79.285
X172.203Y-80.744
X172.204Y-82.202
T0
M30
