G04 #@! TF.GenerationSoftware,KiCad,Pcbnew,(5.1.4)-1*
G04 #@! TF.CreationDate,2020-04-09T13:39:23+02:00*
G04 #@! TF.ProjectId,output.sky_panel_03_kits,6f757470-7574-42e7-936b-795f70616e65,rev?*
G04 #@! TF.SameCoordinates,Original*
G04 #@! TF.FileFunction,Paste,Bot*
G04 #@! TF.FilePolarity,Positive*
%FSLAX46Y46*%
G04 Gerber Fmt 4.6, Leading zero omitted, Abs format (unit mm)*
G04 Created by KiCad (PCBNEW (5.1.4)-1) date 2020-04-09 13:39:23*
%MOMM*%
%LPD*%
G04 APERTURE LIST*
%ADD10R,1.524000X1.524000*%
%ADD11C,0.100000*%
%ADD12C,1.150000*%
%ADD13R,1.300000X1.550000*%
%ADD14R,2.500000X1.800000*%
%ADD15R,3.000000X3.000000*%
%ADD16R,1.550000X1.300000*%
%ADD17R,1.800000X2.500000*%
G04 APERTURE END LIST*
D10*
X230725000Y-129565000D03*
D11*
G36*
X225499505Y-79026204D02*
G01*
X225523773Y-79029804D01*
X225547572Y-79035765D01*
X225570671Y-79044030D01*
X225592850Y-79054520D01*
X225613893Y-79067132D01*
X225633599Y-79081747D01*
X225651777Y-79098223D01*
X225668253Y-79116401D01*
X225682868Y-79136107D01*
X225695480Y-79157150D01*
X225705970Y-79179329D01*
X225714235Y-79202428D01*
X225720196Y-79226227D01*
X225723796Y-79250495D01*
X225725000Y-79274999D01*
X225725000Y-79925001D01*
X225723796Y-79949505D01*
X225720196Y-79973773D01*
X225714235Y-79997572D01*
X225705970Y-80020671D01*
X225695480Y-80042850D01*
X225682868Y-80063893D01*
X225668253Y-80083599D01*
X225651777Y-80101777D01*
X225633599Y-80118253D01*
X225613893Y-80132868D01*
X225592850Y-80145480D01*
X225570671Y-80155970D01*
X225547572Y-80164235D01*
X225523773Y-80170196D01*
X225499505Y-80173796D01*
X225475001Y-80175000D01*
X224574999Y-80175000D01*
X224550495Y-80173796D01*
X224526227Y-80170196D01*
X224502428Y-80164235D01*
X224479329Y-80155970D01*
X224457150Y-80145480D01*
X224436107Y-80132868D01*
X224416401Y-80118253D01*
X224398223Y-80101777D01*
X224381747Y-80083599D01*
X224367132Y-80063893D01*
X224354520Y-80042850D01*
X224344030Y-80020671D01*
X224335765Y-79997572D01*
X224329804Y-79973773D01*
X224326204Y-79949505D01*
X224325000Y-79925001D01*
X224325000Y-79274999D01*
X224326204Y-79250495D01*
X224329804Y-79226227D01*
X224335765Y-79202428D01*
X224344030Y-79179329D01*
X224354520Y-79157150D01*
X224367132Y-79136107D01*
X224381747Y-79116401D01*
X224398223Y-79098223D01*
X224416401Y-79081747D01*
X224436107Y-79067132D01*
X224457150Y-79054520D01*
X224479329Y-79044030D01*
X224502428Y-79035765D01*
X224526227Y-79029804D01*
X224550495Y-79026204D01*
X224574999Y-79025000D01*
X225475001Y-79025000D01*
X225499505Y-79026204D01*
X225499505Y-79026204D01*
G37*
D12*
X225025000Y-79600000D03*
D11*
G36*
X225499505Y-81076204D02*
G01*
X225523773Y-81079804D01*
X225547572Y-81085765D01*
X225570671Y-81094030D01*
X225592850Y-81104520D01*
X225613893Y-81117132D01*
X225633599Y-81131747D01*
X225651777Y-81148223D01*
X225668253Y-81166401D01*
X225682868Y-81186107D01*
X225695480Y-81207150D01*
X225705970Y-81229329D01*
X225714235Y-81252428D01*
X225720196Y-81276227D01*
X225723796Y-81300495D01*
X225725000Y-81324999D01*
X225725000Y-81975001D01*
X225723796Y-81999505D01*
X225720196Y-82023773D01*
X225714235Y-82047572D01*
X225705970Y-82070671D01*
X225695480Y-82092850D01*
X225682868Y-82113893D01*
X225668253Y-82133599D01*
X225651777Y-82151777D01*
X225633599Y-82168253D01*
X225613893Y-82182868D01*
X225592850Y-82195480D01*
X225570671Y-82205970D01*
X225547572Y-82214235D01*
X225523773Y-82220196D01*
X225499505Y-82223796D01*
X225475001Y-82225000D01*
X224574999Y-82225000D01*
X224550495Y-82223796D01*
X224526227Y-82220196D01*
X224502428Y-82214235D01*
X224479329Y-82205970D01*
X224457150Y-82195480D01*
X224436107Y-82182868D01*
X224416401Y-82168253D01*
X224398223Y-82151777D01*
X224381747Y-82133599D01*
X224367132Y-82113893D01*
X224354520Y-82092850D01*
X224344030Y-82070671D01*
X224335765Y-82047572D01*
X224329804Y-82023773D01*
X224326204Y-81999505D01*
X224325000Y-81975001D01*
X224325000Y-81324999D01*
X224326204Y-81300495D01*
X224329804Y-81276227D01*
X224335765Y-81252428D01*
X224344030Y-81229329D01*
X224354520Y-81207150D01*
X224367132Y-81186107D01*
X224381747Y-81166401D01*
X224398223Y-81148223D01*
X224416401Y-81131747D01*
X224436107Y-81117132D01*
X224457150Y-81104520D01*
X224479329Y-81094030D01*
X224502428Y-81085765D01*
X224526227Y-81079804D01*
X224550495Y-81076204D01*
X224574999Y-81075000D01*
X225475001Y-81075000D01*
X225499505Y-81076204D01*
X225499505Y-81076204D01*
G37*
D12*
X225025000Y-81650000D03*
D13*
X222695000Y-118600000D03*
X222695000Y-126550000D03*
X227195000Y-118600000D03*
X227195000Y-126550000D03*
D14*
X223035000Y-113595000D03*
X227035000Y-113595000D03*
D10*
X216195000Y-93905000D03*
D15*
X209775000Y-78150000D03*
D11*
G36*
X225417505Y-106524204D02*
G01*
X225441773Y-106527804D01*
X225465572Y-106533765D01*
X225488671Y-106542030D01*
X225510850Y-106552520D01*
X225531893Y-106565132D01*
X225551599Y-106579747D01*
X225569777Y-106596223D01*
X225586253Y-106614401D01*
X225600868Y-106634107D01*
X225613480Y-106655150D01*
X225623970Y-106677329D01*
X225632235Y-106700428D01*
X225638196Y-106724227D01*
X225641796Y-106748495D01*
X225643000Y-106772999D01*
X225643000Y-107423001D01*
X225641796Y-107447505D01*
X225638196Y-107471773D01*
X225632235Y-107495572D01*
X225623970Y-107518671D01*
X225613480Y-107540850D01*
X225600868Y-107561893D01*
X225586253Y-107581599D01*
X225569777Y-107599777D01*
X225551599Y-107616253D01*
X225531893Y-107630868D01*
X225510850Y-107643480D01*
X225488671Y-107653970D01*
X225465572Y-107662235D01*
X225441773Y-107668196D01*
X225417505Y-107671796D01*
X225393001Y-107673000D01*
X224492999Y-107673000D01*
X224468495Y-107671796D01*
X224444227Y-107668196D01*
X224420428Y-107662235D01*
X224397329Y-107653970D01*
X224375150Y-107643480D01*
X224354107Y-107630868D01*
X224334401Y-107616253D01*
X224316223Y-107599777D01*
X224299747Y-107581599D01*
X224285132Y-107561893D01*
X224272520Y-107540850D01*
X224262030Y-107518671D01*
X224253765Y-107495572D01*
X224247804Y-107471773D01*
X224244204Y-107447505D01*
X224243000Y-107423001D01*
X224243000Y-106772999D01*
X224244204Y-106748495D01*
X224247804Y-106724227D01*
X224253765Y-106700428D01*
X224262030Y-106677329D01*
X224272520Y-106655150D01*
X224285132Y-106634107D01*
X224299747Y-106614401D01*
X224316223Y-106596223D01*
X224334401Y-106579747D01*
X224354107Y-106565132D01*
X224375150Y-106552520D01*
X224397329Y-106542030D01*
X224420428Y-106533765D01*
X224444227Y-106527804D01*
X224468495Y-106524204D01*
X224492999Y-106523000D01*
X225393001Y-106523000D01*
X225417505Y-106524204D01*
X225417505Y-106524204D01*
G37*
D12*
X224943000Y-107098000D03*
D11*
G36*
X225417505Y-108574204D02*
G01*
X225441773Y-108577804D01*
X225465572Y-108583765D01*
X225488671Y-108592030D01*
X225510850Y-108602520D01*
X225531893Y-108615132D01*
X225551599Y-108629747D01*
X225569777Y-108646223D01*
X225586253Y-108664401D01*
X225600868Y-108684107D01*
X225613480Y-108705150D01*
X225623970Y-108727329D01*
X225632235Y-108750428D01*
X225638196Y-108774227D01*
X225641796Y-108798495D01*
X225643000Y-108822999D01*
X225643000Y-109473001D01*
X225641796Y-109497505D01*
X225638196Y-109521773D01*
X225632235Y-109545572D01*
X225623970Y-109568671D01*
X225613480Y-109590850D01*
X225600868Y-109611893D01*
X225586253Y-109631599D01*
X225569777Y-109649777D01*
X225551599Y-109666253D01*
X225531893Y-109680868D01*
X225510850Y-109693480D01*
X225488671Y-109703970D01*
X225465572Y-109712235D01*
X225441773Y-109718196D01*
X225417505Y-109721796D01*
X225393001Y-109723000D01*
X224492999Y-109723000D01*
X224468495Y-109721796D01*
X224444227Y-109718196D01*
X224420428Y-109712235D01*
X224397329Y-109703970D01*
X224375150Y-109693480D01*
X224354107Y-109680868D01*
X224334401Y-109666253D01*
X224316223Y-109649777D01*
X224299747Y-109631599D01*
X224285132Y-109611893D01*
X224272520Y-109590850D01*
X224262030Y-109568671D01*
X224253765Y-109545572D01*
X224247804Y-109521773D01*
X224244204Y-109497505D01*
X224243000Y-109473001D01*
X224243000Y-108822999D01*
X224244204Y-108798495D01*
X224247804Y-108774227D01*
X224253765Y-108750428D01*
X224262030Y-108727329D01*
X224272520Y-108705150D01*
X224285132Y-108684107D01*
X224299747Y-108664401D01*
X224316223Y-108646223D01*
X224334401Y-108629747D01*
X224354107Y-108615132D01*
X224375150Y-108602520D01*
X224397329Y-108592030D01*
X224420428Y-108583765D01*
X224444227Y-108577804D01*
X224468495Y-108574204D01*
X224492999Y-108573000D01*
X225393001Y-108573000D01*
X225417505Y-108574204D01*
X225417505Y-108574204D01*
G37*
D12*
X224943000Y-109148000D03*
D10*
X224775000Y-129555000D03*
D15*
X198975000Y-78350000D03*
X202575000Y-78350000D03*
X209775000Y-83550000D03*
D13*
X232305000Y-97830000D03*
X232305000Y-89880000D03*
X227805000Y-97830000D03*
X227805000Y-89880000D03*
X221835000Y-97870000D03*
X221835000Y-89920000D03*
X217335000Y-97870000D03*
X217335000Y-89920000D03*
D10*
X233325000Y-93385000D03*
X168515000Y-110150000D03*
X132335000Y-107550000D03*
D11*
G36*
X180599505Y-101151204D02*
G01*
X180623773Y-101154804D01*
X180647572Y-101160765D01*
X180670671Y-101169030D01*
X180692850Y-101179520D01*
X180713893Y-101192132D01*
X180733599Y-101206747D01*
X180751777Y-101223223D01*
X180768253Y-101241401D01*
X180782868Y-101261107D01*
X180795480Y-101282150D01*
X180805970Y-101304329D01*
X180814235Y-101327428D01*
X180820196Y-101351227D01*
X180823796Y-101375495D01*
X180825000Y-101399999D01*
X180825000Y-102300001D01*
X180823796Y-102324505D01*
X180820196Y-102348773D01*
X180814235Y-102372572D01*
X180805970Y-102395671D01*
X180795480Y-102417850D01*
X180782868Y-102438893D01*
X180768253Y-102458599D01*
X180751777Y-102476777D01*
X180733599Y-102493253D01*
X180713893Y-102507868D01*
X180692850Y-102520480D01*
X180670671Y-102530970D01*
X180647572Y-102539235D01*
X180623773Y-102545196D01*
X180599505Y-102548796D01*
X180575001Y-102550000D01*
X179924999Y-102550000D01*
X179900495Y-102548796D01*
X179876227Y-102545196D01*
X179852428Y-102539235D01*
X179829329Y-102530970D01*
X179807150Y-102520480D01*
X179786107Y-102507868D01*
X179766401Y-102493253D01*
X179748223Y-102476777D01*
X179731747Y-102458599D01*
X179717132Y-102438893D01*
X179704520Y-102417850D01*
X179694030Y-102395671D01*
X179685765Y-102372572D01*
X179679804Y-102348773D01*
X179676204Y-102324505D01*
X179675000Y-102300001D01*
X179675000Y-101399999D01*
X179676204Y-101375495D01*
X179679804Y-101351227D01*
X179685765Y-101327428D01*
X179694030Y-101304329D01*
X179704520Y-101282150D01*
X179717132Y-101261107D01*
X179731747Y-101241401D01*
X179748223Y-101223223D01*
X179766401Y-101206747D01*
X179786107Y-101192132D01*
X179807150Y-101179520D01*
X179829329Y-101169030D01*
X179852428Y-101160765D01*
X179876227Y-101154804D01*
X179900495Y-101151204D01*
X179924999Y-101150000D01*
X180575001Y-101150000D01*
X180599505Y-101151204D01*
X180599505Y-101151204D01*
G37*
D12*
X180250000Y-101850000D03*
D11*
G36*
X182649505Y-101151204D02*
G01*
X182673773Y-101154804D01*
X182697572Y-101160765D01*
X182720671Y-101169030D01*
X182742850Y-101179520D01*
X182763893Y-101192132D01*
X182783599Y-101206747D01*
X182801777Y-101223223D01*
X182818253Y-101241401D01*
X182832868Y-101261107D01*
X182845480Y-101282150D01*
X182855970Y-101304329D01*
X182864235Y-101327428D01*
X182870196Y-101351227D01*
X182873796Y-101375495D01*
X182875000Y-101399999D01*
X182875000Y-102300001D01*
X182873796Y-102324505D01*
X182870196Y-102348773D01*
X182864235Y-102372572D01*
X182855970Y-102395671D01*
X182845480Y-102417850D01*
X182832868Y-102438893D01*
X182818253Y-102458599D01*
X182801777Y-102476777D01*
X182783599Y-102493253D01*
X182763893Y-102507868D01*
X182742850Y-102520480D01*
X182720671Y-102530970D01*
X182697572Y-102539235D01*
X182673773Y-102545196D01*
X182649505Y-102548796D01*
X182625001Y-102550000D01*
X181974999Y-102550000D01*
X181950495Y-102548796D01*
X181926227Y-102545196D01*
X181902428Y-102539235D01*
X181879329Y-102530970D01*
X181857150Y-102520480D01*
X181836107Y-102507868D01*
X181816401Y-102493253D01*
X181798223Y-102476777D01*
X181781747Y-102458599D01*
X181767132Y-102438893D01*
X181754520Y-102417850D01*
X181744030Y-102395671D01*
X181735765Y-102372572D01*
X181729804Y-102348773D01*
X181726204Y-102324505D01*
X181725000Y-102300001D01*
X181725000Y-101399999D01*
X181726204Y-101375495D01*
X181729804Y-101351227D01*
X181735765Y-101327428D01*
X181744030Y-101304329D01*
X181754520Y-101282150D01*
X181767132Y-101261107D01*
X181781747Y-101241401D01*
X181798223Y-101223223D01*
X181816401Y-101206747D01*
X181836107Y-101192132D01*
X181857150Y-101179520D01*
X181879329Y-101169030D01*
X181902428Y-101160765D01*
X181926227Y-101154804D01*
X181950495Y-101151204D01*
X181974999Y-101150000D01*
X182625001Y-101150000D01*
X182649505Y-101151204D01*
X182649505Y-101151204D01*
G37*
D12*
X182300000Y-101850000D03*
D16*
X135350000Y-104020000D03*
X143300000Y-104020000D03*
X135350000Y-99520000D03*
X143300000Y-99520000D03*
D17*
X148305000Y-103860000D03*
X148305000Y-99860000D03*
D16*
X172020000Y-104630000D03*
X164070000Y-104630000D03*
X172020000Y-109130000D03*
X164070000Y-109130000D03*
D10*
X167995000Y-93020000D03*
D16*
X171980000Y-94160000D03*
X164030000Y-94160000D03*
X171980000Y-98660000D03*
X164030000Y-98660000D03*
D11*
G36*
X153101505Y-101069204D02*
G01*
X153125773Y-101072804D01*
X153149572Y-101078765D01*
X153172671Y-101087030D01*
X153194850Y-101097520D01*
X153215893Y-101110132D01*
X153235599Y-101124747D01*
X153253777Y-101141223D01*
X153270253Y-101159401D01*
X153284868Y-101179107D01*
X153297480Y-101200150D01*
X153307970Y-101222329D01*
X153316235Y-101245428D01*
X153322196Y-101269227D01*
X153325796Y-101293495D01*
X153327000Y-101317999D01*
X153327000Y-102218001D01*
X153325796Y-102242505D01*
X153322196Y-102266773D01*
X153316235Y-102290572D01*
X153307970Y-102313671D01*
X153297480Y-102335850D01*
X153284868Y-102356893D01*
X153270253Y-102376599D01*
X153253777Y-102394777D01*
X153235599Y-102411253D01*
X153215893Y-102425868D01*
X153194850Y-102438480D01*
X153172671Y-102448970D01*
X153149572Y-102457235D01*
X153125773Y-102463196D01*
X153101505Y-102466796D01*
X153077001Y-102468000D01*
X152426999Y-102468000D01*
X152402495Y-102466796D01*
X152378227Y-102463196D01*
X152354428Y-102457235D01*
X152331329Y-102448970D01*
X152309150Y-102438480D01*
X152288107Y-102425868D01*
X152268401Y-102411253D01*
X152250223Y-102394777D01*
X152233747Y-102376599D01*
X152219132Y-102356893D01*
X152206520Y-102335850D01*
X152196030Y-102313671D01*
X152187765Y-102290572D01*
X152181804Y-102266773D01*
X152178204Y-102242505D01*
X152177000Y-102218001D01*
X152177000Y-101317999D01*
X152178204Y-101293495D01*
X152181804Y-101269227D01*
X152187765Y-101245428D01*
X152196030Y-101222329D01*
X152206520Y-101200150D01*
X152219132Y-101179107D01*
X152233747Y-101159401D01*
X152250223Y-101141223D01*
X152268401Y-101124747D01*
X152288107Y-101110132D01*
X152309150Y-101097520D01*
X152331329Y-101087030D01*
X152354428Y-101078765D01*
X152378227Y-101072804D01*
X152402495Y-101069204D01*
X152426999Y-101068000D01*
X153077001Y-101068000D01*
X153101505Y-101069204D01*
X153101505Y-101069204D01*
G37*
D12*
X152752000Y-101768000D03*
D11*
G36*
X155151505Y-101069204D02*
G01*
X155175773Y-101072804D01*
X155199572Y-101078765D01*
X155222671Y-101087030D01*
X155244850Y-101097520D01*
X155265893Y-101110132D01*
X155285599Y-101124747D01*
X155303777Y-101141223D01*
X155320253Y-101159401D01*
X155334868Y-101179107D01*
X155347480Y-101200150D01*
X155357970Y-101222329D01*
X155366235Y-101245428D01*
X155372196Y-101269227D01*
X155375796Y-101293495D01*
X155377000Y-101317999D01*
X155377000Y-102218001D01*
X155375796Y-102242505D01*
X155372196Y-102266773D01*
X155366235Y-102290572D01*
X155357970Y-102313671D01*
X155347480Y-102335850D01*
X155334868Y-102356893D01*
X155320253Y-102376599D01*
X155303777Y-102394777D01*
X155285599Y-102411253D01*
X155265893Y-102425868D01*
X155244850Y-102438480D01*
X155222671Y-102448970D01*
X155199572Y-102457235D01*
X155175773Y-102463196D01*
X155151505Y-102466796D01*
X155127001Y-102468000D01*
X154476999Y-102468000D01*
X154452495Y-102466796D01*
X154428227Y-102463196D01*
X154404428Y-102457235D01*
X154381329Y-102448970D01*
X154359150Y-102438480D01*
X154338107Y-102425868D01*
X154318401Y-102411253D01*
X154300223Y-102394777D01*
X154283747Y-102376599D01*
X154269132Y-102356893D01*
X154256520Y-102335850D01*
X154246030Y-102313671D01*
X154237765Y-102290572D01*
X154231804Y-102266773D01*
X154228204Y-102242505D01*
X154227000Y-102218001D01*
X154227000Y-101317999D01*
X154228204Y-101293495D01*
X154231804Y-101269227D01*
X154237765Y-101245428D01*
X154246030Y-101222329D01*
X154256520Y-101200150D01*
X154269132Y-101179107D01*
X154283747Y-101159401D01*
X154300223Y-101141223D01*
X154318401Y-101124747D01*
X154338107Y-101110132D01*
X154359150Y-101097520D01*
X154381329Y-101087030D01*
X154404428Y-101078765D01*
X154428227Y-101072804D01*
X154452495Y-101069204D01*
X154476999Y-101068000D01*
X155127001Y-101068000D01*
X155151505Y-101069204D01*
X155151505Y-101069204D01*
G37*
D12*
X154802000Y-101768000D03*
D10*
X132345000Y-101600000D03*
D15*
X178350000Y-86600000D03*
X183550000Y-75800000D03*
X183550000Y-79400000D03*
X183750000Y-86600000D03*
D10*
X132210000Y-150425000D03*
X168390000Y-153025000D03*
X167870000Y-135895000D03*
X132220000Y-144475000D03*
D16*
X163905000Y-141535000D03*
X171855000Y-141535000D03*
X163905000Y-137035000D03*
X171855000Y-137035000D03*
X163945000Y-152005000D03*
X171895000Y-152005000D03*
X163945000Y-147505000D03*
X171895000Y-147505000D03*
X143175000Y-142395000D03*
X135225000Y-142395000D03*
X143175000Y-146895000D03*
X135225000Y-146895000D03*
D17*
X148180000Y-142735000D03*
X148180000Y-146735000D03*
D11*
G36*
X182524505Y-144026204D02*
G01*
X182548773Y-144029804D01*
X182572572Y-144035765D01*
X182595671Y-144044030D01*
X182617850Y-144054520D01*
X182638893Y-144067132D01*
X182658599Y-144081747D01*
X182676777Y-144098223D01*
X182693253Y-144116401D01*
X182707868Y-144136107D01*
X182720480Y-144157150D01*
X182730970Y-144179329D01*
X182739235Y-144202428D01*
X182745196Y-144226227D01*
X182748796Y-144250495D01*
X182750000Y-144274999D01*
X182750000Y-145175001D01*
X182748796Y-145199505D01*
X182745196Y-145223773D01*
X182739235Y-145247572D01*
X182730970Y-145270671D01*
X182720480Y-145292850D01*
X182707868Y-145313893D01*
X182693253Y-145333599D01*
X182676777Y-145351777D01*
X182658599Y-145368253D01*
X182638893Y-145382868D01*
X182617850Y-145395480D01*
X182595671Y-145405970D01*
X182572572Y-145414235D01*
X182548773Y-145420196D01*
X182524505Y-145423796D01*
X182500001Y-145425000D01*
X181849999Y-145425000D01*
X181825495Y-145423796D01*
X181801227Y-145420196D01*
X181777428Y-145414235D01*
X181754329Y-145405970D01*
X181732150Y-145395480D01*
X181711107Y-145382868D01*
X181691401Y-145368253D01*
X181673223Y-145351777D01*
X181656747Y-145333599D01*
X181642132Y-145313893D01*
X181629520Y-145292850D01*
X181619030Y-145270671D01*
X181610765Y-145247572D01*
X181604804Y-145223773D01*
X181601204Y-145199505D01*
X181600000Y-145175001D01*
X181600000Y-144274999D01*
X181601204Y-144250495D01*
X181604804Y-144226227D01*
X181610765Y-144202428D01*
X181619030Y-144179329D01*
X181629520Y-144157150D01*
X181642132Y-144136107D01*
X181656747Y-144116401D01*
X181673223Y-144098223D01*
X181691401Y-144081747D01*
X181711107Y-144067132D01*
X181732150Y-144054520D01*
X181754329Y-144044030D01*
X181777428Y-144035765D01*
X181801227Y-144029804D01*
X181825495Y-144026204D01*
X181849999Y-144025000D01*
X182500001Y-144025000D01*
X182524505Y-144026204D01*
X182524505Y-144026204D01*
G37*
D12*
X182175000Y-144725000D03*
D11*
G36*
X180474505Y-144026204D02*
G01*
X180498773Y-144029804D01*
X180522572Y-144035765D01*
X180545671Y-144044030D01*
X180567850Y-144054520D01*
X180588893Y-144067132D01*
X180608599Y-144081747D01*
X180626777Y-144098223D01*
X180643253Y-144116401D01*
X180657868Y-144136107D01*
X180670480Y-144157150D01*
X180680970Y-144179329D01*
X180689235Y-144202428D01*
X180695196Y-144226227D01*
X180698796Y-144250495D01*
X180700000Y-144274999D01*
X180700000Y-145175001D01*
X180698796Y-145199505D01*
X180695196Y-145223773D01*
X180689235Y-145247572D01*
X180680970Y-145270671D01*
X180670480Y-145292850D01*
X180657868Y-145313893D01*
X180643253Y-145333599D01*
X180626777Y-145351777D01*
X180608599Y-145368253D01*
X180588893Y-145382868D01*
X180567850Y-145395480D01*
X180545671Y-145405970D01*
X180522572Y-145414235D01*
X180498773Y-145420196D01*
X180474505Y-145423796D01*
X180450001Y-145425000D01*
X179799999Y-145425000D01*
X179775495Y-145423796D01*
X179751227Y-145420196D01*
X179727428Y-145414235D01*
X179704329Y-145405970D01*
X179682150Y-145395480D01*
X179661107Y-145382868D01*
X179641401Y-145368253D01*
X179623223Y-145351777D01*
X179606747Y-145333599D01*
X179592132Y-145313893D01*
X179579520Y-145292850D01*
X179569030Y-145270671D01*
X179560765Y-145247572D01*
X179554804Y-145223773D01*
X179551204Y-145199505D01*
X179550000Y-145175001D01*
X179550000Y-144274999D01*
X179551204Y-144250495D01*
X179554804Y-144226227D01*
X179560765Y-144202428D01*
X179569030Y-144179329D01*
X179579520Y-144157150D01*
X179592132Y-144136107D01*
X179606747Y-144116401D01*
X179623223Y-144098223D01*
X179641401Y-144081747D01*
X179661107Y-144067132D01*
X179682150Y-144054520D01*
X179704329Y-144044030D01*
X179727428Y-144035765D01*
X179751227Y-144029804D01*
X179775495Y-144026204D01*
X179799999Y-144025000D01*
X180450001Y-144025000D01*
X180474505Y-144026204D01*
X180474505Y-144026204D01*
G37*
D12*
X180125000Y-144725000D03*
D11*
G36*
X155026505Y-143944204D02*
G01*
X155050773Y-143947804D01*
X155074572Y-143953765D01*
X155097671Y-143962030D01*
X155119850Y-143972520D01*
X155140893Y-143985132D01*
X155160599Y-143999747D01*
X155178777Y-144016223D01*
X155195253Y-144034401D01*
X155209868Y-144054107D01*
X155222480Y-144075150D01*
X155232970Y-144097329D01*
X155241235Y-144120428D01*
X155247196Y-144144227D01*
X155250796Y-144168495D01*
X155252000Y-144192999D01*
X155252000Y-145093001D01*
X155250796Y-145117505D01*
X155247196Y-145141773D01*
X155241235Y-145165572D01*
X155232970Y-145188671D01*
X155222480Y-145210850D01*
X155209868Y-145231893D01*
X155195253Y-145251599D01*
X155178777Y-145269777D01*
X155160599Y-145286253D01*
X155140893Y-145300868D01*
X155119850Y-145313480D01*
X155097671Y-145323970D01*
X155074572Y-145332235D01*
X155050773Y-145338196D01*
X155026505Y-145341796D01*
X155002001Y-145343000D01*
X154351999Y-145343000D01*
X154327495Y-145341796D01*
X154303227Y-145338196D01*
X154279428Y-145332235D01*
X154256329Y-145323970D01*
X154234150Y-145313480D01*
X154213107Y-145300868D01*
X154193401Y-145286253D01*
X154175223Y-145269777D01*
X154158747Y-145251599D01*
X154144132Y-145231893D01*
X154131520Y-145210850D01*
X154121030Y-145188671D01*
X154112765Y-145165572D01*
X154106804Y-145141773D01*
X154103204Y-145117505D01*
X154102000Y-145093001D01*
X154102000Y-144192999D01*
X154103204Y-144168495D01*
X154106804Y-144144227D01*
X154112765Y-144120428D01*
X154121030Y-144097329D01*
X154131520Y-144075150D01*
X154144132Y-144054107D01*
X154158747Y-144034401D01*
X154175223Y-144016223D01*
X154193401Y-143999747D01*
X154213107Y-143985132D01*
X154234150Y-143972520D01*
X154256329Y-143962030D01*
X154279428Y-143953765D01*
X154303227Y-143947804D01*
X154327495Y-143944204D01*
X154351999Y-143943000D01*
X155002001Y-143943000D01*
X155026505Y-143944204D01*
X155026505Y-143944204D01*
G37*
D12*
X154677000Y-144643000D03*
D11*
G36*
X152976505Y-143944204D02*
G01*
X153000773Y-143947804D01*
X153024572Y-143953765D01*
X153047671Y-143962030D01*
X153069850Y-143972520D01*
X153090893Y-143985132D01*
X153110599Y-143999747D01*
X153128777Y-144016223D01*
X153145253Y-144034401D01*
X153159868Y-144054107D01*
X153172480Y-144075150D01*
X153182970Y-144097329D01*
X153191235Y-144120428D01*
X153197196Y-144144227D01*
X153200796Y-144168495D01*
X153202000Y-144192999D01*
X153202000Y-145093001D01*
X153200796Y-145117505D01*
X153197196Y-145141773D01*
X153191235Y-145165572D01*
X153182970Y-145188671D01*
X153172480Y-145210850D01*
X153159868Y-145231893D01*
X153145253Y-145251599D01*
X153128777Y-145269777D01*
X153110599Y-145286253D01*
X153090893Y-145300868D01*
X153069850Y-145313480D01*
X153047671Y-145323970D01*
X153024572Y-145332235D01*
X153000773Y-145338196D01*
X152976505Y-145341796D01*
X152952001Y-145343000D01*
X152301999Y-145343000D01*
X152277495Y-145341796D01*
X152253227Y-145338196D01*
X152229428Y-145332235D01*
X152206329Y-145323970D01*
X152184150Y-145313480D01*
X152163107Y-145300868D01*
X152143401Y-145286253D01*
X152125223Y-145269777D01*
X152108747Y-145251599D01*
X152094132Y-145231893D01*
X152081520Y-145210850D01*
X152071030Y-145188671D01*
X152062765Y-145165572D01*
X152056804Y-145141773D01*
X152053204Y-145117505D01*
X152052000Y-145093001D01*
X152052000Y-144192999D01*
X152053204Y-144168495D01*
X152056804Y-144144227D01*
X152062765Y-144120428D01*
X152071030Y-144097329D01*
X152081520Y-144075150D01*
X152094132Y-144054107D01*
X152108747Y-144034401D01*
X152125223Y-144016223D01*
X152143401Y-143999747D01*
X152163107Y-143985132D01*
X152184150Y-143972520D01*
X152206329Y-143962030D01*
X152229428Y-143953765D01*
X152253227Y-143947804D01*
X152277495Y-143944204D01*
X152301999Y-143943000D01*
X152952001Y-143943000D01*
X152976505Y-143944204D01*
X152976505Y-143944204D01*
G37*
D12*
X152627000Y-144643000D03*
D15*
X183425000Y-122275000D03*
X183425000Y-118675000D03*
X183625000Y-129475000D03*
X178225000Y-129475000D03*
M02*
