G04 #@! TF.GenerationSoftware,KiCad,Pcbnew,(5.1.4)-1*
G04 #@! TF.CreationDate,2020-04-09T13:39:23+02:00*
G04 #@! TF.ProjectId,output.sky_panel_03_kits,6f757470-7574-42e7-936b-795f70616e65,rev?*
G04 #@! TF.SameCoordinates,Original*
G04 #@! TF.FileFunction,Legend,Top*
G04 #@! TF.FilePolarity,Positive*
%FSLAX46Y46*%
G04 Gerber Fmt 4.6, Leading zero omitted, Abs format (unit mm)*
G04 Created by KiCad (PCBNEW (5.1.4)-1) date 2020-04-09 13:39:23*
%MOMM*%
%LPD*%
G04 APERTURE LIST*
%ADD10C,0.120000*%
%ADD11C,0.100000*%
%ADD12C,0.200000*%
%ADD13C,0.400000*%
%ADD14C,0.152400*%
%ADD15C,0.254000*%
%ADD16C,0.127000*%
%ADD17C,0.150000*%
%ADD18C,0.015000*%
G04 APERTURE END LIST*
D10*
X199171267Y-118215000D02*
X198828733Y-118215000D01*
X199171267Y-119235000D02*
X198828733Y-119235000D01*
D11*
X196995000Y-104570000D02*
X196995000Y-100570000D01*
X196995000Y-100570000D02*
X206995000Y-100570000D01*
X206995000Y-100570000D02*
X206995000Y-101570000D01*
X197495000Y-114570000D02*
X196995000Y-114570000D01*
X206495000Y-114570000D02*
X206995000Y-114570000D01*
D12*
X207895000Y-102770000D02*
X207895000Y-102770000D01*
X208095000Y-102770000D02*
X208095000Y-102770000D01*
X208095000Y-102770000D02*
G75*
G02X207895000Y-102770000I-100000J0D01*
G01*
X207895000Y-102770000D02*
G75*
G02X208095000Y-102770000I100000J0D01*
G01*
X199905000Y-128290000D02*
X199905000Y-124590000D01*
X199905000Y-124590000D02*
X206405000Y-124590000D01*
X206405000Y-124590000D02*
X206405000Y-128290000D01*
X206405000Y-128290000D02*
X199905000Y-128290000D01*
X199655000Y-130115000D02*
X199655000Y-128640000D01*
D10*
X207596267Y-118490000D02*
X207253733Y-118490000D01*
X207596267Y-119510000D02*
X207253733Y-119510000D01*
D12*
X204335000Y-119110000D02*
X204335000Y-119510000D01*
X204335000Y-119510000D02*
X201435000Y-119510000D01*
X201435000Y-119510000D02*
X201435000Y-119110000D01*
X201435000Y-119110000D02*
X204335000Y-119110000D01*
X204385000Y-117360000D02*
X204385000Y-118760000D01*
D10*
X207546267Y-115640000D02*
X207203733Y-115640000D01*
X207546267Y-116660000D02*
X207203733Y-116660000D01*
X197641267Y-125340000D02*
X197298733Y-125340000D01*
X197641267Y-126360000D02*
X197298733Y-126360000D01*
X207546267Y-117065000D02*
X207203733Y-117065000D01*
X207546267Y-118085000D02*
X207203733Y-118085000D01*
X197671267Y-127020000D02*
X197328733Y-127020000D01*
X197671267Y-128040000D02*
X197328733Y-128040000D01*
X219096267Y-87165000D02*
X218753733Y-87165000D01*
X219096267Y-88185000D02*
X218753733Y-88185000D01*
X199171267Y-116715000D02*
X198828733Y-116715000D01*
X199171267Y-117735000D02*
X198828733Y-117735000D01*
X199171267Y-119715000D02*
X198828733Y-119715000D01*
X199171267Y-120735000D02*
X198828733Y-120735000D01*
X202771267Y-115865000D02*
X202428733Y-115865000D01*
X202771267Y-116885000D02*
X202428733Y-116885000D01*
X230676267Y-83615000D02*
X230333733Y-83615000D01*
X230676267Y-84635000D02*
X230333733Y-84635000D01*
D12*
X230565000Y-95015000D02*
X230565000Y-96015000D01*
X230565000Y-104015000D02*
X230565000Y-103015000D01*
X230565000Y-104015000D02*
X234165000Y-104015000D01*
X234165000Y-104015000D02*
X234165000Y-101315000D01*
X234165000Y-101315000D02*
X236165000Y-101315000D01*
X236165000Y-101315000D02*
X236165000Y-99815000D01*
X236165000Y-99815000D02*
X234165000Y-99815000D01*
X234165000Y-99815000D02*
X234165000Y-95015000D01*
X234165000Y-95015000D02*
X230565000Y-95015000D01*
D13*
X227769150Y-101914000D02*
G75*
G03X227769150Y-101914000I-164150J0D01*
G01*
D11*
X226615000Y-100345000D02*
X226615000Y-104345000D01*
X226615000Y-104345000D02*
X216615000Y-104345000D01*
X216615000Y-104345000D02*
X216615000Y-103345000D01*
X226115000Y-90345000D02*
X226615000Y-90345000D01*
X217115000Y-90345000D02*
X216615000Y-90345000D01*
D12*
X215715000Y-102145000D02*
X215715000Y-102145000D01*
X215515000Y-102145000D02*
X215515000Y-102145000D01*
X215515000Y-102145000D02*
G75*
G02X215715000Y-102145000I100000J0D01*
G01*
X215715000Y-102145000D02*
G75*
G02X215515000Y-102145000I-100000J0D01*
G01*
D10*
X230348733Y-86215000D02*
X230691267Y-86215000D01*
X230348733Y-85195000D02*
X230691267Y-85195000D01*
X225613748Y-77005000D02*
X226136252Y-77005000D01*
X225613748Y-78425000D02*
X226136252Y-78425000D01*
X219081267Y-85625000D02*
X218738733Y-85625000D01*
X219081267Y-86645000D02*
X218738733Y-86645000D01*
X230676267Y-82085000D02*
X230333733Y-82085000D01*
X230676267Y-83105000D02*
X230333733Y-83105000D01*
D11*
X232845000Y-106175000D02*
X232845000Y-130575000D01*
X232845000Y-130575000D02*
X216845000Y-130575000D01*
X216845000Y-130575000D02*
X216845000Y-106175000D01*
X216845000Y-106175000D02*
X232845000Y-106175000D01*
D12*
X216345000Y-126225000D02*
X216345000Y-126225000D01*
X216345000Y-126425000D02*
X216345000Y-126425000D01*
X216345000Y-126425000D02*
G75*
G03X216345000Y-126225000I0J100000D01*
G01*
X216345000Y-126225000D02*
G75*
G03X216345000Y-126425000I0J-100000D01*
G01*
D10*
X230681267Y-80585000D02*
X230338733Y-80585000D01*
X230681267Y-81605000D02*
X230338733Y-81605000D01*
D11*
X233665000Y-88460000D02*
X233665000Y-94350000D01*
X228765000Y-88460000D02*
X228765000Y-94350000D01*
D12*
X233015000Y-87505000D02*
X233015000Y-87505000D01*
X233215000Y-87505000D02*
X233215000Y-87505000D01*
X233215000Y-87505000D02*
G75*
G03X233015000Y-87505000I-100000J0D01*
G01*
X233015000Y-87505000D02*
G75*
G03X233215000Y-87505000I100000J0D01*
G01*
D10*
X199171267Y-121215000D02*
X198828733Y-121215000D01*
X199171267Y-122235000D02*
X198828733Y-122235000D01*
X225543733Y-88165000D02*
X225886267Y-88165000D01*
X225543733Y-87145000D02*
X225886267Y-87145000D01*
X199065000Y-79953733D02*
X199065000Y-80296267D01*
X200085000Y-79953733D02*
X200085000Y-80296267D01*
X196965000Y-78203733D02*
X196965000Y-78546267D01*
X197985000Y-78203733D02*
X197985000Y-78546267D01*
D14*
X204151400Y-81926000D02*
X204151400Y-81773600D01*
X200798600Y-84974000D02*
X200798600Y-85126400D01*
X200798600Y-85126400D02*
X204151400Y-85126400D01*
X204151400Y-85126400D02*
X204151400Y-84974000D01*
X204151400Y-81773600D02*
X200798600Y-81773600D01*
X200798600Y-81773600D02*
X200798600Y-81926000D01*
D10*
X198465000Y-76603733D02*
X198465000Y-76946267D01*
X199485000Y-76603733D02*
X199485000Y-76946267D01*
X208365000Y-85003733D02*
X208365000Y-85346267D01*
X209385000Y-85003733D02*
X209385000Y-85346267D01*
D12*
X210525000Y-77250000D02*
X208225000Y-77250000D01*
D15*
X196275000Y-85200000D02*
X196275000Y-87413000D01*
X200275000Y-85200000D02*
X200275000Y-87547000D01*
X197508000Y-89450000D02*
X198997000Y-89450000D01*
X196275000Y-85200000D02*
X197130000Y-85200000D01*
X200275000Y-85200000D02*
X199375000Y-85200000D01*
D10*
X223425000Y-82575000D02*
X223425000Y-86025000D01*
X223425000Y-82575000D02*
X223425000Y-80625000D01*
X228545000Y-82575000D02*
X228545000Y-84525000D01*
X228545000Y-82575000D02*
X228545000Y-80625000D01*
D16*
X201825000Y-81450000D02*
X204525000Y-81450000D01*
D12*
X206175000Y-80550000D02*
G75*
G03X206175000Y-80550000I-100000J0D01*
G01*
D16*
X204525000Y-79650000D02*
X201825000Y-79650000D01*
D10*
X197565000Y-81878733D02*
X197565000Y-82221267D01*
X198585000Y-81878733D02*
X198585000Y-82221267D01*
X209385000Y-81546267D02*
X209385000Y-81203733D01*
X208365000Y-81546267D02*
X208365000Y-81203733D01*
D14*
X206675000Y-77240000D02*
X206675000Y-77240000D01*
X204973600Y-74251400D02*
X201976400Y-74251400D01*
X201976400Y-77248600D02*
X203170200Y-77248600D01*
X203170200Y-77248600D02*
X203779800Y-77248600D01*
X203779800Y-77248600D02*
X204973600Y-77248600D01*
X203170200Y-77248600D02*
G75*
G02X203271800Y-77020000I307522J201D01*
G01*
X203678200Y-77020000D02*
G75*
G02X203779800Y-77248600I-205922J-228399D01*
G01*
D10*
X205071267Y-85540000D02*
X204728733Y-85540000D01*
X205071267Y-86560000D02*
X204728733Y-86560000D01*
X209435000Y-87490000D02*
X209435000Y-88250000D01*
X208675000Y-87490000D02*
X209435000Y-87490000D01*
X205875000Y-93810000D02*
X205875000Y-89810000D01*
X206395000Y-93810000D02*
X205875000Y-93810000D01*
X206395000Y-89810000D02*
X206395000Y-93810000D01*
X206785323Y-88690000D02*
X206754677Y-88690000D01*
X206770000Y-88690000D02*
X206770000Y-89810000D01*
X207145000Y-93810000D02*
X207145000Y-89810000D01*
X207665000Y-93810000D02*
X207145000Y-93810000D01*
X207665000Y-89810000D02*
X207665000Y-93810000D01*
X208040000Y-89010000D02*
X208040000Y-89810000D01*
X208515000Y-89810000D02*
X208515000Y-93810000D01*
X208635000Y-89810000D02*
X208635000Y-93810000D01*
X208755000Y-89810000D02*
X208755000Y-93810000D01*
X208875000Y-89810000D02*
X208875000Y-93810000D01*
X208415000Y-93810000D02*
X208415000Y-89810000D01*
X208935000Y-93810000D02*
X208415000Y-93810000D01*
X208935000Y-89810000D02*
X208935000Y-93810000D01*
X205440000Y-88690000D02*
X205515323Y-88690000D01*
X205440000Y-89810000D02*
X205440000Y-88690000D01*
X209370000Y-89810000D02*
X205440000Y-89810000D01*
X209370000Y-89010000D02*
X209370000Y-89810000D01*
X197671267Y-128890000D02*
X197328733Y-128890000D01*
X197671267Y-129910000D02*
X197328733Y-129910000D01*
D12*
X217390000Y-85070000D02*
X217390000Y-83720000D01*
D11*
X219165000Y-83495000D02*
X221165000Y-83495000D01*
X221165000Y-79095000D02*
X219165000Y-79095000D01*
X222690000Y-82795000D02*
X222690000Y-79795000D01*
X217640000Y-82795000D02*
X217640000Y-79795000D01*
D10*
X204535000Y-87490000D02*
X204535000Y-88250000D01*
X203775000Y-87490000D02*
X204535000Y-87490000D01*
X202245000Y-93810000D02*
X202245000Y-89810000D01*
X202765000Y-93810000D02*
X202245000Y-93810000D01*
X202765000Y-89810000D02*
X202765000Y-93810000D01*
X203140000Y-89010000D02*
X203140000Y-89810000D01*
X203615000Y-89810000D02*
X203615000Y-93810000D01*
X203735000Y-89810000D02*
X203735000Y-93810000D01*
X203855000Y-89810000D02*
X203855000Y-93810000D01*
X203975000Y-89810000D02*
X203975000Y-93810000D01*
X203515000Y-93810000D02*
X203515000Y-89810000D01*
X204035000Y-93810000D02*
X203515000Y-93810000D01*
X204035000Y-89810000D02*
X204035000Y-93810000D01*
X201810000Y-88690000D02*
X201885323Y-88690000D01*
X201810000Y-89810000D02*
X201810000Y-88690000D01*
X204470000Y-89810000D02*
X201810000Y-89810000D01*
X204470000Y-89010000D02*
X204470000Y-89810000D01*
X195875000Y-74710000D02*
X195875000Y-73950000D01*
X196635000Y-74710000D02*
X195875000Y-74710000D01*
X199435000Y-68390000D02*
X199435000Y-72390000D01*
X198915000Y-68390000D02*
X199435000Y-68390000D01*
X198915000Y-72390000D02*
X198915000Y-68390000D01*
X198524677Y-73510000D02*
X198555323Y-73510000D01*
X198540000Y-73510000D02*
X198540000Y-72390000D01*
X198165000Y-68390000D02*
X198165000Y-72390000D01*
X197645000Y-68390000D02*
X198165000Y-68390000D01*
X197645000Y-72390000D02*
X197645000Y-68390000D01*
X197270000Y-73190000D02*
X197270000Y-72390000D01*
X196795000Y-72390000D02*
X196795000Y-68390000D01*
X196675000Y-72390000D02*
X196675000Y-68390000D01*
X196555000Y-72390000D02*
X196555000Y-68390000D01*
X196435000Y-72390000D02*
X196435000Y-68390000D01*
X196895000Y-68390000D02*
X196895000Y-72390000D01*
X196375000Y-68390000D02*
X196895000Y-68390000D01*
X196375000Y-72390000D02*
X196375000Y-68390000D01*
X199870000Y-73510000D02*
X199794677Y-73510000D01*
X199870000Y-72390000D02*
X199870000Y-73510000D01*
X195940000Y-72390000D02*
X199870000Y-72390000D01*
X195940000Y-73190000D02*
X195940000Y-72390000D01*
D12*
X209100000Y-122300000D02*
X207900000Y-122300000D01*
X159130000Y-84720000D02*
G75*
G02X159130000Y-84920000I0J-100000D01*
G01*
X159130000Y-84920000D02*
G75*
G02X159130000Y-84720000I0J100000D01*
G01*
X159130000Y-84920000D02*
X159130000Y-84920000D01*
X159130000Y-84720000D02*
X159130000Y-84720000D01*
D11*
X147330000Y-83320000D02*
X147330000Y-83820000D01*
X147330000Y-74320000D02*
X147330000Y-73820000D01*
X161330000Y-83820000D02*
X160330000Y-83820000D01*
X161330000Y-73820000D02*
X161330000Y-83820000D01*
X157330000Y-73820000D02*
X161330000Y-73820000D01*
D12*
X131785000Y-76480000D02*
X133260000Y-76480000D01*
X133610000Y-83230000D02*
X133610000Y-76730000D01*
X137310000Y-83230000D02*
X133610000Y-83230000D01*
X137310000Y-76730000D02*
X137310000Y-83230000D01*
X133610000Y-76730000D02*
X137310000Y-76730000D01*
D10*
X145240000Y-84371267D02*
X145240000Y-84028733D01*
X146260000Y-84371267D02*
X146260000Y-84028733D01*
D12*
X144540000Y-81210000D02*
X143140000Y-81210000D01*
X142790000Y-78260000D02*
X142790000Y-81160000D01*
X142390000Y-78260000D02*
X142790000Y-78260000D01*
X142390000Y-81160000D02*
X142390000Y-78260000D01*
X142790000Y-81160000D02*
X142390000Y-81160000D01*
D10*
X135540000Y-74466267D02*
X135540000Y-74123733D01*
X136560000Y-74466267D02*
X136560000Y-74123733D01*
X143815000Y-84371267D02*
X143815000Y-84028733D01*
X144835000Y-84371267D02*
X144835000Y-84028733D01*
X142665000Y-75996267D02*
X142665000Y-75653733D01*
X143685000Y-75996267D02*
X143685000Y-75653733D01*
X142390000Y-84421267D02*
X142390000Y-84078733D01*
X143410000Y-84421267D02*
X143410000Y-84078733D01*
X133860000Y-74496267D02*
X133860000Y-74153733D01*
X134880000Y-74496267D02*
X134880000Y-74153733D01*
X144165000Y-75996267D02*
X144165000Y-75653733D01*
X145185000Y-75996267D02*
X145185000Y-75653733D01*
X141165000Y-75996267D02*
X141165000Y-75653733D01*
X142185000Y-75996267D02*
X142185000Y-75653733D01*
D13*
X160150150Y-104430000D02*
G75*
G03X160150150Y-104430000I-164150J0D01*
G01*
D12*
X166885000Y-110990000D02*
X166885000Y-107390000D01*
X162085000Y-110990000D02*
X166885000Y-110990000D01*
X162085000Y-112990000D02*
X162085000Y-110990000D01*
X160585000Y-112990000D02*
X162085000Y-112990000D01*
X160585000Y-110990000D02*
X160585000Y-112990000D01*
X157885000Y-110990000D02*
X160585000Y-110990000D01*
X157885000Y-107390000D02*
X157885000Y-110990000D01*
X157885000Y-107390000D02*
X158885000Y-107390000D01*
X166885000Y-107390000D02*
X165885000Y-107390000D01*
D10*
X183475000Y-102438748D02*
X183475000Y-102961252D01*
X184895000Y-102438748D02*
X184895000Y-102961252D01*
X175255000Y-95906267D02*
X175255000Y-95563733D01*
X176275000Y-95906267D02*
X176275000Y-95563733D01*
X178795000Y-107501267D02*
X178795000Y-107158733D01*
X179815000Y-107501267D02*
X179815000Y-107158733D01*
X173715000Y-95921267D02*
X173715000Y-95578733D01*
X174735000Y-95921267D02*
X174735000Y-95578733D01*
D12*
X159755000Y-92540000D02*
G75*
G02X159755000Y-92340000I0J100000D01*
G01*
X159755000Y-92340000D02*
G75*
G02X159755000Y-92540000I0J-100000D01*
G01*
X159755000Y-92340000D02*
X159755000Y-92340000D01*
X159755000Y-92540000D02*
X159755000Y-92540000D01*
D11*
X171555000Y-93940000D02*
X171555000Y-93440000D01*
X171555000Y-102940000D02*
X171555000Y-103440000D01*
X157555000Y-93440000D02*
X158555000Y-93440000D01*
X157555000Y-103440000D02*
X157555000Y-93440000D01*
X161555000Y-103440000D02*
X157555000Y-103440000D01*
D10*
X176705000Y-107173733D02*
X176705000Y-107516267D01*
X175685000Y-107173733D02*
X175685000Y-107516267D01*
D12*
X135675000Y-93170000D02*
G75*
G03X135475000Y-93170000I-100000J0D01*
G01*
X135475000Y-93170000D02*
G75*
G03X135675000Y-93170000I100000J0D01*
G01*
X135475000Y-93170000D02*
X135475000Y-93170000D01*
X135675000Y-93170000D02*
X135675000Y-93170000D01*
D11*
X155725000Y-93670000D02*
X155725000Y-109670000D01*
X131325000Y-93670000D02*
X155725000Y-93670000D01*
X131325000Y-109670000D02*
X131325000Y-93670000D01*
X155725000Y-109670000D02*
X131325000Y-109670000D01*
D10*
X177265000Y-107501267D02*
X177265000Y-107158733D01*
X178285000Y-107501267D02*
X178285000Y-107158733D01*
X145015000Y-79596267D02*
X145015000Y-79253733D01*
X146035000Y-79596267D02*
X146035000Y-79253733D01*
X180295000Y-107506267D02*
X180295000Y-107163733D01*
X181315000Y-107506267D02*
X181315000Y-107163733D01*
D12*
X174395000Y-109840000D02*
G75*
G03X174395000Y-110040000I0J-100000D01*
G01*
X174395000Y-110040000D02*
G75*
G03X174395000Y-109840000I0J100000D01*
G01*
X174395000Y-110040000D02*
X174395000Y-110040000D01*
X174395000Y-109840000D02*
X174395000Y-109840000D01*
D11*
X173440000Y-105590000D02*
X167550000Y-105590000D01*
X173440000Y-110490000D02*
X167550000Y-110490000D01*
D10*
X139665000Y-75996267D02*
X139665000Y-75653733D01*
X140685000Y-75996267D02*
X140685000Y-75653733D01*
X174755000Y-102368733D02*
X174755000Y-102711267D01*
X173735000Y-102368733D02*
X173735000Y-102711267D01*
X131990000Y-74496267D02*
X131990000Y-74153733D01*
X133010000Y-74496267D02*
X133010000Y-74153733D01*
X179325000Y-105370000D02*
X181275000Y-105370000D01*
X179325000Y-105370000D02*
X177375000Y-105370000D01*
X179325000Y-100250000D02*
X181275000Y-100250000D01*
X179325000Y-100250000D02*
X175875000Y-100250000D01*
D12*
X139600000Y-85925000D02*
X139600000Y-84725000D01*
D11*
X179105000Y-94465000D02*
X182105000Y-94465000D01*
X179105000Y-99515000D02*
X182105000Y-99515000D01*
X182805000Y-97990000D02*
X182805000Y-95990000D01*
X178405000Y-95990000D02*
X178405000Y-97990000D01*
D12*
X176830000Y-94215000D02*
X178180000Y-94215000D01*
D10*
X185296267Y-76310000D02*
X184953733Y-76310000D01*
X185296267Y-75290000D02*
X184953733Y-75290000D01*
X176896267Y-86210000D02*
X176553733Y-86210000D01*
X176896267Y-85190000D02*
X176553733Y-85190000D01*
X180353733Y-85190000D02*
X180696267Y-85190000D01*
X180353733Y-86210000D02*
X180696267Y-86210000D01*
X181946267Y-76910000D02*
X181603733Y-76910000D01*
X181946267Y-75890000D02*
X181603733Y-75890000D01*
D16*
X182250000Y-81350000D02*
X182250000Y-78650000D01*
D12*
X181450000Y-82900000D02*
G75*
G03X181450000Y-82900000I-100000J0D01*
G01*
D16*
X180450000Y-78650000D02*
X180450000Y-81350000D01*
D10*
X172890000Y-86195000D02*
X172090000Y-86195000D01*
X172090000Y-86195000D02*
X172090000Y-82265000D01*
X172090000Y-82265000D02*
X173210000Y-82265000D01*
X173210000Y-82265000D02*
X173210000Y-82340323D01*
X172090000Y-85760000D02*
X168090000Y-85760000D01*
X168090000Y-85760000D02*
X168090000Y-85240000D01*
X168090000Y-85240000D02*
X172090000Y-85240000D01*
X172090000Y-85700000D02*
X168090000Y-85700000D01*
X172090000Y-85580000D02*
X168090000Y-85580000D01*
X172090000Y-85460000D02*
X168090000Y-85460000D01*
X172090000Y-85340000D02*
X168090000Y-85340000D01*
X172890000Y-84865000D02*
X172090000Y-84865000D01*
X172090000Y-84490000D02*
X168090000Y-84490000D01*
X168090000Y-84490000D02*
X168090000Y-83970000D01*
X168090000Y-83970000D02*
X172090000Y-83970000D01*
X173210000Y-83595000D02*
X172090000Y-83595000D01*
X173210000Y-83610323D02*
X173210000Y-83579677D01*
X172090000Y-83220000D02*
X168090000Y-83220000D01*
X168090000Y-83220000D02*
X168090000Y-82700000D01*
X168090000Y-82700000D02*
X172090000Y-82700000D01*
X174410000Y-85500000D02*
X174410000Y-86260000D01*
X174410000Y-86260000D02*
X173650000Y-86260000D01*
X180021267Y-75410000D02*
X179678733Y-75410000D01*
X180021267Y-74390000D02*
X179678733Y-74390000D01*
X183696267Y-74810000D02*
X183353733Y-74810000D01*
X183696267Y-73790000D02*
X183353733Y-73790000D01*
D14*
X180126400Y-77623600D02*
X179974000Y-77623600D01*
X180126400Y-80976400D02*
X180126400Y-77623600D01*
X176773600Y-80976400D02*
X176926000Y-80976400D01*
X176773600Y-77623600D02*
X176773600Y-80976400D01*
X176926000Y-77623600D02*
X176773600Y-77623600D01*
X179974000Y-80976400D02*
X180126400Y-80976400D01*
X184880000Y-80503200D02*
G75*
G02X184651400Y-80604800I-228399J205922D01*
G01*
X184651400Y-79995200D02*
G75*
G02X184880000Y-80096800I201J-307522D01*
G01*
X184651400Y-80604800D02*
X184651400Y-81798600D01*
X184651400Y-79995200D02*
X184651400Y-80604800D01*
X184651400Y-78801400D02*
X184651400Y-79995200D01*
X187648600Y-81798600D02*
X187648600Y-78801400D01*
X184660000Y-83500000D02*
X184660000Y-83500000D01*
D15*
X176700000Y-77100000D02*
X176700000Y-76200000D01*
X176700000Y-73100000D02*
X176700000Y-73955000D01*
X172450000Y-74333000D02*
X172450000Y-75822000D01*
X176700000Y-77100000D02*
X174353000Y-77100000D01*
X176700000Y-73100000D02*
X174487000Y-73100000D01*
D12*
X184650000Y-87350000D02*
X184650000Y-85050000D01*
D10*
X172890000Y-81295000D02*
X172090000Y-81295000D01*
X172090000Y-81295000D02*
X172090000Y-78635000D01*
X172090000Y-78635000D02*
X173210000Y-78635000D01*
X173210000Y-78635000D02*
X173210000Y-78710323D01*
X172090000Y-80860000D02*
X168090000Y-80860000D01*
X168090000Y-80860000D02*
X168090000Y-80340000D01*
X168090000Y-80340000D02*
X172090000Y-80340000D01*
X172090000Y-80800000D02*
X168090000Y-80800000D01*
X172090000Y-80680000D02*
X168090000Y-80680000D01*
X172090000Y-80560000D02*
X168090000Y-80560000D01*
X172090000Y-80440000D02*
X168090000Y-80440000D01*
X172890000Y-79965000D02*
X172090000Y-79965000D01*
X172090000Y-79590000D02*
X168090000Y-79590000D01*
X168090000Y-79590000D02*
X168090000Y-79070000D01*
X168090000Y-79070000D02*
X172090000Y-79070000D01*
X174410000Y-80600000D02*
X174410000Y-81360000D01*
X174410000Y-81360000D02*
X173650000Y-81360000D01*
X188710000Y-72765000D02*
X189510000Y-72765000D01*
X189510000Y-72765000D02*
X189510000Y-76695000D01*
X189510000Y-76695000D02*
X188390000Y-76695000D01*
X188390000Y-76695000D02*
X188390000Y-76619677D01*
X189510000Y-73200000D02*
X193510000Y-73200000D01*
X193510000Y-73200000D02*
X193510000Y-73720000D01*
X193510000Y-73720000D02*
X189510000Y-73720000D01*
X189510000Y-73260000D02*
X193510000Y-73260000D01*
X189510000Y-73380000D02*
X193510000Y-73380000D01*
X189510000Y-73500000D02*
X193510000Y-73500000D01*
X189510000Y-73620000D02*
X193510000Y-73620000D01*
X188710000Y-74095000D02*
X189510000Y-74095000D01*
X189510000Y-74470000D02*
X193510000Y-74470000D01*
X193510000Y-74470000D02*
X193510000Y-74990000D01*
X193510000Y-74990000D02*
X189510000Y-74990000D01*
X188390000Y-75365000D02*
X189510000Y-75365000D01*
X188390000Y-75349677D02*
X188390000Y-75380323D01*
X189510000Y-75740000D02*
X193510000Y-75740000D01*
X193510000Y-75740000D02*
X193510000Y-76260000D01*
X193510000Y-76260000D02*
X189510000Y-76260000D01*
X187190000Y-73460000D02*
X187190000Y-72700000D01*
X187190000Y-72700000D02*
X187950000Y-72700000D01*
X175340000Y-81896267D02*
X175340000Y-81553733D01*
X176360000Y-81896267D02*
X176360000Y-81553733D01*
D11*
X173315000Y-153365000D02*
X167425000Y-153365000D01*
X173315000Y-148465000D02*
X167425000Y-148465000D01*
D12*
X174270000Y-152715000D02*
X174270000Y-152715000D01*
X174270000Y-152915000D02*
X174270000Y-152915000D01*
X174270000Y-152915000D02*
G75*
G03X174270000Y-152715000I0J100000D01*
G01*
X174270000Y-152715000D02*
G75*
G03X174270000Y-152915000I0J-100000D01*
G01*
D11*
X155600000Y-152545000D02*
X131200000Y-152545000D01*
X131200000Y-152545000D02*
X131200000Y-136545000D01*
X131200000Y-136545000D02*
X155600000Y-136545000D01*
X155600000Y-136545000D02*
X155600000Y-152545000D01*
D12*
X135550000Y-136045000D02*
X135550000Y-136045000D01*
X135350000Y-136045000D02*
X135350000Y-136045000D01*
X135350000Y-136045000D02*
G75*
G03X135550000Y-136045000I100000J0D01*
G01*
X135550000Y-136045000D02*
G75*
G03X135350000Y-136045000I-100000J0D01*
G01*
D11*
X161430000Y-146315000D02*
X157430000Y-146315000D01*
X157430000Y-146315000D02*
X157430000Y-136315000D01*
X157430000Y-136315000D02*
X158430000Y-136315000D01*
X171430000Y-145815000D02*
X171430000Y-146315000D01*
X171430000Y-136815000D02*
X171430000Y-136315000D01*
D12*
X159630000Y-135415000D02*
X159630000Y-135415000D01*
X159630000Y-135215000D02*
X159630000Y-135215000D01*
X159630000Y-135215000D02*
G75*
G02X159630000Y-135415000I0J-100000D01*
G01*
X159630000Y-135415000D02*
G75*
G02X159630000Y-135215000I0J100000D01*
G01*
D10*
X175560000Y-150048733D02*
X175560000Y-150391267D01*
X176580000Y-150048733D02*
X176580000Y-150391267D01*
X176150000Y-138781267D02*
X176150000Y-138438733D01*
X175130000Y-138781267D02*
X175130000Y-138438733D01*
X178160000Y-150376267D02*
X178160000Y-150033733D01*
X177140000Y-150376267D02*
X177140000Y-150033733D01*
X174610000Y-138796267D02*
X174610000Y-138453733D01*
X173590000Y-138796267D02*
X173590000Y-138453733D01*
X179690000Y-150376267D02*
X179690000Y-150033733D01*
X178670000Y-150376267D02*
X178670000Y-150033733D01*
X181190000Y-150381267D02*
X181190000Y-150038733D01*
X180170000Y-150381267D02*
X180170000Y-150038733D01*
X184770000Y-145313748D02*
X184770000Y-145836252D01*
X183350000Y-145313748D02*
X183350000Y-145836252D01*
D12*
X176705000Y-137090000D02*
X178055000Y-137090000D01*
D11*
X178280000Y-138865000D02*
X178280000Y-140865000D01*
X182680000Y-140865000D02*
X182680000Y-138865000D01*
X178980000Y-142390000D02*
X181980000Y-142390000D01*
X178980000Y-137340000D02*
X181980000Y-137340000D01*
D12*
X166760000Y-150265000D02*
X165760000Y-150265000D01*
X157760000Y-150265000D02*
X158760000Y-150265000D01*
X157760000Y-150265000D02*
X157760000Y-153865000D01*
X157760000Y-153865000D02*
X160460000Y-153865000D01*
X160460000Y-153865000D02*
X160460000Y-155865000D01*
X160460000Y-155865000D02*
X161960000Y-155865000D01*
X161960000Y-155865000D02*
X161960000Y-153865000D01*
X161960000Y-153865000D02*
X166760000Y-153865000D01*
X166760000Y-153865000D02*
X166760000Y-150265000D01*
D13*
X160025150Y-147305000D02*
G75*
G03X160025150Y-147305000I-164150J0D01*
G01*
D10*
X179200000Y-143125000D02*
X175750000Y-143125000D01*
X179200000Y-143125000D02*
X181150000Y-143125000D01*
X179200000Y-148245000D02*
X177250000Y-148245000D01*
X179200000Y-148245000D02*
X181150000Y-148245000D01*
X173610000Y-145243733D02*
X173610000Y-145586267D01*
X174630000Y-145243733D02*
X174630000Y-145586267D01*
D12*
X139475000Y-128800000D02*
X139475000Y-127600000D01*
D10*
X140560000Y-118871267D02*
X140560000Y-118528733D01*
X139540000Y-118871267D02*
X139540000Y-118528733D01*
X142060000Y-118871267D02*
X142060000Y-118528733D01*
X141040000Y-118871267D02*
X141040000Y-118528733D01*
X145910000Y-122471267D02*
X145910000Y-122128733D01*
X144890000Y-122471267D02*
X144890000Y-122128733D01*
X145060000Y-118871267D02*
X145060000Y-118528733D01*
X144040000Y-118871267D02*
X144040000Y-118528733D01*
X134755000Y-117371267D02*
X134755000Y-117028733D01*
X133735000Y-117371267D02*
X133735000Y-117028733D01*
X143285000Y-127296267D02*
X143285000Y-126953733D01*
X142265000Y-127296267D02*
X142265000Y-126953733D01*
X132885000Y-117371267D02*
X132885000Y-117028733D01*
X131865000Y-117371267D02*
X131865000Y-117028733D01*
X143560000Y-118871267D02*
X143560000Y-118528733D01*
X142540000Y-118871267D02*
X142540000Y-118528733D01*
X144710000Y-127246267D02*
X144710000Y-126903733D01*
X143690000Y-127246267D02*
X143690000Y-126903733D01*
X136435000Y-117341267D02*
X136435000Y-116998733D01*
X135415000Y-117341267D02*
X135415000Y-116998733D01*
D12*
X142665000Y-124035000D02*
X142265000Y-124035000D01*
X142265000Y-124035000D02*
X142265000Y-121135000D01*
X142265000Y-121135000D02*
X142665000Y-121135000D01*
X142665000Y-121135000D02*
X142665000Y-124035000D01*
X144415000Y-124085000D02*
X143015000Y-124085000D01*
X133485000Y-119605000D02*
X137185000Y-119605000D01*
X137185000Y-119605000D02*
X137185000Y-126105000D01*
X137185000Y-126105000D02*
X133485000Y-126105000D01*
X133485000Y-126105000D02*
X133485000Y-119605000D01*
X131660000Y-119355000D02*
X133135000Y-119355000D01*
D11*
X157205000Y-116695000D02*
X161205000Y-116695000D01*
X161205000Y-116695000D02*
X161205000Y-126695000D01*
X161205000Y-126695000D02*
X160205000Y-126695000D01*
X147205000Y-117195000D02*
X147205000Y-116695000D01*
X147205000Y-126195000D02*
X147205000Y-126695000D01*
D12*
X159005000Y-127595000D02*
X159005000Y-127595000D01*
X159005000Y-127795000D02*
X159005000Y-127795000D01*
X159005000Y-127795000D02*
G75*
G02X159005000Y-127595000I0J100000D01*
G01*
X159005000Y-127595000D02*
G75*
G02X159005000Y-127795000I0J-100000D01*
G01*
D10*
X146135000Y-127246267D02*
X146135000Y-126903733D01*
X145115000Y-127246267D02*
X145115000Y-126903733D01*
X187065000Y-115575000D02*
X187825000Y-115575000D01*
X187065000Y-116335000D02*
X187065000Y-115575000D01*
X193385000Y-119135000D02*
X189385000Y-119135000D01*
X193385000Y-118615000D02*
X193385000Y-119135000D01*
X189385000Y-118615000D02*
X193385000Y-118615000D01*
X188265000Y-118224677D02*
X188265000Y-118255323D01*
X188265000Y-118240000D02*
X189385000Y-118240000D01*
X193385000Y-117865000D02*
X189385000Y-117865000D01*
X193385000Y-117345000D02*
X193385000Y-117865000D01*
X189385000Y-117345000D02*
X193385000Y-117345000D01*
X188585000Y-116970000D02*
X189385000Y-116970000D01*
X189385000Y-116495000D02*
X193385000Y-116495000D01*
X189385000Y-116375000D02*
X193385000Y-116375000D01*
X189385000Y-116255000D02*
X193385000Y-116255000D01*
X189385000Y-116135000D02*
X193385000Y-116135000D01*
X193385000Y-116595000D02*
X189385000Y-116595000D01*
X193385000Y-116075000D02*
X193385000Y-116595000D01*
X189385000Y-116075000D02*
X193385000Y-116075000D01*
X188265000Y-119570000D02*
X188265000Y-119494677D01*
X189385000Y-119570000D02*
X188265000Y-119570000D01*
X189385000Y-115640000D02*
X189385000Y-119570000D01*
X188585000Y-115640000D02*
X189385000Y-115640000D01*
D12*
X184525000Y-130225000D02*
X184525000Y-127925000D01*
D10*
X174285000Y-124235000D02*
X173525000Y-124235000D01*
X174285000Y-123475000D02*
X174285000Y-124235000D01*
X167965000Y-121945000D02*
X171965000Y-121945000D01*
X167965000Y-122465000D02*
X167965000Y-121945000D01*
X171965000Y-122465000D02*
X167965000Y-122465000D01*
X172765000Y-122840000D02*
X171965000Y-122840000D01*
X171965000Y-123315000D02*
X167965000Y-123315000D01*
X171965000Y-123435000D02*
X167965000Y-123435000D01*
X171965000Y-123555000D02*
X167965000Y-123555000D01*
X171965000Y-123675000D02*
X167965000Y-123675000D01*
X167965000Y-123215000D02*
X171965000Y-123215000D01*
X167965000Y-123735000D02*
X167965000Y-123215000D01*
X171965000Y-123735000D02*
X167965000Y-123735000D01*
X173085000Y-121510000D02*
X173085000Y-121585323D01*
X171965000Y-121510000D02*
X173085000Y-121510000D01*
X171965000Y-124170000D02*
X171965000Y-121510000D01*
X172765000Y-124170000D02*
X171965000Y-124170000D01*
D15*
X176575000Y-115975000D02*
X174362000Y-115975000D01*
X176575000Y-119975000D02*
X174228000Y-119975000D01*
X172325000Y-117208000D02*
X172325000Y-118697000D01*
X176575000Y-115975000D02*
X176575000Y-116830000D01*
X176575000Y-119975000D02*
X176575000Y-119075000D01*
D14*
X184535000Y-126375000D02*
X184535000Y-126375000D01*
X187523600Y-124673600D02*
X187523600Y-121676400D01*
X184526400Y-121676400D02*
X184526400Y-122870200D01*
X184526400Y-122870200D02*
X184526400Y-123479800D01*
X184526400Y-123479800D02*
X184526400Y-124673600D01*
X184526400Y-122870200D02*
G75*
G02X184755000Y-122971800I201J-307522D01*
G01*
X184755000Y-123378200D02*
G75*
G02X184526400Y-123479800I-228399J205922D01*
G01*
X179849000Y-123851400D02*
X180001400Y-123851400D01*
X176801000Y-120498600D02*
X176648600Y-120498600D01*
X176648600Y-120498600D02*
X176648600Y-123851400D01*
X176648600Y-123851400D02*
X176801000Y-123851400D01*
X180001400Y-123851400D02*
X180001400Y-120498600D01*
X180001400Y-120498600D02*
X179849000Y-120498600D01*
D10*
X183571267Y-116665000D02*
X183228733Y-116665000D01*
X183571267Y-117685000D02*
X183228733Y-117685000D01*
X176235000Y-124771267D02*
X176235000Y-124428733D01*
X175215000Y-124771267D02*
X175215000Y-124428733D01*
X179896267Y-117265000D02*
X179553733Y-117265000D01*
X179896267Y-118285000D02*
X179553733Y-118285000D01*
X174285000Y-129135000D02*
X173525000Y-129135000D01*
X174285000Y-128375000D02*
X174285000Y-129135000D01*
X167965000Y-125575000D02*
X171965000Y-125575000D01*
X167965000Y-126095000D02*
X167965000Y-125575000D01*
X171965000Y-126095000D02*
X167965000Y-126095000D01*
X173085000Y-126485323D02*
X173085000Y-126454677D01*
X173085000Y-126470000D02*
X171965000Y-126470000D01*
X167965000Y-126845000D02*
X171965000Y-126845000D01*
X167965000Y-127365000D02*
X167965000Y-126845000D01*
X171965000Y-127365000D02*
X167965000Y-127365000D01*
X172765000Y-127740000D02*
X171965000Y-127740000D01*
X171965000Y-128215000D02*
X167965000Y-128215000D01*
X171965000Y-128335000D02*
X167965000Y-128335000D01*
X171965000Y-128455000D02*
X167965000Y-128455000D01*
X171965000Y-128575000D02*
X167965000Y-128575000D01*
X167965000Y-128115000D02*
X171965000Y-128115000D01*
X167965000Y-128635000D02*
X167965000Y-128115000D01*
X171965000Y-128635000D02*
X167965000Y-128635000D01*
X173085000Y-125140000D02*
X173085000Y-125215323D01*
X171965000Y-125140000D02*
X173085000Y-125140000D01*
X171965000Y-129070000D02*
X171965000Y-125140000D01*
X172765000Y-129070000D02*
X171965000Y-129070000D01*
D16*
X180325000Y-121525000D02*
X180325000Y-124225000D01*
D12*
X181325000Y-125775000D02*
G75*
G03X181325000Y-125775000I-100000J0D01*
G01*
D16*
X182125000Y-124225000D02*
X182125000Y-121525000D01*
D10*
X185171267Y-118165000D02*
X184828733Y-118165000D01*
X185171267Y-119185000D02*
X184828733Y-119185000D01*
X181821267Y-118765000D02*
X181478733Y-118765000D01*
X181821267Y-119785000D02*
X181478733Y-119785000D01*
X180228733Y-129085000D02*
X180571267Y-129085000D01*
X180228733Y-128065000D02*
X180571267Y-128065000D01*
X176771267Y-128065000D02*
X176428733Y-128065000D01*
X176771267Y-129085000D02*
X176428733Y-129085000D01*
D17*
X223473380Y-109492523D02*
X224187666Y-109492523D01*
X224330523Y-109540142D01*
X224425761Y-109635380D01*
X224473380Y-109778238D01*
X224473380Y-109873476D01*
X223568619Y-109063952D02*
X223521000Y-109016333D01*
X223473380Y-108921095D01*
X223473380Y-108683000D01*
X223521000Y-108587761D01*
X223568619Y-108540142D01*
X223663857Y-108492523D01*
X223759095Y-108492523D01*
X223901952Y-108540142D01*
X224473380Y-109111571D01*
X224473380Y-108492523D01*
X223473380Y-107873476D02*
X223473380Y-107778238D01*
X223521000Y-107683000D01*
X223568619Y-107635380D01*
X223663857Y-107587761D01*
X223854333Y-107540142D01*
X224092428Y-107540142D01*
X224282904Y-107587761D01*
X224378142Y-107635380D01*
X224425761Y-107683000D01*
X224473380Y-107778238D01*
X224473380Y-107873476D01*
X224425761Y-107968714D01*
X224378142Y-108016333D01*
X224282904Y-108063952D01*
X224092428Y-108111571D01*
X223854333Y-108111571D01*
X223663857Y-108063952D01*
X223568619Y-108016333D01*
X223521000Y-107968714D01*
X223473380Y-107873476D01*
X198833333Y-120607380D02*
X198500000Y-120131190D01*
X198261904Y-120607380D02*
X198261904Y-119607380D01*
X198642857Y-119607380D01*
X198738095Y-119655000D01*
X198785714Y-119702619D01*
X198833333Y-119797857D01*
X198833333Y-119940714D01*
X198785714Y-120035952D01*
X198738095Y-120083571D01*
X198642857Y-120131190D01*
X198261904Y-120131190D01*
X199166666Y-119607380D02*
X199785714Y-119607380D01*
X199452380Y-119988333D01*
X199595238Y-119988333D01*
X199690476Y-120035952D01*
X199738095Y-120083571D01*
X199785714Y-120178809D01*
X199785714Y-120416904D01*
X199738095Y-120512142D01*
X199690476Y-120559761D01*
X199595238Y-120607380D01*
X199309523Y-120607380D01*
X199214285Y-120559761D01*
X199166666Y-120512142D01*
D15*
X200755238Y-108444523D02*
X200755238Y-107174523D01*
X202085714Y-108323571D02*
X202025238Y-108384047D01*
X201843809Y-108444523D01*
X201722857Y-108444523D01*
X201541428Y-108384047D01*
X201420476Y-108263095D01*
X201360000Y-108142142D01*
X201299523Y-107900238D01*
X201299523Y-107718809D01*
X201360000Y-107476904D01*
X201420476Y-107355952D01*
X201541428Y-107235000D01*
X201722857Y-107174523D01*
X201843809Y-107174523D01*
X202025238Y-107235000D01*
X202085714Y-107295476D01*
X203295238Y-108444523D02*
X202569523Y-108444523D01*
X202932380Y-108444523D02*
X202932380Y-107174523D01*
X202811428Y-107355952D01*
X202690476Y-107476904D01*
X202569523Y-107537380D01*
D17*
X200951477Y-109499381D02*
X200951477Y-110213667D01*
X200903858Y-110356524D01*
X200808620Y-110451762D01*
X200665762Y-110499381D01*
X200570524Y-110499381D01*
X201951477Y-110499381D02*
X201380048Y-110499381D01*
X201665762Y-110499381D02*
X201665762Y-109499381D01*
X201570524Y-109642239D01*
X201475286Y-109737477D01*
X201380048Y-109785096D01*
X202903858Y-110499381D02*
X202332429Y-110499381D01*
X202618143Y-110499381D02*
X202618143Y-109499381D01*
X202522905Y-109642239D01*
X202427667Y-109737477D01*
X202332429Y-109785096D01*
X201427667Y-106499381D02*
X201427667Y-107213667D01*
X201380048Y-107356524D01*
X201284810Y-107451762D01*
X201141953Y-107499381D01*
X201046715Y-107499381D01*
X202332429Y-106832715D02*
X202332429Y-107499381D01*
X202094334Y-106451762D02*
X201856239Y-107166048D01*
X202475286Y-107166048D01*
D15*
X203729523Y-127679761D02*
X202459523Y-127679761D01*
X203608571Y-126349285D02*
X203669047Y-126409761D01*
X203729523Y-126591190D01*
X203729523Y-126712142D01*
X203669047Y-126893571D01*
X203548095Y-127014523D01*
X203427142Y-127075000D01*
X203185238Y-127135476D01*
X203003809Y-127135476D01*
X202761904Y-127075000D01*
X202640952Y-127014523D01*
X202520000Y-126893571D01*
X202459523Y-126712142D01*
X202459523Y-126591190D01*
X202520000Y-126409761D01*
X202580476Y-126349285D01*
X202580476Y-125865476D02*
X202520000Y-125805000D01*
X202459523Y-125684047D01*
X202459523Y-125381666D01*
X202520000Y-125260714D01*
X202580476Y-125200238D01*
X202701428Y-125139761D01*
X202822380Y-125139761D01*
X203003809Y-125200238D01*
X203729523Y-125925952D01*
X203729523Y-125139761D01*
D17*
X207258333Y-120882380D02*
X206925000Y-120406190D01*
X206686904Y-120882380D02*
X206686904Y-119882380D01*
X207067857Y-119882380D01*
X207163095Y-119930000D01*
X207210714Y-119977619D01*
X207258333Y-120072857D01*
X207258333Y-120215714D01*
X207210714Y-120310952D01*
X207163095Y-120358571D01*
X207067857Y-120406190D01*
X206686904Y-120406190D01*
X208163095Y-119882380D02*
X207686904Y-119882380D01*
X207639285Y-120358571D01*
X207686904Y-120310952D01*
X207782142Y-120263333D01*
X208020238Y-120263333D01*
X208115476Y-120310952D01*
X208163095Y-120358571D01*
X208210714Y-120453809D01*
X208210714Y-120691904D01*
X208163095Y-120787142D01*
X208115476Y-120834761D01*
X208020238Y-120882380D01*
X207782142Y-120882380D01*
X207686904Y-120834761D01*
X207639285Y-120787142D01*
X198417666Y-106874380D02*
X198417666Y-107588666D01*
X198370047Y-107731523D01*
X198274809Y-107826761D01*
X198131952Y-107874380D01*
X198036714Y-107874380D01*
X198798619Y-106874380D02*
X199465285Y-106874380D01*
X199036714Y-107874380D01*
X221607380Y-74234523D02*
X222321666Y-74234523D01*
X222464523Y-74282142D01*
X222559761Y-74377380D01*
X222607380Y-74520238D01*
X222607380Y-74615476D01*
X222607380Y-73234523D02*
X222607380Y-73805952D01*
X222607380Y-73520238D02*
X221607380Y-73520238D01*
X221750238Y-73615476D01*
X221845476Y-73710714D01*
X221893095Y-73805952D01*
X222035952Y-72663095D02*
X221988333Y-72758333D01*
X221940714Y-72805952D01*
X221845476Y-72853571D01*
X221797857Y-72853571D01*
X221702619Y-72805952D01*
X221655000Y-72758333D01*
X221607380Y-72663095D01*
X221607380Y-72472619D01*
X221655000Y-72377380D01*
X221702619Y-72329761D01*
X221797857Y-72282142D01*
X221845476Y-72282142D01*
X221940714Y-72329761D01*
X221988333Y-72377380D01*
X222035952Y-72472619D01*
X222035952Y-72663095D01*
X222083571Y-72758333D01*
X222131190Y-72805952D01*
X222226428Y-72853571D01*
X222416904Y-72853571D01*
X222512142Y-72805952D01*
X222559761Y-72758333D01*
X222607380Y-72663095D01*
X222607380Y-72472619D01*
X222559761Y-72377380D01*
X222512142Y-72329761D01*
X222416904Y-72282142D01*
X222226428Y-72282142D01*
X222131190Y-72329761D01*
X222083571Y-72377380D01*
X222035952Y-72472619D01*
X201542666Y-103949380D02*
X201542666Y-104663666D01*
X201495047Y-104806523D01*
X201399809Y-104901761D01*
X201256952Y-104949380D01*
X201161714Y-104949380D01*
X202495047Y-103949380D02*
X202018857Y-103949380D01*
X201971238Y-104425571D01*
X202018857Y-104377952D01*
X202114095Y-104330333D01*
X202352190Y-104330333D01*
X202447428Y-104377952D01*
X202495047Y-104425571D01*
X202542666Y-104520809D01*
X202542666Y-104758904D01*
X202495047Y-104854142D01*
X202447428Y-104901761D01*
X202352190Y-104949380D01*
X202114095Y-104949380D01*
X202018857Y-104901761D01*
X201971238Y-104854142D01*
X198427667Y-109499381D02*
X198427667Y-110213667D01*
X198380048Y-110356524D01*
X198284810Y-110451762D01*
X198141953Y-110499381D01*
X198046715Y-110499381D01*
X199332429Y-109499381D02*
X199141953Y-109499381D01*
X199046715Y-109547001D01*
X198999096Y-109594620D01*
X198903858Y-109737477D01*
X198856239Y-109927953D01*
X198856239Y-110308905D01*
X198903858Y-110404143D01*
X198951477Y-110451762D01*
X199046715Y-110499381D01*
X199237191Y-110499381D01*
X199332429Y-110451762D01*
X199380048Y-110404143D01*
X199427667Y-110308905D01*
X199427667Y-110070810D01*
X199380048Y-109975572D01*
X199332429Y-109927953D01*
X199237191Y-109880334D01*
X199046715Y-109880334D01*
X198951477Y-109927953D01*
X198903858Y-109975572D01*
X198856239Y-110070810D01*
D15*
X203459523Y-120549761D02*
X202189523Y-120549761D01*
X203338571Y-119219285D02*
X203399047Y-119279761D01*
X203459523Y-119461190D01*
X203459523Y-119582142D01*
X203399047Y-119763571D01*
X203278095Y-119884523D01*
X203157142Y-119945000D01*
X202915238Y-120005476D01*
X202733809Y-120005476D01*
X202491904Y-119945000D01*
X202370952Y-119884523D01*
X202250000Y-119763571D01*
X202189523Y-119582142D01*
X202189523Y-119461190D01*
X202250000Y-119279761D01*
X202310476Y-119219285D01*
X202189523Y-118795952D02*
X202189523Y-118009761D01*
X202673333Y-118433095D01*
X202673333Y-118251666D01*
X202733809Y-118130714D01*
X202794285Y-118070238D01*
X202915238Y-118009761D01*
X203217619Y-118009761D01*
X203338571Y-118070238D01*
X203399047Y-118130714D01*
X203459523Y-118251666D01*
X203459523Y-118614523D01*
X203399047Y-118735476D01*
X203338571Y-118795952D01*
D17*
X207208333Y-117937142D02*
X207160714Y-117984761D01*
X207017857Y-118032380D01*
X206922619Y-118032380D01*
X206779761Y-117984761D01*
X206684523Y-117889523D01*
X206636904Y-117794285D01*
X206589285Y-117603809D01*
X206589285Y-117460952D01*
X206636904Y-117270476D01*
X206684523Y-117175238D01*
X206779761Y-117080000D01*
X206922619Y-117032380D01*
X207017857Y-117032380D01*
X207160714Y-117080000D01*
X207208333Y-117127619D01*
X208160714Y-118032380D02*
X207589285Y-118032380D01*
X207875000Y-118032380D02*
X207875000Y-117032380D01*
X207779761Y-117175238D01*
X207684523Y-117270476D01*
X207589285Y-117318095D01*
X197303333Y-127732380D02*
X196970000Y-127256190D01*
X196731904Y-127732380D02*
X196731904Y-126732380D01*
X197112857Y-126732380D01*
X197208095Y-126780000D01*
X197255714Y-126827619D01*
X197303333Y-126922857D01*
X197303333Y-127065714D01*
X197255714Y-127160952D01*
X197208095Y-127208571D01*
X197112857Y-127256190D01*
X196731904Y-127256190D01*
X198255714Y-127732380D02*
X197684285Y-127732380D01*
X197970000Y-127732380D02*
X197970000Y-126732380D01*
X197874761Y-126875238D01*
X197779523Y-126970476D01*
X197684285Y-127018095D01*
X198317666Y-113549380D02*
X198317666Y-114263666D01*
X198270047Y-114406523D01*
X198174809Y-114501761D01*
X198031952Y-114549380D01*
X197936714Y-114549380D01*
X198698619Y-113549380D02*
X199317666Y-113549380D01*
X198984333Y-113930333D01*
X199127190Y-113930333D01*
X199222428Y-113977952D01*
X199270047Y-114025571D01*
X199317666Y-114120809D01*
X199317666Y-114358904D01*
X199270047Y-114454142D01*
X199222428Y-114501761D01*
X199127190Y-114549380D01*
X198841476Y-114549380D01*
X198746238Y-114501761D01*
X198698619Y-114454142D01*
X207208333Y-119457380D02*
X206875000Y-118981190D01*
X206636904Y-119457380D02*
X206636904Y-118457380D01*
X207017857Y-118457380D01*
X207113095Y-118505000D01*
X207160714Y-118552619D01*
X207208333Y-118647857D01*
X207208333Y-118790714D01*
X207160714Y-118885952D01*
X207113095Y-118933571D01*
X207017857Y-118981190D01*
X206636904Y-118981190D01*
X207589285Y-118552619D02*
X207636904Y-118505000D01*
X207732142Y-118457380D01*
X207970238Y-118457380D01*
X208065476Y-118505000D01*
X208113095Y-118552619D01*
X208160714Y-118647857D01*
X208160714Y-118743095D01*
X208113095Y-118885952D01*
X207541666Y-119457380D01*
X208160714Y-119457380D01*
X219077380Y-130324523D02*
X219791666Y-130324523D01*
X219934523Y-130372142D01*
X220029761Y-130467380D01*
X220077380Y-130610238D01*
X220077380Y-130705476D01*
X220077380Y-129324523D02*
X220077380Y-129895952D01*
X220077380Y-129610238D02*
X219077380Y-129610238D01*
X219220238Y-129705476D01*
X219315476Y-129800714D01*
X219363095Y-129895952D01*
X219077380Y-128991190D02*
X219077380Y-128372142D01*
X219458333Y-128705476D01*
X219458333Y-128562619D01*
X219505952Y-128467380D01*
X219553571Y-128419761D01*
X219648809Y-128372142D01*
X219886904Y-128372142D01*
X219982142Y-128419761D01*
X220029761Y-128467380D01*
X220077380Y-128562619D01*
X220077380Y-128848333D01*
X220029761Y-128943571D01*
X219982142Y-128991190D01*
X197333333Y-129412380D02*
X197000000Y-128936190D01*
X196761904Y-129412380D02*
X196761904Y-128412380D01*
X197142857Y-128412380D01*
X197238095Y-128460000D01*
X197285714Y-128507619D01*
X197333333Y-128602857D01*
X197333333Y-128745714D01*
X197285714Y-128840952D01*
X197238095Y-128888571D01*
X197142857Y-128936190D01*
X196761904Y-128936190D01*
X198190476Y-128412380D02*
X198000000Y-128412380D01*
X197904761Y-128460000D01*
X197857142Y-128507619D01*
X197761904Y-128650476D01*
X197714285Y-128840952D01*
X197714285Y-129221904D01*
X197761904Y-129317142D01*
X197809523Y-129364761D01*
X197904761Y-129412380D01*
X198095238Y-129412380D01*
X198190476Y-129364761D01*
X198238095Y-129317142D01*
X198285714Y-129221904D01*
X198285714Y-128983809D01*
X198238095Y-128888571D01*
X198190476Y-128840952D01*
X198095238Y-128793333D01*
X197904761Y-128793333D01*
X197809523Y-128840952D01*
X197761904Y-128888571D01*
X197714285Y-128983809D01*
X218758333Y-89557380D02*
X218425000Y-89081190D01*
X218186904Y-89557380D02*
X218186904Y-88557380D01*
X218567857Y-88557380D01*
X218663095Y-88605000D01*
X218710714Y-88652619D01*
X218758333Y-88747857D01*
X218758333Y-88890714D01*
X218710714Y-88985952D01*
X218663095Y-89033571D01*
X218567857Y-89081190D01*
X218186904Y-89081190D01*
X219615476Y-88557380D02*
X219425000Y-88557380D01*
X219329761Y-88605000D01*
X219282142Y-88652619D01*
X219186904Y-88795476D01*
X219139285Y-88985952D01*
X219139285Y-89366904D01*
X219186904Y-89462142D01*
X219234523Y-89509761D01*
X219329761Y-89557380D01*
X219520238Y-89557380D01*
X219615476Y-89509761D01*
X219663095Y-89462142D01*
X219710714Y-89366904D01*
X219710714Y-89128809D01*
X219663095Y-89033571D01*
X219615476Y-88985952D01*
X219520238Y-88938333D01*
X219329761Y-88938333D01*
X219234523Y-88985952D01*
X219186904Y-89033571D01*
X219139285Y-89128809D01*
X198833333Y-119107380D02*
X198500000Y-118631190D01*
X198261904Y-119107380D02*
X198261904Y-118107380D01*
X198642857Y-118107380D01*
X198738095Y-118155000D01*
X198785714Y-118202619D01*
X198833333Y-118297857D01*
X198833333Y-118440714D01*
X198785714Y-118535952D01*
X198738095Y-118583571D01*
X198642857Y-118631190D01*
X198261904Y-118631190D01*
X199166666Y-118107380D02*
X199833333Y-118107380D01*
X199404761Y-119107380D01*
X198833333Y-122107380D02*
X198500000Y-121631190D01*
X198261904Y-122107380D02*
X198261904Y-121107380D01*
X198642857Y-121107380D01*
X198738095Y-121155000D01*
X198785714Y-121202619D01*
X198833333Y-121297857D01*
X198833333Y-121440714D01*
X198785714Y-121535952D01*
X198738095Y-121583571D01*
X198642857Y-121631190D01*
X198261904Y-121631190D01*
X199309523Y-122107380D02*
X199500000Y-122107380D01*
X199595238Y-122059761D01*
X199642857Y-122012142D01*
X199738095Y-121869285D01*
X199785714Y-121678809D01*
X199785714Y-121297857D01*
X199738095Y-121202619D01*
X199690476Y-121155000D01*
X199595238Y-121107380D01*
X199404761Y-121107380D01*
X199309523Y-121155000D01*
X199261904Y-121202619D01*
X199214285Y-121297857D01*
X199214285Y-121535952D01*
X199261904Y-121631190D01*
X199309523Y-121678809D01*
X199404761Y-121726428D01*
X199595238Y-121726428D01*
X199690476Y-121678809D01*
X199738095Y-121631190D01*
X199785714Y-121535952D01*
X216247380Y-111958333D02*
X216961666Y-111958333D01*
X217104523Y-112005952D01*
X217199761Y-112101190D01*
X217247380Y-112244047D01*
X217247380Y-112339285D01*
X216247380Y-111577380D02*
X216247380Y-110910714D01*
X217247380Y-111339285D01*
X202433333Y-118257380D02*
X202100000Y-117781190D01*
X201861904Y-118257380D02*
X201861904Y-117257380D01*
X202242857Y-117257380D01*
X202338095Y-117305000D01*
X202385714Y-117352619D01*
X202433333Y-117447857D01*
X202433333Y-117590714D01*
X202385714Y-117685952D01*
X202338095Y-117733571D01*
X202242857Y-117781190D01*
X201861904Y-117781190D01*
X203004761Y-117685952D02*
X202909523Y-117638333D01*
X202861904Y-117590714D01*
X202814285Y-117495476D01*
X202814285Y-117447857D01*
X202861904Y-117352619D01*
X202909523Y-117305000D01*
X203004761Y-117257380D01*
X203195238Y-117257380D01*
X203290476Y-117305000D01*
X203338095Y-117352619D01*
X203385714Y-117447857D01*
X203385714Y-117495476D01*
X203338095Y-117590714D01*
X203290476Y-117638333D01*
X203195238Y-117685952D01*
X203004761Y-117685952D01*
X202909523Y-117733571D01*
X202861904Y-117781190D01*
X202814285Y-117876428D01*
X202814285Y-118066904D01*
X202861904Y-118162142D01*
X202909523Y-118209761D01*
X203004761Y-118257380D01*
X203195238Y-118257380D01*
X203290476Y-118209761D01*
X203338095Y-118162142D01*
X203385714Y-118066904D01*
X203385714Y-117876428D01*
X203338095Y-117781190D01*
X203290476Y-117733571D01*
X203195238Y-117685952D01*
X232897380Y-77672333D02*
X233611666Y-77672333D01*
X233754523Y-77719952D01*
X233849761Y-77815190D01*
X233897380Y-77958047D01*
X233897380Y-78053285D01*
X232897380Y-77291380D02*
X232897380Y-76672333D01*
X233278333Y-77005666D01*
X233278333Y-76862809D01*
X233325952Y-76767571D01*
X233373571Y-76719952D01*
X233468809Y-76672333D01*
X233706904Y-76672333D01*
X233802142Y-76719952D01*
X233849761Y-76767571D01*
X233897380Y-76862809D01*
X233897380Y-77148523D01*
X233849761Y-77243761D01*
X233802142Y-77291380D01*
X230338333Y-86007380D02*
X230005000Y-85531190D01*
X229766904Y-86007380D02*
X229766904Y-85007380D01*
X230147857Y-85007380D01*
X230243095Y-85055000D01*
X230290714Y-85102619D01*
X230338333Y-85197857D01*
X230338333Y-85340714D01*
X230290714Y-85435952D01*
X230243095Y-85483571D01*
X230147857Y-85531190D01*
X229766904Y-85531190D01*
X231290714Y-86007380D02*
X230719285Y-86007380D01*
X231005000Y-86007380D02*
X231005000Y-85007380D01*
X230909761Y-85150238D01*
X230814523Y-85245476D01*
X230719285Y-85293095D01*
D15*
X232726047Y-100912619D02*
X232786523Y-100731190D01*
X232786523Y-100428809D01*
X232726047Y-100307857D01*
X232665571Y-100247380D01*
X232544619Y-100186904D01*
X232423666Y-100186904D01*
X232302714Y-100247380D01*
X232242238Y-100307857D01*
X232181761Y-100428809D01*
X232121285Y-100670714D01*
X232060809Y-100791666D01*
X232000333Y-100852142D01*
X231879380Y-100912619D01*
X231758428Y-100912619D01*
X231637476Y-100852142D01*
X231577000Y-100791666D01*
X231516523Y-100670714D01*
X231516523Y-100368333D01*
X231577000Y-100186904D01*
X232786523Y-98977380D02*
X232786523Y-99703095D01*
X232786523Y-99340238D02*
X231516523Y-99340238D01*
X231697952Y-99461190D01*
X231818904Y-99582142D01*
X231879380Y-99703095D01*
X220375238Y-97619523D02*
X220375238Y-96349523D01*
X221705714Y-97498571D02*
X221645238Y-97559047D01*
X221463809Y-97619523D01*
X221342857Y-97619523D01*
X221161428Y-97559047D01*
X221040476Y-97438095D01*
X220980000Y-97317142D01*
X220919523Y-97075238D01*
X220919523Y-96893809D01*
X220980000Y-96651904D01*
X221040476Y-96530952D01*
X221161428Y-96410000D01*
X221342857Y-96349523D01*
X221463809Y-96349523D01*
X221645238Y-96410000D01*
X221705714Y-96470476D01*
X222915238Y-97619523D02*
X222189523Y-97619523D01*
X222552380Y-97619523D02*
X222552380Y-96349523D01*
X222431428Y-96530952D01*
X222310476Y-96651904D01*
X222189523Y-96712380D01*
D17*
X230353333Y-84727380D02*
X230020000Y-84251190D01*
X229781904Y-84727380D02*
X229781904Y-83727380D01*
X230162857Y-83727380D01*
X230258095Y-83775000D01*
X230305714Y-83822619D01*
X230353333Y-83917857D01*
X230353333Y-84060714D01*
X230305714Y-84155952D01*
X230258095Y-84203571D01*
X230162857Y-84251190D01*
X229781904Y-84251190D01*
X230686666Y-83727380D02*
X231305714Y-83727380D01*
X230972380Y-84108333D01*
X231115238Y-84108333D01*
X231210476Y-84155952D01*
X231258095Y-84203571D01*
X231305714Y-84298809D01*
X231305714Y-84536904D01*
X231258095Y-84632142D01*
X231210476Y-84679761D01*
X231115238Y-84727380D01*
X230829523Y-84727380D01*
X230734285Y-84679761D01*
X230686666Y-84632142D01*
X218167380Y-77802333D02*
X218881666Y-77802333D01*
X219024523Y-77849952D01*
X219119761Y-77945190D01*
X219167380Y-78088047D01*
X219167380Y-78183285D01*
X218262619Y-77373761D02*
X218215000Y-77326142D01*
X218167380Y-77230904D01*
X218167380Y-76992809D01*
X218215000Y-76897571D01*
X218262619Y-76849952D01*
X218357857Y-76802333D01*
X218453095Y-76802333D01*
X218595952Y-76849952D01*
X219167380Y-77421380D01*
X219167380Y-76802333D01*
X225708333Y-76422142D02*
X225660714Y-76469761D01*
X225517857Y-76517380D01*
X225422619Y-76517380D01*
X225279761Y-76469761D01*
X225184523Y-76374523D01*
X225136904Y-76279285D01*
X225089285Y-76088809D01*
X225089285Y-75945952D01*
X225136904Y-75755476D01*
X225184523Y-75660238D01*
X225279761Y-75565000D01*
X225422619Y-75517380D01*
X225517857Y-75517380D01*
X225660714Y-75565000D01*
X225708333Y-75612619D01*
X226660714Y-76517380D02*
X226089285Y-76517380D01*
X226375000Y-76517380D02*
X226375000Y-75517380D01*
X226279761Y-75660238D01*
X226184523Y-75755476D01*
X226089285Y-75803095D01*
X218743333Y-88017380D02*
X218410000Y-87541190D01*
X218171904Y-88017380D02*
X218171904Y-87017380D01*
X218552857Y-87017380D01*
X218648095Y-87065000D01*
X218695714Y-87112619D01*
X218743333Y-87207857D01*
X218743333Y-87350714D01*
X218695714Y-87445952D01*
X218648095Y-87493571D01*
X218552857Y-87541190D01*
X218171904Y-87541190D01*
X219124285Y-87112619D02*
X219171904Y-87065000D01*
X219267142Y-87017380D01*
X219505238Y-87017380D01*
X219600476Y-87065000D01*
X219648095Y-87112619D01*
X219695714Y-87207857D01*
X219695714Y-87303095D01*
X219648095Y-87445952D01*
X219076666Y-88017380D01*
X219695714Y-88017380D01*
X225267380Y-77762333D02*
X225981666Y-77762333D01*
X226124523Y-77809952D01*
X226219761Y-77905190D01*
X226267380Y-78048047D01*
X226267380Y-78143285D01*
X226267380Y-76762333D02*
X226267380Y-77333761D01*
X226267380Y-77048047D02*
X225267380Y-77048047D01*
X225410238Y-77143285D01*
X225505476Y-77238523D01*
X225553095Y-77333761D01*
X230338333Y-84477380D02*
X230005000Y-84001190D01*
X229766904Y-84477380D02*
X229766904Y-83477380D01*
X230147857Y-83477380D01*
X230243095Y-83525000D01*
X230290714Y-83572619D01*
X230338333Y-83667857D01*
X230338333Y-83810714D01*
X230290714Y-83905952D01*
X230243095Y-83953571D01*
X230147857Y-84001190D01*
X229766904Y-84001190D01*
X231243095Y-83477380D02*
X230766904Y-83477380D01*
X230719285Y-83953571D01*
X230766904Y-83905952D01*
X230862142Y-83858333D01*
X231100238Y-83858333D01*
X231195476Y-83905952D01*
X231243095Y-83953571D01*
X231290714Y-84048809D01*
X231290714Y-84286904D01*
X231243095Y-84382142D01*
X231195476Y-84429761D01*
X231100238Y-84477380D01*
X230862142Y-84477380D01*
X230766904Y-84429761D01*
X230719285Y-84382142D01*
X233317380Y-107114523D02*
X234031666Y-107114523D01*
X234174523Y-107162142D01*
X234269761Y-107257380D01*
X234317380Y-107400238D01*
X234317380Y-107495476D01*
X234317380Y-106114523D02*
X234317380Y-106685952D01*
X234317380Y-106400238D02*
X233317380Y-106400238D01*
X233460238Y-106495476D01*
X233555476Y-106590714D01*
X233603095Y-106685952D01*
X234317380Y-105162142D02*
X234317380Y-105733571D01*
X234317380Y-105447857D02*
X233317380Y-105447857D01*
X233460238Y-105543095D01*
X233555476Y-105638333D01*
X233603095Y-105733571D01*
X228797380Y-73758333D02*
X229511666Y-73758333D01*
X229654523Y-73805952D01*
X229749761Y-73901190D01*
X229797380Y-74044047D01*
X229797380Y-74139285D01*
X228797380Y-72853571D02*
X228797380Y-73044047D01*
X228845000Y-73139285D01*
X228892619Y-73186904D01*
X229035476Y-73282142D01*
X229225952Y-73329761D01*
X229606904Y-73329761D01*
X229702142Y-73282142D01*
X229749761Y-73234523D01*
X229797380Y-73139285D01*
X229797380Y-72948809D01*
X229749761Y-72853571D01*
X229702142Y-72805952D01*
X229606904Y-72758333D01*
X229368809Y-72758333D01*
X229273571Y-72805952D01*
X229225952Y-72853571D01*
X229178333Y-72948809D01*
X229178333Y-73139285D01*
X229225952Y-73234523D01*
X229273571Y-73282142D01*
X229368809Y-73329761D01*
D15*
X223849523Y-123348333D02*
X224756666Y-123348333D01*
X224938095Y-123408809D01*
X225059047Y-123529761D01*
X225119523Y-123711190D01*
X225119523Y-123832142D01*
X224272857Y-122199285D02*
X225119523Y-122199285D01*
X223789047Y-122501666D02*
X224696190Y-122804047D01*
X224696190Y-122017857D01*
D17*
X215533380Y-131030809D02*
X214533380Y-131030809D01*
X214533380Y-130792714D01*
X214581000Y-130649857D01*
X214676238Y-130554619D01*
X214771476Y-130507000D01*
X214961952Y-130459380D01*
X215104809Y-130459380D01*
X215295285Y-130507000D01*
X215390523Y-130554619D01*
X215485761Y-130649857D01*
X215533380Y-130792714D01*
X215533380Y-131030809D01*
X214533380Y-130030809D02*
X215342904Y-130030809D01*
X215438142Y-129983190D01*
X215485761Y-129935571D01*
X215533380Y-129840333D01*
X215533380Y-129649857D01*
X215485761Y-129554619D01*
X215438142Y-129507000D01*
X215342904Y-129459380D01*
X214533380Y-129459380D01*
X215533380Y-128554619D02*
X215009571Y-128554619D01*
X214914333Y-128602238D01*
X214866714Y-128697476D01*
X214866714Y-128887952D01*
X214914333Y-128983190D01*
X215485761Y-128554619D02*
X215533380Y-128649857D01*
X215533380Y-128887952D01*
X215485761Y-128983190D01*
X215390523Y-129030809D01*
X215295285Y-129030809D01*
X215200047Y-128983190D01*
X215152428Y-128887952D01*
X215152428Y-128649857D01*
X215104809Y-128554619D01*
X215533380Y-127935571D02*
X215485761Y-128030809D01*
X215390523Y-128078428D01*
X214533380Y-128078428D01*
X214866714Y-126792714D02*
X215723857Y-126792714D01*
X215819095Y-126840333D01*
X215866714Y-126935571D01*
X215866714Y-126983190D01*
X214533380Y-126792714D02*
X214581000Y-126840333D01*
X214628619Y-126792714D01*
X214581000Y-126745095D01*
X214533380Y-126792714D01*
X214628619Y-126792714D01*
X215533380Y-125887952D02*
X215009571Y-125887952D01*
X214914333Y-125935571D01*
X214866714Y-126030809D01*
X214866714Y-126221285D01*
X214914333Y-126316523D01*
X215485761Y-125887952D02*
X215533380Y-125983190D01*
X215533380Y-126221285D01*
X215485761Y-126316523D01*
X215390523Y-126364142D01*
X215295285Y-126364142D01*
X215200047Y-126316523D01*
X215152428Y-126221285D01*
X215152428Y-125983190D01*
X215104809Y-125887952D01*
X215485761Y-124983190D02*
X215533380Y-125078428D01*
X215533380Y-125268904D01*
X215485761Y-125364142D01*
X215438142Y-125411761D01*
X215342904Y-125459380D01*
X215057190Y-125459380D01*
X214961952Y-125411761D01*
X214914333Y-125364142D01*
X214866714Y-125268904D01*
X214866714Y-125078428D01*
X214914333Y-124983190D01*
X215533380Y-124554619D02*
X214533380Y-124554619D01*
X215152428Y-124459380D02*
X215533380Y-124173666D01*
X214866714Y-124173666D02*
X215247666Y-124554619D01*
X215533380Y-122983190D02*
X214866714Y-122983190D01*
X215057190Y-122983190D02*
X214961952Y-122935571D01*
X214914333Y-122887952D01*
X214866714Y-122792714D01*
X214866714Y-122697476D01*
X215485761Y-121983190D02*
X215533380Y-122078428D01*
X215533380Y-122268904D01*
X215485761Y-122364142D01*
X215390523Y-122411761D01*
X215009571Y-122411761D01*
X214914333Y-122364142D01*
X214866714Y-122268904D01*
X214866714Y-122078428D01*
X214914333Y-121983190D01*
X215009571Y-121935571D01*
X215104809Y-121935571D01*
X215200047Y-122411761D01*
X214866714Y-121649857D02*
X214866714Y-121268904D01*
X215533380Y-121507000D02*
X214676238Y-121507000D01*
X214581000Y-121459380D01*
X214533380Y-121364142D01*
X214533380Y-121268904D01*
X215485761Y-120554619D02*
X215533380Y-120649857D01*
X215533380Y-120840333D01*
X215485761Y-120935571D01*
X215390523Y-120983190D01*
X215009571Y-120983190D01*
X214914333Y-120935571D01*
X214866714Y-120840333D01*
X214866714Y-120649857D01*
X214914333Y-120554619D01*
X215009571Y-120507000D01*
X215104809Y-120507000D01*
X215200047Y-120983190D01*
X215533380Y-120078428D02*
X214866714Y-120078428D01*
X215057190Y-120078428D02*
X214961952Y-120030809D01*
X214914333Y-119983190D01*
X214866714Y-119887952D01*
X214866714Y-119792714D01*
X215485761Y-119078428D02*
X215533380Y-119173666D01*
X215533380Y-119364142D01*
X215485761Y-119459380D01*
X215390523Y-119507000D01*
X215009571Y-119507000D01*
X214914333Y-119459380D01*
X214866714Y-119364142D01*
X214866714Y-119173666D01*
X214914333Y-119078428D01*
X215009571Y-119030809D01*
X215104809Y-119030809D01*
X215200047Y-119507000D01*
X214866714Y-118602238D02*
X215533380Y-118602238D01*
X214961952Y-118602238D02*
X214914333Y-118554619D01*
X214866714Y-118459380D01*
X214866714Y-118316523D01*
X214914333Y-118221285D01*
X215009571Y-118173666D01*
X215533380Y-118173666D01*
X215485761Y-117268904D02*
X215533380Y-117364142D01*
X215533380Y-117554619D01*
X215485761Y-117649857D01*
X215438142Y-117697476D01*
X215342904Y-117745095D01*
X215057190Y-117745095D01*
X214961952Y-117697476D01*
X214914333Y-117649857D01*
X214866714Y-117554619D01*
X214866714Y-117364142D01*
X214914333Y-117268904D01*
X215485761Y-116459380D02*
X215533380Y-116554619D01*
X215533380Y-116745095D01*
X215485761Y-116840333D01*
X215390523Y-116887952D01*
X215009571Y-116887952D01*
X214914333Y-116840333D01*
X214866714Y-116745095D01*
X214866714Y-116554619D01*
X214914333Y-116459380D01*
X215009571Y-116411761D01*
X215104809Y-116411761D01*
X215200047Y-116887952D01*
X215533380Y-115078428D02*
X215485761Y-115173666D01*
X215390523Y-115221285D01*
X214533380Y-115221285D01*
X215533380Y-114697476D02*
X214866714Y-114697476D01*
X214533380Y-114697476D02*
X214581000Y-114745095D01*
X214628619Y-114697476D01*
X214581000Y-114649857D01*
X214533380Y-114697476D01*
X214628619Y-114697476D01*
X214866714Y-114221285D02*
X215533380Y-114221285D01*
X214961952Y-114221285D02*
X214914333Y-114173666D01*
X214866714Y-114078428D01*
X214866714Y-113935571D01*
X214914333Y-113840333D01*
X215009571Y-113792714D01*
X215533380Y-113792714D01*
X215533380Y-113316523D02*
X214533380Y-113316523D01*
X215152428Y-113221285D02*
X215533380Y-112935571D01*
X214866714Y-112935571D02*
X215247666Y-113316523D01*
X230343333Y-82977380D02*
X230010000Y-82501190D01*
X229771904Y-82977380D02*
X229771904Y-81977380D01*
X230152857Y-81977380D01*
X230248095Y-82025000D01*
X230295714Y-82072619D01*
X230343333Y-82167857D01*
X230343333Y-82310714D01*
X230295714Y-82405952D01*
X230248095Y-82453571D01*
X230152857Y-82501190D01*
X229771904Y-82501190D01*
X231200476Y-82310714D02*
X231200476Y-82977380D01*
X230962380Y-81929761D02*
X230724285Y-82644047D01*
X231343333Y-82644047D01*
D15*
X231910476Y-91108952D02*
X231850000Y-91229904D01*
X231729047Y-91350857D01*
X231547619Y-91532285D01*
X231487142Y-91653238D01*
X231487142Y-91774190D01*
X231789523Y-91713714D02*
X231729047Y-91834666D01*
X231608095Y-91955619D01*
X231366190Y-92016095D01*
X230942857Y-92016095D01*
X230700952Y-91955619D01*
X230580000Y-91834666D01*
X230519523Y-91713714D01*
X230519523Y-91471809D01*
X230580000Y-91350857D01*
X230700952Y-91229904D01*
X230942857Y-91169428D01*
X231366190Y-91169428D01*
X231608095Y-91229904D01*
X231729047Y-91350857D01*
X231789523Y-91471809D01*
X231789523Y-91713714D01*
X231789523Y-89959904D02*
X231789523Y-90685619D01*
X231789523Y-90322761D02*
X230519523Y-90322761D01*
X230700952Y-90443714D01*
X230821904Y-90564666D01*
X230882380Y-90685619D01*
D17*
X198357142Y-123607380D02*
X198023809Y-123131190D01*
X197785714Y-123607380D02*
X197785714Y-122607380D01*
X198166666Y-122607380D01*
X198261904Y-122655000D01*
X198309523Y-122702619D01*
X198357142Y-122797857D01*
X198357142Y-122940714D01*
X198309523Y-123035952D01*
X198261904Y-123083571D01*
X198166666Y-123131190D01*
X197785714Y-123131190D01*
X199309523Y-123607380D02*
X198738095Y-123607380D01*
X199023809Y-123607380D02*
X199023809Y-122607380D01*
X198928571Y-122750238D01*
X198833333Y-122845476D01*
X198738095Y-122893095D01*
X199928571Y-122607380D02*
X200023809Y-122607380D01*
X200119047Y-122655000D01*
X200166666Y-122702619D01*
X200214285Y-122797857D01*
X200261904Y-122988333D01*
X200261904Y-123226428D01*
X200214285Y-123416904D01*
X200166666Y-123512142D01*
X200119047Y-123559761D01*
X200023809Y-123607380D01*
X199928571Y-123607380D01*
X199833333Y-123559761D01*
X199785714Y-123512142D01*
X199738095Y-123416904D01*
X199690476Y-123226428D01*
X199690476Y-122988333D01*
X199738095Y-122797857D01*
X199785714Y-122702619D01*
X199833333Y-122655000D01*
X199928571Y-122607380D01*
X225548333Y-86582142D02*
X225500714Y-86629761D01*
X225357857Y-86677380D01*
X225262619Y-86677380D01*
X225119761Y-86629761D01*
X225024523Y-86534523D01*
X224976904Y-86439285D01*
X224929285Y-86248809D01*
X224929285Y-86105952D01*
X224976904Y-85915476D01*
X225024523Y-85820238D01*
X225119761Y-85725000D01*
X225262619Y-85677380D01*
X225357857Y-85677380D01*
X225500714Y-85725000D01*
X225548333Y-85772619D01*
X225929285Y-85772619D02*
X225976904Y-85725000D01*
X226072142Y-85677380D01*
X226310238Y-85677380D01*
X226405476Y-85725000D01*
X226453095Y-85772619D01*
X226500714Y-85867857D01*
X226500714Y-85963095D01*
X226453095Y-86105952D01*
X225881666Y-86677380D01*
X226500714Y-86677380D01*
X198417666Y-104199380D02*
X198417666Y-104913666D01*
X198370047Y-105056523D01*
X198274809Y-105151761D01*
X198131952Y-105199380D01*
X198036714Y-105199380D01*
X199036714Y-104627952D02*
X198941476Y-104580333D01*
X198893857Y-104532714D01*
X198846238Y-104437476D01*
X198846238Y-104389857D01*
X198893857Y-104294619D01*
X198941476Y-104247000D01*
X199036714Y-104199380D01*
X199227190Y-104199380D01*
X199322428Y-104247000D01*
X199370047Y-104294619D01*
X199417666Y-104389857D01*
X199417666Y-104437476D01*
X199370047Y-104532714D01*
X199322428Y-104580333D01*
X199227190Y-104627952D01*
X199036714Y-104627952D01*
X198941476Y-104675571D01*
X198893857Y-104723190D01*
X198846238Y-104818428D01*
X198846238Y-105008904D01*
X198893857Y-105104142D01*
X198941476Y-105151761D01*
X199036714Y-105199380D01*
X199227190Y-105199380D01*
X199322428Y-105151761D01*
X199370047Y-105104142D01*
X199417666Y-105008904D01*
X199417666Y-104818428D01*
X199370047Y-104723190D01*
X199322428Y-104675571D01*
X199227190Y-104627952D01*
X220365380Y-106610523D02*
X221079666Y-106610523D01*
X221222523Y-106658142D01*
X221317761Y-106753380D01*
X221365380Y-106896238D01*
X221365380Y-106991476D01*
X221365380Y-105610523D02*
X221365380Y-106181952D01*
X221365380Y-105896238D02*
X220365380Y-105896238D01*
X220508238Y-105991476D01*
X220603476Y-106086714D01*
X220651095Y-106181952D01*
X220698714Y-104753380D02*
X221365380Y-104753380D01*
X220317761Y-104991476D02*
X221032047Y-105229571D01*
X221032047Y-104610523D01*
X201362142Y-80291666D02*
X201409761Y-80339285D01*
X201457380Y-80482142D01*
X201457380Y-80577380D01*
X201409761Y-80720238D01*
X201314523Y-80815476D01*
X201219285Y-80863095D01*
X201028809Y-80910714D01*
X200885952Y-80910714D01*
X200695476Y-80863095D01*
X200600238Y-80815476D01*
X200505000Y-80720238D01*
X200457380Y-80577380D01*
X200457380Y-80482142D01*
X200505000Y-80339285D01*
X200552619Y-80291666D01*
X200457380Y-79958333D02*
X200457380Y-79339285D01*
X200838333Y-79672619D01*
X200838333Y-79529761D01*
X200885952Y-79434523D01*
X200933571Y-79386904D01*
X201028809Y-79339285D01*
X201266904Y-79339285D01*
X201362142Y-79386904D01*
X201409761Y-79434523D01*
X201457380Y-79529761D01*
X201457380Y-79815476D01*
X201409761Y-79910714D01*
X201362142Y-79958333D01*
X199357380Y-81089285D02*
X198881190Y-81422619D01*
X199357380Y-81660714D02*
X198357380Y-81660714D01*
X198357380Y-81279761D01*
X198405000Y-81184523D01*
X198452619Y-81136904D01*
X198547857Y-81089285D01*
X198690714Y-81089285D01*
X198785952Y-81136904D01*
X198833571Y-81184523D01*
X198881190Y-81279761D01*
X198881190Y-81660714D01*
X199357380Y-80660714D02*
X198357380Y-80660714D01*
X198738333Y-80660714D02*
X198690714Y-80565476D01*
X198690714Y-80375000D01*
X198738333Y-80279761D01*
X198785952Y-80232142D01*
X198881190Y-80184523D01*
X199166904Y-80184523D01*
X199262142Y-80232142D01*
X199309761Y-80279761D01*
X199357380Y-80375000D01*
X199357380Y-80565476D01*
X199309761Y-80660714D01*
X198690714Y-79851190D02*
X199357380Y-79613095D01*
X198690714Y-79375000D02*
X199357380Y-79613095D01*
X199595476Y-79708333D01*
X199643095Y-79755952D01*
X199690714Y-79851190D01*
X198690714Y-78994047D02*
X199690714Y-78994047D01*
X198738333Y-78994047D02*
X198690714Y-78898809D01*
X198690714Y-78708333D01*
X198738333Y-78613095D01*
X198785952Y-78565476D01*
X198881190Y-78517857D01*
X199166904Y-78517857D01*
X199262142Y-78565476D01*
X199309761Y-78613095D01*
X199357380Y-78708333D01*
X199357380Y-78898809D01*
X199309761Y-78994047D01*
X199357380Y-77660714D02*
X198833571Y-77660714D01*
X198738333Y-77708333D01*
X198690714Y-77803571D01*
X198690714Y-77994047D01*
X198738333Y-78089285D01*
X199309761Y-77660714D02*
X199357380Y-77755952D01*
X199357380Y-77994047D01*
X199309761Y-78089285D01*
X199214523Y-78136904D01*
X199119285Y-78136904D01*
X199024047Y-78089285D01*
X198976428Y-77994047D01*
X198976428Y-77755952D01*
X198928809Y-77660714D01*
X199309761Y-77232142D02*
X199357380Y-77136904D01*
X199357380Y-76946428D01*
X199309761Y-76851190D01*
X199214523Y-76803571D01*
X199166904Y-76803571D01*
X199071666Y-76851190D01*
X199024047Y-76946428D01*
X199024047Y-77089285D01*
X198976428Y-77184523D01*
X198881190Y-77232142D01*
X198833571Y-77232142D01*
X198738333Y-77184523D01*
X198690714Y-77089285D01*
X198690714Y-76946428D01*
X198738333Y-76851190D01*
X199309761Y-76422619D02*
X199357380Y-76327380D01*
X199357380Y-76136904D01*
X199309761Y-76041666D01*
X199214523Y-75994047D01*
X199166904Y-75994047D01*
X199071666Y-76041666D01*
X199024047Y-76136904D01*
X199024047Y-76279761D01*
X198976428Y-76375000D01*
X198881190Y-76422619D01*
X198833571Y-76422619D01*
X198738333Y-76375000D01*
X198690714Y-76279761D01*
X198690714Y-76136904D01*
X198738333Y-76041666D01*
X199357380Y-75041666D02*
X199357380Y-75613095D01*
X199357380Y-75327380D02*
X198357380Y-75327380D01*
X198500238Y-75422619D01*
X198595476Y-75517857D01*
X198643095Y-75613095D01*
X220473380Y-109016333D02*
X221187666Y-109016333D01*
X221330523Y-109063952D01*
X221425761Y-109159190D01*
X221473380Y-109302047D01*
X221473380Y-109397285D01*
X220901952Y-108397285D02*
X220854333Y-108492523D01*
X220806714Y-108540142D01*
X220711476Y-108587761D01*
X220663857Y-108587761D01*
X220568619Y-108540142D01*
X220521000Y-108492523D01*
X220473380Y-108397285D01*
X220473380Y-108206809D01*
X220521000Y-108111571D01*
X220568619Y-108063952D01*
X220663857Y-108016333D01*
X220711476Y-108016333D01*
X220806714Y-108063952D01*
X220854333Y-108111571D01*
X220901952Y-108206809D01*
X220901952Y-108397285D01*
X220949571Y-108492523D01*
X220997190Y-108540142D01*
X221092428Y-108587761D01*
X221282904Y-108587761D01*
X221378142Y-108540142D01*
X221425761Y-108492523D01*
X221473380Y-108397285D01*
X221473380Y-108206809D01*
X221425761Y-108111571D01*
X221378142Y-108063952D01*
X221282904Y-108016333D01*
X221092428Y-108016333D01*
X220997190Y-108063952D01*
X220949571Y-108111571D01*
X220901952Y-108206809D01*
D18*
X201875074Y-83018803D02*
X201875074Y-83656224D01*
X201912570Y-83731215D01*
X201950065Y-83768710D01*
X202025056Y-83806205D01*
X202175037Y-83806205D01*
X202250028Y-83768710D01*
X202287523Y-83731215D01*
X202325018Y-83656224D01*
X202325018Y-83018803D01*
X203112420Y-83806205D02*
X202662476Y-83806205D01*
X202887448Y-83806205D02*
X202887448Y-83018803D01*
X202812458Y-83131289D01*
X202737467Y-83206280D01*
X202662476Y-83243775D01*
X199427000Y-81632380D02*
X199427000Y-81870476D01*
X199188904Y-81775238D02*
X199427000Y-81870476D01*
X199665095Y-81775238D01*
X199284142Y-82060952D02*
X199427000Y-81870476D01*
X199569857Y-82060952D01*
X199427000Y-81632380D02*
X199427000Y-81870476D01*
X199188904Y-81775238D02*
X199427000Y-81870476D01*
X199665095Y-81775238D01*
X199284142Y-82060952D02*
X199427000Y-81870476D01*
X199569857Y-82060952D01*
D17*
X200762142Y-76941666D02*
X200809761Y-76989285D01*
X200857380Y-77132142D01*
X200857380Y-77227380D01*
X200809761Y-77370238D01*
X200714523Y-77465476D01*
X200619285Y-77513095D01*
X200428809Y-77560714D01*
X200285952Y-77560714D01*
X200095476Y-77513095D01*
X200000238Y-77465476D01*
X199905000Y-77370238D01*
X199857380Y-77227380D01*
X199857380Y-77132142D01*
X199905000Y-76989285D01*
X199952619Y-76941666D01*
X200190714Y-76084523D02*
X200857380Y-76084523D01*
X199809761Y-76322619D02*
X200524047Y-76560714D01*
X200524047Y-75941666D01*
X210662142Y-85341666D02*
X210709761Y-85389285D01*
X210757380Y-85532142D01*
X210757380Y-85627380D01*
X210709761Y-85770238D01*
X210614523Y-85865476D01*
X210519285Y-85913095D01*
X210328809Y-85960714D01*
X210185952Y-85960714D01*
X209995476Y-85913095D01*
X209900238Y-85865476D01*
X209805000Y-85770238D01*
X209757380Y-85627380D01*
X209757380Y-85532142D01*
X209805000Y-85389285D01*
X209852619Y-85341666D01*
X210757380Y-84389285D02*
X210757380Y-84960714D01*
X210757380Y-84675000D02*
X209757380Y-84675000D01*
X209900238Y-84770238D01*
X209995476Y-84865476D01*
X210043095Y-84960714D01*
D15*
X209949523Y-77461666D02*
X209949523Y-78066428D01*
X208679523Y-78066428D01*
X209949523Y-76373095D02*
X209949523Y-77098809D01*
X209949523Y-76735952D02*
X208679523Y-76735952D01*
X208860952Y-76856904D01*
X208981904Y-76977857D01*
X209042380Y-77098809D01*
D18*
X197593983Y-86691986D02*
X197593983Y-87408044D01*
X197546245Y-87551255D01*
X197450771Y-87646729D01*
X197307560Y-87694466D01*
X197212085Y-87694466D01*
X198596463Y-87694466D02*
X198023617Y-87694466D01*
X198310040Y-87694466D02*
X198310040Y-86691986D01*
X198214565Y-86835198D01*
X198119091Y-86930672D01*
X198023617Y-86978409D01*
D17*
X222037380Y-83336904D02*
X222846904Y-83336904D01*
X222942142Y-83289285D01*
X222989761Y-83241666D01*
X223037380Y-83146428D01*
X223037380Y-82955952D01*
X222989761Y-82860714D01*
X222942142Y-82813095D01*
X222846904Y-82765476D01*
X222037380Y-82765476D01*
X223037380Y-81765476D02*
X223037380Y-82336904D01*
X223037380Y-82051190D02*
X222037380Y-82051190D01*
X222180238Y-82146428D01*
X222275476Y-82241666D01*
X222323095Y-82336904D01*
X223415380Y-106610523D02*
X224129666Y-106610523D01*
X224272523Y-106658142D01*
X224367761Y-106753380D01*
X224415380Y-106896238D01*
X224415380Y-106991476D01*
X224415380Y-105610523D02*
X224415380Y-106181952D01*
X224415380Y-105896238D02*
X223415380Y-105896238D01*
X223558238Y-105991476D01*
X223653476Y-106086714D01*
X223701095Y-106181952D01*
X224415380Y-105134333D02*
X224415380Y-104943857D01*
X224367761Y-104848619D01*
X224320142Y-104801000D01*
X224177285Y-104705761D01*
X223986809Y-104658142D01*
X223605857Y-104658142D01*
X223510619Y-104705761D01*
X223463000Y-104753380D01*
X223415380Y-104848619D01*
X223415380Y-105039095D01*
X223463000Y-105134333D01*
X223510619Y-105181952D01*
X223605857Y-105229571D01*
X223843952Y-105229571D01*
X223939190Y-105181952D01*
X223986809Y-105134333D01*
X224034428Y-105039095D01*
X224034428Y-104848619D01*
X223986809Y-104753380D01*
X223939190Y-104705761D01*
X223843952Y-104658142D01*
X206627380Y-83783333D02*
X207341666Y-83783333D01*
X207484523Y-83830952D01*
X207579761Y-83926190D01*
X207627380Y-84069047D01*
X207627380Y-84164285D01*
X206960714Y-82878571D02*
X207627380Y-82878571D01*
X206579761Y-83116666D02*
X207294047Y-83354761D01*
X207294047Y-82735714D01*
D18*
X203210619Y-83150923D02*
X203210619Y-82510923D01*
X203363000Y-82510923D01*
X203454428Y-82541400D01*
X203515380Y-82602352D01*
X203545857Y-82663304D01*
X203576333Y-82785209D01*
X203576333Y-82876638D01*
X203545857Y-82998542D01*
X203515380Y-83059495D01*
X203454428Y-83120447D01*
X203363000Y-83150923D01*
X203210619Y-83150923D01*
X204185857Y-83150923D02*
X203820142Y-83150923D01*
X204003000Y-83150923D02*
X204003000Y-82510923D01*
X203942047Y-82602352D01*
X203881095Y-82663304D01*
X203820142Y-82693780D01*
D17*
X199957380Y-82216666D02*
X199481190Y-82550000D01*
X199957380Y-82788095D02*
X198957380Y-82788095D01*
X198957380Y-82407142D01*
X199005000Y-82311904D01*
X199052619Y-82264285D01*
X199147857Y-82216666D01*
X199290714Y-82216666D01*
X199385952Y-82264285D01*
X199433571Y-82311904D01*
X199481190Y-82407142D01*
X199481190Y-82788095D01*
X199957380Y-81264285D02*
X199957380Y-81835714D01*
X199957380Y-81550000D02*
X198957380Y-81550000D01*
X199100238Y-81645238D01*
X199195476Y-81740476D01*
X199243095Y-81835714D01*
X207802142Y-81541666D02*
X207849761Y-81589285D01*
X207897380Y-81732142D01*
X207897380Y-81827380D01*
X207849761Y-81970238D01*
X207754523Y-82065476D01*
X207659285Y-82113095D01*
X207468809Y-82160714D01*
X207325952Y-82160714D01*
X207135476Y-82113095D01*
X207040238Y-82065476D01*
X206945000Y-81970238D01*
X206897380Y-81827380D01*
X206897380Y-81732142D01*
X206945000Y-81589285D01*
X206992619Y-81541666D01*
X206992619Y-81160714D02*
X206945000Y-81113095D01*
X206897380Y-81017857D01*
X206897380Y-80779761D01*
X206945000Y-80684523D01*
X206992619Y-80636904D01*
X207087857Y-80589285D01*
X207183095Y-80589285D01*
X207325952Y-80636904D01*
X207897380Y-81208333D01*
X207897380Y-80589285D01*
D18*
X200467514Y-78438100D02*
X200467514Y-79768090D01*
X200545749Y-79924560D01*
X200623984Y-80002795D01*
X200780453Y-80081029D01*
X201093392Y-80081029D01*
X201249861Y-80002795D01*
X201328096Y-79924560D01*
X201406331Y-79768090D01*
X201406331Y-78438100D01*
X202110443Y-78594570D02*
X202188678Y-78516335D01*
X202345147Y-78438100D01*
X202736321Y-78438100D01*
X202892790Y-78516335D01*
X202971025Y-78594570D01*
X203049260Y-78751039D01*
X203049260Y-78907509D01*
X202971025Y-79142213D01*
X202032208Y-80081029D01*
X203049260Y-80081029D01*
D17*
X204733333Y-87932380D02*
X204400000Y-87456190D01*
X204161904Y-87932380D02*
X204161904Y-86932380D01*
X204542857Y-86932380D01*
X204638095Y-86980000D01*
X204685714Y-87027619D01*
X204733333Y-87122857D01*
X204733333Y-87265714D01*
X204685714Y-87360952D01*
X204638095Y-87408571D01*
X204542857Y-87456190D01*
X204161904Y-87456190D01*
X205114285Y-87027619D02*
X205161904Y-86980000D01*
X205257142Y-86932380D01*
X205495238Y-86932380D01*
X205590476Y-86980000D01*
X205638095Y-87027619D01*
X205685714Y-87122857D01*
X205685714Y-87218095D01*
X205638095Y-87360952D01*
X205066666Y-87932380D01*
X205685714Y-87932380D01*
X207227380Y-86583333D02*
X207941666Y-86583333D01*
X208084523Y-86630952D01*
X208179761Y-86726190D01*
X208227380Y-86869047D01*
X208227380Y-86964285D01*
X207227380Y-86202380D02*
X207227380Y-85583333D01*
X207608333Y-85916666D01*
X207608333Y-85773809D01*
X207655952Y-85678571D01*
X207703571Y-85630952D01*
X207798809Y-85583333D01*
X208036904Y-85583333D01*
X208132142Y-85630952D01*
X208179761Y-85678571D01*
X208227380Y-85773809D01*
X208227380Y-86059523D01*
X208179761Y-86154761D01*
X208132142Y-86202380D01*
X233327380Y-84448333D02*
X234041666Y-84448333D01*
X234184523Y-84495952D01*
X234279761Y-84591190D01*
X234327380Y-84734047D01*
X234327380Y-84829285D01*
X233327380Y-83495952D02*
X233327380Y-83972142D01*
X233803571Y-84019761D01*
X233755952Y-83972142D01*
X233708333Y-83876904D01*
X233708333Y-83638809D01*
X233755952Y-83543571D01*
X233803571Y-83495952D01*
X233898809Y-83448333D01*
X234136904Y-83448333D01*
X234232142Y-83495952D01*
X234279761Y-83543571D01*
X234327380Y-83638809D01*
X234327380Y-83876904D01*
X234279761Y-83972142D01*
X234232142Y-84019761D01*
X197333333Y-131282380D02*
X197000000Y-130806190D01*
X196761904Y-131282380D02*
X196761904Y-130282380D01*
X197142857Y-130282380D01*
X197238095Y-130330000D01*
X197285714Y-130377619D01*
X197333333Y-130472857D01*
X197333333Y-130615714D01*
X197285714Y-130710952D01*
X197238095Y-130758571D01*
X197142857Y-130806190D01*
X196761904Y-130806190D01*
X198190476Y-130615714D02*
X198190476Y-131282380D01*
X197952380Y-130234761D02*
X197714285Y-130949047D01*
X198333333Y-130949047D01*
D15*
X220739523Y-82232380D02*
X219469523Y-82232380D01*
X219469523Y-81930000D01*
X219530000Y-81748571D01*
X219650952Y-81627619D01*
X219771904Y-81567142D01*
X220013809Y-81506666D01*
X220195238Y-81506666D01*
X220437142Y-81567142D01*
X220558095Y-81627619D01*
X220679047Y-81748571D01*
X220739523Y-81930000D01*
X220739523Y-82232380D01*
X219469523Y-81083333D02*
X219469523Y-80297142D01*
X219953333Y-80720476D01*
X219953333Y-80539047D01*
X220013809Y-80418095D01*
X220074285Y-80357619D01*
X220195238Y-80297142D01*
X220497619Y-80297142D01*
X220618571Y-80357619D01*
X220679047Y-80418095D01*
X220739523Y-80539047D01*
X220739523Y-80901904D01*
X220679047Y-81022857D01*
X220618571Y-81083333D01*
D17*
X202727380Y-86483333D02*
X203441666Y-86483333D01*
X203584523Y-86530952D01*
X203679761Y-86626190D01*
X203727380Y-86769047D01*
X203727380Y-86864285D01*
X202822619Y-86054761D02*
X202775000Y-86007142D01*
X202727380Y-85911904D01*
X202727380Y-85673809D01*
X202775000Y-85578571D01*
X202822619Y-85530952D01*
X202917857Y-85483333D01*
X203013095Y-85483333D01*
X203155952Y-85530952D01*
X203727380Y-86102380D01*
X203727380Y-85483333D01*
X194452380Y-71850833D02*
X195166666Y-71850833D01*
X195309523Y-71898452D01*
X195404761Y-71993690D01*
X195452380Y-72136547D01*
X195452380Y-72231785D01*
X194452380Y-70898452D02*
X194452380Y-71374642D01*
X194928571Y-71422261D01*
X194880952Y-71374642D01*
X194833333Y-71279404D01*
X194833333Y-71041309D01*
X194880952Y-70946071D01*
X194928571Y-70898452D01*
X195023809Y-70850833D01*
X195261904Y-70850833D01*
X195357142Y-70898452D01*
X195404761Y-70946071D01*
X195452380Y-71041309D01*
X195452380Y-71279404D01*
X195404761Y-71374642D01*
X195357142Y-71422261D01*
D15*
X206942380Y-120139523D02*
X206942380Y-121167619D01*
X207002857Y-121288571D01*
X207063333Y-121349047D01*
X207184285Y-121409523D01*
X207426190Y-121409523D01*
X207547142Y-121349047D01*
X207607619Y-121288571D01*
X207668095Y-121167619D01*
X207668095Y-120139523D01*
X208938095Y-121409523D02*
X208212380Y-121409523D01*
X208575238Y-121409523D02*
X208575238Y-120139523D01*
X208454285Y-120320952D01*
X208333333Y-120441904D01*
X208212380Y-120502380D01*
D17*
X196191666Y-116152380D02*
X196191666Y-116866666D01*
X196144047Y-117009523D01*
X196048809Y-117104761D01*
X195905952Y-117152380D01*
X195810714Y-117152380D01*
X196620238Y-116247619D02*
X196667857Y-116200000D01*
X196763095Y-116152380D01*
X197001190Y-116152380D01*
X197096428Y-116200000D01*
X197144047Y-116247619D01*
X197191666Y-116342857D01*
X197191666Y-116438095D01*
X197144047Y-116580952D01*
X196572619Y-117152380D01*
X197191666Y-117152380D01*
X216227380Y-108594523D02*
X216941666Y-108594523D01*
X217084523Y-108642142D01*
X217179761Y-108737380D01*
X217227380Y-108880238D01*
X217227380Y-108975476D01*
X217227380Y-107594523D02*
X217227380Y-108165952D01*
X217227380Y-107880238D02*
X216227380Y-107880238D01*
X216370238Y-107975476D01*
X216465476Y-108070714D01*
X216513095Y-108165952D01*
X216322619Y-107213571D02*
X216275000Y-107165952D01*
X216227380Y-107070714D01*
X216227380Y-106832619D01*
X216275000Y-106737380D01*
X216322619Y-106689761D01*
X216417857Y-106642142D01*
X216513095Y-106642142D01*
X216655952Y-106689761D01*
X217227380Y-107261190D01*
X217227380Y-106642142D01*
X216187380Y-84934523D02*
X216901666Y-84934523D01*
X217044523Y-84982142D01*
X217139761Y-85077380D01*
X217187380Y-85220238D01*
X217187380Y-85315476D01*
X217187380Y-83934523D02*
X217187380Y-84505952D01*
X217187380Y-84220238D02*
X216187380Y-84220238D01*
X216330238Y-84315476D01*
X216425476Y-84410714D01*
X216473095Y-84505952D01*
X216187380Y-83601190D02*
X216187380Y-82934523D01*
X217187380Y-83363095D01*
X153305476Y-93052380D02*
X153305476Y-93766666D01*
X153257857Y-93909523D01*
X153162619Y-94004761D01*
X153019761Y-94052380D01*
X152924523Y-94052380D01*
X154305476Y-94052380D02*
X153734047Y-94052380D01*
X154019761Y-94052380D02*
X154019761Y-93052380D01*
X153924523Y-93195238D01*
X153829285Y-93290476D01*
X153734047Y-93338095D01*
X154686428Y-93147619D02*
X154734047Y-93100000D01*
X154829285Y-93052380D01*
X155067380Y-93052380D01*
X155162619Y-93100000D01*
X155210238Y-93147619D01*
X155257857Y-93242857D01*
X155257857Y-93338095D01*
X155210238Y-93480952D01*
X154638809Y-94052380D01*
X155257857Y-94052380D01*
X176965476Y-93012380D02*
X176965476Y-93726666D01*
X176917857Y-93869523D01*
X176822619Y-93964761D01*
X176679761Y-94012380D01*
X176584523Y-94012380D01*
X177965476Y-94012380D02*
X177394047Y-94012380D01*
X177679761Y-94012380D02*
X177679761Y-93012380D01*
X177584523Y-93155238D01*
X177489285Y-93250476D01*
X177394047Y-93298095D01*
X178298809Y-93012380D02*
X178965476Y-93012380D01*
X178536904Y-94012380D01*
X131575476Y-95902380D02*
X131575476Y-96616666D01*
X131527857Y-96759523D01*
X131432619Y-96854761D01*
X131289761Y-96902380D01*
X131194523Y-96902380D01*
X132575476Y-96902380D02*
X132004047Y-96902380D01*
X132289761Y-96902380D02*
X132289761Y-95902380D01*
X132194523Y-96045238D01*
X132099285Y-96140476D01*
X132004047Y-96188095D01*
X132908809Y-95902380D02*
X133527857Y-95902380D01*
X133194523Y-96283333D01*
X133337380Y-96283333D01*
X133432619Y-96330952D01*
X133480238Y-96378571D01*
X133527857Y-96473809D01*
X133527857Y-96711904D01*
X133480238Y-96807142D01*
X133432619Y-96854761D01*
X133337380Y-96902380D01*
X133051666Y-96902380D01*
X132956428Y-96854761D01*
X132908809Y-96807142D01*
X187665476Y-98432380D02*
X187665476Y-99146666D01*
X187617857Y-99289523D01*
X187522619Y-99384761D01*
X187379761Y-99432380D01*
X187284523Y-99432380D01*
X188665476Y-99432380D02*
X188094047Y-99432380D01*
X188379761Y-99432380D02*
X188379761Y-98432380D01*
X188284523Y-98575238D01*
X188189285Y-98670476D01*
X188094047Y-98718095D01*
X189236904Y-98860952D02*
X189141666Y-98813333D01*
X189094047Y-98765714D01*
X189046428Y-98670476D01*
X189046428Y-98622857D01*
X189094047Y-98527619D01*
X189141666Y-98480000D01*
X189236904Y-98432380D01*
X189427380Y-98432380D01*
X189522619Y-98480000D01*
X189570238Y-98527619D01*
X189617857Y-98622857D01*
X189617857Y-98670476D01*
X189570238Y-98765714D01*
X189522619Y-98813333D01*
X189427380Y-98860952D01*
X189236904Y-98860952D01*
X189141666Y-98908571D01*
X189094047Y-98956190D01*
X189046428Y-99051428D01*
X189046428Y-99241904D01*
X189094047Y-99337142D01*
X189141666Y-99384761D01*
X189236904Y-99432380D01*
X189427380Y-99432380D01*
X189522619Y-99384761D01*
X189570238Y-99337142D01*
X189617857Y-99241904D01*
X189617857Y-99051428D01*
X189570238Y-98956190D01*
X189522619Y-98908571D01*
X189427380Y-98860952D01*
X152407476Y-100298380D02*
X152407476Y-101012666D01*
X152359857Y-101155523D01*
X152264619Y-101250761D01*
X152121761Y-101298380D01*
X152026523Y-101298380D01*
X152836047Y-100393619D02*
X152883666Y-100346000D01*
X152978904Y-100298380D01*
X153217000Y-100298380D01*
X153312238Y-100346000D01*
X153359857Y-100393619D01*
X153407476Y-100488857D01*
X153407476Y-100584095D01*
X153359857Y-100726952D01*
X152788428Y-101298380D01*
X153407476Y-101298380D01*
X154026523Y-100298380D02*
X154121761Y-100298380D01*
X154217000Y-100346000D01*
X154264619Y-100393619D01*
X154312238Y-100488857D01*
X154359857Y-100679333D01*
X154359857Y-100917428D01*
X154312238Y-101107904D01*
X154264619Y-101203142D01*
X154217000Y-101250761D01*
X154121761Y-101298380D01*
X154026523Y-101298380D01*
X153931285Y-101250761D01*
X153883666Y-101203142D01*
X153836047Y-101107904D01*
X153788428Y-100917428D01*
X153788428Y-100679333D01*
X153836047Y-100488857D01*
X153883666Y-100393619D01*
X153931285Y-100346000D01*
X154026523Y-100298380D01*
X156855380Y-79034333D02*
X157569666Y-79034333D01*
X157712523Y-79081952D01*
X157807761Y-79177190D01*
X157855380Y-79320047D01*
X157855380Y-79415285D01*
X156855380Y-78081952D02*
X156855380Y-78558142D01*
X157331571Y-78605761D01*
X157283952Y-78558142D01*
X157236333Y-78462904D01*
X157236333Y-78224809D01*
X157283952Y-78129571D01*
X157331571Y-78081952D01*
X157426809Y-78034333D01*
X157664904Y-78034333D01*
X157760142Y-78081952D01*
X157807761Y-78129571D01*
X157855380Y-78224809D01*
X157855380Y-78462904D01*
X157807761Y-78558142D01*
X157760142Y-78605761D01*
D15*
X154604523Y-80059761D02*
X153334523Y-80059761D01*
X154483571Y-78729285D02*
X154544047Y-78789761D01*
X154604523Y-78971190D01*
X154604523Y-79092142D01*
X154544047Y-79273571D01*
X154423095Y-79394523D01*
X154302142Y-79455000D01*
X154060238Y-79515476D01*
X153878809Y-79515476D01*
X153636904Y-79455000D01*
X153515952Y-79394523D01*
X153395000Y-79273571D01*
X153334523Y-79092142D01*
X153334523Y-78971190D01*
X153395000Y-78789761D01*
X153455476Y-78729285D01*
X154604523Y-77519761D02*
X154604523Y-78245476D01*
X154604523Y-77882619D02*
X153334523Y-77882619D01*
X153515952Y-78003571D01*
X153636904Y-78124523D01*
X153697380Y-78245476D01*
X134220238Y-80554523D02*
X134220238Y-79284523D01*
X135550714Y-80433571D02*
X135490238Y-80494047D01*
X135308809Y-80554523D01*
X135187857Y-80554523D01*
X135006428Y-80494047D01*
X134885476Y-80373095D01*
X134825000Y-80252142D01*
X134764523Y-80010238D01*
X134764523Y-79828809D01*
X134825000Y-79586904D01*
X134885476Y-79465952D01*
X135006428Y-79345000D01*
X135187857Y-79284523D01*
X135308809Y-79284523D01*
X135490238Y-79345000D01*
X135550714Y-79405476D01*
X136034523Y-79405476D02*
X136095000Y-79345000D01*
X136215952Y-79284523D01*
X136518333Y-79284523D01*
X136639285Y-79345000D01*
X136699761Y-79405476D01*
X136760238Y-79526428D01*
X136760238Y-79647380D01*
X136699761Y-79828809D01*
X135974047Y-80554523D01*
X136760238Y-80554523D01*
D17*
X144677142Y-84366666D02*
X144724761Y-84414285D01*
X144772380Y-84557142D01*
X144772380Y-84652380D01*
X144724761Y-84795238D01*
X144629523Y-84890476D01*
X144534285Y-84938095D01*
X144343809Y-84985714D01*
X144200952Y-84985714D01*
X144010476Y-84938095D01*
X143915238Y-84890476D01*
X143820000Y-84795238D01*
X143772380Y-84652380D01*
X143772380Y-84557142D01*
X143820000Y-84414285D01*
X143867619Y-84366666D01*
X144772380Y-83414285D02*
X144772380Y-83985714D01*
X144772380Y-83700000D02*
X143772380Y-83700000D01*
X143915238Y-83795238D01*
X144010476Y-83890476D01*
X144058095Y-83985714D01*
X154305379Y-78919334D02*
X155019665Y-78919334D01*
X155162522Y-78966953D01*
X155257760Y-79062191D01*
X155305379Y-79205048D01*
X155305379Y-79300286D01*
X154638713Y-78014572D02*
X155305379Y-78014572D01*
X154257760Y-78252667D02*
X154972046Y-78490762D01*
X154972046Y-77871715D01*
D15*
X141350238Y-80284523D02*
X141350238Y-79014523D01*
X142680714Y-80163571D02*
X142620238Y-80224047D01*
X142438809Y-80284523D01*
X142317857Y-80284523D01*
X142136428Y-80224047D01*
X142015476Y-80103095D01*
X141955000Y-79982142D01*
X141894523Y-79740238D01*
X141894523Y-79558809D01*
X141955000Y-79316904D01*
X142015476Y-79195952D01*
X142136428Y-79075000D01*
X142317857Y-79014523D01*
X142438809Y-79014523D01*
X142620238Y-79075000D01*
X142680714Y-79135476D01*
X143104047Y-79014523D02*
X143890238Y-79014523D01*
X143466904Y-79498333D01*
X143648333Y-79498333D01*
X143769285Y-79558809D01*
X143829761Y-79619285D01*
X143890238Y-79740238D01*
X143890238Y-80042619D01*
X143829761Y-80163571D01*
X143769285Y-80224047D01*
X143648333Y-80284523D01*
X143285476Y-80284523D01*
X143164523Y-80224047D01*
X143104047Y-80163571D01*
D17*
X147255380Y-75809333D02*
X147969666Y-75809333D01*
X148112523Y-75856952D01*
X148207761Y-75952190D01*
X148255380Y-76095047D01*
X148255380Y-76190285D01*
X147255380Y-75428380D02*
X147255380Y-74809333D01*
X147636333Y-75142666D01*
X147636333Y-74999809D01*
X147683952Y-74904571D01*
X147731571Y-74856952D01*
X147826809Y-74809333D01*
X148064904Y-74809333D01*
X148160142Y-74856952D01*
X148207761Y-74904571D01*
X148255380Y-74999809D01*
X148255380Y-75285523D01*
X148207761Y-75380761D01*
X148160142Y-75428380D01*
X151305379Y-75919334D02*
X152019665Y-75919334D01*
X152162522Y-75966953D01*
X152257760Y-76062191D01*
X152305379Y-76205048D01*
X152305379Y-76300286D01*
X151305379Y-75014572D02*
X151305379Y-75205048D01*
X151352999Y-75300286D01*
X151400618Y-75347905D01*
X151543475Y-75443143D01*
X151733951Y-75490762D01*
X152114903Y-75490762D01*
X152210141Y-75443143D01*
X152257760Y-75395524D01*
X152305379Y-75300286D01*
X152305379Y-75109810D01*
X152257760Y-75014572D01*
X152210141Y-74966953D01*
X152114903Y-74919334D01*
X151876808Y-74919334D01*
X151781570Y-74966953D01*
X151733951Y-75014572D01*
X151686332Y-75109810D01*
X151686332Y-75300286D01*
X151733951Y-75395524D01*
X151781570Y-75443143D01*
X151876808Y-75490762D01*
X153930380Y-75909333D02*
X154644666Y-75909333D01*
X154787523Y-75956952D01*
X154882761Y-76052190D01*
X154930380Y-76195047D01*
X154930380Y-76290285D01*
X153930380Y-75528380D02*
X153930380Y-74861714D01*
X154930380Y-75290285D01*
X151305379Y-79395524D02*
X152019665Y-79395524D01*
X152162522Y-79443143D01*
X152257760Y-79538381D01*
X152305379Y-79681239D01*
X152305379Y-79776477D01*
X152305379Y-78395524D02*
X152305379Y-78966953D01*
X152305379Y-78681239D02*
X151305379Y-78681239D01*
X151448237Y-78776477D01*
X151543475Y-78871715D01*
X151591094Y-78966953D01*
X152305379Y-77443143D02*
X152305379Y-78014572D01*
X152305379Y-77728858D02*
X151305379Y-77728858D01*
X151448237Y-77824096D01*
X151543475Y-77919334D01*
X151591094Y-78014572D01*
X135072380Y-74461666D02*
X134596190Y-74795000D01*
X135072380Y-75033095D02*
X134072380Y-75033095D01*
X134072380Y-74652142D01*
X134120000Y-74556904D01*
X134167619Y-74509285D01*
X134262857Y-74461666D01*
X134405714Y-74461666D01*
X134500952Y-74509285D01*
X134548571Y-74556904D01*
X134596190Y-74652142D01*
X134596190Y-75033095D01*
X135072380Y-73509285D02*
X135072380Y-74080714D01*
X135072380Y-73795000D02*
X134072380Y-73795000D01*
X134215238Y-73890238D01*
X134310476Y-73985476D01*
X134358095Y-74080714D01*
X143347380Y-84366666D02*
X142871190Y-84700000D01*
X143347380Y-84938095D02*
X142347380Y-84938095D01*
X142347380Y-84557142D01*
X142395000Y-84461904D01*
X142442619Y-84414285D01*
X142537857Y-84366666D01*
X142680714Y-84366666D01*
X142775952Y-84414285D01*
X142823571Y-84461904D01*
X142871190Y-84557142D01*
X142871190Y-84938095D01*
X142442619Y-83985714D02*
X142395000Y-83938095D01*
X142347380Y-83842857D01*
X142347380Y-83604761D01*
X142395000Y-83509523D01*
X142442619Y-83461904D01*
X142537857Y-83414285D01*
X142633095Y-83414285D01*
X142775952Y-83461904D01*
X143347380Y-84033333D01*
X143347380Y-83414285D01*
X142197380Y-75991666D02*
X141721190Y-76325000D01*
X142197380Y-76563095D02*
X141197380Y-76563095D01*
X141197380Y-76182142D01*
X141245000Y-76086904D01*
X141292619Y-76039285D01*
X141387857Y-75991666D01*
X141530714Y-75991666D01*
X141625952Y-76039285D01*
X141673571Y-76086904D01*
X141721190Y-76182142D01*
X141721190Y-76563095D01*
X141197380Y-75658333D02*
X141197380Y-75039285D01*
X141578333Y-75372619D01*
X141578333Y-75229761D01*
X141625952Y-75134523D01*
X141673571Y-75086904D01*
X141768809Y-75039285D01*
X142006904Y-75039285D01*
X142102142Y-75086904D01*
X142149761Y-75134523D01*
X142197380Y-75229761D01*
X142197380Y-75515476D01*
X142149761Y-75610714D01*
X142102142Y-75658333D01*
X141922380Y-84416666D02*
X141446190Y-84750000D01*
X141922380Y-84988095D02*
X140922380Y-84988095D01*
X140922380Y-84607142D01*
X140970000Y-84511904D01*
X141017619Y-84464285D01*
X141112857Y-84416666D01*
X141255714Y-84416666D01*
X141350952Y-84464285D01*
X141398571Y-84511904D01*
X141446190Y-84607142D01*
X141446190Y-84988095D01*
X140922380Y-83511904D02*
X140922380Y-83988095D01*
X141398571Y-84035714D01*
X141350952Y-83988095D01*
X141303333Y-83892857D01*
X141303333Y-83654761D01*
X141350952Y-83559523D01*
X141398571Y-83511904D01*
X141493809Y-83464285D01*
X141731904Y-83464285D01*
X141827142Y-83511904D01*
X141874761Y-83559523D01*
X141922380Y-83654761D01*
X141922380Y-83892857D01*
X141874761Y-83988095D01*
X141827142Y-84035714D01*
X133392380Y-74491666D02*
X132916190Y-74825000D01*
X133392380Y-75063095D02*
X132392380Y-75063095D01*
X132392380Y-74682142D01*
X132440000Y-74586904D01*
X132487619Y-74539285D01*
X132582857Y-74491666D01*
X132725714Y-74491666D01*
X132820952Y-74539285D01*
X132868571Y-74586904D01*
X132916190Y-74682142D01*
X132916190Y-75063095D01*
X132392380Y-73634523D02*
X132392380Y-73825000D01*
X132440000Y-73920238D01*
X132487619Y-73967857D01*
X132630476Y-74063095D01*
X132820952Y-74110714D01*
X133201904Y-74110714D01*
X133297142Y-74063095D01*
X133344761Y-74015476D01*
X133392380Y-73920238D01*
X133392380Y-73729761D01*
X133344761Y-73634523D01*
X133297142Y-73586904D01*
X133201904Y-73539285D01*
X132963809Y-73539285D01*
X132868571Y-73586904D01*
X132820952Y-73634523D01*
X132773333Y-73729761D01*
X132773333Y-73920238D01*
X132820952Y-74015476D01*
X132868571Y-74063095D01*
X132963809Y-74110714D01*
X143697380Y-75991666D02*
X143221190Y-76325000D01*
X143697380Y-76563095D02*
X142697380Y-76563095D01*
X142697380Y-76182142D01*
X142745000Y-76086904D01*
X142792619Y-76039285D01*
X142887857Y-75991666D01*
X143030714Y-75991666D01*
X143125952Y-76039285D01*
X143173571Y-76086904D01*
X143221190Y-76182142D01*
X143221190Y-76563095D01*
X142697380Y-75658333D02*
X142697380Y-74991666D01*
X143697380Y-75420238D01*
X140697380Y-75991666D02*
X140221190Y-76325000D01*
X140697380Y-76563095D02*
X139697380Y-76563095D01*
X139697380Y-76182142D01*
X139745000Y-76086904D01*
X139792619Y-76039285D01*
X139887857Y-75991666D01*
X140030714Y-75991666D01*
X140125952Y-76039285D01*
X140173571Y-76086904D01*
X140221190Y-76182142D01*
X140221190Y-76563095D01*
X140697380Y-75515476D02*
X140697380Y-75325000D01*
X140649761Y-75229761D01*
X140602142Y-75182142D01*
X140459285Y-75086904D01*
X140268809Y-75039285D01*
X139887857Y-75039285D01*
X139792619Y-75086904D01*
X139745000Y-75134523D01*
X139697380Y-75229761D01*
X139697380Y-75420238D01*
X139745000Y-75515476D01*
X139792619Y-75563095D01*
X139887857Y-75610714D01*
X140125952Y-75610714D01*
X140221190Y-75563095D01*
X140268809Y-75515476D01*
X140316428Y-75420238D01*
X140316428Y-75229761D01*
X140268809Y-75134523D01*
X140221190Y-75086904D01*
X140125952Y-75039285D01*
D15*
X160987380Y-109551047D02*
X161168809Y-109611523D01*
X161471190Y-109611523D01*
X161592142Y-109551047D01*
X161652619Y-109490571D01*
X161713095Y-109369619D01*
X161713095Y-109248666D01*
X161652619Y-109127714D01*
X161592142Y-109067238D01*
X161471190Y-109006761D01*
X161229285Y-108946285D01*
X161108333Y-108885809D01*
X161047857Y-108825333D01*
X160987380Y-108704380D01*
X160987380Y-108583428D01*
X161047857Y-108462476D01*
X161108333Y-108402000D01*
X161229285Y-108341523D01*
X161531666Y-108341523D01*
X161713095Y-108402000D01*
X162922619Y-109611523D02*
X162196904Y-109611523D01*
X162559761Y-109611523D02*
X162559761Y-108341523D01*
X162438809Y-108522952D01*
X162317857Y-108643904D01*
X162196904Y-108704380D01*
D17*
X186192142Y-102866666D02*
X186239761Y-102914285D01*
X186287380Y-103057142D01*
X186287380Y-103152380D01*
X186239761Y-103295238D01*
X186144523Y-103390476D01*
X186049285Y-103438095D01*
X185858809Y-103485714D01*
X185715952Y-103485714D01*
X185525476Y-103438095D01*
X185430238Y-103390476D01*
X185335000Y-103295238D01*
X185287380Y-103152380D01*
X185287380Y-103057142D01*
X185335000Y-102914285D01*
X185382619Y-102866666D01*
X186287380Y-101914285D02*
X186287380Y-102485714D01*
X186287380Y-102200000D02*
X185287380Y-102200000D01*
X185430238Y-102295238D01*
X185525476Y-102390476D01*
X185573095Y-102485714D01*
X174787380Y-95901666D02*
X174311190Y-96235000D01*
X174787380Y-96473095D02*
X173787380Y-96473095D01*
X173787380Y-96092142D01*
X173835000Y-95996904D01*
X173882619Y-95949285D01*
X173977857Y-95901666D01*
X174120714Y-95901666D01*
X174215952Y-95949285D01*
X174263571Y-95996904D01*
X174311190Y-96092142D01*
X174311190Y-96473095D01*
X173882619Y-95520714D02*
X173835000Y-95473095D01*
X173787380Y-95377857D01*
X173787380Y-95139761D01*
X173835000Y-95044523D01*
X173882619Y-94996904D01*
X173977857Y-94949285D01*
X174073095Y-94949285D01*
X174215952Y-94996904D01*
X174787380Y-95568333D01*
X174787380Y-94949285D01*
X184137666Y-102092380D02*
X184137666Y-102806666D01*
X184090047Y-102949523D01*
X183994809Y-103044761D01*
X183851952Y-103092380D01*
X183756714Y-103092380D01*
X185137666Y-103092380D02*
X184566238Y-103092380D01*
X184851952Y-103092380D02*
X184851952Y-102092380D01*
X184756714Y-102235238D01*
X184661476Y-102330476D01*
X184566238Y-102378095D01*
X178327380Y-107496666D02*
X177851190Y-107830000D01*
X178327380Y-108068095D02*
X177327380Y-108068095D01*
X177327380Y-107687142D01*
X177375000Y-107591904D01*
X177422619Y-107544285D01*
X177517857Y-107496666D01*
X177660714Y-107496666D01*
X177755952Y-107544285D01*
X177803571Y-107591904D01*
X177851190Y-107687142D01*
X177851190Y-108068095D01*
X177327380Y-106591904D02*
X177327380Y-107068095D01*
X177803571Y-107115714D01*
X177755952Y-107068095D01*
X177708333Y-106972857D01*
X177708333Y-106734761D01*
X177755952Y-106639523D01*
X177803571Y-106591904D01*
X177898809Y-106544285D01*
X178136904Y-106544285D01*
X178232142Y-106591904D01*
X178279761Y-106639523D01*
X178327380Y-106734761D01*
X178327380Y-106972857D01*
X178279761Y-107068095D01*
X178232142Y-107115714D01*
X149941666Y-93072380D02*
X149941666Y-93786666D01*
X149894047Y-93929523D01*
X149798809Y-94024761D01*
X149655952Y-94072380D01*
X149560714Y-94072380D01*
X150322619Y-93072380D02*
X150989285Y-93072380D01*
X150560714Y-94072380D01*
X173247380Y-95916666D02*
X172771190Y-96250000D01*
X173247380Y-96488095D02*
X172247380Y-96488095D01*
X172247380Y-96107142D01*
X172295000Y-96011904D01*
X172342619Y-95964285D01*
X172437857Y-95916666D01*
X172580714Y-95916666D01*
X172675952Y-95964285D01*
X172723571Y-96011904D01*
X172771190Y-96107142D01*
X172771190Y-96488095D01*
X172247380Y-95059523D02*
X172247380Y-95250000D01*
X172295000Y-95345238D01*
X172342619Y-95392857D01*
X172485476Y-95488095D01*
X172675952Y-95535714D01*
X173056904Y-95535714D01*
X173152142Y-95488095D01*
X173199761Y-95440476D01*
X173247380Y-95345238D01*
X173247380Y-95154761D01*
X173199761Y-95059523D01*
X173152142Y-95011904D01*
X173056904Y-94964285D01*
X172818809Y-94964285D01*
X172723571Y-95011904D01*
X172675952Y-95059523D01*
X172628333Y-95154761D01*
X172628333Y-95345238D01*
X172675952Y-95440476D01*
X172723571Y-95488095D01*
X172818809Y-95535714D01*
X154785476Y-110142380D02*
X154785476Y-110856666D01*
X154737857Y-110999523D01*
X154642619Y-111094761D01*
X154499761Y-111142380D01*
X154404523Y-111142380D01*
X155785476Y-111142380D02*
X155214047Y-111142380D01*
X155499761Y-111142380D02*
X155499761Y-110142380D01*
X155404523Y-110285238D01*
X155309285Y-110380476D01*
X155214047Y-110428095D01*
X156737857Y-111142380D02*
X156166428Y-111142380D01*
X156452142Y-111142380D02*
X156452142Y-110142380D01*
X156356904Y-110285238D01*
X156261666Y-110380476D01*
X156166428Y-110428095D01*
D15*
X165429523Y-99679761D02*
X164159523Y-99679761D01*
X165308571Y-98349285D02*
X165369047Y-98409761D01*
X165429523Y-98591190D01*
X165429523Y-98712142D01*
X165369047Y-98893571D01*
X165248095Y-99014523D01*
X165127142Y-99075000D01*
X164885238Y-99135476D01*
X164703809Y-99135476D01*
X164461904Y-99075000D01*
X164340952Y-99014523D01*
X164220000Y-98893571D01*
X164159523Y-98712142D01*
X164159523Y-98591190D01*
X164220000Y-98409761D01*
X164280476Y-98349285D01*
X165429523Y-97139761D02*
X165429523Y-97865476D01*
X165429523Y-97502619D02*
X164159523Y-97502619D01*
X164340952Y-97623571D01*
X164461904Y-97744523D01*
X164522380Y-97865476D01*
D17*
X178077380Y-107511666D02*
X177601190Y-107845000D01*
X178077380Y-108083095D02*
X177077380Y-108083095D01*
X177077380Y-107702142D01*
X177125000Y-107606904D01*
X177172619Y-107559285D01*
X177267857Y-107511666D01*
X177410714Y-107511666D01*
X177505952Y-107559285D01*
X177553571Y-107606904D01*
X177601190Y-107702142D01*
X177601190Y-108083095D01*
X177077380Y-107178333D02*
X177077380Y-106559285D01*
X177458333Y-106892619D01*
X177458333Y-106749761D01*
X177505952Y-106654523D01*
X177553571Y-106606904D01*
X177648809Y-106559285D01*
X177886904Y-106559285D01*
X177982142Y-106606904D01*
X178029761Y-106654523D01*
X178077380Y-106749761D01*
X178077380Y-107035476D01*
X178029761Y-107130714D01*
X177982142Y-107178333D01*
X184227666Y-109722380D02*
X184227666Y-110436666D01*
X184180047Y-110579523D01*
X184084809Y-110674761D01*
X183941952Y-110722380D01*
X183846714Y-110722380D01*
X184608619Y-109722380D02*
X185227666Y-109722380D01*
X184894333Y-110103333D01*
X185037190Y-110103333D01*
X185132428Y-110150952D01*
X185180047Y-110198571D01*
X185227666Y-110293809D01*
X185227666Y-110531904D01*
X185180047Y-110627142D01*
X185132428Y-110674761D01*
X185037190Y-110722380D01*
X184751476Y-110722380D01*
X184656238Y-110674761D01*
X184608619Y-110627142D01*
X188141666Y-105622380D02*
X188141666Y-106336666D01*
X188094047Y-106479523D01*
X187998809Y-106574761D01*
X187855952Y-106622380D01*
X187760714Y-106622380D01*
X189046428Y-105622380D02*
X188855952Y-105622380D01*
X188760714Y-105670000D01*
X188713095Y-105717619D01*
X188617857Y-105860476D01*
X188570238Y-106050952D01*
X188570238Y-106431904D01*
X188617857Y-106527142D01*
X188665476Y-106574761D01*
X188760714Y-106622380D01*
X188951190Y-106622380D01*
X189046428Y-106574761D01*
X189094047Y-106527142D01*
X189141666Y-106431904D01*
X189141666Y-106193809D01*
X189094047Y-106098571D01*
X189046428Y-106050952D01*
X188951190Y-106003333D01*
X188760714Y-106003333D01*
X188665476Y-106050952D01*
X188617857Y-106098571D01*
X188570238Y-106193809D01*
D15*
X138551666Y-100674523D02*
X138551666Y-101581666D01*
X138491190Y-101763095D01*
X138370238Y-101884047D01*
X138188809Y-101944523D01*
X138067857Y-101944523D01*
X139700714Y-101097857D02*
X139700714Y-101944523D01*
X139398333Y-100614047D02*
X139095952Y-101521190D01*
X139882142Y-101521190D01*
D17*
X130869190Y-92358380D02*
X130869190Y-91358380D01*
X131107285Y-91358380D01*
X131250142Y-91406000D01*
X131345380Y-91501238D01*
X131393000Y-91596476D01*
X131440619Y-91786952D01*
X131440619Y-91929809D01*
X131393000Y-92120285D01*
X131345380Y-92215523D01*
X131250142Y-92310761D01*
X131107285Y-92358380D01*
X130869190Y-92358380D01*
X131869190Y-91358380D02*
X131869190Y-92167904D01*
X131916809Y-92263142D01*
X131964428Y-92310761D01*
X132059666Y-92358380D01*
X132250142Y-92358380D01*
X132345380Y-92310761D01*
X132393000Y-92263142D01*
X132440619Y-92167904D01*
X132440619Y-91358380D01*
X133345380Y-92358380D02*
X133345380Y-91834571D01*
X133297761Y-91739333D01*
X133202523Y-91691714D01*
X133012047Y-91691714D01*
X132916809Y-91739333D01*
X133345380Y-92310761D02*
X133250142Y-92358380D01*
X133012047Y-92358380D01*
X132916809Y-92310761D01*
X132869190Y-92215523D01*
X132869190Y-92120285D01*
X132916809Y-92025047D01*
X133012047Y-91977428D01*
X133250142Y-91977428D01*
X133345380Y-91929809D01*
X133964428Y-92358380D02*
X133869190Y-92310761D01*
X133821571Y-92215523D01*
X133821571Y-91358380D01*
X135107285Y-91691714D02*
X135107285Y-92548857D01*
X135059666Y-92644095D01*
X134964428Y-92691714D01*
X134916809Y-92691714D01*
X135107285Y-91358380D02*
X135059666Y-91406000D01*
X135107285Y-91453619D01*
X135154904Y-91406000D01*
X135107285Y-91358380D01*
X135107285Y-91453619D01*
X136012047Y-92358380D02*
X136012047Y-91834571D01*
X135964428Y-91739333D01*
X135869190Y-91691714D01*
X135678714Y-91691714D01*
X135583476Y-91739333D01*
X136012047Y-92310761D02*
X135916809Y-92358380D01*
X135678714Y-92358380D01*
X135583476Y-92310761D01*
X135535857Y-92215523D01*
X135535857Y-92120285D01*
X135583476Y-92025047D01*
X135678714Y-91977428D01*
X135916809Y-91977428D01*
X136012047Y-91929809D01*
X136916809Y-92310761D02*
X136821571Y-92358380D01*
X136631095Y-92358380D01*
X136535857Y-92310761D01*
X136488238Y-92263142D01*
X136440619Y-92167904D01*
X136440619Y-91882190D01*
X136488238Y-91786952D01*
X136535857Y-91739333D01*
X136631095Y-91691714D01*
X136821571Y-91691714D01*
X136916809Y-91739333D01*
X137345380Y-92358380D02*
X137345380Y-91358380D01*
X137440619Y-91977428D02*
X137726333Y-92358380D01*
X137726333Y-91691714D02*
X137345380Y-92072666D01*
X138916809Y-92358380D02*
X138916809Y-91691714D01*
X138916809Y-91882190D02*
X138964428Y-91786952D01*
X139012047Y-91739333D01*
X139107285Y-91691714D01*
X139202523Y-91691714D01*
X139916809Y-92310761D02*
X139821571Y-92358380D01*
X139631095Y-92358380D01*
X139535857Y-92310761D01*
X139488238Y-92215523D01*
X139488238Y-91834571D01*
X139535857Y-91739333D01*
X139631095Y-91691714D01*
X139821571Y-91691714D01*
X139916809Y-91739333D01*
X139964428Y-91834571D01*
X139964428Y-91929809D01*
X139488238Y-92025047D01*
X140250142Y-91691714D02*
X140631095Y-91691714D01*
X140393000Y-92358380D02*
X140393000Y-91501238D01*
X140440619Y-91406000D01*
X140535857Y-91358380D01*
X140631095Y-91358380D01*
X141345380Y-92310761D02*
X141250142Y-92358380D01*
X141059666Y-92358380D01*
X140964428Y-92310761D01*
X140916809Y-92215523D01*
X140916809Y-91834571D01*
X140964428Y-91739333D01*
X141059666Y-91691714D01*
X141250142Y-91691714D01*
X141345380Y-91739333D01*
X141393000Y-91834571D01*
X141393000Y-91929809D01*
X140916809Y-92025047D01*
X141821571Y-92358380D02*
X141821571Y-91691714D01*
X141821571Y-91882190D02*
X141869190Y-91786952D01*
X141916809Y-91739333D01*
X142012047Y-91691714D01*
X142107285Y-91691714D01*
X142821571Y-92310761D02*
X142726333Y-92358380D01*
X142535857Y-92358380D01*
X142440619Y-92310761D01*
X142393000Y-92215523D01*
X142393000Y-91834571D01*
X142440619Y-91739333D01*
X142535857Y-91691714D01*
X142726333Y-91691714D01*
X142821571Y-91739333D01*
X142869190Y-91834571D01*
X142869190Y-91929809D01*
X142393000Y-92025047D01*
X143297761Y-91691714D02*
X143297761Y-92358380D01*
X143297761Y-91786952D02*
X143345380Y-91739333D01*
X143440619Y-91691714D01*
X143583476Y-91691714D01*
X143678714Y-91739333D01*
X143726333Y-91834571D01*
X143726333Y-92358380D01*
X144631095Y-92310761D02*
X144535857Y-92358380D01*
X144345380Y-92358380D01*
X144250142Y-92310761D01*
X144202523Y-92263142D01*
X144154904Y-92167904D01*
X144154904Y-91882190D01*
X144202523Y-91786952D01*
X144250142Y-91739333D01*
X144345380Y-91691714D01*
X144535857Y-91691714D01*
X144631095Y-91739333D01*
X145440619Y-92310761D02*
X145345380Y-92358380D01*
X145154904Y-92358380D01*
X145059666Y-92310761D01*
X145012047Y-92215523D01*
X145012047Y-91834571D01*
X145059666Y-91739333D01*
X145154904Y-91691714D01*
X145345380Y-91691714D01*
X145440619Y-91739333D01*
X145488238Y-91834571D01*
X145488238Y-91929809D01*
X145012047Y-92025047D01*
X146821571Y-92358380D02*
X146726333Y-92310761D01*
X146678714Y-92215523D01*
X146678714Y-91358380D01*
X147202523Y-92358380D02*
X147202523Y-91691714D01*
X147202523Y-91358380D02*
X147154904Y-91406000D01*
X147202523Y-91453619D01*
X147250142Y-91406000D01*
X147202523Y-91358380D01*
X147202523Y-91453619D01*
X147678714Y-91691714D02*
X147678714Y-92358380D01*
X147678714Y-91786952D02*
X147726333Y-91739333D01*
X147821571Y-91691714D01*
X147964428Y-91691714D01*
X148059666Y-91739333D01*
X148107285Y-91834571D01*
X148107285Y-92358380D01*
X148583476Y-92358380D02*
X148583476Y-91358380D01*
X148678714Y-91977428D02*
X148964428Y-92358380D01*
X148964428Y-91691714D02*
X148583476Y-92072666D01*
X176797380Y-107496666D02*
X176321190Y-107830000D01*
X176797380Y-108068095D02*
X175797380Y-108068095D01*
X175797380Y-107687142D01*
X175845000Y-107591904D01*
X175892619Y-107544285D01*
X175987857Y-107496666D01*
X176130714Y-107496666D01*
X176225952Y-107544285D01*
X176273571Y-107591904D01*
X176321190Y-107687142D01*
X176321190Y-108068095D01*
X176797380Y-106544285D02*
X176797380Y-107115714D01*
X176797380Y-106830000D02*
X175797380Y-106830000D01*
X175940238Y-106925238D01*
X176035476Y-107020476D01*
X176083095Y-107115714D01*
X184097666Y-94992380D02*
X184097666Y-95706666D01*
X184050047Y-95849523D01*
X183954809Y-95944761D01*
X183811952Y-95992380D01*
X183716714Y-95992380D01*
X184526238Y-95087619D02*
X184573857Y-95040000D01*
X184669095Y-94992380D01*
X184907190Y-94992380D01*
X185002428Y-95040000D01*
X185050047Y-95087619D01*
X185097666Y-95182857D01*
X185097666Y-95278095D01*
X185050047Y-95420952D01*
X184478619Y-95992380D01*
X185097666Y-95992380D01*
X144547380Y-79591666D02*
X144071190Y-79925000D01*
X144547380Y-80163095D02*
X143547380Y-80163095D01*
X143547380Y-79782142D01*
X143595000Y-79686904D01*
X143642619Y-79639285D01*
X143737857Y-79591666D01*
X143880714Y-79591666D01*
X143975952Y-79639285D01*
X144023571Y-79686904D01*
X144071190Y-79782142D01*
X144071190Y-80163095D01*
X143975952Y-79020238D02*
X143928333Y-79115476D01*
X143880714Y-79163095D01*
X143785476Y-79210714D01*
X143737857Y-79210714D01*
X143642619Y-79163095D01*
X143595000Y-79115476D01*
X143547380Y-79020238D01*
X143547380Y-78829761D01*
X143595000Y-78734523D01*
X143642619Y-78686904D01*
X143737857Y-78639285D01*
X143785476Y-78639285D01*
X143880714Y-78686904D01*
X143928333Y-78734523D01*
X143975952Y-78829761D01*
X143975952Y-79020238D01*
X144023571Y-79115476D01*
X144071190Y-79163095D01*
X144166428Y-79210714D01*
X144356904Y-79210714D01*
X144452142Y-79163095D01*
X144499761Y-79115476D01*
X144547380Y-79020238D01*
X144547380Y-78829761D01*
X144499761Y-78734523D01*
X144452142Y-78686904D01*
X144356904Y-78639285D01*
X144166428Y-78639285D01*
X144071190Y-78686904D01*
X144023571Y-78734523D01*
X143975952Y-78829761D01*
X179827380Y-107501666D02*
X179351190Y-107835000D01*
X179827380Y-108073095D02*
X178827380Y-108073095D01*
X178827380Y-107692142D01*
X178875000Y-107596904D01*
X178922619Y-107549285D01*
X179017857Y-107501666D01*
X179160714Y-107501666D01*
X179255952Y-107549285D01*
X179303571Y-107596904D01*
X179351190Y-107692142D01*
X179351190Y-108073095D01*
X179160714Y-106644523D02*
X179827380Y-106644523D01*
X178779761Y-106882619D02*
X179494047Y-107120714D01*
X179494047Y-106501666D01*
D15*
X170791047Y-108735476D02*
X170670095Y-108675000D01*
X170549142Y-108554047D01*
X170367714Y-108372619D01*
X170246761Y-108312142D01*
X170125809Y-108312142D01*
X170186285Y-108614523D02*
X170065333Y-108554047D01*
X169944380Y-108433095D01*
X169883904Y-108191190D01*
X169883904Y-107767857D01*
X169944380Y-107525952D01*
X170065333Y-107405000D01*
X170186285Y-107344523D01*
X170428190Y-107344523D01*
X170549142Y-107405000D01*
X170670095Y-107525952D01*
X170730571Y-107767857D01*
X170730571Y-108191190D01*
X170670095Y-108433095D01*
X170549142Y-108554047D01*
X170428190Y-108614523D01*
X170186285Y-108614523D01*
X171940095Y-108614523D02*
X171214380Y-108614523D01*
X171577238Y-108614523D02*
X171577238Y-107344523D01*
X171456285Y-107525952D01*
X171335333Y-107646904D01*
X171214380Y-107707380D01*
D17*
X139197380Y-76467857D02*
X138721190Y-76801190D01*
X139197380Y-77039285D02*
X138197380Y-77039285D01*
X138197380Y-76658333D01*
X138245000Y-76563095D01*
X138292619Y-76515476D01*
X138387857Y-76467857D01*
X138530714Y-76467857D01*
X138625952Y-76515476D01*
X138673571Y-76563095D01*
X138721190Y-76658333D01*
X138721190Y-77039285D01*
X139197380Y-75515476D02*
X139197380Y-76086904D01*
X139197380Y-75801190D02*
X138197380Y-75801190D01*
X138340238Y-75896428D01*
X138435476Y-75991666D01*
X138483095Y-76086904D01*
X138197380Y-74896428D02*
X138197380Y-74801190D01*
X138245000Y-74705952D01*
X138292619Y-74658333D01*
X138387857Y-74610714D01*
X138578333Y-74563095D01*
X138816428Y-74563095D01*
X139006904Y-74610714D01*
X139102142Y-74658333D01*
X139149761Y-74705952D01*
X139197380Y-74801190D01*
X139197380Y-74896428D01*
X139149761Y-74991666D01*
X139102142Y-75039285D01*
X139006904Y-75086904D01*
X138816428Y-75134523D01*
X138578333Y-75134523D01*
X138387857Y-75086904D01*
X138292619Y-75039285D01*
X138245000Y-74991666D01*
X138197380Y-74896428D01*
X176032142Y-102706666D02*
X176079761Y-102754285D01*
X176127380Y-102897142D01*
X176127380Y-102992380D01*
X176079761Y-103135238D01*
X175984523Y-103230476D01*
X175889285Y-103278095D01*
X175698809Y-103325714D01*
X175555952Y-103325714D01*
X175365476Y-103278095D01*
X175270238Y-103230476D01*
X175175000Y-103135238D01*
X175127380Y-102992380D01*
X175127380Y-102897142D01*
X175175000Y-102754285D01*
X175222619Y-102706666D01*
X175222619Y-102325714D02*
X175175000Y-102278095D01*
X175127380Y-102182857D01*
X175127380Y-101944761D01*
X175175000Y-101849523D01*
X175222619Y-101801904D01*
X175317857Y-101754285D01*
X175413095Y-101754285D01*
X175555952Y-101801904D01*
X176127380Y-102373333D01*
X176127380Y-101754285D01*
X177451666Y-110152380D02*
X177451666Y-110866666D01*
X177404047Y-111009523D01*
X177308809Y-111104761D01*
X177165952Y-111152380D01*
X177070714Y-111152380D01*
X178404047Y-110152380D02*
X177927857Y-110152380D01*
X177880238Y-110628571D01*
X177927857Y-110580952D01*
X178023095Y-110533333D01*
X178261190Y-110533333D01*
X178356428Y-110580952D01*
X178404047Y-110628571D01*
X178451666Y-110723809D01*
X178451666Y-110961904D01*
X178404047Y-111057142D01*
X178356428Y-111104761D01*
X178261190Y-111152380D01*
X178023095Y-111152380D01*
X177927857Y-111104761D01*
X177880238Y-111057142D01*
X156605380Y-75909333D02*
X157319666Y-75909333D01*
X157462523Y-75956952D01*
X157557761Y-76052190D01*
X157605380Y-76195047D01*
X157605380Y-76290285D01*
X157033952Y-75290285D02*
X156986333Y-75385523D01*
X156938714Y-75433142D01*
X156843476Y-75480761D01*
X156795857Y-75480761D01*
X156700619Y-75433142D01*
X156653000Y-75385523D01*
X156605380Y-75290285D01*
X156605380Y-75099809D01*
X156653000Y-75004571D01*
X156700619Y-74956952D01*
X156795857Y-74909333D01*
X156843476Y-74909333D01*
X156938714Y-74956952D01*
X156986333Y-75004571D01*
X157033952Y-75099809D01*
X157033952Y-75290285D01*
X157081571Y-75385523D01*
X157129190Y-75433142D01*
X157224428Y-75480761D01*
X157414904Y-75480761D01*
X157510142Y-75433142D01*
X157557761Y-75385523D01*
X157605380Y-75290285D01*
X157605380Y-75099809D01*
X157557761Y-75004571D01*
X157510142Y-74956952D01*
X157414904Y-74909333D01*
X157224428Y-74909333D01*
X157129190Y-74956952D01*
X157081571Y-75004571D01*
X157033952Y-75099809D01*
X144652380Y-73683333D02*
X145366666Y-73683333D01*
X145509523Y-73730952D01*
X145604761Y-73826190D01*
X145652380Y-73969047D01*
X145652380Y-74064285D01*
X144747619Y-73254761D02*
X144700000Y-73207142D01*
X144652380Y-73111904D01*
X144652380Y-72873809D01*
X144700000Y-72778571D01*
X144747619Y-72730952D01*
X144842857Y-72683333D01*
X144938095Y-72683333D01*
X145080952Y-72730952D01*
X145652380Y-73302380D01*
X145652380Y-72683333D01*
X131522380Y-74491666D02*
X131046190Y-74825000D01*
X131522380Y-75063095D02*
X130522380Y-75063095D01*
X130522380Y-74682142D01*
X130570000Y-74586904D01*
X130617619Y-74539285D01*
X130712857Y-74491666D01*
X130855714Y-74491666D01*
X130950952Y-74539285D01*
X130998571Y-74586904D01*
X131046190Y-74682142D01*
X131046190Y-75063095D01*
X130855714Y-73634523D02*
X131522380Y-73634523D01*
X130474761Y-73872619D02*
X131189047Y-74110714D01*
X131189047Y-73491666D01*
X178563095Y-98862380D02*
X178563095Y-99671904D01*
X178610714Y-99767142D01*
X178658333Y-99814761D01*
X178753571Y-99862380D01*
X178944047Y-99862380D01*
X179039285Y-99814761D01*
X179086904Y-99767142D01*
X179134523Y-99671904D01*
X179134523Y-98862380D01*
X180134523Y-99862380D02*
X179563095Y-99862380D01*
X179848809Y-99862380D02*
X179848809Y-98862380D01*
X179753571Y-99005238D01*
X179658333Y-99100476D01*
X179563095Y-99148095D01*
X155289476Y-100240380D02*
X155289476Y-100954666D01*
X155241857Y-101097523D01*
X155146619Y-101192761D01*
X155003761Y-101240380D01*
X154908523Y-101240380D01*
X156289476Y-101240380D02*
X155718047Y-101240380D01*
X156003761Y-101240380D02*
X156003761Y-100240380D01*
X155908523Y-100383238D01*
X155813285Y-100478476D01*
X155718047Y-100526095D01*
X156765666Y-101240380D02*
X156956142Y-101240380D01*
X157051380Y-101192761D01*
X157099000Y-101145142D01*
X157194238Y-101002285D01*
X157241857Y-100811809D01*
X157241857Y-100430857D01*
X157194238Y-100335619D01*
X157146619Y-100288000D01*
X157051380Y-100240380D01*
X156860904Y-100240380D01*
X156765666Y-100288000D01*
X156718047Y-100335619D01*
X156670428Y-100430857D01*
X156670428Y-100668952D01*
X156718047Y-100764190D01*
X156765666Y-100811809D01*
X156860904Y-100859428D01*
X157051380Y-100859428D01*
X157146619Y-100811809D01*
X157194238Y-100764190D01*
X157241857Y-100668952D01*
X152883666Y-97298380D02*
X152883666Y-98012666D01*
X152836047Y-98155523D01*
X152740809Y-98250761D01*
X152597952Y-98298380D01*
X152502714Y-98298380D01*
X153502714Y-97726952D02*
X153407476Y-97679333D01*
X153359857Y-97631714D01*
X153312238Y-97536476D01*
X153312238Y-97488857D01*
X153359857Y-97393619D01*
X153407476Y-97346000D01*
X153502714Y-97298380D01*
X153693190Y-97298380D01*
X153788428Y-97346000D01*
X153836047Y-97393619D01*
X153883666Y-97488857D01*
X153883666Y-97536476D01*
X153836047Y-97631714D01*
X153788428Y-97679333D01*
X153693190Y-97726952D01*
X153502714Y-97726952D01*
X153407476Y-97774571D01*
X153359857Y-97822190D01*
X153312238Y-97917428D01*
X153312238Y-98107904D01*
X153359857Y-98203142D01*
X153407476Y-98250761D01*
X153502714Y-98298380D01*
X153693190Y-98298380D01*
X153788428Y-98250761D01*
X153836047Y-98203142D01*
X153883666Y-98107904D01*
X153883666Y-97917428D01*
X153836047Y-97822190D01*
X153788428Y-97774571D01*
X153693190Y-97726952D01*
D15*
X140369523Y-85702619D02*
X141397619Y-85702619D01*
X141518571Y-85642142D01*
X141579047Y-85581666D01*
X141639523Y-85460714D01*
X141639523Y-85218809D01*
X141579047Y-85097857D01*
X141518571Y-85037380D01*
X141397619Y-84976904D01*
X140369523Y-84976904D01*
X141639523Y-83706904D02*
X141639523Y-84432619D01*
X141639523Y-84069761D02*
X140369523Y-84069761D01*
X140550952Y-84190714D01*
X140671904Y-84311666D01*
X140732380Y-84432619D01*
D17*
X155289476Y-97190380D02*
X155289476Y-97904666D01*
X155241857Y-98047523D01*
X155146619Y-98142761D01*
X155003761Y-98190380D01*
X154908523Y-98190380D01*
X156289476Y-98190380D02*
X155718047Y-98190380D01*
X156003761Y-98190380D02*
X156003761Y-97190380D01*
X155908523Y-97333238D01*
X155813285Y-97428476D01*
X155718047Y-97476095D01*
X157146619Y-97523714D02*
X157146619Y-98190380D01*
X156908523Y-97142761D02*
X156670428Y-97857047D01*
X157289476Y-97857047D01*
D15*
X179667619Y-97564523D02*
X179667619Y-96294523D01*
X179970000Y-96294523D01*
X180151428Y-96355000D01*
X180272380Y-96475952D01*
X180332857Y-96596904D01*
X180393333Y-96838809D01*
X180393333Y-97020238D01*
X180332857Y-97262142D01*
X180272380Y-97383095D01*
X180151428Y-97504047D01*
X179970000Y-97564523D01*
X179667619Y-97564523D01*
X180816666Y-96294523D02*
X181602857Y-96294523D01*
X181179523Y-96778333D01*
X181360952Y-96778333D01*
X181481904Y-96838809D01*
X181542380Y-96899285D01*
X181602857Y-97020238D01*
X181602857Y-97322619D01*
X181542380Y-97443571D01*
X181481904Y-97504047D01*
X181360952Y-97564523D01*
X180998095Y-97564523D01*
X180877142Y-97504047D01*
X180816666Y-97443571D01*
D17*
X184958333Y-77587142D02*
X184910714Y-77634761D01*
X184767857Y-77682380D01*
X184672619Y-77682380D01*
X184529761Y-77634761D01*
X184434523Y-77539523D01*
X184386904Y-77444285D01*
X184339285Y-77253809D01*
X184339285Y-77110952D01*
X184386904Y-76920476D01*
X184434523Y-76825238D01*
X184529761Y-76730000D01*
X184672619Y-76682380D01*
X184767857Y-76682380D01*
X184910714Y-76730000D01*
X184958333Y-76777619D01*
X185815476Y-77015714D02*
X185815476Y-77682380D01*
X185577380Y-76634761D02*
X185339285Y-77349047D01*
X185958333Y-77349047D01*
X176558333Y-87487142D02*
X176510714Y-87534761D01*
X176367857Y-87582380D01*
X176272619Y-87582380D01*
X176129761Y-87534761D01*
X176034523Y-87439523D01*
X175986904Y-87344285D01*
X175939285Y-87153809D01*
X175939285Y-87010952D01*
X175986904Y-86820476D01*
X176034523Y-86725238D01*
X176129761Y-86630000D01*
X176272619Y-86582380D01*
X176367857Y-86582380D01*
X176510714Y-86630000D01*
X176558333Y-86677619D01*
X177510714Y-87582380D02*
X176939285Y-87582380D01*
X177225000Y-87582380D02*
X177225000Y-86582380D01*
X177129761Y-86725238D01*
X177034523Y-86820476D01*
X176939285Y-86868095D01*
X180358333Y-84627142D02*
X180310714Y-84674761D01*
X180167857Y-84722380D01*
X180072619Y-84722380D01*
X179929761Y-84674761D01*
X179834523Y-84579523D01*
X179786904Y-84484285D01*
X179739285Y-84293809D01*
X179739285Y-84150952D01*
X179786904Y-83960476D01*
X179834523Y-83865238D01*
X179929761Y-83770000D01*
X180072619Y-83722380D01*
X180167857Y-83722380D01*
X180310714Y-83770000D01*
X180358333Y-83817619D01*
X180739285Y-83817619D02*
X180786904Y-83770000D01*
X180882142Y-83722380D01*
X181120238Y-83722380D01*
X181215476Y-83770000D01*
X181263095Y-83817619D01*
X181310714Y-83912857D01*
X181310714Y-84008095D01*
X181263095Y-84150952D01*
X180691666Y-84722380D01*
X181310714Y-84722380D01*
X181608333Y-78187142D02*
X181560714Y-78234761D01*
X181417857Y-78282380D01*
X181322619Y-78282380D01*
X181179761Y-78234761D01*
X181084523Y-78139523D01*
X181036904Y-78044285D01*
X180989285Y-77853809D01*
X180989285Y-77710952D01*
X181036904Y-77520476D01*
X181084523Y-77425238D01*
X181179761Y-77330000D01*
X181322619Y-77282380D01*
X181417857Y-77282380D01*
X181560714Y-77330000D01*
X181608333Y-77377619D01*
X181941666Y-77282380D02*
X182560714Y-77282380D01*
X182227380Y-77663333D01*
X182370238Y-77663333D01*
X182465476Y-77710952D01*
X182513095Y-77758571D01*
X182560714Y-77853809D01*
X182560714Y-78091904D01*
X182513095Y-78187142D01*
X182465476Y-78234761D01*
X182370238Y-78282380D01*
X182084523Y-78282380D01*
X181989285Y-78234761D01*
X181941666Y-78187142D01*
D18*
X179328123Y-80980380D02*
X178688123Y-80980380D01*
X178688123Y-80828000D01*
X178718600Y-80736571D01*
X178779552Y-80675619D01*
X178840504Y-80645142D01*
X178962409Y-80614666D01*
X179053838Y-80614666D01*
X179175742Y-80645142D01*
X179236695Y-80675619D01*
X179297647Y-80736571D01*
X179328123Y-80828000D01*
X179328123Y-80980380D01*
X179328123Y-80005142D02*
X179328123Y-80370857D01*
X179328123Y-80188000D02*
X178688123Y-80188000D01*
X178779552Y-80248952D01*
X178840504Y-80309904D01*
X178870980Y-80370857D01*
D17*
X175316666Y-84052380D02*
X175316666Y-84766666D01*
X175269047Y-84909523D01*
X175173809Y-85004761D01*
X175030952Y-85052380D01*
X174935714Y-85052380D01*
X175697619Y-84052380D02*
X176316666Y-84052380D01*
X175983333Y-84433333D01*
X176126190Y-84433333D01*
X176221428Y-84480952D01*
X176269047Y-84528571D01*
X176316666Y-84623809D01*
X176316666Y-84861904D01*
X176269047Y-84957142D01*
X176221428Y-85004761D01*
X176126190Y-85052380D01*
X175840476Y-85052380D01*
X175745238Y-85004761D01*
X175697619Y-84957142D01*
X178116666Y-83452380D02*
X178116666Y-84166666D01*
X178069047Y-84309523D01*
X177973809Y-84404761D01*
X177830952Y-84452380D01*
X177735714Y-84452380D01*
X179021428Y-83785714D02*
X179021428Y-84452380D01*
X178783333Y-83404761D02*
X178545238Y-84119047D01*
X179164285Y-84119047D01*
X179683333Y-76782380D02*
X179350000Y-76306190D01*
X179111904Y-76782380D02*
X179111904Y-75782380D01*
X179492857Y-75782380D01*
X179588095Y-75830000D01*
X179635714Y-75877619D01*
X179683333Y-75972857D01*
X179683333Y-76115714D01*
X179635714Y-76210952D01*
X179588095Y-76258571D01*
X179492857Y-76306190D01*
X179111904Y-76306190D01*
X180635714Y-76782380D02*
X180064285Y-76782380D01*
X180350000Y-76782380D02*
X180350000Y-75782380D01*
X180254761Y-75925238D01*
X180159523Y-76020476D01*
X180064285Y-76068095D01*
X180810714Y-76182380D02*
X180477380Y-75706190D01*
X180239285Y-76182380D02*
X180239285Y-75182380D01*
X180620238Y-75182380D01*
X180715476Y-75230000D01*
X180763095Y-75277619D01*
X180810714Y-75372857D01*
X180810714Y-75515714D01*
X180763095Y-75610952D01*
X180715476Y-75658571D01*
X180620238Y-75706190D01*
X180239285Y-75706190D01*
X181239285Y-76182380D02*
X181239285Y-75182380D01*
X181239285Y-75563333D02*
X181334523Y-75515714D01*
X181525000Y-75515714D01*
X181620238Y-75563333D01*
X181667857Y-75610952D01*
X181715476Y-75706190D01*
X181715476Y-75991904D01*
X181667857Y-76087142D01*
X181620238Y-76134761D01*
X181525000Y-76182380D01*
X181334523Y-76182380D01*
X181239285Y-76134761D01*
X182048809Y-75515714D02*
X182286904Y-76182380D01*
X182525000Y-75515714D02*
X182286904Y-76182380D01*
X182191666Y-76420476D01*
X182144047Y-76468095D01*
X182048809Y-76515714D01*
X182905952Y-75515714D02*
X182905952Y-76515714D01*
X182905952Y-75563333D02*
X183001190Y-75515714D01*
X183191666Y-75515714D01*
X183286904Y-75563333D01*
X183334523Y-75610952D01*
X183382142Y-75706190D01*
X183382142Y-75991904D01*
X183334523Y-76087142D01*
X183286904Y-76134761D01*
X183191666Y-76182380D01*
X183001190Y-76182380D01*
X182905952Y-76134761D01*
X184239285Y-76182380D02*
X184239285Y-75658571D01*
X184191666Y-75563333D01*
X184096428Y-75515714D01*
X183905952Y-75515714D01*
X183810714Y-75563333D01*
X184239285Y-76134761D02*
X184144047Y-76182380D01*
X183905952Y-76182380D01*
X183810714Y-76134761D01*
X183763095Y-76039523D01*
X183763095Y-75944285D01*
X183810714Y-75849047D01*
X183905952Y-75801428D01*
X184144047Y-75801428D01*
X184239285Y-75753809D01*
X184667857Y-76134761D02*
X184763095Y-76182380D01*
X184953571Y-76182380D01*
X185048809Y-76134761D01*
X185096428Y-76039523D01*
X185096428Y-75991904D01*
X185048809Y-75896666D01*
X184953571Y-75849047D01*
X184810714Y-75849047D01*
X184715476Y-75801428D01*
X184667857Y-75706190D01*
X184667857Y-75658571D01*
X184715476Y-75563333D01*
X184810714Y-75515714D01*
X184953571Y-75515714D01*
X185048809Y-75563333D01*
X185477380Y-76134761D02*
X185572619Y-76182380D01*
X185763095Y-76182380D01*
X185858333Y-76134761D01*
X185905952Y-76039523D01*
X185905952Y-75991904D01*
X185858333Y-75896666D01*
X185763095Y-75849047D01*
X185620238Y-75849047D01*
X185525000Y-75801428D01*
X185477380Y-75706190D01*
X185477380Y-75658571D01*
X185525000Y-75563333D01*
X185620238Y-75515714D01*
X185763095Y-75515714D01*
X185858333Y-75563333D01*
X186858333Y-76182380D02*
X186286904Y-76182380D01*
X186572619Y-76182380D02*
X186572619Y-75182380D01*
X186477380Y-75325238D01*
X186382142Y-75420476D01*
X186286904Y-75468095D01*
D18*
X178018803Y-79899925D02*
X178656224Y-79899925D01*
X178731215Y-79862430D01*
X178768710Y-79824934D01*
X178806205Y-79749944D01*
X178806205Y-79599962D01*
X178768710Y-79524972D01*
X178731215Y-79487476D01*
X178656224Y-79449981D01*
X178018803Y-79449981D01*
X178806205Y-78662579D02*
X178806205Y-79112523D01*
X178806205Y-78887551D02*
X178018803Y-78887551D01*
X178131289Y-78962542D01*
X178206280Y-79037532D01*
X178243775Y-79112523D01*
X179172380Y-76252000D02*
X179410476Y-76252000D01*
X179315238Y-76490095D02*
X179410476Y-76252000D01*
X179315238Y-76013904D01*
X179600952Y-76394857D02*
X179410476Y-76252000D01*
X179600952Y-76109142D01*
X179172380Y-76252000D02*
X179410476Y-76252000D01*
X179315238Y-76490095D02*
X179410476Y-76252000D01*
X179315238Y-76013904D01*
X179600952Y-76394857D02*
X179410476Y-76252000D01*
X179600952Y-76109142D01*
X181662500Y-79796025D02*
X182992490Y-79796025D01*
X183148960Y-79717790D01*
X183227195Y-79639556D01*
X183305429Y-79483086D01*
X183305429Y-79170147D01*
X183227195Y-79013678D01*
X183148960Y-78935443D01*
X182992490Y-78857208D01*
X181662500Y-78857208D01*
X181818970Y-78153096D02*
X181740735Y-78074861D01*
X181662500Y-77918392D01*
X181662500Y-77527218D01*
X181740735Y-77370749D01*
X181818970Y-77292514D01*
X181975439Y-77214279D01*
X182131909Y-77214279D01*
X182366613Y-77292514D01*
X183305429Y-78231331D01*
X183305429Y-77214279D01*
X174110058Y-75087303D02*
X174826116Y-75087303D01*
X174969327Y-75135040D01*
X175064801Y-75230514D01*
X175112538Y-75373725D01*
X175112538Y-75469200D01*
X175112538Y-74084823D02*
X175112538Y-74657668D01*
X175112538Y-74371245D02*
X174110058Y-74371245D01*
X174253270Y-74466720D01*
X174348744Y-74562194D01*
X174396481Y-74657668D01*
D15*
X184438333Y-86774523D02*
X183833571Y-86774523D01*
X183833571Y-85504523D01*
X185526904Y-86774523D02*
X184801190Y-86774523D01*
X185164047Y-86774523D02*
X185164047Y-85504523D01*
X185043095Y-85685952D01*
X184922142Y-85806904D01*
X184801190Y-85867380D01*
D17*
X175416666Y-79552380D02*
X175416666Y-80266666D01*
X175369047Y-80409523D01*
X175273809Y-80504761D01*
X175130952Y-80552380D01*
X175035714Y-80552380D01*
X175845238Y-79647619D02*
X175892857Y-79600000D01*
X175988095Y-79552380D01*
X176226190Y-79552380D01*
X176321428Y-79600000D01*
X176369047Y-79647619D01*
X176416666Y-79742857D01*
X176416666Y-79838095D01*
X176369047Y-79980952D01*
X175797619Y-80552380D01*
X176416666Y-80552380D01*
X190049166Y-71277380D02*
X190049166Y-71991666D01*
X190001547Y-72134523D01*
X189906309Y-72229761D01*
X189763452Y-72277380D01*
X189668214Y-72277380D01*
X191001547Y-71277380D02*
X190525357Y-71277380D01*
X190477738Y-71753571D01*
X190525357Y-71705952D01*
X190620595Y-71658333D01*
X190858690Y-71658333D01*
X190953928Y-71705952D01*
X191001547Y-71753571D01*
X191049166Y-71848809D01*
X191049166Y-72086904D01*
X191001547Y-72182142D01*
X190953928Y-72229761D01*
X190858690Y-72277380D01*
X190620595Y-72277380D01*
X190525357Y-72229761D01*
X190477738Y-72182142D01*
X174872380Y-81891666D02*
X174396190Y-82225000D01*
X174872380Y-82463095D02*
X173872380Y-82463095D01*
X173872380Y-82082142D01*
X173920000Y-81986904D01*
X173967619Y-81939285D01*
X174062857Y-81891666D01*
X174205714Y-81891666D01*
X174300952Y-81939285D01*
X174348571Y-81986904D01*
X174396190Y-82082142D01*
X174396190Y-82463095D01*
X173967619Y-81510714D02*
X173920000Y-81463095D01*
X173872380Y-81367857D01*
X173872380Y-81129761D01*
X173920000Y-81034523D01*
X173967619Y-80986904D01*
X174062857Y-80939285D01*
X174158095Y-80939285D01*
X174300952Y-80986904D01*
X174872380Y-81558333D01*
X174872380Y-80939285D01*
X131450476Y-138777380D02*
X131450476Y-139491666D01*
X131402857Y-139634523D01*
X131307619Y-139729761D01*
X131164761Y-139777380D01*
X131069523Y-139777380D01*
X132450476Y-139777380D02*
X131879047Y-139777380D01*
X132164761Y-139777380D02*
X132164761Y-138777380D01*
X132069523Y-138920238D01*
X131974285Y-139015476D01*
X131879047Y-139063095D01*
X132783809Y-138777380D02*
X133402857Y-138777380D01*
X133069523Y-139158333D01*
X133212380Y-139158333D01*
X133307619Y-139205952D01*
X133355238Y-139253571D01*
X133402857Y-139348809D01*
X133402857Y-139586904D01*
X133355238Y-139682142D01*
X133307619Y-139729761D01*
X133212380Y-139777380D01*
X132926666Y-139777380D01*
X132831428Y-139729761D01*
X132783809Y-139682142D01*
X152282476Y-143173380D02*
X152282476Y-143887666D01*
X152234857Y-144030523D01*
X152139619Y-144125761D01*
X151996761Y-144173380D01*
X151901523Y-144173380D01*
X152711047Y-143268619D02*
X152758666Y-143221000D01*
X152853904Y-143173380D01*
X153092000Y-143173380D01*
X153187238Y-143221000D01*
X153234857Y-143268619D01*
X153282476Y-143363857D01*
X153282476Y-143459095D01*
X153234857Y-143601952D01*
X152663428Y-144173380D01*
X153282476Y-144173380D01*
X153901523Y-143173380D02*
X153996761Y-143173380D01*
X154092000Y-143221000D01*
X154139619Y-143268619D01*
X154187238Y-143363857D01*
X154234857Y-143554333D01*
X154234857Y-143792428D01*
X154187238Y-143982904D01*
X154139619Y-144078142D01*
X154092000Y-144125761D01*
X153996761Y-144173380D01*
X153901523Y-144173380D01*
X153806285Y-144125761D01*
X153758666Y-144078142D01*
X153711047Y-143982904D01*
X153663428Y-143792428D01*
X153663428Y-143554333D01*
X153711047Y-143363857D01*
X153758666Y-143268619D01*
X153806285Y-143221000D01*
X153901523Y-143173380D01*
X187540476Y-141307380D02*
X187540476Y-142021666D01*
X187492857Y-142164523D01*
X187397619Y-142259761D01*
X187254761Y-142307380D01*
X187159523Y-142307380D01*
X188540476Y-142307380D02*
X187969047Y-142307380D01*
X188254761Y-142307380D02*
X188254761Y-141307380D01*
X188159523Y-141450238D01*
X188064285Y-141545476D01*
X187969047Y-141593095D01*
X189111904Y-141735952D02*
X189016666Y-141688333D01*
X188969047Y-141640714D01*
X188921428Y-141545476D01*
X188921428Y-141497857D01*
X188969047Y-141402619D01*
X189016666Y-141355000D01*
X189111904Y-141307380D01*
X189302380Y-141307380D01*
X189397619Y-141355000D01*
X189445238Y-141402619D01*
X189492857Y-141497857D01*
X189492857Y-141545476D01*
X189445238Y-141640714D01*
X189397619Y-141688333D01*
X189302380Y-141735952D01*
X189111904Y-141735952D01*
X189016666Y-141783571D01*
X188969047Y-141831190D01*
X188921428Y-141926428D01*
X188921428Y-142116904D01*
X188969047Y-142212142D01*
X189016666Y-142259761D01*
X189111904Y-142307380D01*
X189302380Y-142307380D01*
X189397619Y-142259761D01*
X189445238Y-142212142D01*
X189492857Y-142116904D01*
X189492857Y-141926428D01*
X189445238Y-141831190D01*
X189397619Y-141783571D01*
X189302380Y-141735952D01*
X176840476Y-135887380D02*
X176840476Y-136601666D01*
X176792857Y-136744523D01*
X176697619Y-136839761D01*
X176554761Y-136887380D01*
X176459523Y-136887380D01*
X177840476Y-136887380D02*
X177269047Y-136887380D01*
X177554761Y-136887380D02*
X177554761Y-135887380D01*
X177459523Y-136030238D01*
X177364285Y-136125476D01*
X177269047Y-136173095D01*
X178173809Y-135887380D02*
X178840476Y-135887380D01*
X178411904Y-136887380D01*
X153180476Y-135927380D02*
X153180476Y-136641666D01*
X153132857Y-136784523D01*
X153037619Y-136879761D01*
X152894761Y-136927380D01*
X152799523Y-136927380D01*
X154180476Y-136927380D02*
X153609047Y-136927380D01*
X153894761Y-136927380D02*
X153894761Y-135927380D01*
X153799523Y-136070238D01*
X153704285Y-136165476D01*
X153609047Y-136213095D01*
X154561428Y-136022619D02*
X154609047Y-135975000D01*
X154704285Y-135927380D01*
X154942380Y-135927380D01*
X155037619Y-135975000D01*
X155085238Y-136022619D01*
X155132857Y-136117857D01*
X155132857Y-136213095D01*
X155085238Y-136355952D01*
X154513809Y-136927380D01*
X155132857Y-136927380D01*
X154660476Y-153017380D02*
X154660476Y-153731666D01*
X154612857Y-153874523D01*
X154517619Y-153969761D01*
X154374761Y-154017380D01*
X154279523Y-154017380D01*
X155660476Y-154017380D02*
X155089047Y-154017380D01*
X155374761Y-154017380D02*
X155374761Y-153017380D01*
X155279523Y-153160238D01*
X155184285Y-153255476D01*
X155089047Y-153303095D01*
X156612857Y-154017380D02*
X156041428Y-154017380D01*
X156327142Y-154017380D02*
X156327142Y-153017380D01*
X156231904Y-153160238D01*
X156136666Y-153255476D01*
X156041428Y-153303095D01*
X152758666Y-140173380D02*
X152758666Y-140887666D01*
X152711047Y-141030523D01*
X152615809Y-141125761D01*
X152472952Y-141173380D01*
X152377714Y-141173380D01*
X153377714Y-140601952D02*
X153282476Y-140554333D01*
X153234857Y-140506714D01*
X153187238Y-140411476D01*
X153187238Y-140363857D01*
X153234857Y-140268619D01*
X153282476Y-140221000D01*
X153377714Y-140173380D01*
X153568190Y-140173380D01*
X153663428Y-140221000D01*
X153711047Y-140268619D01*
X153758666Y-140363857D01*
X153758666Y-140411476D01*
X153711047Y-140506714D01*
X153663428Y-140554333D01*
X153568190Y-140601952D01*
X153377714Y-140601952D01*
X153282476Y-140649571D01*
X153234857Y-140697190D01*
X153187238Y-140792428D01*
X153187238Y-140982904D01*
X153234857Y-141078142D01*
X153282476Y-141125761D01*
X153377714Y-141173380D01*
X153568190Y-141173380D01*
X153663428Y-141125761D01*
X153711047Y-141078142D01*
X153758666Y-140982904D01*
X153758666Y-140792428D01*
X153711047Y-140697190D01*
X153663428Y-140649571D01*
X153568190Y-140601952D01*
X149816666Y-135947380D02*
X149816666Y-136661666D01*
X149769047Y-136804523D01*
X149673809Y-136899761D01*
X149530952Y-136947380D01*
X149435714Y-136947380D01*
X150197619Y-135947380D02*
X150864285Y-135947380D01*
X150435714Y-136947380D01*
X188016666Y-148497380D02*
X188016666Y-149211666D01*
X187969047Y-149354523D01*
X187873809Y-149449761D01*
X187730952Y-149497380D01*
X187635714Y-149497380D01*
X188921428Y-148497380D02*
X188730952Y-148497380D01*
X188635714Y-148545000D01*
X188588095Y-148592619D01*
X188492857Y-148735476D01*
X188445238Y-148925952D01*
X188445238Y-149306904D01*
X188492857Y-149402142D01*
X188540476Y-149449761D01*
X188635714Y-149497380D01*
X188826190Y-149497380D01*
X188921428Y-149449761D01*
X188969047Y-149402142D01*
X189016666Y-149306904D01*
X189016666Y-149068809D01*
X188969047Y-148973571D01*
X188921428Y-148925952D01*
X188826190Y-148878333D01*
X188635714Y-148878333D01*
X188540476Y-148925952D01*
X188492857Y-148973571D01*
X188445238Y-149068809D01*
X177326666Y-153027380D02*
X177326666Y-153741666D01*
X177279047Y-153884523D01*
X177183809Y-153979761D01*
X177040952Y-154027380D01*
X176945714Y-154027380D01*
X178279047Y-153027380D02*
X177802857Y-153027380D01*
X177755238Y-153503571D01*
X177802857Y-153455952D01*
X177898095Y-153408333D01*
X178136190Y-153408333D01*
X178231428Y-153455952D01*
X178279047Y-153503571D01*
X178326666Y-153598809D01*
X178326666Y-153836904D01*
X178279047Y-153932142D01*
X178231428Y-153979761D01*
X178136190Y-154027380D01*
X177898095Y-154027380D01*
X177802857Y-153979761D01*
X177755238Y-153932142D01*
D15*
X170666047Y-151610476D02*
X170545095Y-151550000D01*
X170424142Y-151429047D01*
X170242714Y-151247619D01*
X170121761Y-151187142D01*
X170000809Y-151187142D01*
X170061285Y-151489523D02*
X169940333Y-151429047D01*
X169819380Y-151308095D01*
X169758904Y-151066190D01*
X169758904Y-150642857D01*
X169819380Y-150400952D01*
X169940333Y-150280000D01*
X170061285Y-150219523D01*
X170303190Y-150219523D01*
X170424142Y-150280000D01*
X170545095Y-150400952D01*
X170605571Y-150642857D01*
X170605571Y-151066190D01*
X170545095Y-151308095D01*
X170424142Y-151429047D01*
X170303190Y-151489523D01*
X170061285Y-151489523D01*
X171815095Y-151489523D02*
X171089380Y-151489523D01*
X171452238Y-151489523D02*
X171452238Y-150219523D01*
X171331285Y-150400952D01*
X171210333Y-150521904D01*
X171089380Y-150582380D01*
X138426666Y-143549523D02*
X138426666Y-144456666D01*
X138366190Y-144638095D01*
X138245238Y-144759047D01*
X138063809Y-144819523D01*
X137942857Y-144819523D01*
X139575714Y-143972857D02*
X139575714Y-144819523D01*
X139273333Y-143489047D02*
X138970952Y-144396190D01*
X139757142Y-144396190D01*
D17*
X130744190Y-135233380D02*
X130744190Y-134233380D01*
X130982285Y-134233380D01*
X131125142Y-134281000D01*
X131220380Y-134376238D01*
X131268000Y-134471476D01*
X131315619Y-134661952D01*
X131315619Y-134804809D01*
X131268000Y-134995285D01*
X131220380Y-135090523D01*
X131125142Y-135185761D01*
X130982285Y-135233380D01*
X130744190Y-135233380D01*
X131744190Y-134233380D02*
X131744190Y-135042904D01*
X131791809Y-135138142D01*
X131839428Y-135185761D01*
X131934666Y-135233380D01*
X132125142Y-135233380D01*
X132220380Y-135185761D01*
X132268000Y-135138142D01*
X132315619Y-135042904D01*
X132315619Y-134233380D01*
X133220380Y-135233380D02*
X133220380Y-134709571D01*
X133172761Y-134614333D01*
X133077523Y-134566714D01*
X132887047Y-134566714D01*
X132791809Y-134614333D01*
X133220380Y-135185761D02*
X133125142Y-135233380D01*
X132887047Y-135233380D01*
X132791809Y-135185761D01*
X132744190Y-135090523D01*
X132744190Y-134995285D01*
X132791809Y-134900047D01*
X132887047Y-134852428D01*
X133125142Y-134852428D01*
X133220380Y-134804809D01*
X133839428Y-135233380D02*
X133744190Y-135185761D01*
X133696571Y-135090523D01*
X133696571Y-134233380D01*
X134982285Y-134566714D02*
X134982285Y-135423857D01*
X134934666Y-135519095D01*
X134839428Y-135566714D01*
X134791809Y-135566714D01*
X134982285Y-134233380D02*
X134934666Y-134281000D01*
X134982285Y-134328619D01*
X135029904Y-134281000D01*
X134982285Y-134233380D01*
X134982285Y-134328619D01*
X135887047Y-135233380D02*
X135887047Y-134709571D01*
X135839428Y-134614333D01*
X135744190Y-134566714D01*
X135553714Y-134566714D01*
X135458476Y-134614333D01*
X135887047Y-135185761D02*
X135791809Y-135233380D01*
X135553714Y-135233380D01*
X135458476Y-135185761D01*
X135410857Y-135090523D01*
X135410857Y-134995285D01*
X135458476Y-134900047D01*
X135553714Y-134852428D01*
X135791809Y-134852428D01*
X135887047Y-134804809D01*
X136791809Y-135185761D02*
X136696571Y-135233380D01*
X136506095Y-135233380D01*
X136410857Y-135185761D01*
X136363238Y-135138142D01*
X136315619Y-135042904D01*
X136315619Y-134757190D01*
X136363238Y-134661952D01*
X136410857Y-134614333D01*
X136506095Y-134566714D01*
X136696571Y-134566714D01*
X136791809Y-134614333D01*
X137220380Y-135233380D02*
X137220380Y-134233380D01*
X137315619Y-134852428D02*
X137601333Y-135233380D01*
X137601333Y-134566714D02*
X137220380Y-134947666D01*
X138791809Y-135233380D02*
X138791809Y-134566714D01*
X138791809Y-134757190D02*
X138839428Y-134661952D01*
X138887047Y-134614333D01*
X138982285Y-134566714D01*
X139077523Y-134566714D01*
X139791809Y-135185761D02*
X139696571Y-135233380D01*
X139506095Y-135233380D01*
X139410857Y-135185761D01*
X139363238Y-135090523D01*
X139363238Y-134709571D01*
X139410857Y-134614333D01*
X139506095Y-134566714D01*
X139696571Y-134566714D01*
X139791809Y-134614333D01*
X139839428Y-134709571D01*
X139839428Y-134804809D01*
X139363238Y-134900047D01*
X140125142Y-134566714D02*
X140506095Y-134566714D01*
X140268000Y-135233380D02*
X140268000Y-134376238D01*
X140315619Y-134281000D01*
X140410857Y-134233380D01*
X140506095Y-134233380D01*
X141220380Y-135185761D02*
X141125142Y-135233380D01*
X140934666Y-135233380D01*
X140839428Y-135185761D01*
X140791809Y-135090523D01*
X140791809Y-134709571D01*
X140839428Y-134614333D01*
X140934666Y-134566714D01*
X141125142Y-134566714D01*
X141220380Y-134614333D01*
X141268000Y-134709571D01*
X141268000Y-134804809D01*
X140791809Y-134900047D01*
X141696571Y-135233380D02*
X141696571Y-134566714D01*
X141696571Y-134757190D02*
X141744190Y-134661952D01*
X141791809Y-134614333D01*
X141887047Y-134566714D01*
X141982285Y-134566714D01*
X142696571Y-135185761D02*
X142601333Y-135233380D01*
X142410857Y-135233380D01*
X142315619Y-135185761D01*
X142268000Y-135090523D01*
X142268000Y-134709571D01*
X142315619Y-134614333D01*
X142410857Y-134566714D01*
X142601333Y-134566714D01*
X142696571Y-134614333D01*
X142744190Y-134709571D01*
X142744190Y-134804809D01*
X142268000Y-134900047D01*
X143172761Y-134566714D02*
X143172761Y-135233380D01*
X143172761Y-134661952D02*
X143220380Y-134614333D01*
X143315619Y-134566714D01*
X143458476Y-134566714D01*
X143553714Y-134614333D01*
X143601333Y-134709571D01*
X143601333Y-135233380D01*
X144506095Y-135185761D02*
X144410857Y-135233380D01*
X144220380Y-135233380D01*
X144125142Y-135185761D01*
X144077523Y-135138142D01*
X144029904Y-135042904D01*
X144029904Y-134757190D01*
X144077523Y-134661952D01*
X144125142Y-134614333D01*
X144220380Y-134566714D01*
X144410857Y-134566714D01*
X144506095Y-134614333D01*
X145315619Y-135185761D02*
X145220380Y-135233380D01*
X145029904Y-135233380D01*
X144934666Y-135185761D01*
X144887047Y-135090523D01*
X144887047Y-134709571D01*
X144934666Y-134614333D01*
X145029904Y-134566714D01*
X145220380Y-134566714D01*
X145315619Y-134614333D01*
X145363238Y-134709571D01*
X145363238Y-134804809D01*
X144887047Y-134900047D01*
X146696571Y-135233380D02*
X146601333Y-135185761D01*
X146553714Y-135090523D01*
X146553714Y-134233380D01*
X147077523Y-135233380D02*
X147077523Y-134566714D01*
X147077523Y-134233380D02*
X147029904Y-134281000D01*
X147077523Y-134328619D01*
X147125142Y-134281000D01*
X147077523Y-134233380D01*
X147077523Y-134328619D01*
X147553714Y-134566714D02*
X147553714Y-135233380D01*
X147553714Y-134661952D02*
X147601333Y-134614333D01*
X147696571Y-134566714D01*
X147839428Y-134566714D01*
X147934666Y-134614333D01*
X147982285Y-134709571D01*
X147982285Y-135233380D01*
X148458476Y-135233380D02*
X148458476Y-134233380D01*
X148553714Y-134852428D02*
X148839428Y-135233380D01*
X148839428Y-134566714D02*
X148458476Y-134947666D01*
X155164476Y-140065380D02*
X155164476Y-140779666D01*
X155116857Y-140922523D01*
X155021619Y-141017761D01*
X154878761Y-141065380D01*
X154783523Y-141065380D01*
X156164476Y-141065380D02*
X155593047Y-141065380D01*
X155878761Y-141065380D02*
X155878761Y-140065380D01*
X155783523Y-140208238D01*
X155688285Y-140303476D01*
X155593047Y-140351095D01*
X157021619Y-140398714D02*
X157021619Y-141065380D01*
X156783523Y-140017761D02*
X156545428Y-140732047D01*
X157164476Y-140732047D01*
X155164476Y-143115380D02*
X155164476Y-143829666D01*
X155116857Y-143972523D01*
X155021619Y-144067761D01*
X154878761Y-144115380D01*
X154783523Y-144115380D01*
X156164476Y-144115380D02*
X155593047Y-144115380D01*
X155878761Y-144115380D02*
X155878761Y-143115380D01*
X155783523Y-143258238D01*
X155688285Y-143353476D01*
X155593047Y-143401095D01*
X156640666Y-144115380D02*
X156831142Y-144115380D01*
X156926380Y-144067761D01*
X156974000Y-144020142D01*
X157069238Y-143877285D01*
X157116857Y-143686809D01*
X157116857Y-143305857D01*
X157069238Y-143210619D01*
X157021619Y-143163000D01*
X156926380Y-143115380D01*
X156735904Y-143115380D01*
X156640666Y-143163000D01*
X156593047Y-143210619D01*
X156545428Y-143305857D01*
X156545428Y-143543952D01*
X156593047Y-143639190D01*
X156640666Y-143686809D01*
X156735904Y-143734428D01*
X156926380Y-143734428D01*
X157021619Y-143686809D01*
X157069238Y-143639190D01*
X157116857Y-143543952D01*
X184012666Y-144967380D02*
X184012666Y-145681666D01*
X183965047Y-145824523D01*
X183869809Y-145919761D01*
X183726952Y-145967380D01*
X183631714Y-145967380D01*
X185012666Y-145967380D02*
X184441238Y-145967380D01*
X184726952Y-145967380D02*
X184726952Y-144967380D01*
X184631714Y-145110238D01*
X184536476Y-145205476D01*
X184441238Y-145253095D01*
X183972666Y-137867380D02*
X183972666Y-138581666D01*
X183925047Y-138724523D01*
X183829809Y-138819761D01*
X183686952Y-138867380D01*
X183591714Y-138867380D01*
X184401238Y-137962619D02*
X184448857Y-137915000D01*
X184544095Y-137867380D01*
X184782190Y-137867380D01*
X184877428Y-137915000D01*
X184925047Y-137962619D01*
X184972666Y-138057857D01*
X184972666Y-138153095D01*
X184925047Y-138295952D01*
X184353619Y-138867380D01*
X184972666Y-138867380D01*
X184102666Y-152597380D02*
X184102666Y-153311666D01*
X184055047Y-153454523D01*
X183959809Y-153549761D01*
X183816952Y-153597380D01*
X183721714Y-153597380D01*
X184483619Y-152597380D02*
X185102666Y-152597380D01*
X184769333Y-152978333D01*
X184912190Y-152978333D01*
X185007428Y-153025952D01*
X185055047Y-153073571D01*
X185102666Y-153168809D01*
X185102666Y-153406904D01*
X185055047Y-153502142D01*
X185007428Y-153549761D01*
X184912190Y-153597380D01*
X184626476Y-153597380D01*
X184531238Y-153549761D01*
X184483619Y-153502142D01*
D15*
X165304523Y-142554761D02*
X164034523Y-142554761D01*
X165183571Y-141224285D02*
X165244047Y-141284761D01*
X165304523Y-141466190D01*
X165304523Y-141587142D01*
X165244047Y-141768571D01*
X165123095Y-141889523D01*
X165002142Y-141950000D01*
X164760238Y-142010476D01*
X164578809Y-142010476D01*
X164336904Y-141950000D01*
X164215952Y-141889523D01*
X164095000Y-141768571D01*
X164034523Y-141587142D01*
X164034523Y-141466190D01*
X164095000Y-141284761D01*
X164155476Y-141224285D01*
X165304523Y-140014761D02*
X165304523Y-140740476D01*
X165304523Y-140377619D02*
X164034523Y-140377619D01*
X164215952Y-140498571D01*
X164336904Y-140619523D01*
X164397380Y-140740476D01*
D17*
X177952380Y-150386666D02*
X177476190Y-150720000D01*
X177952380Y-150958095D02*
X176952380Y-150958095D01*
X176952380Y-150577142D01*
X177000000Y-150481904D01*
X177047619Y-150434285D01*
X177142857Y-150386666D01*
X177285714Y-150386666D01*
X177380952Y-150434285D01*
X177428571Y-150481904D01*
X177476190Y-150577142D01*
X177476190Y-150958095D01*
X176952380Y-150053333D02*
X176952380Y-149434285D01*
X177333333Y-149767619D01*
X177333333Y-149624761D01*
X177380952Y-149529523D01*
X177428571Y-149481904D01*
X177523809Y-149434285D01*
X177761904Y-149434285D01*
X177857142Y-149481904D01*
X177904761Y-149529523D01*
X177952380Y-149624761D01*
X177952380Y-149910476D01*
X177904761Y-150005714D01*
X177857142Y-150053333D01*
X174662380Y-138776666D02*
X174186190Y-139110000D01*
X174662380Y-139348095D02*
X173662380Y-139348095D01*
X173662380Y-138967142D01*
X173710000Y-138871904D01*
X173757619Y-138824285D01*
X173852857Y-138776666D01*
X173995714Y-138776666D01*
X174090952Y-138824285D01*
X174138571Y-138871904D01*
X174186190Y-138967142D01*
X174186190Y-139348095D01*
X173757619Y-138395714D02*
X173710000Y-138348095D01*
X173662380Y-138252857D01*
X173662380Y-138014761D01*
X173710000Y-137919523D01*
X173757619Y-137871904D01*
X173852857Y-137824285D01*
X173948095Y-137824285D01*
X174090952Y-137871904D01*
X174662380Y-138443333D01*
X174662380Y-137824285D01*
X176672380Y-150371666D02*
X176196190Y-150705000D01*
X176672380Y-150943095D02*
X175672380Y-150943095D01*
X175672380Y-150562142D01*
X175720000Y-150466904D01*
X175767619Y-150419285D01*
X175862857Y-150371666D01*
X176005714Y-150371666D01*
X176100952Y-150419285D01*
X176148571Y-150466904D01*
X176196190Y-150562142D01*
X176196190Y-150943095D01*
X176672380Y-149419285D02*
X176672380Y-149990714D01*
X176672380Y-149705000D02*
X175672380Y-149705000D01*
X175815238Y-149800238D01*
X175910476Y-149895476D01*
X175958095Y-149990714D01*
X173122380Y-138791666D02*
X172646190Y-139125000D01*
X173122380Y-139363095D02*
X172122380Y-139363095D01*
X172122380Y-138982142D01*
X172170000Y-138886904D01*
X172217619Y-138839285D01*
X172312857Y-138791666D01*
X172455714Y-138791666D01*
X172550952Y-138839285D01*
X172598571Y-138886904D01*
X172646190Y-138982142D01*
X172646190Y-139363095D01*
X172122380Y-137934523D02*
X172122380Y-138125000D01*
X172170000Y-138220238D01*
X172217619Y-138267857D01*
X172360476Y-138363095D01*
X172550952Y-138410714D01*
X172931904Y-138410714D01*
X173027142Y-138363095D01*
X173074761Y-138315476D01*
X173122380Y-138220238D01*
X173122380Y-138029761D01*
X173074761Y-137934523D01*
X173027142Y-137886904D01*
X172931904Y-137839285D01*
X172693809Y-137839285D01*
X172598571Y-137886904D01*
X172550952Y-137934523D01*
X172503333Y-138029761D01*
X172503333Y-138220238D01*
X172550952Y-138315476D01*
X172598571Y-138363095D01*
X172693809Y-138410714D01*
X178202380Y-150371666D02*
X177726190Y-150705000D01*
X178202380Y-150943095D02*
X177202380Y-150943095D01*
X177202380Y-150562142D01*
X177250000Y-150466904D01*
X177297619Y-150419285D01*
X177392857Y-150371666D01*
X177535714Y-150371666D01*
X177630952Y-150419285D01*
X177678571Y-150466904D01*
X177726190Y-150562142D01*
X177726190Y-150943095D01*
X177202380Y-149466904D02*
X177202380Y-149943095D01*
X177678571Y-149990714D01*
X177630952Y-149943095D01*
X177583333Y-149847857D01*
X177583333Y-149609761D01*
X177630952Y-149514523D01*
X177678571Y-149466904D01*
X177773809Y-149419285D01*
X178011904Y-149419285D01*
X178107142Y-149466904D01*
X178154761Y-149514523D01*
X178202380Y-149609761D01*
X178202380Y-149847857D01*
X178154761Y-149943095D01*
X178107142Y-149990714D01*
X179702380Y-150376666D02*
X179226190Y-150710000D01*
X179702380Y-150948095D02*
X178702380Y-150948095D01*
X178702380Y-150567142D01*
X178750000Y-150471904D01*
X178797619Y-150424285D01*
X178892857Y-150376666D01*
X179035714Y-150376666D01*
X179130952Y-150424285D01*
X179178571Y-150471904D01*
X179226190Y-150567142D01*
X179226190Y-150948095D01*
X179035714Y-149519523D02*
X179702380Y-149519523D01*
X178654761Y-149757619D02*
X179369047Y-149995714D01*
X179369047Y-149376666D01*
X186067142Y-145741666D02*
X186114761Y-145789285D01*
X186162380Y-145932142D01*
X186162380Y-146027380D01*
X186114761Y-146170238D01*
X186019523Y-146265476D01*
X185924285Y-146313095D01*
X185733809Y-146360714D01*
X185590952Y-146360714D01*
X185400476Y-146313095D01*
X185305238Y-146265476D01*
X185210000Y-146170238D01*
X185162380Y-146027380D01*
X185162380Y-145932142D01*
X185210000Y-145789285D01*
X185257619Y-145741666D01*
X186162380Y-144789285D02*
X186162380Y-145360714D01*
X186162380Y-145075000D02*
X185162380Y-145075000D01*
X185305238Y-145170238D01*
X185400476Y-145265476D01*
X185448095Y-145360714D01*
D15*
X179542619Y-140439523D02*
X179542619Y-139169523D01*
X179845000Y-139169523D01*
X180026428Y-139230000D01*
X180147380Y-139350952D01*
X180207857Y-139471904D01*
X180268333Y-139713809D01*
X180268333Y-139895238D01*
X180207857Y-140137142D01*
X180147380Y-140258095D01*
X180026428Y-140379047D01*
X179845000Y-140439523D01*
X179542619Y-140439523D01*
X180691666Y-139169523D02*
X181477857Y-139169523D01*
X181054523Y-139653333D01*
X181235952Y-139653333D01*
X181356904Y-139713809D01*
X181417380Y-139774285D01*
X181477857Y-139895238D01*
X181477857Y-140197619D01*
X181417380Y-140318571D01*
X181356904Y-140379047D01*
X181235952Y-140439523D01*
X180873095Y-140439523D01*
X180752142Y-140379047D01*
X180691666Y-140318571D01*
X160862380Y-152426047D02*
X161043809Y-152486523D01*
X161346190Y-152486523D01*
X161467142Y-152426047D01*
X161527619Y-152365571D01*
X161588095Y-152244619D01*
X161588095Y-152123666D01*
X161527619Y-152002714D01*
X161467142Y-151942238D01*
X161346190Y-151881761D01*
X161104285Y-151821285D01*
X160983333Y-151760809D01*
X160922857Y-151700333D01*
X160862380Y-151579380D01*
X160862380Y-151458428D01*
X160922857Y-151337476D01*
X160983333Y-151277000D01*
X161104285Y-151216523D01*
X161406666Y-151216523D01*
X161588095Y-151277000D01*
X162797619Y-152486523D02*
X162071904Y-152486523D01*
X162434761Y-152486523D02*
X162434761Y-151216523D01*
X162313809Y-151397952D01*
X162192857Y-151518904D01*
X162071904Y-151579380D01*
D17*
X178438095Y-141737380D02*
X178438095Y-142546904D01*
X178485714Y-142642142D01*
X178533333Y-142689761D01*
X178628571Y-142737380D01*
X178819047Y-142737380D01*
X178914285Y-142689761D01*
X178961904Y-142642142D01*
X179009523Y-142546904D01*
X179009523Y-141737380D01*
X180009523Y-142737380D02*
X179438095Y-142737380D01*
X179723809Y-142737380D02*
X179723809Y-141737380D01*
X179628571Y-141880238D01*
X179533333Y-141975476D01*
X179438095Y-142023095D01*
X175907142Y-145581666D02*
X175954761Y-145629285D01*
X176002380Y-145772142D01*
X176002380Y-145867380D01*
X175954761Y-146010238D01*
X175859523Y-146105476D01*
X175764285Y-146153095D01*
X175573809Y-146200714D01*
X175430952Y-146200714D01*
X175240476Y-146153095D01*
X175145238Y-146105476D01*
X175050000Y-146010238D01*
X175002380Y-145867380D01*
X175002380Y-145772142D01*
X175050000Y-145629285D01*
X175097619Y-145581666D01*
X175097619Y-145200714D02*
X175050000Y-145153095D01*
X175002380Y-145057857D01*
X175002380Y-144819761D01*
X175050000Y-144724523D01*
X175097619Y-144676904D01*
X175192857Y-144629285D01*
X175288095Y-144629285D01*
X175430952Y-144676904D01*
X176002380Y-145248333D01*
X176002380Y-144629285D01*
X144527380Y-116558333D02*
X145241666Y-116558333D01*
X145384523Y-116605952D01*
X145479761Y-116701190D01*
X145527380Y-116844047D01*
X145527380Y-116939285D01*
X144622619Y-116129761D02*
X144575000Y-116082142D01*
X144527380Y-115986904D01*
X144527380Y-115748809D01*
X144575000Y-115653571D01*
X144622619Y-115605952D01*
X144717857Y-115558333D01*
X144813095Y-115558333D01*
X144955952Y-115605952D01*
X145527380Y-116177380D01*
X145527380Y-115558333D01*
D15*
X140244523Y-128577619D02*
X141272619Y-128577619D01*
X141393571Y-128517142D01*
X141454047Y-128456666D01*
X141514523Y-128335714D01*
X141514523Y-128093809D01*
X141454047Y-127972857D01*
X141393571Y-127912380D01*
X141272619Y-127851904D01*
X140244523Y-127851904D01*
X141514523Y-126581904D02*
X141514523Y-127307619D01*
X141514523Y-126944761D02*
X140244523Y-126944761D01*
X140425952Y-127065714D01*
X140546904Y-127186666D01*
X140607380Y-127307619D01*
D17*
X139072380Y-119342857D02*
X138596190Y-119676190D01*
X139072380Y-119914285D02*
X138072380Y-119914285D01*
X138072380Y-119533333D01*
X138120000Y-119438095D01*
X138167619Y-119390476D01*
X138262857Y-119342857D01*
X138405714Y-119342857D01*
X138500952Y-119390476D01*
X138548571Y-119438095D01*
X138596190Y-119533333D01*
X138596190Y-119914285D01*
X139072380Y-118390476D02*
X139072380Y-118961904D01*
X139072380Y-118676190D02*
X138072380Y-118676190D01*
X138215238Y-118771428D01*
X138310476Y-118866666D01*
X138358095Y-118961904D01*
X138072380Y-117771428D02*
X138072380Y-117676190D01*
X138120000Y-117580952D01*
X138167619Y-117533333D01*
X138262857Y-117485714D01*
X138453333Y-117438095D01*
X138691428Y-117438095D01*
X138881904Y-117485714D01*
X138977142Y-117533333D01*
X139024761Y-117580952D01*
X139072380Y-117676190D01*
X139072380Y-117771428D01*
X139024761Y-117866666D01*
X138977142Y-117914285D01*
X138881904Y-117961904D01*
X138691428Y-118009523D01*
X138453333Y-118009523D01*
X138262857Y-117961904D01*
X138167619Y-117914285D01*
X138120000Y-117866666D01*
X138072380Y-117771428D01*
X140572380Y-118866666D02*
X140096190Y-119200000D01*
X140572380Y-119438095D02*
X139572380Y-119438095D01*
X139572380Y-119057142D01*
X139620000Y-118961904D01*
X139667619Y-118914285D01*
X139762857Y-118866666D01*
X139905714Y-118866666D01*
X140000952Y-118914285D01*
X140048571Y-118961904D01*
X140096190Y-119057142D01*
X140096190Y-119438095D01*
X140572380Y-118390476D02*
X140572380Y-118200000D01*
X140524761Y-118104761D01*
X140477142Y-118057142D01*
X140334285Y-117961904D01*
X140143809Y-117914285D01*
X139762857Y-117914285D01*
X139667619Y-117961904D01*
X139620000Y-118009523D01*
X139572380Y-118104761D01*
X139572380Y-118295238D01*
X139620000Y-118390476D01*
X139667619Y-118438095D01*
X139762857Y-118485714D01*
X140000952Y-118485714D01*
X140096190Y-118438095D01*
X140143809Y-118390476D01*
X140191428Y-118295238D01*
X140191428Y-118104761D01*
X140143809Y-118009523D01*
X140096190Y-117961904D01*
X140000952Y-117914285D01*
X144422380Y-122466666D02*
X143946190Y-122800000D01*
X144422380Y-123038095D02*
X143422380Y-123038095D01*
X143422380Y-122657142D01*
X143470000Y-122561904D01*
X143517619Y-122514285D01*
X143612857Y-122466666D01*
X143755714Y-122466666D01*
X143850952Y-122514285D01*
X143898571Y-122561904D01*
X143946190Y-122657142D01*
X143946190Y-123038095D01*
X143850952Y-121895238D02*
X143803333Y-121990476D01*
X143755714Y-122038095D01*
X143660476Y-122085714D01*
X143612857Y-122085714D01*
X143517619Y-122038095D01*
X143470000Y-121990476D01*
X143422380Y-121895238D01*
X143422380Y-121704761D01*
X143470000Y-121609523D01*
X143517619Y-121561904D01*
X143612857Y-121514285D01*
X143660476Y-121514285D01*
X143755714Y-121561904D01*
X143803333Y-121609523D01*
X143850952Y-121704761D01*
X143850952Y-121895238D01*
X143898571Y-121990476D01*
X143946190Y-122038095D01*
X144041428Y-122085714D01*
X144231904Y-122085714D01*
X144327142Y-122038095D01*
X144374761Y-121990476D01*
X144422380Y-121895238D01*
X144422380Y-121704761D01*
X144374761Y-121609523D01*
X144327142Y-121561904D01*
X144231904Y-121514285D01*
X144041428Y-121514285D01*
X143946190Y-121561904D01*
X143898571Y-121609523D01*
X143850952Y-121704761D01*
X143572380Y-118866666D02*
X143096190Y-119200000D01*
X143572380Y-119438095D02*
X142572380Y-119438095D01*
X142572380Y-119057142D01*
X142620000Y-118961904D01*
X142667619Y-118914285D01*
X142762857Y-118866666D01*
X142905714Y-118866666D01*
X143000952Y-118914285D01*
X143048571Y-118961904D01*
X143096190Y-119057142D01*
X143096190Y-119438095D01*
X142572380Y-118533333D02*
X142572380Y-117866666D01*
X143572380Y-118295238D01*
X133267380Y-117366666D02*
X132791190Y-117700000D01*
X133267380Y-117938095D02*
X132267380Y-117938095D01*
X132267380Y-117557142D01*
X132315000Y-117461904D01*
X132362619Y-117414285D01*
X132457857Y-117366666D01*
X132600714Y-117366666D01*
X132695952Y-117414285D01*
X132743571Y-117461904D01*
X132791190Y-117557142D01*
X132791190Y-117938095D01*
X132267380Y-116509523D02*
X132267380Y-116700000D01*
X132315000Y-116795238D01*
X132362619Y-116842857D01*
X132505476Y-116938095D01*
X132695952Y-116985714D01*
X133076904Y-116985714D01*
X133172142Y-116938095D01*
X133219761Y-116890476D01*
X133267380Y-116795238D01*
X133267380Y-116604761D01*
X133219761Y-116509523D01*
X133172142Y-116461904D01*
X133076904Y-116414285D01*
X132838809Y-116414285D01*
X132743571Y-116461904D01*
X132695952Y-116509523D01*
X132648333Y-116604761D01*
X132648333Y-116795238D01*
X132695952Y-116890476D01*
X132743571Y-116938095D01*
X132838809Y-116985714D01*
X141797380Y-127291666D02*
X141321190Y-127625000D01*
X141797380Y-127863095D02*
X140797380Y-127863095D01*
X140797380Y-127482142D01*
X140845000Y-127386904D01*
X140892619Y-127339285D01*
X140987857Y-127291666D01*
X141130714Y-127291666D01*
X141225952Y-127339285D01*
X141273571Y-127386904D01*
X141321190Y-127482142D01*
X141321190Y-127863095D01*
X140797380Y-126386904D02*
X140797380Y-126863095D01*
X141273571Y-126910714D01*
X141225952Y-126863095D01*
X141178333Y-126767857D01*
X141178333Y-126529761D01*
X141225952Y-126434523D01*
X141273571Y-126386904D01*
X141368809Y-126339285D01*
X141606904Y-126339285D01*
X141702142Y-126386904D01*
X141749761Y-126434523D01*
X141797380Y-126529761D01*
X141797380Y-126767857D01*
X141749761Y-126863095D01*
X141702142Y-126910714D01*
X131397380Y-117366666D02*
X130921190Y-117700000D01*
X131397380Y-117938095D02*
X130397380Y-117938095D01*
X130397380Y-117557142D01*
X130445000Y-117461904D01*
X130492619Y-117414285D01*
X130587857Y-117366666D01*
X130730714Y-117366666D01*
X130825952Y-117414285D01*
X130873571Y-117461904D01*
X130921190Y-117557142D01*
X130921190Y-117938095D01*
X130730714Y-116509523D02*
X131397380Y-116509523D01*
X130349761Y-116747619D02*
X131064047Y-116985714D01*
X131064047Y-116366666D01*
X142072380Y-118866666D02*
X141596190Y-119200000D01*
X142072380Y-119438095D02*
X141072380Y-119438095D01*
X141072380Y-119057142D01*
X141120000Y-118961904D01*
X141167619Y-118914285D01*
X141262857Y-118866666D01*
X141405714Y-118866666D01*
X141500952Y-118914285D01*
X141548571Y-118961904D01*
X141596190Y-119057142D01*
X141596190Y-119438095D01*
X141072380Y-118533333D02*
X141072380Y-117914285D01*
X141453333Y-118247619D01*
X141453333Y-118104761D01*
X141500952Y-118009523D01*
X141548571Y-117961904D01*
X141643809Y-117914285D01*
X141881904Y-117914285D01*
X141977142Y-117961904D01*
X142024761Y-118009523D01*
X142072380Y-118104761D01*
X142072380Y-118390476D01*
X142024761Y-118485714D01*
X141977142Y-118533333D01*
X143222380Y-127241666D02*
X142746190Y-127575000D01*
X143222380Y-127813095D02*
X142222380Y-127813095D01*
X142222380Y-127432142D01*
X142270000Y-127336904D01*
X142317619Y-127289285D01*
X142412857Y-127241666D01*
X142555714Y-127241666D01*
X142650952Y-127289285D01*
X142698571Y-127336904D01*
X142746190Y-127432142D01*
X142746190Y-127813095D01*
X142317619Y-126860714D02*
X142270000Y-126813095D01*
X142222380Y-126717857D01*
X142222380Y-126479761D01*
X142270000Y-126384523D01*
X142317619Y-126336904D01*
X142412857Y-126289285D01*
X142508095Y-126289285D01*
X142650952Y-126336904D01*
X143222380Y-126908333D01*
X143222380Y-126289285D01*
X134947380Y-117336666D02*
X134471190Y-117670000D01*
X134947380Y-117908095D02*
X133947380Y-117908095D01*
X133947380Y-117527142D01*
X133995000Y-117431904D01*
X134042619Y-117384285D01*
X134137857Y-117336666D01*
X134280714Y-117336666D01*
X134375952Y-117384285D01*
X134423571Y-117431904D01*
X134471190Y-117527142D01*
X134471190Y-117908095D01*
X134947380Y-116384285D02*
X134947380Y-116955714D01*
X134947380Y-116670000D02*
X133947380Y-116670000D01*
X134090238Y-116765238D01*
X134185476Y-116860476D01*
X134233095Y-116955714D01*
X151180379Y-122270524D02*
X151894665Y-122270524D01*
X152037522Y-122318143D01*
X152132760Y-122413381D01*
X152180379Y-122556239D01*
X152180379Y-122651477D01*
X152180379Y-121270524D02*
X152180379Y-121841953D01*
X152180379Y-121556239D02*
X151180379Y-121556239D01*
X151323237Y-121651477D01*
X151418475Y-121746715D01*
X151466094Y-121841953D01*
X152180379Y-120318143D02*
X152180379Y-120889572D01*
X152180379Y-120603858D02*
X151180379Y-120603858D01*
X151323237Y-120699096D01*
X151418475Y-120794334D01*
X151466094Y-120889572D01*
X156480380Y-118784333D02*
X157194666Y-118784333D01*
X157337523Y-118831952D01*
X157432761Y-118927190D01*
X157480380Y-119070047D01*
X157480380Y-119165285D01*
X156908952Y-118165285D02*
X156861333Y-118260523D01*
X156813714Y-118308142D01*
X156718476Y-118355761D01*
X156670857Y-118355761D01*
X156575619Y-118308142D01*
X156528000Y-118260523D01*
X156480380Y-118165285D01*
X156480380Y-117974809D01*
X156528000Y-117879571D01*
X156575619Y-117831952D01*
X156670857Y-117784333D01*
X156718476Y-117784333D01*
X156813714Y-117831952D01*
X156861333Y-117879571D01*
X156908952Y-117974809D01*
X156908952Y-118165285D01*
X156956571Y-118260523D01*
X157004190Y-118308142D01*
X157099428Y-118355761D01*
X157289904Y-118355761D01*
X157385142Y-118308142D01*
X157432761Y-118260523D01*
X157480380Y-118165285D01*
X157480380Y-117974809D01*
X157432761Y-117879571D01*
X157385142Y-117831952D01*
X157289904Y-117784333D01*
X157099428Y-117784333D01*
X157004190Y-117831952D01*
X156956571Y-117879571D01*
X156908952Y-117974809D01*
X153805380Y-118784333D02*
X154519666Y-118784333D01*
X154662523Y-118831952D01*
X154757761Y-118927190D01*
X154805380Y-119070047D01*
X154805380Y-119165285D01*
X153805380Y-118403380D02*
X153805380Y-117736714D01*
X154805380Y-118165285D01*
X151180379Y-118794334D02*
X151894665Y-118794334D01*
X152037522Y-118841953D01*
X152132760Y-118937191D01*
X152180379Y-119080048D01*
X152180379Y-119175286D01*
X151180379Y-117889572D02*
X151180379Y-118080048D01*
X151227999Y-118175286D01*
X151275618Y-118222905D01*
X151418475Y-118318143D01*
X151608951Y-118365762D01*
X151989903Y-118365762D01*
X152085141Y-118318143D01*
X152132760Y-118270524D01*
X152180379Y-118175286D01*
X152180379Y-117984810D01*
X152132760Y-117889572D01*
X152085141Y-117841953D01*
X151989903Y-117794334D01*
X151751808Y-117794334D01*
X151656570Y-117841953D01*
X151608951Y-117889572D01*
X151561332Y-117984810D01*
X151561332Y-118175286D01*
X151608951Y-118270524D01*
X151656570Y-118318143D01*
X151751808Y-118365762D01*
X156730380Y-121909333D02*
X157444666Y-121909333D01*
X157587523Y-121956952D01*
X157682761Y-122052190D01*
X157730380Y-122195047D01*
X157730380Y-122290285D01*
X156730380Y-120956952D02*
X156730380Y-121433142D01*
X157206571Y-121480761D01*
X157158952Y-121433142D01*
X157111333Y-121337904D01*
X157111333Y-121099809D01*
X157158952Y-121004571D01*
X157206571Y-120956952D01*
X157301809Y-120909333D01*
X157539904Y-120909333D01*
X157635142Y-120956952D01*
X157682761Y-121004571D01*
X157730380Y-121099809D01*
X157730380Y-121337904D01*
X157682761Y-121433142D01*
X157635142Y-121480761D01*
X154180379Y-121794334D02*
X154894665Y-121794334D01*
X155037522Y-121841953D01*
X155132760Y-121937191D01*
X155180379Y-122080048D01*
X155180379Y-122175286D01*
X154513713Y-120889572D02*
X155180379Y-120889572D01*
X154132760Y-121127667D02*
X154847046Y-121365762D01*
X154847046Y-120746715D01*
X147130380Y-118684333D02*
X147844666Y-118684333D01*
X147987523Y-118731952D01*
X148082761Y-118827190D01*
X148130380Y-118970047D01*
X148130380Y-119065285D01*
X147130380Y-118303380D02*
X147130380Y-117684333D01*
X147511333Y-118017666D01*
X147511333Y-117874809D01*
X147558952Y-117779571D01*
X147606571Y-117731952D01*
X147701809Y-117684333D01*
X147939904Y-117684333D01*
X148035142Y-117731952D01*
X148082761Y-117779571D01*
X148130380Y-117874809D01*
X148130380Y-118160523D01*
X148082761Y-118255761D01*
X148035142Y-118303380D01*
D15*
X141225238Y-123159523D02*
X141225238Y-121889523D01*
X142555714Y-123038571D02*
X142495238Y-123099047D01*
X142313809Y-123159523D01*
X142192857Y-123159523D01*
X142011428Y-123099047D01*
X141890476Y-122978095D01*
X141830000Y-122857142D01*
X141769523Y-122615238D01*
X141769523Y-122433809D01*
X141830000Y-122191904D01*
X141890476Y-122070952D01*
X142011428Y-121950000D01*
X142192857Y-121889523D01*
X142313809Y-121889523D01*
X142495238Y-121950000D01*
X142555714Y-122010476D01*
X142979047Y-121889523D02*
X143765238Y-121889523D01*
X143341904Y-122373333D01*
X143523333Y-122373333D01*
X143644285Y-122433809D01*
X143704761Y-122494285D01*
X143765238Y-122615238D01*
X143765238Y-122917619D01*
X143704761Y-123038571D01*
X143644285Y-123099047D01*
X143523333Y-123159523D01*
X143160476Y-123159523D01*
X143039523Y-123099047D01*
X142979047Y-123038571D01*
X134095238Y-123429523D02*
X134095238Y-122159523D01*
X135425714Y-123308571D02*
X135365238Y-123369047D01*
X135183809Y-123429523D01*
X135062857Y-123429523D01*
X134881428Y-123369047D01*
X134760476Y-123248095D01*
X134700000Y-123127142D01*
X134639523Y-122885238D01*
X134639523Y-122703809D01*
X134700000Y-122461904D01*
X134760476Y-122340952D01*
X134881428Y-122220000D01*
X135062857Y-122159523D01*
X135183809Y-122159523D01*
X135365238Y-122220000D01*
X135425714Y-122280476D01*
X135909523Y-122280476D02*
X135970000Y-122220000D01*
X136090952Y-122159523D01*
X136393333Y-122159523D01*
X136514285Y-122220000D01*
X136574761Y-122280476D01*
X136635238Y-122401428D01*
X136635238Y-122522380D01*
X136574761Y-122703809D01*
X135849047Y-123429523D01*
X136635238Y-123429523D01*
X154479523Y-122934761D02*
X153209523Y-122934761D01*
X154358571Y-121604285D02*
X154419047Y-121664761D01*
X154479523Y-121846190D01*
X154479523Y-121967142D01*
X154419047Y-122148571D01*
X154298095Y-122269523D01*
X154177142Y-122330000D01*
X153935238Y-122390476D01*
X153753809Y-122390476D01*
X153511904Y-122330000D01*
X153390952Y-122269523D01*
X153270000Y-122148571D01*
X153209523Y-121967142D01*
X153209523Y-121846190D01*
X153270000Y-121664761D01*
X153330476Y-121604285D01*
X154479523Y-120394761D02*
X154479523Y-121120476D01*
X154479523Y-120757619D02*
X153209523Y-120757619D01*
X153390952Y-120878571D01*
X153511904Y-120999523D01*
X153572380Y-121120476D01*
D17*
X144552142Y-127241666D02*
X144599761Y-127289285D01*
X144647380Y-127432142D01*
X144647380Y-127527380D01*
X144599761Y-127670238D01*
X144504523Y-127765476D01*
X144409285Y-127813095D01*
X144218809Y-127860714D01*
X144075952Y-127860714D01*
X143885476Y-127813095D01*
X143790238Y-127765476D01*
X143695000Y-127670238D01*
X143647380Y-127527380D01*
X143647380Y-127432142D01*
X143695000Y-127289285D01*
X143742619Y-127241666D01*
X144647380Y-126289285D02*
X144647380Y-126860714D01*
X144647380Y-126575000D02*
X143647380Y-126575000D01*
X143790238Y-126670238D01*
X143885476Y-126765476D01*
X143933095Y-126860714D01*
X189924166Y-114152380D02*
X189924166Y-114866666D01*
X189876547Y-115009523D01*
X189781309Y-115104761D01*
X189638452Y-115152380D01*
X189543214Y-115152380D01*
X190876547Y-114152380D02*
X190400357Y-114152380D01*
X190352738Y-114628571D01*
X190400357Y-114580952D01*
X190495595Y-114533333D01*
X190733690Y-114533333D01*
X190828928Y-114580952D01*
X190876547Y-114628571D01*
X190924166Y-114723809D01*
X190924166Y-114961904D01*
X190876547Y-115057142D01*
X190828928Y-115104761D01*
X190733690Y-115152380D01*
X190495595Y-115152380D01*
X190400357Y-115104761D01*
X190352738Y-115057142D01*
D15*
X184313333Y-129649523D02*
X183708571Y-129649523D01*
X183708571Y-128379523D01*
X185401904Y-129649523D02*
X184676190Y-129649523D01*
X185039047Y-129649523D02*
X185039047Y-128379523D01*
X184918095Y-128560952D01*
X184797142Y-128681904D01*
X184676190Y-128742380D01*
D17*
X175291666Y-122427380D02*
X175291666Y-123141666D01*
X175244047Y-123284523D01*
X175148809Y-123379761D01*
X175005952Y-123427380D01*
X174910714Y-123427380D01*
X175720238Y-122522619D02*
X175767857Y-122475000D01*
X175863095Y-122427380D01*
X176101190Y-122427380D01*
X176196428Y-122475000D01*
X176244047Y-122522619D01*
X176291666Y-122617857D01*
X176291666Y-122713095D01*
X176244047Y-122855952D01*
X175672619Y-123427380D01*
X176291666Y-123427380D01*
D18*
X173985058Y-117962303D02*
X174701116Y-117962303D01*
X174844327Y-118010040D01*
X174939801Y-118105514D01*
X174987538Y-118248725D01*
X174987538Y-118344200D01*
X174987538Y-116959823D02*
X174987538Y-117532668D01*
X174987538Y-117246245D02*
X173985058Y-117246245D01*
X174128270Y-117341720D01*
X174223744Y-117437194D01*
X174271481Y-117532668D01*
X181537500Y-122671025D02*
X182867490Y-122671025D01*
X183023960Y-122592790D01*
X183102195Y-122514556D01*
X183180429Y-122358086D01*
X183180429Y-122045147D01*
X183102195Y-121888678D01*
X183023960Y-121810443D01*
X182867490Y-121732208D01*
X181537500Y-121732208D01*
X181693970Y-121028096D02*
X181615735Y-120949861D01*
X181537500Y-120793392D01*
X181537500Y-120402218D01*
X181615735Y-120245749D01*
X181693970Y-120167514D01*
X181850439Y-120089279D01*
X182006909Y-120089279D01*
X182241613Y-120167514D01*
X183180429Y-121106331D01*
X183180429Y-120089279D01*
X177893803Y-122774925D02*
X178531224Y-122774925D01*
X178606215Y-122737430D01*
X178643710Y-122699934D01*
X178681205Y-122624944D01*
X178681205Y-122474962D01*
X178643710Y-122399972D01*
X178606215Y-122362476D01*
X178531224Y-122324981D01*
X177893803Y-122324981D01*
X178681205Y-121537579D02*
X178681205Y-121987523D01*
X178681205Y-121762551D02*
X177893803Y-121762551D01*
X178006289Y-121837542D01*
X178081280Y-121912532D01*
X178118775Y-121987523D01*
X179047380Y-119127000D02*
X179285476Y-119127000D01*
X179190238Y-119365095D02*
X179285476Y-119127000D01*
X179190238Y-118888904D01*
X179475952Y-119269857D02*
X179285476Y-119127000D01*
X179475952Y-118984142D01*
X179047380Y-119127000D02*
X179285476Y-119127000D01*
X179190238Y-119365095D02*
X179285476Y-119127000D01*
X179190238Y-118888904D01*
X179475952Y-119269857D02*
X179285476Y-119127000D01*
X179475952Y-118984142D01*
D17*
X180685714Y-119057380D02*
X180352380Y-118581190D01*
X180114285Y-119057380D02*
X180114285Y-118057380D01*
X180495238Y-118057380D01*
X180590476Y-118105000D01*
X180638095Y-118152619D01*
X180685714Y-118247857D01*
X180685714Y-118390714D01*
X180638095Y-118485952D01*
X180590476Y-118533571D01*
X180495238Y-118581190D01*
X180114285Y-118581190D01*
X181114285Y-119057380D02*
X181114285Y-118057380D01*
X181114285Y-118438333D02*
X181209523Y-118390714D01*
X181400000Y-118390714D01*
X181495238Y-118438333D01*
X181542857Y-118485952D01*
X181590476Y-118581190D01*
X181590476Y-118866904D01*
X181542857Y-118962142D01*
X181495238Y-119009761D01*
X181400000Y-119057380D01*
X181209523Y-119057380D01*
X181114285Y-119009761D01*
X181923809Y-118390714D02*
X182161904Y-119057380D01*
X182400000Y-118390714D02*
X182161904Y-119057380D01*
X182066666Y-119295476D01*
X182019047Y-119343095D01*
X181923809Y-119390714D01*
X182780952Y-118390714D02*
X182780952Y-119390714D01*
X182780952Y-118438333D02*
X182876190Y-118390714D01*
X183066666Y-118390714D01*
X183161904Y-118438333D01*
X183209523Y-118485952D01*
X183257142Y-118581190D01*
X183257142Y-118866904D01*
X183209523Y-118962142D01*
X183161904Y-119009761D01*
X183066666Y-119057380D01*
X182876190Y-119057380D01*
X182780952Y-119009761D01*
X184114285Y-119057380D02*
X184114285Y-118533571D01*
X184066666Y-118438333D01*
X183971428Y-118390714D01*
X183780952Y-118390714D01*
X183685714Y-118438333D01*
X184114285Y-119009761D02*
X184019047Y-119057380D01*
X183780952Y-119057380D01*
X183685714Y-119009761D01*
X183638095Y-118914523D01*
X183638095Y-118819285D01*
X183685714Y-118724047D01*
X183780952Y-118676428D01*
X184019047Y-118676428D01*
X184114285Y-118628809D01*
X184542857Y-119009761D02*
X184638095Y-119057380D01*
X184828571Y-119057380D01*
X184923809Y-119009761D01*
X184971428Y-118914523D01*
X184971428Y-118866904D01*
X184923809Y-118771666D01*
X184828571Y-118724047D01*
X184685714Y-118724047D01*
X184590476Y-118676428D01*
X184542857Y-118581190D01*
X184542857Y-118533571D01*
X184590476Y-118438333D01*
X184685714Y-118390714D01*
X184828571Y-118390714D01*
X184923809Y-118438333D01*
X185352380Y-119009761D02*
X185447619Y-119057380D01*
X185638095Y-119057380D01*
X185733333Y-119009761D01*
X185780952Y-118914523D01*
X185780952Y-118866904D01*
X185733333Y-118771666D01*
X185638095Y-118724047D01*
X185495238Y-118724047D01*
X185400000Y-118676428D01*
X185352380Y-118581190D01*
X185352380Y-118533571D01*
X185400000Y-118438333D01*
X185495238Y-118390714D01*
X185638095Y-118390714D01*
X185733333Y-118438333D01*
X186733333Y-119057380D02*
X186161904Y-119057380D01*
X186447619Y-119057380D02*
X186447619Y-118057380D01*
X186352380Y-118200238D01*
X186257142Y-118295476D01*
X186161904Y-118343095D01*
X174747380Y-124766666D02*
X174271190Y-125100000D01*
X174747380Y-125338095D02*
X173747380Y-125338095D01*
X173747380Y-124957142D01*
X173795000Y-124861904D01*
X173842619Y-124814285D01*
X173937857Y-124766666D01*
X174080714Y-124766666D01*
X174175952Y-124814285D01*
X174223571Y-124861904D01*
X174271190Y-124957142D01*
X174271190Y-125338095D01*
X173842619Y-124385714D02*
X173795000Y-124338095D01*
X173747380Y-124242857D01*
X173747380Y-124004761D01*
X173795000Y-123909523D01*
X173842619Y-123861904D01*
X173937857Y-123814285D01*
X174033095Y-123814285D01*
X174175952Y-123861904D01*
X174747380Y-124433333D01*
X174747380Y-123814285D01*
X179558333Y-119657380D02*
X179225000Y-119181190D01*
X178986904Y-119657380D02*
X178986904Y-118657380D01*
X179367857Y-118657380D01*
X179463095Y-118705000D01*
X179510714Y-118752619D01*
X179558333Y-118847857D01*
X179558333Y-118990714D01*
X179510714Y-119085952D01*
X179463095Y-119133571D01*
X179367857Y-119181190D01*
X178986904Y-119181190D01*
X180510714Y-119657380D02*
X179939285Y-119657380D01*
X180225000Y-119657380D02*
X180225000Y-118657380D01*
X180129761Y-118800238D01*
X180034523Y-118895476D01*
X179939285Y-118943095D01*
X177991666Y-126327380D02*
X177991666Y-127041666D01*
X177944047Y-127184523D01*
X177848809Y-127279761D01*
X177705952Y-127327380D01*
X177610714Y-127327380D01*
X178896428Y-126660714D02*
X178896428Y-127327380D01*
X178658333Y-126279761D02*
X178420238Y-126994047D01*
X179039285Y-126994047D01*
X175191666Y-126927380D02*
X175191666Y-127641666D01*
X175144047Y-127784523D01*
X175048809Y-127879761D01*
X174905952Y-127927380D01*
X174810714Y-127927380D01*
X175572619Y-126927380D02*
X176191666Y-126927380D01*
X175858333Y-127308333D01*
X176001190Y-127308333D01*
X176096428Y-127355952D01*
X176144047Y-127403571D01*
X176191666Y-127498809D01*
X176191666Y-127736904D01*
X176144047Y-127832142D01*
X176096428Y-127879761D01*
X176001190Y-127927380D01*
X175715476Y-127927380D01*
X175620238Y-127879761D01*
X175572619Y-127832142D01*
D18*
X179203123Y-123855380D02*
X178563123Y-123855380D01*
X178563123Y-123703000D01*
X178593600Y-123611571D01*
X178654552Y-123550619D01*
X178715504Y-123520142D01*
X178837409Y-123489666D01*
X178928838Y-123489666D01*
X179050742Y-123520142D01*
X179111695Y-123550619D01*
X179172647Y-123611571D01*
X179203123Y-123703000D01*
X179203123Y-123855380D01*
X179203123Y-122880142D02*
X179203123Y-123245857D01*
X179203123Y-123063000D02*
X178563123Y-123063000D01*
X178654552Y-123123952D01*
X178715504Y-123184904D01*
X178745980Y-123245857D01*
D17*
X184833333Y-120462142D02*
X184785714Y-120509761D01*
X184642857Y-120557380D01*
X184547619Y-120557380D01*
X184404761Y-120509761D01*
X184309523Y-120414523D01*
X184261904Y-120319285D01*
X184214285Y-120128809D01*
X184214285Y-119985952D01*
X184261904Y-119795476D01*
X184309523Y-119700238D01*
X184404761Y-119605000D01*
X184547619Y-119557380D01*
X184642857Y-119557380D01*
X184785714Y-119605000D01*
X184833333Y-119652619D01*
X185690476Y-119890714D02*
X185690476Y-120557380D01*
X185452380Y-119509761D02*
X185214285Y-120224047D01*
X185833333Y-120224047D01*
X181483333Y-121062142D02*
X181435714Y-121109761D01*
X181292857Y-121157380D01*
X181197619Y-121157380D01*
X181054761Y-121109761D01*
X180959523Y-121014523D01*
X180911904Y-120919285D01*
X180864285Y-120728809D01*
X180864285Y-120585952D01*
X180911904Y-120395476D01*
X180959523Y-120300238D01*
X181054761Y-120205000D01*
X181197619Y-120157380D01*
X181292857Y-120157380D01*
X181435714Y-120205000D01*
X181483333Y-120252619D01*
X181816666Y-120157380D02*
X182435714Y-120157380D01*
X182102380Y-120538333D01*
X182245238Y-120538333D01*
X182340476Y-120585952D01*
X182388095Y-120633571D01*
X182435714Y-120728809D01*
X182435714Y-120966904D01*
X182388095Y-121062142D01*
X182340476Y-121109761D01*
X182245238Y-121157380D01*
X181959523Y-121157380D01*
X181864285Y-121109761D01*
X181816666Y-121062142D01*
X180233333Y-127502142D02*
X180185714Y-127549761D01*
X180042857Y-127597380D01*
X179947619Y-127597380D01*
X179804761Y-127549761D01*
X179709523Y-127454523D01*
X179661904Y-127359285D01*
X179614285Y-127168809D01*
X179614285Y-127025952D01*
X179661904Y-126835476D01*
X179709523Y-126740238D01*
X179804761Y-126645000D01*
X179947619Y-126597380D01*
X180042857Y-126597380D01*
X180185714Y-126645000D01*
X180233333Y-126692619D01*
X180614285Y-126692619D02*
X180661904Y-126645000D01*
X180757142Y-126597380D01*
X180995238Y-126597380D01*
X181090476Y-126645000D01*
X181138095Y-126692619D01*
X181185714Y-126787857D01*
X181185714Y-126883095D01*
X181138095Y-127025952D01*
X180566666Y-127597380D01*
X181185714Y-127597380D01*
X176433333Y-130362142D02*
X176385714Y-130409761D01*
X176242857Y-130457380D01*
X176147619Y-130457380D01*
X176004761Y-130409761D01*
X175909523Y-130314523D01*
X175861904Y-130219285D01*
X175814285Y-130028809D01*
X175814285Y-129885952D01*
X175861904Y-129695476D01*
X175909523Y-129600238D01*
X176004761Y-129505000D01*
X176147619Y-129457380D01*
X176242857Y-129457380D01*
X176385714Y-129505000D01*
X176433333Y-129552619D01*
X177385714Y-130457380D02*
X176814285Y-130457380D01*
X177100000Y-130457380D02*
X177100000Y-129457380D01*
X177004761Y-129600238D01*
X176909523Y-129695476D01*
X176814285Y-129743095D01*
M02*
