G04 #@! TF.GenerationSoftware,KiCad,Pcbnew,(5.1.4)-1*
G04 #@! TF.CreationDate,2020-04-09T11:04:36+02:00*
G04 #@! TF.ProjectId,output.test_prod_sky,6f757470-7574-42e7-9465-73745f70726f,rev?*
G04 #@! TF.SameCoordinates,Original*
G04 #@! TF.FileFunction,Legend,Bot*
G04 #@! TF.FilePolarity,Positive*
%FSLAX46Y46*%
G04 Gerber Fmt 4.6, Leading zero omitted, Abs format (unit mm)*
G04 Created by KiCad (PCBNEW (5.1.4)-1) date 2020-04-09 11:04:36*
%MOMM*%
%LPD*%
G04 APERTURE LIST*
%ADD10C,0.120000*%
%ADD11C,0.150000*%
%ADD12C,0.015000*%
G04 APERTURE END LIST*
D10*
X187140000Y-93380000D02*
X187140000Y-90080000D01*
X187140000Y-90080000D02*
X192540000Y-90080000D01*
X187140000Y-93380000D02*
X192540000Y-93380000D01*
X189672000Y-98202000D02*
X189672000Y-95342000D01*
X189672000Y-95342000D02*
X191592000Y-95342000D01*
X191592000Y-95342000D02*
X191592000Y-98202000D01*
X189590000Y-125700000D02*
X189590000Y-122840000D01*
X189590000Y-122840000D02*
X191510000Y-122840000D01*
X191510000Y-122840000D02*
X191510000Y-125700000D01*
X167615000Y-54565000D02*
X170475000Y-54565000D01*
X167615000Y-56485000D02*
X167615000Y-54565000D01*
X170475000Y-56485000D02*
X167615000Y-56485000D01*
X138180000Y-81410000D02*
X134880000Y-81410000D01*
X134880000Y-81410000D02*
X134880000Y-76010000D01*
X138180000Y-81410000D02*
X138180000Y-76010000D01*
X143002000Y-78878000D02*
X140142000Y-78878000D01*
X140142000Y-78878000D02*
X140142000Y-76958000D01*
X140142000Y-76958000D02*
X143002000Y-76958000D01*
X170500000Y-78960000D02*
X167640000Y-78960000D01*
X167640000Y-78960000D02*
X167640000Y-77040000D01*
X167640000Y-77040000D02*
X170500000Y-77040000D01*
X140117000Y-54483000D02*
X142977000Y-54483000D01*
X140117000Y-56403000D02*
X140117000Y-54483000D01*
X142977000Y-56403000D02*
X140117000Y-56403000D01*
X138155000Y-58935000D02*
X138155000Y-53535000D01*
X134855000Y-58935000D02*
X134855000Y-53535000D01*
X138155000Y-58935000D02*
X134855000Y-58935000D01*
X138205000Y-104010000D02*
X134905000Y-104010000D01*
X134905000Y-104010000D02*
X134905000Y-98610000D01*
X138205000Y-104010000D02*
X138205000Y-98610000D01*
X143027000Y-101478000D02*
X140167000Y-101478000D01*
X140167000Y-101478000D02*
X140167000Y-99558000D01*
X140167000Y-99558000D02*
X143027000Y-99558000D01*
X170525000Y-101560000D02*
X167665000Y-101560000D01*
X167665000Y-101560000D02*
X167665000Y-99640000D01*
X167665000Y-99640000D02*
X170525000Y-99640000D01*
X138230000Y-126485000D02*
X138230000Y-121085000D01*
X134930000Y-126485000D02*
X134930000Y-121085000D01*
X138230000Y-126485000D02*
X134930000Y-126485000D01*
X167690000Y-122115000D02*
X170550000Y-122115000D01*
X167690000Y-124035000D02*
X167690000Y-122115000D01*
X170550000Y-124035000D02*
X167690000Y-124035000D01*
X140192000Y-122033000D02*
X143052000Y-122033000D01*
X140192000Y-123953000D02*
X140192000Y-122033000D01*
X143052000Y-123953000D02*
X140192000Y-123953000D01*
D11*
X199332380Y-110610476D02*
X200046666Y-110610476D01*
X200189523Y-110562857D01*
X200284761Y-110467619D01*
X200332380Y-110324761D01*
X200332380Y-110229523D01*
X200332380Y-111610476D02*
X200332380Y-111039047D01*
X200332380Y-111324761D02*
X199332380Y-111324761D01*
X199475238Y-111229523D01*
X199570476Y-111134285D01*
X199618095Y-111039047D01*
X199332380Y-112229523D02*
X199332380Y-112324761D01*
X199380000Y-112420000D01*
X199427619Y-112467619D01*
X199522857Y-112515238D01*
X199713333Y-112562857D01*
X199951428Y-112562857D01*
X200141904Y-112515238D01*
X200237142Y-112467619D01*
X200284761Y-112420000D01*
X200332380Y-112324761D01*
X200332380Y-112229523D01*
X200284761Y-112134285D01*
X200237142Y-112086666D01*
X200141904Y-112039047D01*
X199951428Y-111991428D01*
X199713333Y-111991428D01*
X199522857Y-112039047D01*
X199427619Y-112086666D01*
X199380000Y-112134285D01*
X199332380Y-112229523D01*
X182202380Y-111130476D02*
X182916666Y-111130476D01*
X183059523Y-111082857D01*
X183154761Y-110987619D01*
X183202380Y-110844761D01*
X183202380Y-110749523D01*
X183202380Y-112130476D02*
X183202380Y-111559047D01*
X183202380Y-111844761D02*
X182202380Y-111844761D01*
X182345238Y-111749523D01*
X182440476Y-111654285D01*
X182488095Y-111559047D01*
X182202380Y-112987619D02*
X182202380Y-112797142D01*
X182250000Y-112701904D01*
X182297619Y-112654285D01*
X182440476Y-112559047D01*
X182630952Y-112511428D01*
X183011904Y-112511428D01*
X183107142Y-112559047D01*
X183154761Y-112606666D01*
X183202380Y-112701904D01*
X183202380Y-112892380D01*
X183154761Y-112987619D01*
X183107142Y-113035238D01*
X183011904Y-113082857D01*
X182773809Y-113082857D01*
X182678571Y-113035238D01*
X182630952Y-112987619D01*
X182583333Y-112892380D01*
X182583333Y-112701904D01*
X182630952Y-112606666D01*
X182678571Y-112559047D01*
X182773809Y-112511428D01*
X190752380Y-75436666D02*
X191466666Y-75436666D01*
X191609523Y-75389047D01*
X191704761Y-75293809D01*
X191752380Y-75150952D01*
X191752380Y-75055714D01*
X191752380Y-75960476D02*
X191752380Y-76150952D01*
X191704761Y-76246190D01*
X191657142Y-76293809D01*
X191514285Y-76389047D01*
X191323809Y-76436666D01*
X190942857Y-76436666D01*
X190847619Y-76389047D01*
X190800000Y-76341428D01*
X190752380Y-76246190D01*
X190752380Y-76055714D01*
X190800000Y-75960476D01*
X190847619Y-75912857D01*
X190942857Y-75865238D01*
X191180952Y-75865238D01*
X191276190Y-75912857D01*
X191323809Y-75960476D01*
X191371428Y-76055714D01*
X191371428Y-76246190D01*
X191323809Y-76341428D01*
X191276190Y-76389047D01*
X191180952Y-76436666D01*
X184802380Y-74950476D02*
X185516666Y-74950476D01*
X185659523Y-74902857D01*
X185754761Y-74807619D01*
X185802380Y-74664761D01*
X185802380Y-74569523D01*
X185802380Y-75950476D02*
X185802380Y-75379047D01*
X185802380Y-75664761D02*
X184802380Y-75664761D01*
X184945238Y-75569523D01*
X185040476Y-75474285D01*
X185088095Y-75379047D01*
X184802380Y-76855238D02*
X184802380Y-76379047D01*
X185278571Y-76331428D01*
X185230952Y-76379047D01*
X185183333Y-76474285D01*
X185183333Y-76712380D01*
X185230952Y-76807619D01*
X185278571Y-76855238D01*
X185373809Y-76902857D01*
X185611904Y-76902857D01*
X185707142Y-76855238D01*
X185754761Y-76807619D01*
X185802380Y-76712380D01*
X185802380Y-76474285D01*
X185754761Y-76379047D01*
X185707142Y-76331428D01*
X191278095Y-94682380D02*
X191278095Y-93682380D01*
X191040000Y-93682380D01*
X190897142Y-93730000D01*
X190801904Y-93825238D01*
X190754285Y-93920476D01*
X190706666Y-94110952D01*
X190706666Y-94253809D01*
X190754285Y-94444285D01*
X190801904Y-94539523D01*
X190897142Y-94634761D01*
X191040000Y-94682380D01*
X191278095Y-94682380D01*
X189849523Y-94015714D02*
X189849523Y-94682380D01*
X190087619Y-93634761D02*
X190325714Y-94349047D01*
X189706666Y-94349047D01*
D12*
X195676589Y-81239631D02*
X195724273Y-81382681D01*
X195724273Y-81621099D01*
X195676589Y-81716466D01*
X195628906Y-81764150D01*
X195533539Y-81811833D01*
X195438172Y-81811833D01*
X195342805Y-81764150D01*
X195295121Y-81716466D01*
X195247438Y-81621099D01*
X195199754Y-81430365D01*
X195152071Y-81334998D01*
X195104387Y-81287314D01*
X195009020Y-81239631D01*
X194913653Y-81239631D01*
X194818286Y-81287314D01*
X194770603Y-81334998D01*
X194722919Y-81430365D01*
X194722919Y-81668783D01*
X194770603Y-81811833D01*
X194722919Y-82145618D02*
X195724273Y-82384035D01*
X195009020Y-82574770D01*
X195724273Y-82765504D01*
X194722919Y-83003921D01*
X195724273Y-83909908D02*
X195724273Y-83337706D01*
X195724273Y-83623807D02*
X194722919Y-83623807D01*
X194865970Y-83528440D01*
X194961337Y-83433073D01*
X195009020Y-83337706D01*
X181284029Y-110310091D02*
X181331713Y-110453141D01*
X181331713Y-110691559D01*
X181284029Y-110786926D01*
X181236346Y-110834610D01*
X181140979Y-110882293D01*
X181045612Y-110882293D01*
X180950245Y-110834610D01*
X180902561Y-110786926D01*
X180854878Y-110691559D01*
X180807194Y-110500825D01*
X180759511Y-110405458D01*
X180711827Y-110357774D01*
X180616460Y-110310091D01*
X180521093Y-110310091D01*
X180425726Y-110357774D01*
X180378043Y-110405458D01*
X180330359Y-110500825D01*
X180330359Y-110739243D01*
X180378043Y-110882293D01*
X180330359Y-111216078D02*
X181331713Y-111454495D01*
X180616460Y-111645230D01*
X181331713Y-111835964D01*
X180330359Y-112074381D01*
X180425726Y-112408166D02*
X180378043Y-112455849D01*
X180330359Y-112551216D01*
X180330359Y-112789634D01*
X180378043Y-112885001D01*
X180425726Y-112932685D01*
X180521093Y-112980368D01*
X180616460Y-112980368D01*
X180759511Y-112932685D01*
X181331713Y-112360482D01*
X181331713Y-112980368D01*
X191754029Y-110270091D02*
X191801713Y-110413141D01*
X191801713Y-110651559D01*
X191754029Y-110746926D01*
X191706346Y-110794610D01*
X191610979Y-110842293D01*
X191515612Y-110842293D01*
X191420245Y-110794610D01*
X191372561Y-110746926D01*
X191324878Y-110651559D01*
X191277194Y-110460825D01*
X191229511Y-110365458D01*
X191181827Y-110317774D01*
X191086460Y-110270091D01*
X190991093Y-110270091D01*
X190895726Y-110317774D01*
X190848043Y-110365458D01*
X190800359Y-110460825D01*
X190800359Y-110699243D01*
X190848043Y-110842293D01*
X190800359Y-111176078D02*
X191801713Y-111414495D01*
X191086460Y-111605230D01*
X191801713Y-111795964D01*
X190800359Y-112034381D01*
X190800359Y-112320482D02*
X190800359Y-112940368D01*
X191181827Y-112606584D01*
X191181827Y-112749634D01*
X191229511Y-112845001D01*
X191277194Y-112892685D01*
X191372561Y-112940368D01*
X191610979Y-112940368D01*
X191706346Y-112892685D01*
X191754029Y-112845001D01*
X191801713Y-112749634D01*
X191801713Y-112463533D01*
X191754029Y-112368166D01*
X191706346Y-112320482D01*
D11*
X189434380Y-96463904D02*
X188434380Y-96463904D01*
X188434380Y-96702000D01*
X188482000Y-96844857D01*
X188577238Y-96940095D01*
X188672476Y-96987714D01*
X188862952Y-97035333D01*
X189005809Y-97035333D01*
X189196285Y-96987714D01*
X189291523Y-96940095D01*
X189386761Y-96844857D01*
X189434380Y-96702000D01*
X189434380Y-96463904D01*
X189434380Y-97987714D02*
X189434380Y-97416285D01*
X189434380Y-97702000D02*
X188434380Y-97702000D01*
X188577238Y-97606761D01*
X188672476Y-97511523D01*
X188720095Y-97416285D01*
X189352380Y-123961904D02*
X188352380Y-123961904D01*
X188352380Y-124200000D01*
X188400000Y-124342857D01*
X188495238Y-124438095D01*
X188590476Y-124485714D01*
X188780952Y-124533333D01*
X188923809Y-124533333D01*
X189114285Y-124485714D01*
X189209523Y-124438095D01*
X189304761Y-124342857D01*
X189352380Y-124200000D01*
X189352380Y-123961904D01*
X188447619Y-124914285D02*
X188400000Y-124961904D01*
X188352380Y-125057142D01*
X188352380Y-125295238D01*
X188400000Y-125390476D01*
X188447619Y-125438095D01*
X188542857Y-125485714D01*
X188638095Y-125485714D01*
X188780952Y-125438095D01*
X189352380Y-124866666D01*
X189352380Y-125485714D01*
X157029523Y-68122380D02*
X157029523Y-68836666D01*
X157077142Y-68979523D01*
X157172380Y-69074761D01*
X157315238Y-69122380D01*
X157410476Y-69122380D01*
X156029523Y-69122380D02*
X156600952Y-69122380D01*
X156315238Y-69122380D02*
X156315238Y-68122380D01*
X156410476Y-68265238D01*
X156505714Y-68360476D01*
X156600952Y-68408095D01*
X155410476Y-68122380D02*
X155315238Y-68122380D01*
X155220000Y-68170000D01*
X155172380Y-68217619D01*
X155124761Y-68312857D01*
X155077142Y-68503333D01*
X155077142Y-68741428D01*
X155124761Y-68931904D01*
X155172380Y-69027142D01*
X155220000Y-69074761D01*
X155315238Y-69122380D01*
X155410476Y-69122380D01*
X155505714Y-69074761D01*
X155553333Y-69027142D01*
X155600952Y-68931904D01*
X155648571Y-68741428D01*
X155648571Y-68503333D01*
X155600952Y-68312857D01*
X155553333Y-68217619D01*
X155505714Y-68170000D01*
X155410476Y-68122380D01*
X157549523Y-85252380D02*
X157549523Y-85966666D01*
X157597142Y-86109523D01*
X157692380Y-86204761D01*
X157835238Y-86252380D01*
X157930476Y-86252380D01*
X156549523Y-86252380D02*
X157120952Y-86252380D01*
X156835238Y-86252380D02*
X156835238Y-85252380D01*
X156930476Y-85395238D01*
X157025714Y-85490476D01*
X157120952Y-85538095D01*
X155692380Y-85252380D02*
X155882857Y-85252380D01*
X155978095Y-85300000D01*
X156025714Y-85347619D01*
X156120952Y-85490476D01*
X156168571Y-85680952D01*
X156168571Y-86061904D01*
X156120952Y-86157142D01*
X156073333Y-86204761D01*
X155978095Y-86252380D01*
X155787619Y-86252380D01*
X155692380Y-86204761D01*
X155644761Y-86157142D01*
X155597142Y-86061904D01*
X155597142Y-85823809D01*
X155644761Y-85728571D01*
X155692380Y-85680952D01*
X155787619Y-85633333D01*
X155978095Y-85633333D01*
X156073333Y-85680952D01*
X156120952Y-85728571D01*
X156168571Y-85823809D01*
X120903333Y-76702380D02*
X120903333Y-77416666D01*
X120950952Y-77559523D01*
X121046190Y-77654761D01*
X121189047Y-77702380D01*
X121284285Y-77702380D01*
X120379523Y-77702380D02*
X120189047Y-77702380D01*
X120093809Y-77654761D01*
X120046190Y-77607142D01*
X119950952Y-77464285D01*
X119903333Y-77273809D01*
X119903333Y-76892857D01*
X119950952Y-76797619D01*
X119998571Y-76750000D01*
X120093809Y-76702380D01*
X120284285Y-76702380D01*
X120379523Y-76750000D01*
X120427142Y-76797619D01*
X120474761Y-76892857D01*
X120474761Y-77130952D01*
X120427142Y-77226190D01*
X120379523Y-77273809D01*
X120284285Y-77321428D01*
X120093809Y-77321428D01*
X119998571Y-77273809D01*
X119950952Y-77226190D01*
X119903333Y-77130952D01*
X121369523Y-82652380D02*
X121369523Y-83366666D01*
X121417142Y-83509523D01*
X121512380Y-83604761D01*
X121655238Y-83652380D01*
X121750476Y-83652380D01*
X120369523Y-83652380D02*
X120940952Y-83652380D01*
X120655238Y-83652380D02*
X120655238Y-82652380D01*
X120750476Y-82795238D01*
X120845714Y-82890476D01*
X120940952Y-82938095D01*
X119464761Y-82652380D02*
X119940952Y-82652380D01*
X119988571Y-83128571D01*
X119940952Y-83080952D01*
X119845714Y-83033333D01*
X119607619Y-83033333D01*
X119512380Y-83080952D01*
X119464761Y-83128571D01*
X119417142Y-83223809D01*
X119417142Y-83461904D01*
X119464761Y-83557142D01*
X119512380Y-83604761D01*
X119607619Y-83652380D01*
X119845714Y-83652380D01*
X119940952Y-83604761D01*
X119988571Y-83557142D01*
X170213095Y-57627380D02*
X170213095Y-56627380D01*
X169975000Y-56627380D01*
X169832142Y-56675000D01*
X169736904Y-56770238D01*
X169689285Y-56865476D01*
X169641666Y-57055952D01*
X169641666Y-57198809D01*
X169689285Y-57389285D01*
X169736904Y-57484523D01*
X169832142Y-57579761D01*
X169975000Y-57627380D01*
X170213095Y-57627380D01*
X169260714Y-56722619D02*
X169213095Y-56675000D01*
X169117857Y-56627380D01*
X168879761Y-56627380D01*
X168784523Y-56675000D01*
X168736904Y-56722619D01*
X168689285Y-56817857D01*
X168689285Y-56913095D01*
X168736904Y-57055952D01*
X169308333Y-57627380D01*
X168689285Y-57627380D01*
X139482380Y-77271904D02*
X138482380Y-77271904D01*
X138482380Y-77510000D01*
X138530000Y-77652857D01*
X138625238Y-77748095D01*
X138720476Y-77795714D01*
X138910952Y-77843333D01*
X139053809Y-77843333D01*
X139244285Y-77795714D01*
X139339523Y-77748095D01*
X139434761Y-77652857D01*
X139482380Y-77510000D01*
X139482380Y-77271904D01*
X138815714Y-78700476D02*
X139482380Y-78700476D01*
X138434761Y-78462380D02*
X139149047Y-78224285D01*
X139149047Y-78843333D01*
D12*
X128709908Y-73684029D02*
X128566858Y-73731713D01*
X128328440Y-73731713D01*
X128233073Y-73684029D01*
X128185389Y-73636346D01*
X128137706Y-73540979D01*
X128137706Y-73445612D01*
X128185389Y-73350245D01*
X128233073Y-73302561D01*
X128328440Y-73254878D01*
X128519174Y-73207194D01*
X128614541Y-73159511D01*
X128662225Y-73111827D01*
X128709908Y-73016460D01*
X128709908Y-72921093D01*
X128662225Y-72825726D01*
X128614541Y-72778043D01*
X128519174Y-72730359D01*
X128280756Y-72730359D01*
X128137706Y-72778043D01*
X127803921Y-72730359D02*
X127565504Y-73731713D01*
X127374770Y-73016460D01*
X127184035Y-73731713D01*
X126945618Y-72730359D01*
X126039631Y-73731713D02*
X126611833Y-73731713D01*
X126325732Y-73731713D02*
X126325732Y-72730359D01*
X126421099Y-72873410D01*
X126516466Y-72968777D01*
X126611833Y-73016460D01*
X157780368Y-88076589D02*
X157637318Y-88124273D01*
X157398900Y-88124273D01*
X157303533Y-88076589D01*
X157255849Y-88028906D01*
X157208166Y-87933539D01*
X157208166Y-87838172D01*
X157255849Y-87742805D01*
X157303533Y-87695121D01*
X157398900Y-87647438D01*
X157589634Y-87599754D01*
X157685001Y-87552071D01*
X157732685Y-87504387D01*
X157780368Y-87409020D01*
X157780368Y-87313653D01*
X157732685Y-87218286D01*
X157685001Y-87170603D01*
X157589634Y-87122919D01*
X157351216Y-87122919D01*
X157208166Y-87170603D01*
X156874381Y-87122919D02*
X156635964Y-88124273D01*
X156445230Y-87409020D01*
X156254495Y-88124273D01*
X156016078Y-87122919D01*
X155682293Y-87218286D02*
X155634610Y-87170603D01*
X155539243Y-87122919D01*
X155300825Y-87122919D01*
X155205458Y-87170603D01*
X155157774Y-87218286D01*
X155110091Y-87313653D01*
X155110091Y-87409020D01*
X155157774Y-87552071D01*
X155729977Y-88124273D01*
X155110091Y-88124273D01*
X157740368Y-77606589D02*
X157597318Y-77654273D01*
X157358900Y-77654273D01*
X157263533Y-77606589D01*
X157215849Y-77558906D01*
X157168166Y-77463539D01*
X157168166Y-77368172D01*
X157215849Y-77272805D01*
X157263533Y-77225121D01*
X157358900Y-77177438D01*
X157549634Y-77129754D01*
X157645001Y-77082071D01*
X157692685Y-77034387D01*
X157740368Y-76939020D01*
X157740368Y-76843653D01*
X157692685Y-76748286D01*
X157645001Y-76700603D01*
X157549634Y-76652919D01*
X157311216Y-76652919D01*
X157168166Y-76700603D01*
X156834381Y-76652919D02*
X156595964Y-77654273D01*
X156405230Y-76939020D01*
X156214495Y-77654273D01*
X155976078Y-76652919D01*
X155689977Y-76652919D02*
X155070091Y-76652919D01*
X155403876Y-77034387D01*
X155260825Y-77034387D01*
X155165458Y-77082071D01*
X155117774Y-77129754D01*
X155070091Y-77225121D01*
X155070091Y-77463539D01*
X155117774Y-77558906D01*
X155165458Y-77606589D01*
X155260825Y-77654273D01*
X155546926Y-77654273D01*
X155642293Y-77606589D01*
X155689977Y-77558906D01*
D11*
X142740095Y-80020380D02*
X142740095Y-79020380D01*
X142502000Y-79020380D01*
X142359142Y-79068000D01*
X142263904Y-79163238D01*
X142216285Y-79258476D01*
X142168666Y-79448952D01*
X142168666Y-79591809D01*
X142216285Y-79782285D01*
X142263904Y-79877523D01*
X142359142Y-79972761D01*
X142502000Y-80020380D01*
X142740095Y-80020380D01*
X141216285Y-80020380D02*
X141787714Y-80020380D01*
X141502000Y-80020380D02*
X141502000Y-79020380D01*
X141597238Y-79163238D01*
X141692476Y-79258476D01*
X141787714Y-79306095D01*
X170238095Y-80102380D02*
X170238095Y-79102380D01*
X170000000Y-79102380D01*
X169857142Y-79150000D01*
X169761904Y-79245238D01*
X169714285Y-79340476D01*
X169666666Y-79530952D01*
X169666666Y-79673809D01*
X169714285Y-79864285D01*
X169761904Y-79959523D01*
X169857142Y-80054761D01*
X170000000Y-80102380D01*
X170238095Y-80102380D01*
X169285714Y-79197619D02*
X169238095Y-79150000D01*
X169142857Y-79102380D01*
X168904761Y-79102380D01*
X168809523Y-79150000D01*
X168761904Y-79197619D01*
X168714285Y-79292857D01*
X168714285Y-79388095D01*
X168761904Y-79530952D01*
X169333333Y-80102380D01*
X168714285Y-80102380D01*
X142715095Y-57545380D02*
X142715095Y-56545380D01*
X142477000Y-56545380D01*
X142334142Y-56593000D01*
X142238904Y-56688238D01*
X142191285Y-56783476D01*
X142143666Y-56973952D01*
X142143666Y-57116809D01*
X142191285Y-57307285D01*
X142238904Y-57402523D01*
X142334142Y-57497761D01*
X142477000Y-57545380D01*
X142715095Y-57545380D01*
X141191285Y-57545380D02*
X141762714Y-57545380D01*
X141477000Y-57545380D02*
X141477000Y-56545380D01*
X141572238Y-56688238D01*
X141667476Y-56783476D01*
X141762714Y-56831095D01*
X139457380Y-54796904D02*
X138457380Y-54796904D01*
X138457380Y-55035000D01*
X138505000Y-55177857D01*
X138600238Y-55273095D01*
X138695476Y-55320714D01*
X138885952Y-55368333D01*
X139028809Y-55368333D01*
X139219285Y-55320714D01*
X139314523Y-55273095D01*
X139409761Y-55177857D01*
X139457380Y-55035000D01*
X139457380Y-54796904D01*
X138790714Y-56225476D02*
X139457380Y-56225476D01*
X138409761Y-55987380D02*
X139124047Y-55749285D01*
X139124047Y-56368333D01*
D12*
X157755368Y-65601589D02*
X157612318Y-65649273D01*
X157373900Y-65649273D01*
X157278533Y-65601589D01*
X157230849Y-65553906D01*
X157183166Y-65458539D01*
X157183166Y-65363172D01*
X157230849Y-65267805D01*
X157278533Y-65220121D01*
X157373900Y-65172438D01*
X157564634Y-65124754D01*
X157660001Y-65077071D01*
X157707685Y-65029387D01*
X157755368Y-64934020D01*
X157755368Y-64838653D01*
X157707685Y-64743286D01*
X157660001Y-64695603D01*
X157564634Y-64647919D01*
X157326216Y-64647919D01*
X157183166Y-64695603D01*
X156849381Y-64647919D02*
X156610964Y-65649273D01*
X156420230Y-64934020D01*
X156229495Y-65649273D01*
X155991078Y-64647919D01*
X155657293Y-64743286D02*
X155609610Y-64695603D01*
X155514243Y-64647919D01*
X155275825Y-64647919D01*
X155180458Y-64695603D01*
X155132774Y-64743286D01*
X155085091Y-64838653D01*
X155085091Y-64934020D01*
X155132774Y-65077071D01*
X155704977Y-65649273D01*
X155085091Y-65649273D01*
D11*
X157004523Y-45647380D02*
X157004523Y-46361666D01*
X157052142Y-46504523D01*
X157147380Y-46599761D01*
X157290238Y-46647380D01*
X157385476Y-46647380D01*
X156004523Y-46647380D02*
X156575952Y-46647380D01*
X156290238Y-46647380D02*
X156290238Y-45647380D01*
X156385476Y-45790238D01*
X156480714Y-45885476D01*
X156575952Y-45933095D01*
X155385476Y-45647380D02*
X155290238Y-45647380D01*
X155195000Y-45695000D01*
X155147380Y-45742619D01*
X155099761Y-45837857D01*
X155052142Y-46028333D01*
X155052142Y-46266428D01*
X155099761Y-46456904D01*
X155147380Y-46552142D01*
X155195000Y-46599761D01*
X155290238Y-46647380D01*
X155385476Y-46647380D01*
X155480714Y-46599761D01*
X155528333Y-46552142D01*
X155575952Y-46456904D01*
X155623571Y-46266428D01*
X155623571Y-46028333D01*
X155575952Y-45837857D01*
X155528333Y-45742619D01*
X155480714Y-45695000D01*
X155385476Y-45647380D01*
D12*
X157715368Y-55131589D02*
X157572318Y-55179273D01*
X157333900Y-55179273D01*
X157238533Y-55131589D01*
X157190849Y-55083906D01*
X157143166Y-54988539D01*
X157143166Y-54893172D01*
X157190849Y-54797805D01*
X157238533Y-54750121D01*
X157333900Y-54702438D01*
X157524634Y-54654754D01*
X157620001Y-54607071D01*
X157667685Y-54559387D01*
X157715368Y-54464020D01*
X157715368Y-54368653D01*
X157667685Y-54273286D01*
X157620001Y-54225603D01*
X157524634Y-54177919D01*
X157286216Y-54177919D01*
X157143166Y-54225603D01*
X156809381Y-54177919D02*
X156570964Y-55179273D01*
X156380230Y-54464020D01*
X156189495Y-55179273D01*
X155951078Y-54177919D01*
X155664977Y-54177919D02*
X155045091Y-54177919D01*
X155378876Y-54559387D01*
X155235825Y-54559387D01*
X155140458Y-54607071D01*
X155092774Y-54654754D01*
X155045091Y-54750121D01*
X155045091Y-54988539D01*
X155092774Y-55083906D01*
X155140458Y-55131589D01*
X155235825Y-55179273D01*
X155521926Y-55179273D01*
X155617293Y-55131589D01*
X155664977Y-55083906D01*
D11*
X157524523Y-62777380D02*
X157524523Y-63491666D01*
X157572142Y-63634523D01*
X157667380Y-63729761D01*
X157810238Y-63777380D01*
X157905476Y-63777380D01*
X156524523Y-63777380D02*
X157095952Y-63777380D01*
X156810238Y-63777380D02*
X156810238Y-62777380D01*
X156905476Y-62920238D01*
X157000714Y-63015476D01*
X157095952Y-63063095D01*
X155667380Y-62777380D02*
X155857857Y-62777380D01*
X155953095Y-62825000D01*
X156000714Y-62872619D01*
X156095952Y-63015476D01*
X156143571Y-63205952D01*
X156143571Y-63586904D01*
X156095952Y-63682142D01*
X156048333Y-63729761D01*
X155953095Y-63777380D01*
X155762619Y-63777380D01*
X155667380Y-63729761D01*
X155619761Y-63682142D01*
X155572142Y-63586904D01*
X155572142Y-63348809D01*
X155619761Y-63253571D01*
X155667380Y-63205952D01*
X155762619Y-63158333D01*
X155953095Y-63158333D01*
X156048333Y-63205952D01*
X156095952Y-63253571D01*
X156143571Y-63348809D01*
X120878333Y-54227380D02*
X120878333Y-54941666D01*
X120925952Y-55084523D01*
X121021190Y-55179761D01*
X121164047Y-55227380D01*
X121259285Y-55227380D01*
X120354523Y-55227380D02*
X120164047Y-55227380D01*
X120068809Y-55179761D01*
X120021190Y-55132142D01*
X119925952Y-54989285D01*
X119878333Y-54798809D01*
X119878333Y-54417857D01*
X119925952Y-54322619D01*
X119973571Y-54275000D01*
X120068809Y-54227380D01*
X120259285Y-54227380D01*
X120354523Y-54275000D01*
X120402142Y-54322619D01*
X120449761Y-54417857D01*
X120449761Y-54655952D01*
X120402142Y-54751190D01*
X120354523Y-54798809D01*
X120259285Y-54846428D01*
X120068809Y-54846428D01*
X119973571Y-54798809D01*
X119925952Y-54751190D01*
X119878333Y-54655952D01*
D12*
X128684908Y-51209029D02*
X128541858Y-51256713D01*
X128303440Y-51256713D01*
X128208073Y-51209029D01*
X128160389Y-51161346D01*
X128112706Y-51065979D01*
X128112706Y-50970612D01*
X128160389Y-50875245D01*
X128208073Y-50827561D01*
X128303440Y-50779878D01*
X128494174Y-50732194D01*
X128589541Y-50684511D01*
X128637225Y-50636827D01*
X128684908Y-50541460D01*
X128684908Y-50446093D01*
X128637225Y-50350726D01*
X128589541Y-50303043D01*
X128494174Y-50255359D01*
X128255756Y-50255359D01*
X128112706Y-50303043D01*
X127778921Y-50255359D02*
X127540504Y-51256713D01*
X127349770Y-50541460D01*
X127159035Y-51256713D01*
X126920618Y-50255359D01*
X126014631Y-51256713D02*
X126586833Y-51256713D01*
X126300732Y-51256713D02*
X126300732Y-50255359D01*
X126396099Y-50398410D01*
X126491466Y-50493777D01*
X126586833Y-50541460D01*
D11*
X121344523Y-60177380D02*
X121344523Y-60891666D01*
X121392142Y-61034523D01*
X121487380Y-61129761D01*
X121630238Y-61177380D01*
X121725476Y-61177380D01*
X120344523Y-61177380D02*
X120915952Y-61177380D01*
X120630238Y-61177380D02*
X120630238Y-60177380D01*
X120725476Y-60320238D01*
X120820714Y-60415476D01*
X120915952Y-60463095D01*
X119439761Y-60177380D02*
X119915952Y-60177380D01*
X119963571Y-60653571D01*
X119915952Y-60605952D01*
X119820714Y-60558333D01*
X119582619Y-60558333D01*
X119487380Y-60605952D01*
X119439761Y-60653571D01*
X119392142Y-60748809D01*
X119392142Y-60986904D01*
X119439761Y-61082142D01*
X119487380Y-61129761D01*
X119582619Y-61177380D01*
X119820714Y-61177380D01*
X119915952Y-61129761D01*
X119963571Y-61082142D01*
X157054523Y-90722380D02*
X157054523Y-91436666D01*
X157102142Y-91579523D01*
X157197380Y-91674761D01*
X157340238Y-91722380D01*
X157435476Y-91722380D01*
X156054523Y-91722380D02*
X156625952Y-91722380D01*
X156340238Y-91722380D02*
X156340238Y-90722380D01*
X156435476Y-90865238D01*
X156530714Y-90960476D01*
X156625952Y-91008095D01*
X155435476Y-90722380D02*
X155340238Y-90722380D01*
X155245000Y-90770000D01*
X155197380Y-90817619D01*
X155149761Y-90912857D01*
X155102142Y-91103333D01*
X155102142Y-91341428D01*
X155149761Y-91531904D01*
X155197380Y-91627142D01*
X155245000Y-91674761D01*
X155340238Y-91722380D01*
X155435476Y-91722380D01*
X155530714Y-91674761D01*
X155578333Y-91627142D01*
X155625952Y-91531904D01*
X155673571Y-91341428D01*
X155673571Y-91103333D01*
X155625952Y-90912857D01*
X155578333Y-90817619D01*
X155530714Y-90770000D01*
X155435476Y-90722380D01*
X157574523Y-107852380D02*
X157574523Y-108566666D01*
X157622142Y-108709523D01*
X157717380Y-108804761D01*
X157860238Y-108852380D01*
X157955476Y-108852380D01*
X156574523Y-108852380D02*
X157145952Y-108852380D01*
X156860238Y-108852380D02*
X156860238Y-107852380D01*
X156955476Y-107995238D01*
X157050714Y-108090476D01*
X157145952Y-108138095D01*
X155717380Y-107852380D02*
X155907857Y-107852380D01*
X156003095Y-107900000D01*
X156050714Y-107947619D01*
X156145952Y-108090476D01*
X156193571Y-108280952D01*
X156193571Y-108661904D01*
X156145952Y-108757142D01*
X156098333Y-108804761D01*
X156003095Y-108852380D01*
X155812619Y-108852380D01*
X155717380Y-108804761D01*
X155669761Y-108757142D01*
X155622142Y-108661904D01*
X155622142Y-108423809D01*
X155669761Y-108328571D01*
X155717380Y-108280952D01*
X155812619Y-108233333D01*
X156003095Y-108233333D01*
X156098333Y-108280952D01*
X156145952Y-108328571D01*
X156193571Y-108423809D01*
X120928333Y-99302380D02*
X120928333Y-100016666D01*
X120975952Y-100159523D01*
X121071190Y-100254761D01*
X121214047Y-100302380D01*
X121309285Y-100302380D01*
X120404523Y-100302380D02*
X120214047Y-100302380D01*
X120118809Y-100254761D01*
X120071190Y-100207142D01*
X119975952Y-100064285D01*
X119928333Y-99873809D01*
X119928333Y-99492857D01*
X119975952Y-99397619D01*
X120023571Y-99350000D01*
X120118809Y-99302380D01*
X120309285Y-99302380D01*
X120404523Y-99350000D01*
X120452142Y-99397619D01*
X120499761Y-99492857D01*
X120499761Y-99730952D01*
X120452142Y-99826190D01*
X120404523Y-99873809D01*
X120309285Y-99921428D01*
X120118809Y-99921428D01*
X120023571Y-99873809D01*
X119975952Y-99826190D01*
X119928333Y-99730952D01*
X121394523Y-105252380D02*
X121394523Y-105966666D01*
X121442142Y-106109523D01*
X121537380Y-106204761D01*
X121680238Y-106252380D01*
X121775476Y-106252380D01*
X120394523Y-106252380D02*
X120965952Y-106252380D01*
X120680238Y-106252380D02*
X120680238Y-105252380D01*
X120775476Y-105395238D01*
X120870714Y-105490476D01*
X120965952Y-105538095D01*
X119489761Y-105252380D02*
X119965952Y-105252380D01*
X120013571Y-105728571D01*
X119965952Y-105680952D01*
X119870714Y-105633333D01*
X119632619Y-105633333D01*
X119537380Y-105680952D01*
X119489761Y-105728571D01*
X119442142Y-105823809D01*
X119442142Y-106061904D01*
X119489761Y-106157142D01*
X119537380Y-106204761D01*
X119632619Y-106252380D01*
X119870714Y-106252380D01*
X119965952Y-106204761D01*
X120013571Y-106157142D01*
X139507380Y-99871904D02*
X138507380Y-99871904D01*
X138507380Y-100110000D01*
X138555000Y-100252857D01*
X138650238Y-100348095D01*
X138745476Y-100395714D01*
X138935952Y-100443333D01*
X139078809Y-100443333D01*
X139269285Y-100395714D01*
X139364523Y-100348095D01*
X139459761Y-100252857D01*
X139507380Y-100110000D01*
X139507380Y-99871904D01*
X138840714Y-101300476D02*
X139507380Y-101300476D01*
X138459761Y-101062380D02*
X139174047Y-100824285D01*
X139174047Y-101443333D01*
D12*
X128734908Y-96284029D02*
X128591858Y-96331713D01*
X128353440Y-96331713D01*
X128258073Y-96284029D01*
X128210389Y-96236346D01*
X128162706Y-96140979D01*
X128162706Y-96045612D01*
X128210389Y-95950245D01*
X128258073Y-95902561D01*
X128353440Y-95854878D01*
X128544174Y-95807194D01*
X128639541Y-95759511D01*
X128687225Y-95711827D01*
X128734908Y-95616460D01*
X128734908Y-95521093D01*
X128687225Y-95425726D01*
X128639541Y-95378043D01*
X128544174Y-95330359D01*
X128305756Y-95330359D01*
X128162706Y-95378043D01*
X127828921Y-95330359D02*
X127590504Y-96331713D01*
X127399770Y-95616460D01*
X127209035Y-96331713D01*
X126970618Y-95330359D01*
X126064631Y-96331713D02*
X126636833Y-96331713D01*
X126350732Y-96331713D02*
X126350732Y-95330359D01*
X126446099Y-95473410D01*
X126541466Y-95568777D01*
X126636833Y-95616460D01*
X157805368Y-110676589D02*
X157662318Y-110724273D01*
X157423900Y-110724273D01*
X157328533Y-110676589D01*
X157280849Y-110628906D01*
X157233166Y-110533539D01*
X157233166Y-110438172D01*
X157280849Y-110342805D01*
X157328533Y-110295121D01*
X157423900Y-110247438D01*
X157614634Y-110199754D01*
X157710001Y-110152071D01*
X157757685Y-110104387D01*
X157805368Y-110009020D01*
X157805368Y-109913653D01*
X157757685Y-109818286D01*
X157710001Y-109770603D01*
X157614634Y-109722919D01*
X157376216Y-109722919D01*
X157233166Y-109770603D01*
X156899381Y-109722919D02*
X156660964Y-110724273D01*
X156470230Y-110009020D01*
X156279495Y-110724273D01*
X156041078Y-109722919D01*
X155707293Y-109818286D02*
X155659610Y-109770603D01*
X155564243Y-109722919D01*
X155325825Y-109722919D01*
X155230458Y-109770603D01*
X155182774Y-109818286D01*
X155135091Y-109913653D01*
X155135091Y-110009020D01*
X155182774Y-110152071D01*
X155754977Y-110724273D01*
X155135091Y-110724273D01*
X157765368Y-100206589D02*
X157622318Y-100254273D01*
X157383900Y-100254273D01*
X157288533Y-100206589D01*
X157240849Y-100158906D01*
X157193166Y-100063539D01*
X157193166Y-99968172D01*
X157240849Y-99872805D01*
X157288533Y-99825121D01*
X157383900Y-99777438D01*
X157574634Y-99729754D01*
X157670001Y-99682071D01*
X157717685Y-99634387D01*
X157765368Y-99539020D01*
X157765368Y-99443653D01*
X157717685Y-99348286D01*
X157670001Y-99300603D01*
X157574634Y-99252919D01*
X157336216Y-99252919D01*
X157193166Y-99300603D01*
X156859381Y-99252919D02*
X156620964Y-100254273D01*
X156430230Y-99539020D01*
X156239495Y-100254273D01*
X156001078Y-99252919D01*
X155714977Y-99252919D02*
X155095091Y-99252919D01*
X155428876Y-99634387D01*
X155285825Y-99634387D01*
X155190458Y-99682071D01*
X155142774Y-99729754D01*
X155095091Y-99825121D01*
X155095091Y-100063539D01*
X155142774Y-100158906D01*
X155190458Y-100206589D01*
X155285825Y-100254273D01*
X155571926Y-100254273D01*
X155667293Y-100206589D01*
X155714977Y-100158906D01*
D11*
X142765095Y-102620380D02*
X142765095Y-101620380D01*
X142527000Y-101620380D01*
X142384142Y-101668000D01*
X142288904Y-101763238D01*
X142241285Y-101858476D01*
X142193666Y-102048952D01*
X142193666Y-102191809D01*
X142241285Y-102382285D01*
X142288904Y-102477523D01*
X142384142Y-102572761D01*
X142527000Y-102620380D01*
X142765095Y-102620380D01*
X141241285Y-102620380D02*
X141812714Y-102620380D01*
X141527000Y-102620380D02*
X141527000Y-101620380D01*
X141622238Y-101763238D01*
X141717476Y-101858476D01*
X141812714Y-101906095D01*
X170263095Y-102702380D02*
X170263095Y-101702380D01*
X170025000Y-101702380D01*
X169882142Y-101750000D01*
X169786904Y-101845238D01*
X169739285Y-101940476D01*
X169691666Y-102130952D01*
X169691666Y-102273809D01*
X169739285Y-102464285D01*
X169786904Y-102559523D01*
X169882142Y-102654761D01*
X170025000Y-102702380D01*
X170263095Y-102702380D01*
X169310714Y-101797619D02*
X169263095Y-101750000D01*
X169167857Y-101702380D01*
X168929761Y-101702380D01*
X168834523Y-101750000D01*
X168786904Y-101797619D01*
X168739285Y-101892857D01*
X168739285Y-101988095D01*
X168786904Y-102130952D01*
X169358333Y-102702380D01*
X168739285Y-102702380D01*
X121419523Y-127727380D02*
X121419523Y-128441666D01*
X121467142Y-128584523D01*
X121562380Y-128679761D01*
X121705238Y-128727380D01*
X121800476Y-128727380D01*
X120419523Y-128727380D02*
X120990952Y-128727380D01*
X120705238Y-128727380D02*
X120705238Y-127727380D01*
X120800476Y-127870238D01*
X120895714Y-127965476D01*
X120990952Y-128013095D01*
X119514761Y-127727380D02*
X119990952Y-127727380D01*
X120038571Y-128203571D01*
X119990952Y-128155952D01*
X119895714Y-128108333D01*
X119657619Y-128108333D01*
X119562380Y-128155952D01*
X119514761Y-128203571D01*
X119467142Y-128298809D01*
X119467142Y-128536904D01*
X119514761Y-128632142D01*
X119562380Y-128679761D01*
X119657619Y-128727380D01*
X119895714Y-128727380D01*
X119990952Y-128679761D01*
X120038571Y-128632142D01*
X157599523Y-130327380D02*
X157599523Y-131041666D01*
X157647142Y-131184523D01*
X157742380Y-131279761D01*
X157885238Y-131327380D01*
X157980476Y-131327380D01*
X156599523Y-131327380D02*
X157170952Y-131327380D01*
X156885238Y-131327380D02*
X156885238Y-130327380D01*
X156980476Y-130470238D01*
X157075714Y-130565476D01*
X157170952Y-130613095D01*
X155742380Y-130327380D02*
X155932857Y-130327380D01*
X156028095Y-130375000D01*
X156075714Y-130422619D01*
X156170952Y-130565476D01*
X156218571Y-130755952D01*
X156218571Y-131136904D01*
X156170952Y-131232142D01*
X156123333Y-131279761D01*
X156028095Y-131327380D01*
X155837619Y-131327380D01*
X155742380Y-131279761D01*
X155694761Y-131232142D01*
X155647142Y-131136904D01*
X155647142Y-130898809D01*
X155694761Y-130803571D01*
X155742380Y-130755952D01*
X155837619Y-130708333D01*
X156028095Y-130708333D01*
X156123333Y-130755952D01*
X156170952Y-130803571D01*
X156218571Y-130898809D01*
X157079523Y-113197380D02*
X157079523Y-113911666D01*
X157127142Y-114054523D01*
X157222380Y-114149761D01*
X157365238Y-114197380D01*
X157460476Y-114197380D01*
X156079523Y-114197380D02*
X156650952Y-114197380D01*
X156365238Y-114197380D02*
X156365238Y-113197380D01*
X156460476Y-113340238D01*
X156555714Y-113435476D01*
X156650952Y-113483095D01*
X155460476Y-113197380D02*
X155365238Y-113197380D01*
X155270000Y-113245000D01*
X155222380Y-113292619D01*
X155174761Y-113387857D01*
X155127142Y-113578333D01*
X155127142Y-113816428D01*
X155174761Y-114006904D01*
X155222380Y-114102142D01*
X155270000Y-114149761D01*
X155365238Y-114197380D01*
X155460476Y-114197380D01*
X155555714Y-114149761D01*
X155603333Y-114102142D01*
X155650952Y-114006904D01*
X155698571Y-113816428D01*
X155698571Y-113578333D01*
X155650952Y-113387857D01*
X155603333Y-113292619D01*
X155555714Y-113245000D01*
X155460476Y-113197380D01*
X120953333Y-121777380D02*
X120953333Y-122491666D01*
X121000952Y-122634523D01*
X121096190Y-122729761D01*
X121239047Y-122777380D01*
X121334285Y-122777380D01*
X120429523Y-122777380D02*
X120239047Y-122777380D01*
X120143809Y-122729761D01*
X120096190Y-122682142D01*
X120000952Y-122539285D01*
X119953333Y-122348809D01*
X119953333Y-121967857D01*
X120000952Y-121872619D01*
X120048571Y-121825000D01*
X120143809Y-121777380D01*
X120334285Y-121777380D01*
X120429523Y-121825000D01*
X120477142Y-121872619D01*
X120524761Y-121967857D01*
X120524761Y-122205952D01*
X120477142Y-122301190D01*
X120429523Y-122348809D01*
X120334285Y-122396428D01*
X120143809Y-122396428D01*
X120048571Y-122348809D01*
X120000952Y-122301190D01*
X119953333Y-122205952D01*
D12*
X157790368Y-122681589D02*
X157647318Y-122729273D01*
X157408900Y-122729273D01*
X157313533Y-122681589D01*
X157265849Y-122633906D01*
X157218166Y-122538539D01*
X157218166Y-122443172D01*
X157265849Y-122347805D01*
X157313533Y-122300121D01*
X157408900Y-122252438D01*
X157599634Y-122204754D01*
X157695001Y-122157071D01*
X157742685Y-122109387D01*
X157790368Y-122014020D01*
X157790368Y-121918653D01*
X157742685Y-121823286D01*
X157695001Y-121775603D01*
X157599634Y-121727919D01*
X157361216Y-121727919D01*
X157218166Y-121775603D01*
X156884381Y-121727919D02*
X156645964Y-122729273D01*
X156455230Y-122014020D01*
X156264495Y-122729273D01*
X156026078Y-121727919D01*
X155739977Y-121727919D02*
X155120091Y-121727919D01*
X155453876Y-122109387D01*
X155310825Y-122109387D01*
X155215458Y-122157071D01*
X155167774Y-122204754D01*
X155120091Y-122300121D01*
X155120091Y-122538539D01*
X155167774Y-122633906D01*
X155215458Y-122681589D01*
X155310825Y-122729273D01*
X155596926Y-122729273D01*
X155692293Y-122681589D01*
X155739977Y-122633906D01*
X157830368Y-133151589D02*
X157687318Y-133199273D01*
X157448900Y-133199273D01*
X157353533Y-133151589D01*
X157305849Y-133103906D01*
X157258166Y-133008539D01*
X157258166Y-132913172D01*
X157305849Y-132817805D01*
X157353533Y-132770121D01*
X157448900Y-132722438D01*
X157639634Y-132674754D01*
X157735001Y-132627071D01*
X157782685Y-132579387D01*
X157830368Y-132484020D01*
X157830368Y-132388653D01*
X157782685Y-132293286D01*
X157735001Y-132245603D01*
X157639634Y-132197919D01*
X157401216Y-132197919D01*
X157258166Y-132245603D01*
X156924381Y-132197919D02*
X156685964Y-133199273D01*
X156495230Y-132484020D01*
X156304495Y-133199273D01*
X156066078Y-132197919D01*
X155732293Y-132293286D02*
X155684610Y-132245603D01*
X155589243Y-132197919D01*
X155350825Y-132197919D01*
X155255458Y-132245603D01*
X155207774Y-132293286D01*
X155160091Y-132388653D01*
X155160091Y-132484020D01*
X155207774Y-132627071D01*
X155779977Y-133199273D01*
X155160091Y-133199273D01*
X128759908Y-118759029D02*
X128616858Y-118806713D01*
X128378440Y-118806713D01*
X128283073Y-118759029D01*
X128235389Y-118711346D01*
X128187706Y-118615979D01*
X128187706Y-118520612D01*
X128235389Y-118425245D01*
X128283073Y-118377561D01*
X128378440Y-118329878D01*
X128569174Y-118282194D01*
X128664541Y-118234511D01*
X128712225Y-118186827D01*
X128759908Y-118091460D01*
X128759908Y-117996093D01*
X128712225Y-117900726D01*
X128664541Y-117853043D01*
X128569174Y-117805359D01*
X128330756Y-117805359D01*
X128187706Y-117853043D01*
X127853921Y-117805359D02*
X127615504Y-118806713D01*
X127424770Y-118091460D01*
X127234035Y-118806713D01*
X126995618Y-117805359D01*
X126089631Y-118806713D02*
X126661833Y-118806713D01*
X126375732Y-118806713D02*
X126375732Y-117805359D01*
X126471099Y-117948410D01*
X126566466Y-118043777D01*
X126661833Y-118091460D01*
D11*
X139532380Y-122346904D02*
X138532380Y-122346904D01*
X138532380Y-122585000D01*
X138580000Y-122727857D01*
X138675238Y-122823095D01*
X138770476Y-122870714D01*
X138960952Y-122918333D01*
X139103809Y-122918333D01*
X139294285Y-122870714D01*
X139389523Y-122823095D01*
X139484761Y-122727857D01*
X139532380Y-122585000D01*
X139532380Y-122346904D01*
X138865714Y-123775476D02*
X139532380Y-123775476D01*
X138484761Y-123537380D02*
X139199047Y-123299285D01*
X139199047Y-123918333D01*
X170288095Y-125177380D02*
X170288095Y-124177380D01*
X170050000Y-124177380D01*
X169907142Y-124225000D01*
X169811904Y-124320238D01*
X169764285Y-124415476D01*
X169716666Y-124605952D01*
X169716666Y-124748809D01*
X169764285Y-124939285D01*
X169811904Y-125034523D01*
X169907142Y-125129761D01*
X170050000Y-125177380D01*
X170288095Y-125177380D01*
X169335714Y-124272619D02*
X169288095Y-124225000D01*
X169192857Y-124177380D01*
X168954761Y-124177380D01*
X168859523Y-124225000D01*
X168811904Y-124272619D01*
X168764285Y-124367857D01*
X168764285Y-124463095D01*
X168811904Y-124605952D01*
X169383333Y-125177380D01*
X168764285Y-125177380D01*
X142790095Y-125095380D02*
X142790095Y-124095380D01*
X142552000Y-124095380D01*
X142409142Y-124143000D01*
X142313904Y-124238238D01*
X142266285Y-124333476D01*
X142218666Y-124523952D01*
X142218666Y-124666809D01*
X142266285Y-124857285D01*
X142313904Y-124952523D01*
X142409142Y-125047761D01*
X142552000Y-125095380D01*
X142790095Y-125095380D01*
X141266285Y-125095380D02*
X141837714Y-125095380D01*
X141552000Y-125095380D02*
X141552000Y-124095380D01*
X141647238Y-124238238D01*
X141742476Y-124333476D01*
X141837714Y-124381095D01*
M02*
