G04 #@! TF.GenerationSoftware,KiCad,Pcbnew,(5.1.4)-1*
G04 #@! TF.CreationDate,2020-04-09T13:39:23+02:00*
G04 #@! TF.ProjectId,output.sky_panel_03_kits,6f757470-7574-42e7-936b-795f70616e65,rev?*
G04 #@! TF.SameCoordinates,Original*
G04 #@! TF.FileFunction,Legend,Bot*
G04 #@! TF.FilePolarity,Positive*
%FSLAX46Y46*%
G04 Gerber Fmt 4.6, Leading zero omitted, Abs format (unit mm)*
G04 Created by KiCad (PCBNEW (5.1.4)-1) date 2020-04-09 13:39:23*
%MOMM*%
%LPD*%
G04 APERTURE LIST*
%ADD10C,0.120000*%
%ADD11C,0.150000*%
%ADD12C,0.015000*%
G04 APERTURE END LIST*
D10*
X224065000Y-82485000D02*
X224065000Y-79625000D01*
X225985000Y-82485000D02*
X224065000Y-82485000D01*
X225985000Y-79625000D02*
X225985000Y-82485000D01*
X228435000Y-111945000D02*
X223035000Y-111945000D01*
X228435000Y-115245000D02*
X223035000Y-115245000D01*
X228435000Y-111945000D02*
X228435000Y-115245000D01*
X223983000Y-109983000D02*
X223983000Y-107123000D01*
X225903000Y-109983000D02*
X223983000Y-109983000D01*
X225903000Y-107123000D02*
X225903000Y-109983000D01*
X182275000Y-102810000D02*
X179415000Y-102810000D01*
X179415000Y-102810000D02*
X179415000Y-100890000D01*
X179415000Y-100890000D02*
X182275000Y-100890000D01*
X149955000Y-105260000D02*
X146655000Y-105260000D01*
X146655000Y-105260000D02*
X146655000Y-99860000D01*
X149955000Y-105260000D02*
X149955000Y-99860000D01*
X154777000Y-102728000D02*
X151917000Y-102728000D01*
X151917000Y-102728000D02*
X151917000Y-100808000D01*
X151917000Y-100808000D02*
X154777000Y-100808000D01*
X149830000Y-148135000D02*
X149830000Y-142735000D01*
X146530000Y-148135000D02*
X146530000Y-142735000D01*
X149830000Y-148135000D02*
X146530000Y-148135000D01*
X179290000Y-143765000D02*
X182150000Y-143765000D01*
X179290000Y-145685000D02*
X179290000Y-143765000D01*
X182150000Y-145685000D02*
X179290000Y-145685000D01*
X151792000Y-143683000D02*
X154652000Y-143683000D01*
X151792000Y-145603000D02*
X151792000Y-143683000D01*
X154652000Y-145603000D02*
X151792000Y-145603000D01*
D11*
X229677380Y-128755476D02*
X230391666Y-128755476D01*
X230534523Y-128707857D01*
X230629761Y-128612619D01*
X230677380Y-128469761D01*
X230677380Y-128374523D01*
X230677380Y-129755476D02*
X230677380Y-129184047D01*
X230677380Y-129469761D02*
X229677380Y-129469761D01*
X229820238Y-129374523D01*
X229915476Y-129279285D01*
X229963095Y-129184047D01*
X229677380Y-130660238D02*
X229677380Y-130184047D01*
X230153571Y-130136428D01*
X230105952Y-130184047D01*
X230058333Y-130279285D01*
X230058333Y-130517380D01*
X230105952Y-130612619D01*
X230153571Y-130660238D01*
X230248809Y-130707857D01*
X230486904Y-130707857D01*
X230582142Y-130660238D01*
X230629761Y-130612619D01*
X230677380Y-130517380D01*
X230677380Y-130279285D01*
X230629761Y-130184047D01*
X230582142Y-130136428D01*
X227127380Y-79886904D02*
X226127380Y-79886904D01*
X226127380Y-80125000D01*
X226175000Y-80267857D01*
X226270238Y-80363095D01*
X226365476Y-80410714D01*
X226555952Y-80458333D01*
X226698809Y-80458333D01*
X226889285Y-80410714D01*
X226984523Y-80363095D01*
X227079761Y-80267857D01*
X227127380Y-80125000D01*
X227127380Y-79886904D01*
X226222619Y-80839285D02*
X226175000Y-80886904D01*
X226127380Y-80982142D01*
X226127380Y-81220238D01*
X226175000Y-81315476D01*
X226222619Y-81363095D01*
X226317857Y-81410714D01*
X226413095Y-81410714D01*
X226555952Y-81363095D01*
X227127380Y-80791666D01*
X227127380Y-81410714D01*
D12*
X220709029Y-121415091D02*
X220756713Y-121558141D01*
X220756713Y-121796559D01*
X220709029Y-121891926D01*
X220661346Y-121939610D01*
X220565979Y-121987293D01*
X220470612Y-121987293D01*
X220375245Y-121939610D01*
X220327561Y-121891926D01*
X220279878Y-121796559D01*
X220232194Y-121605825D01*
X220184511Y-121510458D01*
X220136827Y-121462774D01*
X220041460Y-121415091D01*
X219946093Y-121415091D01*
X219850726Y-121462774D01*
X219803043Y-121510458D01*
X219755359Y-121605825D01*
X219755359Y-121844243D01*
X219803043Y-121987293D01*
X219755359Y-122321078D02*
X220756713Y-122559495D01*
X220041460Y-122750230D01*
X220756713Y-122940964D01*
X219755359Y-123179381D01*
X220756713Y-124085368D02*
X220756713Y-123513166D01*
X220756713Y-123799267D02*
X219755359Y-123799267D01*
X219898410Y-123703900D01*
X219993777Y-123608533D01*
X220041460Y-123513166D01*
D11*
X225773095Y-111547380D02*
X225773095Y-110547380D01*
X225535000Y-110547380D01*
X225392142Y-110595000D01*
X225296904Y-110690238D01*
X225249285Y-110785476D01*
X225201666Y-110975952D01*
X225201666Y-111118809D01*
X225249285Y-111309285D01*
X225296904Y-111404523D01*
X225392142Y-111499761D01*
X225535000Y-111547380D01*
X225773095Y-111547380D01*
X224344523Y-110880714D02*
X224344523Y-111547380D01*
X224582619Y-110499761D02*
X224820714Y-111214047D01*
X224201666Y-111214047D01*
X215147380Y-93095476D02*
X215861666Y-93095476D01*
X216004523Y-93047857D01*
X216099761Y-92952619D01*
X216147380Y-92809761D01*
X216147380Y-92714523D01*
X216147380Y-94095476D02*
X216147380Y-93524047D01*
X216147380Y-93809761D02*
X215147380Y-93809761D01*
X215290238Y-93714523D01*
X215385476Y-93619285D01*
X215433095Y-93524047D01*
X215147380Y-94714523D02*
X215147380Y-94809761D01*
X215195000Y-94905000D01*
X215242619Y-94952619D01*
X215337857Y-95000238D01*
X215528333Y-95047857D01*
X215766428Y-95047857D01*
X215956904Y-95000238D01*
X216052142Y-94952619D01*
X216099761Y-94905000D01*
X216147380Y-94809761D01*
X216147380Y-94714523D01*
X216099761Y-94619285D01*
X216052142Y-94571666D01*
X215956904Y-94524047D01*
X215766428Y-94476428D01*
X215528333Y-94476428D01*
X215337857Y-94524047D01*
X215242619Y-94571666D01*
X215195000Y-94619285D01*
X215147380Y-94714523D01*
X207449380Y-76292666D02*
X208163666Y-76292666D01*
X208306523Y-76245047D01*
X208401761Y-76149809D01*
X208449380Y-76006952D01*
X208449380Y-75911714D01*
X207449380Y-76673619D02*
X207449380Y-77340285D01*
X208449380Y-76911714D01*
X227045380Y-107384904D02*
X226045380Y-107384904D01*
X226045380Y-107623000D01*
X226093000Y-107765857D01*
X226188238Y-107861095D01*
X226283476Y-107908714D01*
X226473952Y-107956333D01*
X226616809Y-107956333D01*
X226807285Y-107908714D01*
X226902523Y-107861095D01*
X226997761Y-107765857D01*
X227045380Y-107623000D01*
X227045380Y-107384904D01*
X227045380Y-108908714D02*
X227045380Y-108337285D01*
X227045380Y-108623000D02*
X226045380Y-108623000D01*
X226188238Y-108527761D01*
X226283476Y-108432523D01*
X226331095Y-108337285D01*
X223727380Y-129221666D02*
X224441666Y-129221666D01*
X224584523Y-129174047D01*
X224679761Y-129078809D01*
X224727380Y-128935952D01*
X224727380Y-128840714D01*
X224727380Y-129745476D02*
X224727380Y-129935952D01*
X224679761Y-130031190D01*
X224632142Y-130078809D01*
X224489285Y-130174047D01*
X224298809Y-130221666D01*
X223917857Y-130221666D01*
X223822619Y-130174047D01*
X223775000Y-130126428D01*
X223727380Y-130031190D01*
X223727380Y-129840714D01*
X223775000Y-129745476D01*
X223822619Y-129697857D01*
X223917857Y-129650238D01*
X224155952Y-129650238D01*
X224251190Y-129697857D01*
X224298809Y-129745476D01*
X224346428Y-129840714D01*
X224346428Y-130031190D01*
X224298809Y-130126428D01*
X224251190Y-130174047D01*
X224155952Y-130221666D01*
X196649380Y-76492666D02*
X197363666Y-76492666D01*
X197506523Y-76445047D01*
X197601761Y-76349809D01*
X197649380Y-76206952D01*
X197649380Y-76111714D01*
X197077952Y-77111714D02*
X197030333Y-77016476D01*
X196982714Y-76968857D01*
X196887476Y-76921238D01*
X196839857Y-76921238D01*
X196744619Y-76968857D01*
X196697000Y-77016476D01*
X196649380Y-77111714D01*
X196649380Y-77302190D01*
X196697000Y-77397428D01*
X196744619Y-77445047D01*
X196839857Y-77492666D01*
X196887476Y-77492666D01*
X196982714Y-77445047D01*
X197030333Y-77397428D01*
X197077952Y-77302190D01*
X197077952Y-77111714D01*
X197125571Y-77016476D01*
X197173190Y-76968857D01*
X197268428Y-76921238D01*
X197458904Y-76921238D01*
X197554142Y-76968857D01*
X197601761Y-77016476D01*
X197649380Y-77111714D01*
X197649380Y-77302190D01*
X197601761Y-77397428D01*
X197554142Y-77445047D01*
X197458904Y-77492666D01*
X197268428Y-77492666D01*
X197173190Y-77445047D01*
X197125571Y-77397428D01*
X197077952Y-77302190D01*
X200249380Y-76492666D02*
X200963666Y-76492666D01*
X201106523Y-76445047D01*
X201201761Y-76349809D01*
X201249380Y-76206952D01*
X201249380Y-76111714D01*
X201249380Y-77016476D02*
X201249380Y-77206952D01*
X201201761Y-77302190D01*
X201154142Y-77349809D01*
X201011285Y-77445047D01*
X200820809Y-77492666D01*
X200439857Y-77492666D01*
X200344619Y-77445047D01*
X200297000Y-77397428D01*
X200249380Y-77302190D01*
X200249380Y-77111714D01*
X200297000Y-77016476D01*
X200344619Y-76968857D01*
X200439857Y-76921238D01*
X200677952Y-76921238D01*
X200773190Y-76968857D01*
X200820809Y-77016476D01*
X200868428Y-77111714D01*
X200868428Y-77302190D01*
X200820809Y-77397428D01*
X200773190Y-77445047D01*
X200677952Y-77492666D01*
X207449380Y-81692666D02*
X208163666Y-81692666D01*
X208306523Y-81645047D01*
X208401761Y-81549809D01*
X208449380Y-81406952D01*
X208449380Y-81311714D01*
X207449380Y-82597428D02*
X207449380Y-82406952D01*
X207497000Y-82311714D01*
X207544619Y-82264095D01*
X207687476Y-82168857D01*
X207877952Y-82121238D01*
X208258904Y-82121238D01*
X208354142Y-82168857D01*
X208401761Y-82216476D01*
X208449380Y-82311714D01*
X208449380Y-82502190D01*
X208401761Y-82597428D01*
X208354142Y-82645047D01*
X208258904Y-82692666D01*
X208020809Y-82692666D01*
X207925571Y-82645047D01*
X207877952Y-82597428D01*
X207830333Y-82502190D01*
X207830333Y-82311714D01*
X207877952Y-82216476D01*
X207925571Y-82168857D01*
X208020809Y-82121238D01*
D12*
X235101589Y-92344631D02*
X235149273Y-92487681D01*
X235149273Y-92726099D01*
X235101589Y-92821466D01*
X235053906Y-92869150D01*
X234958539Y-92916833D01*
X234863172Y-92916833D01*
X234767805Y-92869150D01*
X234720121Y-92821466D01*
X234672438Y-92726099D01*
X234624754Y-92535365D01*
X234577071Y-92439998D01*
X234529387Y-92392314D01*
X234434020Y-92344631D01*
X234338653Y-92344631D01*
X234243286Y-92392314D01*
X234195603Y-92439998D01*
X234147919Y-92535365D01*
X234147919Y-92773783D01*
X234195603Y-92916833D01*
X234147919Y-93250618D02*
X235149273Y-93489035D01*
X234434020Y-93679770D01*
X235149273Y-93870504D01*
X234147919Y-94108921D01*
X234243286Y-94442706D02*
X234195603Y-94490389D01*
X234147919Y-94585756D01*
X234147919Y-94824174D01*
X234195603Y-94919541D01*
X234243286Y-94967225D01*
X234338653Y-95014908D01*
X234434020Y-95014908D01*
X234577071Y-94967225D01*
X235149273Y-94395022D01*
X235149273Y-95014908D01*
X224631589Y-92384631D02*
X224679273Y-92527681D01*
X224679273Y-92766099D01*
X224631589Y-92861466D01*
X224583906Y-92909150D01*
X224488539Y-92956833D01*
X224393172Y-92956833D01*
X224297805Y-92909150D01*
X224250121Y-92861466D01*
X224202438Y-92766099D01*
X224154754Y-92575365D01*
X224107071Y-92479998D01*
X224059387Y-92432314D01*
X223964020Y-92384631D01*
X223868653Y-92384631D01*
X223773286Y-92432314D01*
X223725603Y-92479998D01*
X223677919Y-92575365D01*
X223677919Y-92813783D01*
X223725603Y-92956833D01*
X223677919Y-93290618D02*
X224679273Y-93529035D01*
X223964020Y-93719770D01*
X224679273Y-93910504D01*
X223677919Y-94148921D01*
X223677919Y-94435022D02*
X223677919Y-95054908D01*
X224059387Y-94721124D01*
X224059387Y-94864174D01*
X224107071Y-94959541D01*
X224154754Y-95007225D01*
X224250121Y-95054908D01*
X224488539Y-95054908D01*
X224583906Y-95007225D01*
X224631589Y-94959541D01*
X224679273Y-94864174D01*
X224679273Y-94578073D01*
X224631589Y-94482706D01*
X224583906Y-94435022D01*
D11*
X232277380Y-92575476D02*
X232991666Y-92575476D01*
X233134523Y-92527857D01*
X233229761Y-92432619D01*
X233277380Y-92289761D01*
X233277380Y-92194523D01*
X233277380Y-93575476D02*
X233277380Y-93004047D01*
X233277380Y-93289761D02*
X232277380Y-93289761D01*
X232420238Y-93194523D01*
X232515476Y-93099285D01*
X232563095Y-93004047D01*
X232277380Y-94432619D02*
X232277380Y-94242142D01*
X232325000Y-94146904D01*
X232372619Y-94099285D01*
X232515476Y-94004047D01*
X232705952Y-93956428D01*
X233086904Y-93956428D01*
X233182142Y-94004047D01*
X233229761Y-94051666D01*
X233277380Y-94146904D01*
X233277380Y-94337380D01*
X233229761Y-94432619D01*
X233182142Y-94480238D01*
X233086904Y-94527857D01*
X232848809Y-94527857D01*
X232753571Y-94480238D01*
X232705952Y-94432619D01*
X232658333Y-94337380D01*
X232658333Y-94146904D01*
X232705952Y-94051666D01*
X232753571Y-94004047D01*
X232848809Y-93956428D01*
X169324523Y-109102380D02*
X169324523Y-109816666D01*
X169372142Y-109959523D01*
X169467380Y-110054761D01*
X169610238Y-110102380D01*
X169705476Y-110102380D01*
X168324523Y-110102380D02*
X168895952Y-110102380D01*
X168610238Y-110102380D02*
X168610238Y-109102380D01*
X168705476Y-109245238D01*
X168800714Y-109340476D01*
X168895952Y-109388095D01*
X167467380Y-109102380D02*
X167657857Y-109102380D01*
X167753095Y-109150000D01*
X167800714Y-109197619D01*
X167895952Y-109340476D01*
X167943571Y-109530952D01*
X167943571Y-109911904D01*
X167895952Y-110007142D01*
X167848333Y-110054761D01*
X167753095Y-110102380D01*
X167562619Y-110102380D01*
X167467380Y-110054761D01*
X167419761Y-110007142D01*
X167372142Y-109911904D01*
X167372142Y-109673809D01*
X167419761Y-109578571D01*
X167467380Y-109530952D01*
X167562619Y-109483333D01*
X167753095Y-109483333D01*
X167848333Y-109530952D01*
X167895952Y-109578571D01*
X167943571Y-109673809D01*
X133144523Y-106502380D02*
X133144523Y-107216666D01*
X133192142Y-107359523D01*
X133287380Y-107454761D01*
X133430238Y-107502380D01*
X133525476Y-107502380D01*
X132144523Y-107502380D02*
X132715952Y-107502380D01*
X132430238Y-107502380D02*
X132430238Y-106502380D01*
X132525476Y-106645238D01*
X132620714Y-106740476D01*
X132715952Y-106788095D01*
X131239761Y-106502380D02*
X131715952Y-106502380D01*
X131763571Y-106978571D01*
X131715952Y-106930952D01*
X131620714Y-106883333D01*
X131382619Y-106883333D01*
X131287380Y-106930952D01*
X131239761Y-106978571D01*
X131192142Y-107073809D01*
X131192142Y-107311904D01*
X131239761Y-107407142D01*
X131287380Y-107454761D01*
X131382619Y-107502380D01*
X131620714Y-107502380D01*
X131715952Y-107454761D01*
X131763571Y-107407142D01*
X182013095Y-103952380D02*
X182013095Y-102952380D01*
X181775000Y-102952380D01*
X181632142Y-103000000D01*
X181536904Y-103095238D01*
X181489285Y-103190476D01*
X181441666Y-103380952D01*
X181441666Y-103523809D01*
X181489285Y-103714285D01*
X181536904Y-103809523D01*
X181632142Y-103904761D01*
X181775000Y-103952380D01*
X182013095Y-103952380D01*
X181060714Y-103047619D02*
X181013095Y-103000000D01*
X180917857Y-102952380D01*
X180679761Y-102952380D01*
X180584523Y-103000000D01*
X180536904Y-103047619D01*
X180489285Y-103142857D01*
X180489285Y-103238095D01*
X180536904Y-103380952D01*
X181108333Y-103952380D01*
X180489285Y-103952380D01*
D12*
X140484908Y-97534029D02*
X140341858Y-97581713D01*
X140103440Y-97581713D01*
X140008073Y-97534029D01*
X139960389Y-97486346D01*
X139912706Y-97390979D01*
X139912706Y-97295612D01*
X139960389Y-97200245D01*
X140008073Y-97152561D01*
X140103440Y-97104878D01*
X140294174Y-97057194D01*
X140389541Y-97009511D01*
X140437225Y-96961827D01*
X140484908Y-96866460D01*
X140484908Y-96771093D01*
X140437225Y-96675726D01*
X140389541Y-96628043D01*
X140294174Y-96580359D01*
X140055756Y-96580359D01*
X139912706Y-96628043D01*
X139578921Y-96580359D02*
X139340504Y-97581713D01*
X139149770Y-96866460D01*
X138959035Y-97581713D01*
X138720618Y-96580359D01*
X137814631Y-97581713D02*
X138386833Y-97581713D01*
X138100732Y-97581713D02*
X138100732Y-96580359D01*
X138196099Y-96723410D01*
X138291466Y-96818777D01*
X138386833Y-96866460D01*
D11*
X151257380Y-101121904D02*
X150257380Y-101121904D01*
X150257380Y-101360000D01*
X150305000Y-101502857D01*
X150400238Y-101598095D01*
X150495476Y-101645714D01*
X150685952Y-101693333D01*
X150828809Y-101693333D01*
X151019285Y-101645714D01*
X151114523Y-101598095D01*
X151209761Y-101502857D01*
X151257380Y-101360000D01*
X151257380Y-101121904D01*
X150590714Y-102550476D02*
X151257380Y-102550476D01*
X150209761Y-102312380D02*
X150924047Y-102074285D01*
X150924047Y-102693333D01*
D12*
X169555368Y-111926589D02*
X169412318Y-111974273D01*
X169173900Y-111974273D01*
X169078533Y-111926589D01*
X169030849Y-111878906D01*
X168983166Y-111783539D01*
X168983166Y-111688172D01*
X169030849Y-111592805D01*
X169078533Y-111545121D01*
X169173900Y-111497438D01*
X169364634Y-111449754D01*
X169460001Y-111402071D01*
X169507685Y-111354387D01*
X169555368Y-111259020D01*
X169555368Y-111163653D01*
X169507685Y-111068286D01*
X169460001Y-111020603D01*
X169364634Y-110972919D01*
X169126216Y-110972919D01*
X168983166Y-111020603D01*
X168649381Y-110972919D02*
X168410964Y-111974273D01*
X168220230Y-111259020D01*
X168029495Y-111974273D01*
X167791078Y-110972919D01*
X167457293Y-111068286D02*
X167409610Y-111020603D01*
X167314243Y-110972919D01*
X167075825Y-110972919D01*
X166980458Y-111020603D01*
X166932774Y-111068286D01*
X166885091Y-111163653D01*
X166885091Y-111259020D01*
X166932774Y-111402071D01*
X167504977Y-111974273D01*
X166885091Y-111974273D01*
D11*
X168804523Y-91972380D02*
X168804523Y-92686666D01*
X168852142Y-92829523D01*
X168947380Y-92924761D01*
X169090238Y-92972380D01*
X169185476Y-92972380D01*
X167804523Y-92972380D02*
X168375952Y-92972380D01*
X168090238Y-92972380D02*
X168090238Y-91972380D01*
X168185476Y-92115238D01*
X168280714Y-92210476D01*
X168375952Y-92258095D01*
X167185476Y-91972380D02*
X167090238Y-91972380D01*
X166995000Y-92020000D01*
X166947380Y-92067619D01*
X166899761Y-92162857D01*
X166852142Y-92353333D01*
X166852142Y-92591428D01*
X166899761Y-92781904D01*
X166947380Y-92877142D01*
X166995000Y-92924761D01*
X167090238Y-92972380D01*
X167185476Y-92972380D01*
X167280714Y-92924761D01*
X167328333Y-92877142D01*
X167375952Y-92781904D01*
X167423571Y-92591428D01*
X167423571Y-92353333D01*
X167375952Y-92162857D01*
X167328333Y-92067619D01*
X167280714Y-92020000D01*
X167185476Y-91972380D01*
D12*
X169515368Y-101456589D02*
X169372318Y-101504273D01*
X169133900Y-101504273D01*
X169038533Y-101456589D01*
X168990849Y-101408906D01*
X168943166Y-101313539D01*
X168943166Y-101218172D01*
X168990849Y-101122805D01*
X169038533Y-101075121D01*
X169133900Y-101027438D01*
X169324634Y-100979754D01*
X169420001Y-100932071D01*
X169467685Y-100884387D01*
X169515368Y-100789020D01*
X169515368Y-100693653D01*
X169467685Y-100598286D01*
X169420001Y-100550603D01*
X169324634Y-100502919D01*
X169086216Y-100502919D01*
X168943166Y-100550603D01*
X168609381Y-100502919D02*
X168370964Y-101504273D01*
X168180230Y-100789020D01*
X167989495Y-101504273D01*
X167751078Y-100502919D01*
X167464977Y-100502919D02*
X166845091Y-100502919D01*
X167178876Y-100884387D01*
X167035825Y-100884387D01*
X166940458Y-100932071D01*
X166892774Y-100979754D01*
X166845091Y-101075121D01*
X166845091Y-101313539D01*
X166892774Y-101408906D01*
X166940458Y-101456589D01*
X167035825Y-101504273D01*
X167321926Y-101504273D01*
X167417293Y-101456589D01*
X167464977Y-101408906D01*
D11*
X154515095Y-103870380D02*
X154515095Y-102870380D01*
X154277000Y-102870380D01*
X154134142Y-102918000D01*
X154038904Y-103013238D01*
X153991285Y-103108476D01*
X153943666Y-103298952D01*
X153943666Y-103441809D01*
X153991285Y-103632285D01*
X154038904Y-103727523D01*
X154134142Y-103822761D01*
X154277000Y-103870380D01*
X154515095Y-103870380D01*
X152991285Y-103870380D02*
X153562714Y-103870380D01*
X153277000Y-103870380D02*
X153277000Y-102870380D01*
X153372238Y-103013238D01*
X153467476Y-103108476D01*
X153562714Y-103156095D01*
X132678333Y-100552380D02*
X132678333Y-101266666D01*
X132725952Y-101409523D01*
X132821190Y-101504761D01*
X132964047Y-101552380D01*
X133059285Y-101552380D01*
X132154523Y-101552380D02*
X131964047Y-101552380D01*
X131868809Y-101504761D01*
X131821190Y-101457142D01*
X131725952Y-101314285D01*
X131678333Y-101123809D01*
X131678333Y-100742857D01*
X131725952Y-100647619D01*
X131773571Y-100600000D01*
X131868809Y-100552380D01*
X132059285Y-100552380D01*
X132154523Y-100600000D01*
X132202142Y-100647619D01*
X132249761Y-100742857D01*
X132249761Y-100980952D01*
X132202142Y-101076190D01*
X132154523Y-101123809D01*
X132059285Y-101171428D01*
X131868809Y-101171428D01*
X131773571Y-101123809D01*
X131725952Y-101076190D01*
X131678333Y-100980952D01*
X180207333Y-84274380D02*
X180207333Y-84988666D01*
X180254952Y-85131523D01*
X180350190Y-85226761D01*
X180493047Y-85274380D01*
X180588285Y-85274380D01*
X179302571Y-84274380D02*
X179493047Y-84274380D01*
X179588285Y-84322000D01*
X179635904Y-84369619D01*
X179731142Y-84512476D01*
X179778761Y-84702952D01*
X179778761Y-85083904D01*
X179731142Y-85179142D01*
X179683523Y-85226761D01*
X179588285Y-85274380D01*
X179397809Y-85274380D01*
X179302571Y-85226761D01*
X179254952Y-85179142D01*
X179207333Y-85083904D01*
X179207333Y-84845809D01*
X179254952Y-84750571D01*
X179302571Y-84702952D01*
X179397809Y-84655333D01*
X179588285Y-84655333D01*
X179683523Y-84702952D01*
X179731142Y-84750571D01*
X179778761Y-84845809D01*
X185407333Y-73474380D02*
X185407333Y-74188666D01*
X185454952Y-74331523D01*
X185550190Y-74426761D01*
X185693047Y-74474380D01*
X185788285Y-74474380D01*
X184788285Y-73902952D02*
X184883523Y-73855333D01*
X184931142Y-73807714D01*
X184978761Y-73712476D01*
X184978761Y-73664857D01*
X184931142Y-73569619D01*
X184883523Y-73522000D01*
X184788285Y-73474380D01*
X184597809Y-73474380D01*
X184502571Y-73522000D01*
X184454952Y-73569619D01*
X184407333Y-73664857D01*
X184407333Y-73712476D01*
X184454952Y-73807714D01*
X184502571Y-73855333D01*
X184597809Y-73902952D01*
X184788285Y-73902952D01*
X184883523Y-73950571D01*
X184931142Y-73998190D01*
X184978761Y-74093428D01*
X184978761Y-74283904D01*
X184931142Y-74379142D01*
X184883523Y-74426761D01*
X184788285Y-74474380D01*
X184597809Y-74474380D01*
X184502571Y-74426761D01*
X184454952Y-74379142D01*
X184407333Y-74283904D01*
X184407333Y-74093428D01*
X184454952Y-73998190D01*
X184502571Y-73950571D01*
X184597809Y-73902952D01*
X185407333Y-77074380D02*
X185407333Y-77788666D01*
X185454952Y-77931523D01*
X185550190Y-78026761D01*
X185693047Y-78074380D01*
X185788285Y-78074380D01*
X184883523Y-78074380D02*
X184693047Y-78074380D01*
X184597809Y-78026761D01*
X184550190Y-77979142D01*
X184454952Y-77836285D01*
X184407333Y-77645809D01*
X184407333Y-77264857D01*
X184454952Y-77169619D01*
X184502571Y-77122000D01*
X184597809Y-77074380D01*
X184788285Y-77074380D01*
X184883523Y-77122000D01*
X184931142Y-77169619D01*
X184978761Y-77264857D01*
X184978761Y-77502952D01*
X184931142Y-77598190D01*
X184883523Y-77645809D01*
X184788285Y-77693428D01*
X184597809Y-77693428D01*
X184502571Y-77645809D01*
X184454952Y-77598190D01*
X184407333Y-77502952D01*
X185607333Y-84274380D02*
X185607333Y-84988666D01*
X185654952Y-85131523D01*
X185750190Y-85226761D01*
X185893047Y-85274380D01*
X185988285Y-85274380D01*
X185226380Y-84274380D02*
X184559714Y-84274380D01*
X184988285Y-85274380D01*
X133019523Y-149377380D02*
X133019523Y-150091666D01*
X133067142Y-150234523D01*
X133162380Y-150329761D01*
X133305238Y-150377380D01*
X133400476Y-150377380D01*
X132019523Y-150377380D02*
X132590952Y-150377380D01*
X132305238Y-150377380D02*
X132305238Y-149377380D01*
X132400476Y-149520238D01*
X132495714Y-149615476D01*
X132590952Y-149663095D01*
X131114761Y-149377380D02*
X131590952Y-149377380D01*
X131638571Y-149853571D01*
X131590952Y-149805952D01*
X131495714Y-149758333D01*
X131257619Y-149758333D01*
X131162380Y-149805952D01*
X131114761Y-149853571D01*
X131067142Y-149948809D01*
X131067142Y-150186904D01*
X131114761Y-150282142D01*
X131162380Y-150329761D01*
X131257619Y-150377380D01*
X131495714Y-150377380D01*
X131590952Y-150329761D01*
X131638571Y-150282142D01*
X169199523Y-151977380D02*
X169199523Y-152691666D01*
X169247142Y-152834523D01*
X169342380Y-152929761D01*
X169485238Y-152977380D01*
X169580476Y-152977380D01*
X168199523Y-152977380D02*
X168770952Y-152977380D01*
X168485238Y-152977380D02*
X168485238Y-151977380D01*
X168580476Y-152120238D01*
X168675714Y-152215476D01*
X168770952Y-152263095D01*
X167342380Y-151977380D02*
X167532857Y-151977380D01*
X167628095Y-152025000D01*
X167675714Y-152072619D01*
X167770952Y-152215476D01*
X167818571Y-152405952D01*
X167818571Y-152786904D01*
X167770952Y-152882142D01*
X167723333Y-152929761D01*
X167628095Y-152977380D01*
X167437619Y-152977380D01*
X167342380Y-152929761D01*
X167294761Y-152882142D01*
X167247142Y-152786904D01*
X167247142Y-152548809D01*
X167294761Y-152453571D01*
X167342380Y-152405952D01*
X167437619Y-152358333D01*
X167628095Y-152358333D01*
X167723333Y-152405952D01*
X167770952Y-152453571D01*
X167818571Y-152548809D01*
X168679523Y-134847380D02*
X168679523Y-135561666D01*
X168727142Y-135704523D01*
X168822380Y-135799761D01*
X168965238Y-135847380D01*
X169060476Y-135847380D01*
X167679523Y-135847380D02*
X168250952Y-135847380D01*
X167965238Y-135847380D02*
X167965238Y-134847380D01*
X168060476Y-134990238D01*
X168155714Y-135085476D01*
X168250952Y-135133095D01*
X167060476Y-134847380D02*
X166965238Y-134847380D01*
X166870000Y-134895000D01*
X166822380Y-134942619D01*
X166774761Y-135037857D01*
X166727142Y-135228333D01*
X166727142Y-135466428D01*
X166774761Y-135656904D01*
X166822380Y-135752142D01*
X166870000Y-135799761D01*
X166965238Y-135847380D01*
X167060476Y-135847380D01*
X167155714Y-135799761D01*
X167203333Y-135752142D01*
X167250952Y-135656904D01*
X167298571Y-135466428D01*
X167298571Y-135228333D01*
X167250952Y-135037857D01*
X167203333Y-134942619D01*
X167155714Y-134895000D01*
X167060476Y-134847380D01*
X132553333Y-143427380D02*
X132553333Y-144141666D01*
X132600952Y-144284523D01*
X132696190Y-144379761D01*
X132839047Y-144427380D01*
X132934285Y-144427380D01*
X132029523Y-144427380D02*
X131839047Y-144427380D01*
X131743809Y-144379761D01*
X131696190Y-144332142D01*
X131600952Y-144189285D01*
X131553333Y-143998809D01*
X131553333Y-143617857D01*
X131600952Y-143522619D01*
X131648571Y-143475000D01*
X131743809Y-143427380D01*
X131934285Y-143427380D01*
X132029523Y-143475000D01*
X132077142Y-143522619D01*
X132124761Y-143617857D01*
X132124761Y-143855952D01*
X132077142Y-143951190D01*
X132029523Y-143998809D01*
X131934285Y-144046428D01*
X131743809Y-144046428D01*
X131648571Y-143998809D01*
X131600952Y-143951190D01*
X131553333Y-143855952D01*
D12*
X169390368Y-144331589D02*
X169247318Y-144379273D01*
X169008900Y-144379273D01*
X168913533Y-144331589D01*
X168865849Y-144283906D01*
X168818166Y-144188539D01*
X168818166Y-144093172D01*
X168865849Y-143997805D01*
X168913533Y-143950121D01*
X169008900Y-143902438D01*
X169199634Y-143854754D01*
X169295001Y-143807071D01*
X169342685Y-143759387D01*
X169390368Y-143664020D01*
X169390368Y-143568653D01*
X169342685Y-143473286D01*
X169295001Y-143425603D01*
X169199634Y-143377919D01*
X168961216Y-143377919D01*
X168818166Y-143425603D01*
X168484381Y-143377919D02*
X168245964Y-144379273D01*
X168055230Y-143664020D01*
X167864495Y-144379273D01*
X167626078Y-143377919D01*
X167339977Y-143377919D02*
X166720091Y-143377919D01*
X167053876Y-143759387D01*
X166910825Y-143759387D01*
X166815458Y-143807071D01*
X166767774Y-143854754D01*
X166720091Y-143950121D01*
X166720091Y-144188539D01*
X166767774Y-144283906D01*
X166815458Y-144331589D01*
X166910825Y-144379273D01*
X167196926Y-144379273D01*
X167292293Y-144331589D01*
X167339977Y-144283906D01*
X169430368Y-154801589D02*
X169287318Y-154849273D01*
X169048900Y-154849273D01*
X168953533Y-154801589D01*
X168905849Y-154753906D01*
X168858166Y-154658539D01*
X168858166Y-154563172D01*
X168905849Y-154467805D01*
X168953533Y-154420121D01*
X169048900Y-154372438D01*
X169239634Y-154324754D01*
X169335001Y-154277071D01*
X169382685Y-154229387D01*
X169430368Y-154134020D01*
X169430368Y-154038653D01*
X169382685Y-153943286D01*
X169335001Y-153895603D01*
X169239634Y-153847919D01*
X169001216Y-153847919D01*
X168858166Y-153895603D01*
X168524381Y-153847919D02*
X168285964Y-154849273D01*
X168095230Y-154134020D01*
X167904495Y-154849273D01*
X167666078Y-153847919D01*
X167332293Y-153943286D02*
X167284610Y-153895603D01*
X167189243Y-153847919D01*
X166950825Y-153847919D01*
X166855458Y-153895603D01*
X166807774Y-153943286D01*
X166760091Y-154038653D01*
X166760091Y-154134020D01*
X166807774Y-154277071D01*
X167379977Y-154849273D01*
X166760091Y-154849273D01*
X140359908Y-140409029D02*
X140216858Y-140456713D01*
X139978440Y-140456713D01*
X139883073Y-140409029D01*
X139835389Y-140361346D01*
X139787706Y-140265979D01*
X139787706Y-140170612D01*
X139835389Y-140075245D01*
X139883073Y-140027561D01*
X139978440Y-139979878D01*
X140169174Y-139932194D01*
X140264541Y-139884511D01*
X140312225Y-139836827D01*
X140359908Y-139741460D01*
X140359908Y-139646093D01*
X140312225Y-139550726D01*
X140264541Y-139503043D01*
X140169174Y-139455359D01*
X139930756Y-139455359D01*
X139787706Y-139503043D01*
X139453921Y-139455359D02*
X139215504Y-140456713D01*
X139024770Y-139741460D01*
X138834035Y-140456713D01*
X138595618Y-139455359D01*
X137689631Y-140456713D02*
X138261833Y-140456713D01*
X137975732Y-140456713D02*
X137975732Y-139455359D01*
X138071099Y-139598410D01*
X138166466Y-139693777D01*
X138261833Y-139741460D01*
D11*
X151132380Y-143996904D02*
X150132380Y-143996904D01*
X150132380Y-144235000D01*
X150180000Y-144377857D01*
X150275238Y-144473095D01*
X150370476Y-144520714D01*
X150560952Y-144568333D01*
X150703809Y-144568333D01*
X150894285Y-144520714D01*
X150989523Y-144473095D01*
X151084761Y-144377857D01*
X151132380Y-144235000D01*
X151132380Y-143996904D01*
X150465714Y-145425476D02*
X151132380Y-145425476D01*
X150084761Y-145187380D02*
X150799047Y-144949285D01*
X150799047Y-145568333D01*
X181888095Y-146827380D02*
X181888095Y-145827380D01*
X181650000Y-145827380D01*
X181507142Y-145875000D01*
X181411904Y-145970238D01*
X181364285Y-146065476D01*
X181316666Y-146255952D01*
X181316666Y-146398809D01*
X181364285Y-146589285D01*
X181411904Y-146684523D01*
X181507142Y-146779761D01*
X181650000Y-146827380D01*
X181888095Y-146827380D01*
X180935714Y-145922619D02*
X180888095Y-145875000D01*
X180792857Y-145827380D01*
X180554761Y-145827380D01*
X180459523Y-145875000D01*
X180411904Y-145922619D01*
X180364285Y-146017857D01*
X180364285Y-146113095D01*
X180411904Y-146255952D01*
X180983333Y-146827380D01*
X180364285Y-146827380D01*
X154390095Y-146745380D02*
X154390095Y-145745380D01*
X154152000Y-145745380D01*
X154009142Y-145793000D01*
X153913904Y-145888238D01*
X153866285Y-145983476D01*
X153818666Y-146173952D01*
X153818666Y-146316809D01*
X153866285Y-146507285D01*
X153913904Y-146602523D01*
X154009142Y-146697761D01*
X154152000Y-146745380D01*
X154390095Y-146745380D01*
X152866285Y-146745380D02*
X153437714Y-146745380D01*
X153152000Y-146745380D02*
X153152000Y-145745380D01*
X153247238Y-145888238D01*
X153342476Y-145983476D01*
X153437714Y-146031095D01*
X185282333Y-119949380D02*
X185282333Y-120663666D01*
X185329952Y-120806523D01*
X185425190Y-120901761D01*
X185568047Y-120949380D01*
X185663285Y-120949380D01*
X184758523Y-120949380D02*
X184568047Y-120949380D01*
X184472809Y-120901761D01*
X184425190Y-120854142D01*
X184329952Y-120711285D01*
X184282333Y-120520809D01*
X184282333Y-120139857D01*
X184329952Y-120044619D01*
X184377571Y-119997000D01*
X184472809Y-119949380D01*
X184663285Y-119949380D01*
X184758523Y-119997000D01*
X184806142Y-120044619D01*
X184853761Y-120139857D01*
X184853761Y-120377952D01*
X184806142Y-120473190D01*
X184758523Y-120520809D01*
X184663285Y-120568428D01*
X184472809Y-120568428D01*
X184377571Y-120520809D01*
X184329952Y-120473190D01*
X184282333Y-120377952D01*
X185282333Y-116349380D02*
X185282333Y-117063666D01*
X185329952Y-117206523D01*
X185425190Y-117301761D01*
X185568047Y-117349380D01*
X185663285Y-117349380D01*
X184663285Y-116777952D02*
X184758523Y-116730333D01*
X184806142Y-116682714D01*
X184853761Y-116587476D01*
X184853761Y-116539857D01*
X184806142Y-116444619D01*
X184758523Y-116397000D01*
X184663285Y-116349380D01*
X184472809Y-116349380D01*
X184377571Y-116397000D01*
X184329952Y-116444619D01*
X184282333Y-116539857D01*
X184282333Y-116587476D01*
X184329952Y-116682714D01*
X184377571Y-116730333D01*
X184472809Y-116777952D01*
X184663285Y-116777952D01*
X184758523Y-116825571D01*
X184806142Y-116873190D01*
X184853761Y-116968428D01*
X184853761Y-117158904D01*
X184806142Y-117254142D01*
X184758523Y-117301761D01*
X184663285Y-117349380D01*
X184472809Y-117349380D01*
X184377571Y-117301761D01*
X184329952Y-117254142D01*
X184282333Y-117158904D01*
X184282333Y-116968428D01*
X184329952Y-116873190D01*
X184377571Y-116825571D01*
X184472809Y-116777952D01*
X185482333Y-127149380D02*
X185482333Y-127863666D01*
X185529952Y-128006523D01*
X185625190Y-128101761D01*
X185768047Y-128149380D01*
X185863285Y-128149380D01*
X185101380Y-127149380D02*
X184434714Y-127149380D01*
X184863285Y-128149380D01*
X180082333Y-127149380D02*
X180082333Y-127863666D01*
X180129952Y-128006523D01*
X180225190Y-128101761D01*
X180368047Y-128149380D01*
X180463285Y-128149380D01*
X179177571Y-127149380D02*
X179368047Y-127149380D01*
X179463285Y-127197000D01*
X179510904Y-127244619D01*
X179606142Y-127387476D01*
X179653761Y-127577952D01*
X179653761Y-127958904D01*
X179606142Y-128054142D01*
X179558523Y-128101761D01*
X179463285Y-128149380D01*
X179272809Y-128149380D01*
X179177571Y-128101761D01*
X179129952Y-128054142D01*
X179082333Y-127958904D01*
X179082333Y-127720809D01*
X179129952Y-127625571D01*
X179177571Y-127577952D01*
X179272809Y-127530333D01*
X179463285Y-127530333D01*
X179558523Y-127577952D01*
X179606142Y-127625571D01*
X179653761Y-127720809D01*
M02*
