G04 #@! TF.GenerationSoftware,KiCad,Pcbnew,(5.1.4)-1*
G04 #@! TF.CreationDate,2020-04-09T13:39:23+02:00*
G04 #@! TF.ProjectId,output.sky_panel_03_kits,6f757470-7574-42e7-936b-795f70616e65,rev?*
G04 #@! TF.SameCoordinates,Original*
G04 #@! TF.FileFunction,Profile,NP*
%FSLAX46Y46*%
G04 Gerber Fmt 4.6, Leading zero omitted, Abs format (unit mm)*
G04 Created by KiCad (PCBNEW (5.1.4)-1) date 2020-04-09 13:39:23*
%MOMM*%
%LPD*%
G04 APERTURE LIST*
%ADD10C,0.200000*%
%ADD11C,0.050000*%
%ADD12C,0.100000*%
G04 APERTURE END LIST*
D10*
X195564990Y-89950000D02*
X211885004Y-89943988D01*
D11*
X234341000Y-72425000D02*
X215291000Y-72425000D01*
X234341000Y-130475000D02*
X234341000Y-72425000D01*
X215291000Y-130475000D02*
X234341000Y-130475000D01*
D10*
X210338988Y-99599996D02*
X195494990Y-99599996D01*
X195449000Y-130499990D02*
X210345000Y-130510000D01*
X211885004Y-72565998D02*
X195575000Y-72550000D01*
D11*
X189475000Y-111166000D02*
X189475000Y-92116000D01*
D10*
X162300004Y-72319990D02*
X131400010Y-72274000D01*
X131400010Y-72274000D02*
X131390000Y-87170000D01*
D11*
X131425000Y-92116000D02*
X131425000Y-111166000D01*
D10*
X189350000Y-72400000D02*
X171950000Y-72389990D01*
D11*
X189350000Y-154041000D02*
X189350000Y-134991000D01*
X131300000Y-154041000D02*
X189350000Y-154041000D01*
X131300000Y-134991000D02*
X131300000Y-154041000D01*
D10*
X131275010Y-115149000D02*
X131265000Y-130045000D01*
D12*
X178693372Y-88710004D02*
X171956012Y-88710004D01*
X183693378Y-88710004D02*
X189334002Y-88710004D01*
X183600857Y-92116000D02*
X189475000Y-92116000D01*
X178693372Y-88710004D02*
X178793076Y-88717691D01*
X178793076Y-88717691D02*
X178891894Y-88733019D01*
X178891894Y-88733019D02*
X178989241Y-88755897D01*
X178600799Y-92116000D02*
X178700503Y-92108313D01*
X178989241Y-88755897D02*
X179084541Y-88786190D01*
X178700503Y-92108313D02*
X178799321Y-92092985D01*
X179084541Y-88786190D02*
X179177231Y-88823719D01*
X178799321Y-92092985D02*
X178896668Y-92070107D01*
X179177231Y-88823719D02*
X179266762Y-88868262D01*
X178896668Y-92070107D02*
X178991968Y-92039814D01*
X179266762Y-88868262D02*
X179352604Y-88919555D01*
X178991968Y-92039814D02*
X179084658Y-92002285D01*
X179352604Y-88919555D02*
X179434249Y-88977295D01*
X179084658Y-92002285D02*
X179174189Y-91957742D01*
X179434249Y-88977295D02*
X179511214Y-89041140D01*
X179174189Y-91957742D02*
X179260031Y-91906449D01*
X179511214Y-89041140D02*
X179583044Y-89110712D01*
X179260031Y-91906449D02*
X179341676Y-91848709D01*
X179583044Y-89110712D02*
X179649314Y-89185599D01*
X179341676Y-91848709D02*
X179418641Y-91784864D01*
X179649314Y-89185599D02*
X179709632Y-89265358D01*
X179418641Y-91784864D02*
X179490471Y-91715292D01*
X179709632Y-89265358D02*
X179763641Y-89349517D01*
X179490471Y-91715292D02*
X179556741Y-91640405D01*
X179763641Y-89349517D02*
X179811021Y-89437578D01*
X179556741Y-91640405D02*
X179617059Y-91560646D01*
X179811021Y-89437578D02*
X179851492Y-89529020D01*
X179617059Y-91560646D02*
X179671068Y-91476487D01*
X179851492Y-89529020D02*
X179884814Y-89623302D01*
X179671068Y-91476487D02*
X179718448Y-91388426D01*
X179884814Y-89623302D02*
X179910790Y-89719866D01*
X179718448Y-91388426D02*
X179758919Y-91296984D01*
X179910790Y-89719866D02*
X179929267Y-89818141D01*
X179758919Y-91296984D02*
X179792241Y-91202702D01*
X179929267Y-89818141D02*
X179940135Y-89917546D01*
X179792241Y-91202702D02*
X179818217Y-91106138D01*
X179940135Y-89917546D02*
X179943330Y-90017492D01*
X179818217Y-91106138D02*
X179836694Y-91007863D01*
X179943330Y-90017492D02*
X179938833Y-90117388D01*
X179938833Y-90117388D02*
X179836694Y-91007863D01*
X183600857Y-92116000D02*
X183501153Y-92108313D01*
X183501153Y-92108313D02*
X183402335Y-92092985D01*
X183402335Y-92092985D02*
X183304988Y-92070107D01*
X183693378Y-88710004D02*
X183593674Y-88717691D01*
X183304988Y-92070107D02*
X183209688Y-92039814D01*
X183593674Y-88717691D02*
X183494856Y-88733019D01*
X183209688Y-92039814D02*
X183116998Y-92002285D01*
X183494856Y-88733019D02*
X183397509Y-88755897D01*
X183116998Y-92002285D02*
X183027467Y-91957742D01*
X183397509Y-88755897D02*
X183302209Y-88786190D01*
X183027467Y-91957742D02*
X182941625Y-91906449D01*
X183302209Y-88786190D02*
X183209519Y-88823719D01*
X182941625Y-91906449D02*
X182859980Y-91848709D01*
X183209519Y-88823719D02*
X183119988Y-88868262D01*
X182859980Y-91848709D02*
X182783015Y-91784864D01*
X183119988Y-88868262D02*
X183034146Y-88919555D01*
X182783015Y-91784864D02*
X182711185Y-91715292D01*
X183034146Y-88919555D02*
X182952501Y-88977295D01*
X182711185Y-91715292D02*
X182644915Y-91640405D01*
X182952501Y-88977295D02*
X182875536Y-89041140D01*
X182644915Y-91640405D02*
X182584597Y-91560646D01*
X182875536Y-89041140D02*
X182803706Y-89110712D01*
X182584597Y-91560646D02*
X182530588Y-91476487D01*
X182803706Y-89110712D02*
X182737436Y-89185599D01*
X182530588Y-91476487D02*
X182483208Y-91388426D01*
X182737436Y-89185599D02*
X182677118Y-89265358D01*
X182483208Y-91388426D02*
X182442737Y-91296984D01*
X182677118Y-89265358D02*
X182623109Y-89349517D01*
X182442737Y-91296984D02*
X182409415Y-91202702D01*
X182623109Y-89349517D02*
X182575729Y-89437578D01*
X182409415Y-91202702D02*
X182383439Y-91106138D01*
X182575729Y-89437578D02*
X182535258Y-89529020D01*
X182383439Y-91106138D02*
X182364962Y-91007863D01*
X182535258Y-89529020D02*
X182501936Y-89623302D01*
X182364962Y-91007863D02*
X182354094Y-90908458D01*
X182501936Y-89623302D02*
X182475960Y-89719866D01*
X182354094Y-90908458D02*
X182350899Y-90808512D01*
X182475960Y-89719866D02*
X182457483Y-89818141D01*
X182350899Y-90808512D02*
X182355396Y-90708616D01*
X182457483Y-89818141D02*
X182355396Y-90708616D01*
X145875002Y-111166000D02*
X131425000Y-111166000D01*
X150875008Y-115178171D02*
X162175004Y-115194990D01*
X145874982Y-115170731D02*
X131275010Y-115149000D01*
X145874982Y-115170731D02*
X145974698Y-115163193D01*
X145875002Y-111166000D02*
X145974706Y-111173687D01*
X145974698Y-115163193D02*
X146073540Y-115148013D01*
X145974706Y-111173687D02*
X146073524Y-111189015D01*
X146073540Y-115148013D02*
X146170923Y-115125280D01*
X146073524Y-111189015D02*
X146170871Y-111211893D01*
X146170923Y-115125280D02*
X146266270Y-115095129D01*
X146170871Y-111211893D02*
X146266171Y-111242186D01*
X146266270Y-115095129D02*
X146359017Y-115057738D01*
X146266171Y-111242186D02*
X146358861Y-111279715D01*
X146359017Y-115057738D02*
X146448615Y-115013329D01*
X146358861Y-111279715D02*
X146448392Y-111324258D01*
X146448615Y-115013329D02*
X146534534Y-114962164D01*
X146448392Y-111324258D02*
X146534234Y-111375551D01*
X146534534Y-114962164D02*
X146616266Y-114904546D01*
X146534234Y-111375551D02*
X146615879Y-111433291D01*
X146616266Y-114904546D02*
X146693327Y-114840816D01*
X146615879Y-111433291D02*
X146692844Y-111497136D01*
X146693327Y-114840816D02*
X146765261Y-114771351D01*
X146692844Y-111497136D02*
X146764674Y-111566708D01*
X146765261Y-114771351D02*
X146831643Y-114696562D01*
X146764674Y-111566708D02*
X146830944Y-111641595D01*
X146831643Y-114696562D02*
X146892080Y-114616892D01*
X146830944Y-111641595D02*
X146891262Y-111721354D01*
X146892080Y-114616892D02*
X146946214Y-114532812D01*
X146891262Y-111721354D02*
X146945271Y-111805513D01*
X146946214Y-114532812D02*
X146993725Y-114444820D01*
X146945271Y-111805513D02*
X146992651Y-111893574D01*
X146993725Y-114444820D02*
X147034332Y-114353436D01*
X146992651Y-111893574D02*
X147033122Y-111985016D01*
X147034332Y-114353436D02*
X147067795Y-114259201D01*
X147033122Y-111985016D02*
X147066444Y-112079298D01*
X147067795Y-114259201D02*
X147093916Y-114162673D01*
X147066444Y-112079298D02*
X147092420Y-112175862D01*
X147093916Y-114162673D02*
X147112540Y-114064423D01*
X147092420Y-112175862D02*
X147110897Y-112274137D01*
X147112540Y-114064423D02*
X147123557Y-113965032D01*
X147110897Y-112274137D02*
X147121765Y-112373542D01*
X147123557Y-113965032D02*
X147126902Y-113865088D01*
X147121765Y-112373542D02*
X147124960Y-112473488D01*
X147124960Y-112473488D02*
X147126902Y-113865088D01*
X150875010Y-111166000D02*
X150775306Y-111173687D01*
X150875008Y-115178171D02*
X150775315Y-115170336D01*
X150775306Y-111173687D02*
X150676488Y-111189015D01*
X150775315Y-115170336D02*
X150676519Y-115154861D01*
X150676488Y-111189015D02*
X150579141Y-111211893D01*
X150676519Y-115154861D02*
X150579205Y-115131838D01*
X150579141Y-111211893D02*
X150483841Y-111242186D01*
X150579205Y-115131838D02*
X150483949Y-115101403D01*
X150483841Y-111242186D02*
X150391151Y-111279715D01*
X150483949Y-115101403D02*
X150391314Y-115063736D01*
X150391151Y-111279715D02*
X150301620Y-111324258D01*
X150391314Y-115063736D02*
X150301848Y-115019060D01*
X150301620Y-111324258D02*
X150215778Y-111375551D01*
X150301848Y-115019060D02*
X150216081Y-114967639D01*
X150215778Y-111375551D02*
X150134133Y-111433291D01*
X150216081Y-114967639D02*
X150134520Y-114909778D01*
X150134133Y-111433291D02*
X150057168Y-111497136D01*
X150134520Y-114909778D02*
X150057648Y-114845819D01*
X150057168Y-111497136D02*
X149985338Y-111566708D01*
X150057648Y-114845819D02*
X149985920Y-114776140D01*
X149985338Y-111566708D02*
X149919068Y-111641595D01*
X149985920Y-114776140D02*
X149919760Y-114701154D01*
X149919068Y-111641595D02*
X149858750Y-111721354D01*
X149919760Y-114701154D02*
X149859560Y-114621304D01*
X149858750Y-111721354D02*
X149804741Y-111805513D01*
X149859560Y-114621304D02*
X149805676Y-114537063D01*
X149804741Y-111805513D02*
X149757361Y-111893574D01*
X149805676Y-114537063D02*
X149758427Y-114448929D01*
X149757361Y-111893574D02*
X149716890Y-111985016D01*
X149758427Y-114448929D02*
X149718092Y-114357424D01*
X149716890Y-111985016D02*
X149683568Y-112079298D01*
X149718092Y-114357424D02*
X149684910Y-114263089D01*
X149683568Y-112079298D02*
X149657592Y-112175862D01*
X149684910Y-114263089D02*
X149659077Y-114166483D01*
X149657592Y-112175862D02*
X149639115Y-112274137D01*
X149659077Y-114166483D02*
X149640746Y-114068177D01*
X149639115Y-112274137D02*
X149628247Y-112373542D01*
X149640746Y-114068177D02*
X149630026Y-113968753D01*
X149628247Y-112373542D02*
X149625052Y-112473488D01*
X149630026Y-113968753D02*
X149626980Y-113868799D01*
X149625052Y-112473488D02*
X149626980Y-113868799D01*
X145668351Y-87167222D02*
X131390000Y-87170000D01*
X150668364Y-87166249D02*
X162300004Y-87163988D01*
X150489510Y-92116000D02*
X178600799Y-92116000D01*
X145489487Y-92116000D02*
X131425000Y-92116000D01*
X145668351Y-87167222D02*
X145768057Y-87174889D01*
X145768057Y-87174889D02*
X145866879Y-87190197D01*
X145489487Y-92116000D02*
X145589191Y-92108313D01*
X145866879Y-87190197D02*
X145964232Y-87213056D01*
X145589191Y-92108313D02*
X145688009Y-92092985D01*
X145964232Y-87213056D02*
X146059540Y-87243331D01*
X145688009Y-92092985D02*
X145785356Y-92070107D01*
X146059540Y-87243331D02*
X146152239Y-87280842D01*
X145785356Y-92070107D02*
X145880656Y-92039814D01*
X146152239Y-87280842D02*
X146241780Y-87325367D01*
X145880656Y-92039814D02*
X145973346Y-92002285D01*
X146241780Y-87325367D02*
X146327634Y-87376643D01*
X145973346Y-92002285D02*
X146062877Y-91957742D01*
X146327634Y-87376643D02*
X146409293Y-87434367D01*
X146062877Y-91957742D02*
X146148719Y-91906449D01*
X146409293Y-87434367D02*
X146486273Y-87498197D01*
X146148719Y-91906449D02*
X146230364Y-91848709D01*
X146486273Y-87498197D02*
X146558119Y-87567755D01*
X146230364Y-91848709D02*
X146307329Y-91784864D01*
X146558119Y-87567755D02*
X146624406Y-87642630D01*
X146307329Y-91784864D02*
X146379159Y-91715292D01*
X146624406Y-87642630D02*
X146684742Y-87722379D01*
X146379159Y-91715292D02*
X146445429Y-91640405D01*
X146684742Y-87722379D02*
X146738769Y-87806530D01*
X146445429Y-91640405D02*
X146505747Y-91560646D01*
X146738769Y-87806530D02*
X146786168Y-87894585D01*
X146505747Y-91560646D02*
X146559756Y-91476487D01*
X146786168Y-87894585D02*
X146826658Y-87986023D01*
X146559756Y-91476487D02*
X146607136Y-91388426D01*
X146826658Y-87986023D02*
X146860000Y-88080303D01*
X146607136Y-91388426D02*
X146647607Y-91296984D01*
X146860000Y-88080303D02*
X146885996Y-88176867D01*
X146647607Y-91296984D02*
X146680929Y-91202702D01*
X146885996Y-88176867D02*
X146904493Y-88275144D01*
X146680929Y-91202702D02*
X146706905Y-91106138D01*
X146904493Y-88275144D02*
X146915381Y-88374552D01*
X146706905Y-91106138D02*
X146725382Y-91007863D01*
X146915381Y-88374552D02*
X146918596Y-88474503D01*
X146725382Y-91007863D02*
X146736250Y-90908458D01*
X146918596Y-88474503D02*
X146914119Y-88574405D01*
X146914119Y-88574405D02*
X146736250Y-90908458D01*
X150489510Y-92116000D02*
X150389806Y-92108313D01*
X150389806Y-92108313D02*
X150290988Y-92092985D01*
X150668364Y-87166249D02*
X150568661Y-87173956D01*
X150290988Y-92092985D02*
X150193641Y-92070107D01*
X150568661Y-87173956D02*
X150469845Y-87189304D01*
X150193641Y-92070107D02*
X150098341Y-92039814D01*
X150469845Y-87189304D02*
X150372501Y-87212202D01*
X150098341Y-92039814D02*
X150005651Y-92002285D01*
X150372501Y-87212202D02*
X150277205Y-87242515D01*
X150005651Y-92002285D02*
X149916120Y-91957742D01*
X150277205Y-87242515D02*
X150184521Y-87280063D01*
X149916120Y-91957742D02*
X149830278Y-91906449D01*
X150184521Y-87280063D02*
X150094997Y-87324624D01*
X149830278Y-91906449D02*
X149748633Y-91848709D01*
X150094997Y-87324624D02*
X150009163Y-87375935D01*
X149748633Y-91848709D02*
X149671668Y-91784864D01*
X150009163Y-87375935D02*
X149927527Y-87433692D01*
X149671668Y-91784864D02*
X149599838Y-91715292D01*
X149927527Y-87433692D02*
X149850572Y-87497553D01*
X149599838Y-91715292D02*
X149533568Y-91640405D01*
X149850572Y-87497553D02*
X149778753Y-87567140D01*
X149533568Y-91640405D02*
X149473250Y-91560646D01*
X149778753Y-87567140D02*
X149712495Y-87642042D01*
X149473250Y-91560646D02*
X149419241Y-91476487D01*
X149712495Y-87642042D02*
X149652190Y-87721815D01*
X149419241Y-91476487D02*
X149371861Y-91388426D01*
X149652190Y-87721815D02*
X149598195Y-87805987D01*
X149371861Y-91388426D02*
X149331390Y-91296984D01*
X149598195Y-87805987D02*
X149550830Y-87894060D01*
X149331390Y-91296984D02*
X149298068Y-91202702D01*
X149550830Y-87894060D02*
X149510375Y-87985513D01*
X149298068Y-91202702D02*
X149272092Y-91106138D01*
X149510375Y-87985513D02*
X149477069Y-88079805D01*
X149272092Y-91106138D02*
X149253615Y-91007863D01*
X149477069Y-88079805D02*
X149451109Y-88176378D01*
X149253615Y-91007863D02*
X149242747Y-90908458D01*
X149451109Y-88176378D02*
X149432649Y-88274661D01*
X149242747Y-90908458D02*
X149239552Y-90808512D01*
X149432649Y-88274661D02*
X149421798Y-88374072D01*
X149239552Y-90808512D02*
X149244049Y-90708616D01*
X149421798Y-88374072D02*
X149244049Y-90708616D01*
X171951889Y-77514490D02*
X171950000Y-72389990D01*
X171953729Y-82514493D02*
X171956012Y-88710004D01*
X162300004Y-82369988D02*
X162300004Y-87163988D01*
X162300004Y-77369992D02*
X162300004Y-72319990D01*
X171951889Y-77514490D02*
X171944239Y-77614197D01*
X162300004Y-77369992D02*
X162307691Y-77469696D01*
X171944239Y-77614197D02*
X171928948Y-77713021D01*
X162307691Y-77469696D02*
X162323019Y-77568514D01*
X171928948Y-77713021D02*
X171906106Y-77810377D01*
X162323019Y-77568514D02*
X162345897Y-77665861D01*
X171906106Y-77810377D02*
X171875848Y-77905689D01*
X162345897Y-77665861D02*
X162376190Y-77761161D01*
X171875848Y-77905689D02*
X171838353Y-77998393D01*
X162376190Y-77761161D02*
X162413719Y-77853851D01*
X171838353Y-77998393D02*
X171793843Y-78087941D01*
X162413719Y-77853851D02*
X162458262Y-77943382D01*
X171793843Y-78087941D02*
X171742581Y-78173803D01*
X162458262Y-77943382D02*
X162509555Y-78029224D01*
X171742581Y-78173803D02*
X171684871Y-78255471D01*
X162509555Y-78029224D02*
X162567295Y-78110869D01*
X171684871Y-78255471D02*
X171621054Y-78332461D01*
X162567295Y-78110869D02*
X162631140Y-78187834D01*
X171621054Y-78332461D02*
X171551508Y-78404318D01*
X162631140Y-78187834D02*
X162700712Y-78259664D01*
X171551508Y-78404318D02*
X171476644Y-78470617D01*
X162700712Y-78259664D02*
X162775599Y-78325934D01*
X171476644Y-78470617D02*
X171396905Y-78530965D01*
X162775599Y-78325934D02*
X162855358Y-78386252D01*
X171396905Y-78530965D02*
X171312763Y-78585005D01*
X162855358Y-78386252D02*
X162939517Y-78440261D01*
X171312763Y-78585005D02*
X171224716Y-78632417D01*
X162939517Y-78440261D02*
X163027578Y-78487641D01*
X171224716Y-78632417D02*
X171133285Y-78672921D01*
X163027578Y-78487641D02*
X163119020Y-78528112D01*
X171133285Y-78672921D02*
X171039011Y-78706277D01*
X163119020Y-78528112D02*
X163213302Y-78561434D01*
X171039011Y-78706277D02*
X170942452Y-78732288D01*
X163213302Y-78561434D02*
X163309866Y-78587410D01*
X170942452Y-78732288D02*
X170844179Y-78750800D01*
X163309866Y-78587410D02*
X163408141Y-78605887D01*
X170844179Y-78750800D02*
X170744774Y-78761703D01*
X163408141Y-78605887D02*
X163507546Y-78616755D01*
X170744774Y-78761703D02*
X170644825Y-78764933D01*
X163507546Y-78616755D02*
X163607492Y-78619950D01*
X170644825Y-78764933D02*
X163607492Y-78619950D01*
X162300004Y-82369988D02*
X162307691Y-82270284D01*
X171953729Y-82514493D02*
X171946005Y-82414792D01*
X162307691Y-82270284D02*
X162323019Y-82171466D01*
X171946005Y-82414792D02*
X171930640Y-82315980D01*
X162323019Y-82171466D02*
X162345897Y-82074119D01*
X171930640Y-82315980D02*
X171907725Y-82218641D01*
X162345897Y-82074119D02*
X162376190Y-81978819D01*
X171907725Y-82218641D02*
X171877396Y-82123351D01*
X162376190Y-81978819D02*
X162413719Y-81886129D01*
X171877396Y-82123351D02*
X171839832Y-82030674D01*
X162413719Y-81886129D02*
X162458262Y-81796598D01*
X171839832Y-82030674D02*
X171795255Y-81941159D01*
X162458262Y-81796598D02*
X162509555Y-81710756D01*
X171795255Y-81941159D02*
X171743929Y-81855335D01*
X162509555Y-81710756D02*
X162567295Y-81629111D01*
X171743929Y-81855335D02*
X171686158Y-81773710D01*
X162567295Y-81629111D02*
X162631140Y-81552146D01*
X171686158Y-81773710D02*
X171622284Y-81696767D01*
X162631140Y-81552146D02*
X162700712Y-81480316D01*
X171622284Y-81696767D02*
X171552685Y-81624961D01*
X162700712Y-81480316D02*
X162775599Y-81414046D01*
X171552685Y-81624961D02*
X171477772Y-81558717D01*
X162775599Y-81414046D02*
X162855358Y-81353728D01*
X171477772Y-81558717D02*
X171397989Y-81498427D01*
X162855358Y-81353728D02*
X162939517Y-81299719D01*
X171397989Y-81498427D02*
X171313808Y-81444448D01*
X162939517Y-81299719D02*
X163027578Y-81252339D01*
X171313808Y-81444448D02*
X171225727Y-81397099D01*
X163027578Y-81252339D02*
X163119020Y-81211868D01*
X171225727Y-81397099D02*
X171134267Y-81356661D01*
X163119020Y-81211868D02*
X163213302Y-81178546D01*
X171134267Y-81356661D02*
X171039969Y-81323373D01*
X163213302Y-81178546D02*
X163309866Y-81152570D01*
X171039969Y-81323373D02*
X170943391Y-81297432D01*
X163309866Y-81152570D02*
X163408141Y-81134093D01*
X170943391Y-81297432D02*
X170845105Y-81278991D01*
X163408141Y-81134093D02*
X163507546Y-81123225D01*
X170845105Y-81278991D02*
X170745692Y-81268159D01*
X163507546Y-81123225D02*
X163607492Y-81120030D01*
X170745692Y-81268159D02*
X170645741Y-81265001D01*
X170645741Y-81265001D02*
X163607492Y-81120030D01*
X195571918Y-77907128D02*
X195575000Y-72550000D01*
X195569042Y-82907124D02*
X195564990Y-89950000D01*
X189339733Y-82866364D02*
X189334002Y-88710004D01*
X189344639Y-77866353D02*
X189350000Y-72400000D01*
X195571918Y-77907128D02*
X195564174Y-78006828D01*
X189344639Y-77866353D02*
X189352228Y-77966065D01*
X195564174Y-78006828D02*
X195548789Y-78105638D01*
X189352228Y-77966065D02*
X189367459Y-78064899D01*
X195548789Y-78105638D02*
X195525854Y-78202973D01*
X189367459Y-78064899D02*
X189390242Y-78162270D01*
X195525854Y-78202973D02*
X195495505Y-78298257D01*
X189390242Y-78162270D02*
X189420442Y-78257602D01*
X195495505Y-78298257D02*
X195457922Y-78390926D01*
X189420442Y-78257602D02*
X189457880Y-78350331D01*
X195457922Y-78390926D02*
X195413327Y-78480432D01*
X189457880Y-78350331D02*
X189502335Y-78439908D01*
X195413327Y-78480432D02*
X195361984Y-78566245D01*
X189502335Y-78439908D02*
X189553544Y-78525803D01*
X195361984Y-78566245D02*
X195304197Y-78647858D01*
X189553544Y-78525803D02*
X189611204Y-78607508D01*
X195304197Y-78647858D02*
X195240308Y-78724788D01*
X189611204Y-78607508D02*
X189674974Y-78684539D01*
X195240308Y-78724788D02*
X195170695Y-78796579D01*
X189674974Y-78684539D02*
X189744476Y-78756440D01*
X195170695Y-78796579D02*
X195095770Y-78862807D01*
X189744476Y-78756440D02*
X189819299Y-78822786D01*
X195095770Y-78862807D02*
X195015976Y-78923080D01*
X189819299Y-78822786D02*
X189899000Y-78883184D01*
X195015976Y-78923080D02*
X194931785Y-78977041D01*
X189899000Y-78883184D02*
X189983108Y-78937277D01*
X194931785Y-78977041D02*
X194843695Y-79024371D01*
X189983108Y-78937277D02*
X190071125Y-78984745D01*
X194843695Y-79024371D02*
X194752228Y-79064790D01*
X190071125Y-78984745D02*
X190162530Y-79025307D01*
X194752228Y-79064790D02*
X194657925Y-79098059D01*
X190162530Y-79025307D02*
X190256782Y-79058723D01*
X194657925Y-79098059D02*
X194561344Y-79123981D01*
X190256782Y-79058723D02*
X190353324Y-79084795D01*
X194561344Y-79123981D02*
X194463056Y-79142402D01*
X190353324Y-79084795D02*
X190451584Y-79103369D01*
X194463056Y-79142402D02*
X194363643Y-79153213D01*
X190451584Y-79103369D02*
X190550981Y-79114335D01*
X194363643Y-79153213D02*
X194263693Y-79156351D01*
X190550981Y-79114335D02*
X190650927Y-79117628D01*
X194263693Y-79156351D02*
X190650927Y-79117628D01*
X189339733Y-82866364D02*
X189347517Y-82766667D01*
X195569042Y-82907124D02*
X195561413Y-82807415D01*
X189347517Y-82766667D02*
X189362941Y-82667863D01*
X195561413Y-82807415D02*
X195546142Y-82708587D01*
X189362941Y-82667863D02*
X189385914Y-82570537D01*
X195546142Y-82708587D02*
X195523320Y-82611225D01*
X189385914Y-82570537D02*
X189416300Y-82475265D01*
X195523320Y-82611225D02*
X195493082Y-82515905D01*
X189416300Y-82475265D02*
X189453919Y-82382611D01*
X195493082Y-82515905D02*
X195455607Y-82423191D01*
X189453919Y-82382611D02*
X189498549Y-82293123D01*
X195455607Y-82423191D02*
X195411116Y-82333632D01*
X189498549Y-82293123D02*
X189549926Y-82207330D01*
X195411116Y-82333632D02*
X195359873Y-82247758D01*
X189549926Y-82207330D02*
X189607746Y-82125740D01*
X195359873Y-82247758D02*
X195302181Y-82166077D01*
X189607746Y-82125740D02*
X189671666Y-82048836D01*
X195302181Y-82166077D02*
X195238381Y-82089072D01*
X189671666Y-82048836D02*
X189741308Y-81977073D01*
X195238381Y-82089072D02*
X195168851Y-82017199D01*
X189741308Y-81977073D02*
X189816260Y-81910875D01*
X195168851Y-82017199D02*
X195094002Y-81950883D01*
X189816260Y-81910875D02*
X189896079Y-81850634D01*
X195094002Y-81950883D02*
X195014277Y-81890517D01*
X189896079Y-81850634D02*
X189980292Y-81796707D01*
X195014277Y-81890517D02*
X194930148Y-81836458D01*
X189980292Y-81796707D02*
X190068401Y-81749413D01*
X194930148Y-81836458D02*
X194842113Y-81789026D01*
X190068401Y-81749413D02*
X190159885Y-81709032D01*
X194842113Y-81789026D02*
X194750693Y-81748501D01*
X190159885Y-81709032D02*
X190254202Y-81675802D01*
X194750693Y-81748501D02*
X194656428Y-81715123D01*
X190254202Y-81675802D02*
X190350794Y-81649920D01*
X194656428Y-81715123D02*
X194559876Y-81689090D01*
X190350794Y-81649920D02*
X190449090Y-81631539D01*
X194559876Y-81689090D02*
X194461609Y-81670556D01*
X190449090Y-81631539D02*
X190548508Y-81620768D01*
X194461609Y-81670556D02*
X194362208Y-81659630D01*
X190548508Y-81620768D02*
X190648460Y-81617671D01*
X194362208Y-81659630D02*
X194262261Y-81656377D01*
X194262261Y-81656377D02*
X190648460Y-81617671D01*
X211885004Y-83933349D02*
X211885004Y-89943988D01*
X211885004Y-78933354D02*
X211885004Y-72565998D01*
X215291000Y-79149691D02*
X215291000Y-72425000D01*
X211885004Y-83933349D02*
X211892691Y-83833645D01*
X211892691Y-83833645D02*
X211908019Y-83734827D01*
X211908019Y-83734827D02*
X211930897Y-83637480D01*
X211930897Y-83637480D02*
X211961190Y-83542180D01*
X211961190Y-83542180D02*
X211998719Y-83449490D01*
X211998719Y-83449490D02*
X212043262Y-83359959D01*
X212043262Y-83359959D02*
X212094555Y-83274117D01*
X215291000Y-84149679D02*
X215283313Y-84049975D01*
X212094555Y-83274117D02*
X212152295Y-83192472D01*
X215283313Y-84049975D02*
X215267985Y-83951157D01*
X212152295Y-83192472D02*
X212216140Y-83115507D01*
X215267985Y-83951157D02*
X215245107Y-83853810D01*
X212216140Y-83115507D02*
X212285712Y-83043677D01*
X215245107Y-83853810D02*
X215214814Y-83758510D01*
X212285712Y-83043677D02*
X212360599Y-82977407D01*
X215214814Y-83758510D02*
X215177285Y-83665820D01*
X212360599Y-82977407D02*
X212440358Y-82917089D01*
X215177285Y-83665820D02*
X215132742Y-83576289D01*
X212440358Y-82917089D02*
X212524517Y-82863080D01*
X215132742Y-83576289D02*
X215081449Y-83490447D01*
X212524517Y-82863080D02*
X212612578Y-82815700D01*
X215081449Y-83490447D02*
X215023709Y-83408802D01*
X212612578Y-82815700D02*
X212704020Y-82775229D01*
X215023709Y-83408802D02*
X214959864Y-83331837D01*
X212704020Y-82775229D02*
X212798302Y-82741907D01*
X214959864Y-83331837D02*
X214890292Y-83260007D01*
X212798302Y-82741907D02*
X212894866Y-82715931D01*
X214890292Y-83260007D02*
X214815405Y-83193737D01*
X212894866Y-82715931D02*
X212993141Y-82697454D01*
X214815405Y-83193737D02*
X214735646Y-83133419D01*
X212993141Y-82697454D02*
X213092546Y-82686586D01*
X214735646Y-83133419D02*
X214651487Y-83079410D01*
X213092546Y-82686586D02*
X213192492Y-82683391D01*
X214651487Y-83079410D02*
X214563426Y-83032030D01*
X213192492Y-82683391D02*
X213292388Y-82687888D01*
X214563426Y-83032030D02*
X214471984Y-82991559D01*
X213292388Y-82687888D02*
X213391643Y-82700050D01*
X214471984Y-82991559D02*
X214377702Y-82958237D01*
X213391643Y-82700050D02*
X213489669Y-82719805D01*
X214377702Y-82958237D02*
X214281138Y-82932261D01*
X213489669Y-82719805D02*
X214281138Y-82932261D01*
X215291000Y-79149691D02*
X215283313Y-79249395D01*
X215283313Y-79249395D02*
X215267985Y-79348213D01*
X215267985Y-79348213D02*
X215245107Y-79445560D01*
X215245107Y-79445560D02*
X215214814Y-79540860D01*
X215214814Y-79540860D02*
X215177285Y-79633550D01*
X215177285Y-79633550D02*
X215132742Y-79723081D01*
X215132742Y-79723081D02*
X215081449Y-79808923D01*
X211885004Y-78933354D02*
X211892691Y-79033058D01*
X215081449Y-79808923D02*
X215023709Y-79890568D01*
X211892691Y-79033058D02*
X211908019Y-79131876D01*
X215023709Y-79890568D02*
X214959864Y-79967533D01*
X211908019Y-79131876D02*
X211930897Y-79229223D01*
X214959864Y-79967533D02*
X214890292Y-80039363D01*
X211930897Y-79229223D02*
X211961190Y-79324523D01*
X214890292Y-80039363D02*
X214815405Y-80105633D01*
X211961190Y-79324523D02*
X211998719Y-79417213D01*
X214815405Y-80105633D02*
X214735646Y-80165951D01*
X211998719Y-79417213D02*
X212043262Y-79506744D01*
X214735646Y-80165951D02*
X214651487Y-80219960D01*
X212043262Y-79506744D02*
X212094555Y-79592586D01*
X214651487Y-80219960D02*
X214563426Y-80267340D01*
X212094555Y-79592586D02*
X212152295Y-79674231D01*
X214563426Y-80267340D02*
X214471984Y-80307811D01*
X212152295Y-79674231D02*
X212216140Y-79751196D01*
X214471984Y-80307811D02*
X214377702Y-80341133D01*
X212216140Y-79751196D02*
X212285712Y-79823026D01*
X214377702Y-80341133D02*
X214281138Y-80367109D01*
X212285712Y-79823026D02*
X212360599Y-79889296D01*
X214281138Y-80367109D02*
X214182863Y-80385586D01*
X212360599Y-79889296D02*
X212440358Y-79949614D01*
X214182863Y-80385586D02*
X214083458Y-80396454D01*
X212440358Y-79949614D02*
X212524517Y-80003623D01*
X214083458Y-80396454D02*
X213983512Y-80399649D01*
X212524517Y-80003623D02*
X212612578Y-80051003D01*
X213983512Y-80399649D02*
X213883616Y-80395152D01*
X212612578Y-80051003D02*
X212704020Y-80091474D01*
X213883616Y-80395152D02*
X213784361Y-80382990D01*
X212704020Y-80091474D02*
X212798302Y-80124796D01*
X213784361Y-80382990D02*
X213686335Y-80363235D01*
X212798302Y-80124796D02*
X212894866Y-80150772D01*
X212894866Y-80150772D02*
X213686335Y-80363235D01*
X210342213Y-116172970D02*
X210345000Y-130510000D01*
X210341240Y-111172972D02*
X210338988Y-99599996D01*
X215291000Y-111453870D02*
X215291000Y-84149679D01*
X215291000Y-116453826D02*
X215291000Y-130475000D01*
X210342213Y-116172970D02*
X210349880Y-116073264D01*
X210349880Y-116073264D02*
X210365188Y-115974442D01*
X210365188Y-115974442D02*
X210388047Y-115877089D01*
X210388047Y-115877089D02*
X210418322Y-115781781D01*
X215291000Y-116453826D02*
X215283313Y-116354122D01*
X210418322Y-115781781D02*
X210455833Y-115689082D01*
X215283313Y-116354122D02*
X215267985Y-116255304D01*
X210455833Y-115689082D02*
X210500358Y-115599541D01*
X215267985Y-116255304D02*
X215245107Y-116157957D01*
X210500358Y-115599541D02*
X210551634Y-115513687D01*
X215245107Y-116157957D02*
X215214814Y-116062657D01*
X210551634Y-115513687D02*
X210609358Y-115432028D01*
X215214814Y-116062657D02*
X215177285Y-115969967D01*
X210609358Y-115432028D02*
X210673188Y-115355048D01*
X215177285Y-115969967D02*
X215132742Y-115880436D01*
X210673188Y-115355048D02*
X210742746Y-115283202D01*
X215132742Y-115880436D02*
X215081449Y-115794594D01*
X210742746Y-115283202D02*
X210817621Y-115216915D01*
X215081449Y-115794594D02*
X215023709Y-115712949D01*
X210817621Y-115216915D02*
X210897370Y-115156579D01*
X215023709Y-115712949D02*
X214959864Y-115635984D01*
X210897370Y-115156579D02*
X210981521Y-115102552D01*
X214959864Y-115635984D02*
X214890292Y-115564154D01*
X210981521Y-115102552D02*
X211069576Y-115055153D01*
X214890292Y-115564154D02*
X214815405Y-115497884D01*
X211069576Y-115055153D02*
X211161014Y-115014663D01*
X214815405Y-115497884D02*
X214735646Y-115437566D01*
X211161014Y-115014663D02*
X211255294Y-114981321D01*
X214735646Y-115437566D02*
X214651487Y-115383557D01*
X211255294Y-114981321D02*
X211351858Y-114955325D01*
X214651487Y-115383557D02*
X214563426Y-115336177D01*
X211351858Y-114955325D02*
X211450135Y-114936828D01*
X214563426Y-115336177D02*
X214471984Y-115295706D01*
X211450135Y-114936828D02*
X211549543Y-114925940D01*
X214471984Y-115295706D02*
X214377702Y-115262384D01*
X211549543Y-114925940D02*
X211649494Y-114922725D01*
X214377702Y-115262384D02*
X214281138Y-115236408D01*
X211649494Y-114922725D02*
X211749396Y-114927202D01*
X214281138Y-115236408D02*
X214182863Y-115217931D01*
X211749396Y-114927202D02*
X214182863Y-115217931D01*
X215291000Y-111453870D02*
X215283313Y-111553574D01*
X215283313Y-111553574D02*
X215267985Y-111652392D01*
X215267985Y-111652392D02*
X215245107Y-111749739D01*
X215245107Y-111749739D02*
X215214814Y-111845039D01*
X210341240Y-111172972D02*
X210348947Y-111272675D01*
X215214814Y-111845039D02*
X215177285Y-111937729D01*
X210348947Y-111272675D02*
X210364295Y-111371491D01*
X215177285Y-111937729D02*
X215132742Y-112027260D01*
X210364295Y-111371491D02*
X210387193Y-111468835D01*
X215132742Y-112027260D02*
X215081449Y-112113102D01*
X210387193Y-111468835D02*
X210417506Y-111564131D01*
X215081449Y-112113102D02*
X215023709Y-112194747D01*
X210417506Y-111564131D02*
X210455054Y-111656815D01*
X215023709Y-112194747D02*
X214959864Y-112271712D01*
X210455054Y-111656815D02*
X210499615Y-111746339D01*
X214959864Y-112271712D02*
X214890292Y-112343542D01*
X210499615Y-111746339D02*
X210550926Y-111832173D01*
X214890292Y-112343542D02*
X214815405Y-112409812D01*
X210550926Y-111832173D02*
X210608683Y-111913809D01*
X214815405Y-112409812D02*
X214735646Y-112470130D01*
X210608683Y-111913809D02*
X210672544Y-111990764D01*
X214735646Y-112470130D02*
X214651487Y-112524139D01*
X210672544Y-111990764D02*
X210742131Y-112062583D01*
X214651487Y-112524139D02*
X214563426Y-112571519D01*
X210742131Y-112062583D02*
X210817033Y-112128841D01*
X214563426Y-112571519D02*
X214471984Y-112611990D01*
X210817033Y-112128841D02*
X210896806Y-112189146D01*
X214471984Y-112611990D02*
X214377702Y-112645312D01*
X210896806Y-112189146D02*
X210980978Y-112243141D01*
X214377702Y-112645312D02*
X214281138Y-112671288D01*
X210980978Y-112243141D02*
X211069051Y-112290506D01*
X214281138Y-112671288D02*
X214182863Y-112689765D01*
X211069051Y-112290506D02*
X211160504Y-112330961D01*
X214182863Y-112689765D02*
X214083458Y-112700633D01*
X211160504Y-112330961D02*
X211254796Y-112364267D01*
X214083458Y-112700633D02*
X213983512Y-112703828D01*
X211254796Y-112364267D02*
X211351369Y-112390227D01*
X213983512Y-112703828D02*
X213883616Y-112699331D01*
X211351369Y-112390227D02*
X211449652Y-112408687D01*
X211449652Y-112408687D02*
X213883616Y-112699331D01*
X189215436Y-125024995D02*
X189209002Y-131585004D01*
X189220342Y-120025000D02*
X189225000Y-115275000D01*
X195464590Y-120025027D02*
X195494990Y-99599996D01*
X195457150Y-125025000D02*
X195449000Y-130499990D01*
X195457150Y-125025000D02*
X195449612Y-124925284D01*
X189215436Y-125024995D02*
X189223220Y-124925298D01*
X195449612Y-124925284D02*
X195434432Y-124826442D01*
X189223220Y-124925298D02*
X189238644Y-124826494D01*
X195434432Y-124826442D02*
X195411699Y-124729059D01*
X189238644Y-124826494D02*
X189261617Y-124729168D01*
X195411699Y-124729059D02*
X195381548Y-124633712D01*
X189261617Y-124729168D02*
X189292003Y-124633896D01*
X195381548Y-124633712D02*
X195344157Y-124540965D01*
X189292003Y-124633896D02*
X189329622Y-124541242D01*
X195344157Y-124540965D02*
X195299748Y-124451367D01*
X189329622Y-124541242D02*
X189374252Y-124451754D01*
X195299748Y-124451367D02*
X195248583Y-124365448D01*
X189374252Y-124451754D02*
X189425629Y-124365961D01*
X195248583Y-124365448D02*
X195190965Y-124283716D01*
X189425629Y-124365961D02*
X189483449Y-124284371D01*
X195190965Y-124283716D02*
X195127235Y-124206655D01*
X189483449Y-124284371D02*
X189547369Y-124207467D01*
X195127235Y-124206655D02*
X195057770Y-124134721D01*
X189547369Y-124207467D02*
X189617011Y-124135704D01*
X195057770Y-124134721D02*
X194982981Y-124068339D01*
X189617011Y-124135704D02*
X189691963Y-124069506D01*
X194982981Y-124068339D02*
X194903311Y-124007902D01*
X189691963Y-124069506D02*
X189771782Y-124009265D01*
X194903311Y-124007902D02*
X194819231Y-123953768D01*
X189771782Y-124009265D02*
X189855995Y-123955338D01*
X194819231Y-123953768D02*
X194731239Y-123906257D01*
X189855995Y-123955338D02*
X189944104Y-123908044D01*
X194731239Y-123906257D02*
X194639855Y-123865650D01*
X189944104Y-123908044D02*
X190035588Y-123867663D01*
X194639855Y-123865650D02*
X194545620Y-123832187D01*
X190035588Y-123867663D02*
X190129905Y-123834433D01*
X194545620Y-123832187D02*
X194449092Y-123806066D01*
X190129905Y-123834433D02*
X190226497Y-123808551D01*
X194449092Y-123806066D02*
X194350842Y-123787442D01*
X190226497Y-123808551D02*
X190324793Y-123790170D01*
X194350842Y-123787442D02*
X194251451Y-123776425D01*
X190324793Y-123790170D02*
X190424211Y-123779399D01*
X194251451Y-123776425D02*
X194151507Y-123773080D01*
X190424211Y-123779399D02*
X190524163Y-123776302D01*
X190524163Y-123776302D02*
X194151507Y-123773080D01*
X189220342Y-120025000D02*
X189227931Y-120124712D01*
X195464590Y-120025027D02*
X195456755Y-120124720D01*
X189227931Y-120124712D02*
X189243162Y-120223546D01*
X195456755Y-120124720D02*
X195441280Y-120223516D01*
X189243162Y-120223546D02*
X189265945Y-120320917D01*
X195441280Y-120223516D02*
X195418257Y-120320830D01*
X189265945Y-120320917D02*
X189296145Y-120416249D01*
X195418257Y-120320830D02*
X195387822Y-120416086D01*
X189296145Y-120416249D02*
X189333583Y-120508978D01*
X195387822Y-120416086D02*
X195350155Y-120508721D01*
X189333583Y-120508978D02*
X189378038Y-120598555D01*
X195350155Y-120508721D02*
X195305479Y-120598187D01*
X189378038Y-120598555D02*
X189429247Y-120684450D01*
X195305479Y-120598187D02*
X195254058Y-120683954D01*
X189429247Y-120684450D02*
X189486907Y-120766155D01*
X195254058Y-120683954D02*
X195196197Y-120765515D01*
X189486907Y-120766155D02*
X189550677Y-120843186D01*
X195196197Y-120765515D02*
X195132238Y-120842387D01*
X189550677Y-120843186D02*
X189620179Y-120915087D01*
X195132238Y-120842387D02*
X195062559Y-120914115D01*
X189620179Y-120915087D02*
X189695002Y-120981433D01*
X195062559Y-120914115D02*
X194987573Y-120980275D01*
X189695002Y-120981433D02*
X189774703Y-121041831D01*
X194987573Y-120980275D02*
X194907723Y-121040475D01*
X189774703Y-121041831D02*
X189858811Y-121095924D01*
X194907723Y-121040475D02*
X194823482Y-121094359D01*
X189858811Y-121095924D02*
X189946828Y-121143392D01*
X194823482Y-121094359D02*
X194735348Y-121141608D01*
X189946828Y-121143392D02*
X190038233Y-121183954D01*
X194735348Y-121141608D02*
X194643843Y-121181943D01*
X190038233Y-121183954D02*
X190132485Y-121217370D01*
X194643843Y-121181943D02*
X194549508Y-121215125D01*
X190132485Y-121217370D02*
X190229027Y-121243442D01*
X194549508Y-121215125D02*
X194452902Y-121240958D01*
X190229027Y-121243442D02*
X190327287Y-121262016D01*
X194452902Y-121240958D02*
X194354596Y-121259289D01*
X190327287Y-121262016D02*
X190426684Y-121272982D01*
X194354596Y-121259289D02*
X194255172Y-121270009D01*
X190426684Y-121272982D02*
X190526630Y-121276275D01*
X194255172Y-121270009D02*
X194155218Y-121273055D01*
X190526630Y-121276275D02*
X194155218Y-121273055D01*
X178644619Y-111166000D02*
X150875010Y-111166000D01*
X183644584Y-111166000D02*
X189475000Y-111166000D01*
X183612711Y-115271771D02*
X189225000Y-115275000D01*
X178612711Y-115268895D02*
X171825000Y-115264990D01*
X178644619Y-111166000D02*
X178744323Y-111173687D01*
X178612711Y-115268895D02*
X178712420Y-115261266D01*
X178744323Y-111173687D02*
X178843141Y-111189015D01*
X178712420Y-115261266D02*
X178811248Y-115245995D01*
X178843141Y-111189015D02*
X178940488Y-111211893D01*
X178811248Y-115245995D02*
X178908610Y-115223173D01*
X178940488Y-111211893D02*
X179035788Y-111242186D01*
X178908610Y-115223173D02*
X179003930Y-115192935D01*
X179035788Y-111242186D02*
X179128478Y-111279715D01*
X179003930Y-115192935D02*
X179096644Y-115155460D01*
X179128478Y-111279715D02*
X179218009Y-111324258D01*
X179096644Y-115155460D02*
X179186203Y-115110969D01*
X179218009Y-111324258D02*
X179303851Y-111375551D01*
X179186203Y-115110969D02*
X179272077Y-115059726D01*
X179303851Y-111375551D02*
X179385496Y-111433291D01*
X179272077Y-115059726D02*
X179353758Y-115002034D01*
X179385496Y-111433291D02*
X179462461Y-111497136D01*
X179353758Y-115002034D02*
X179430763Y-114938234D01*
X179462461Y-111497136D02*
X179534291Y-111566708D01*
X179430763Y-114938234D02*
X179502636Y-114868704D01*
X179534291Y-111566708D02*
X179600561Y-111641595D01*
X179502636Y-114868704D02*
X179568952Y-114793855D01*
X179600561Y-111641595D02*
X179660879Y-111721354D01*
X179568952Y-114793855D02*
X179629318Y-114714130D01*
X179660879Y-111721354D02*
X179714888Y-111805513D01*
X179629318Y-114714130D02*
X179683377Y-114630001D01*
X179714888Y-111805513D02*
X179762268Y-111893574D01*
X179683377Y-114630001D02*
X179730809Y-114541966D01*
X179762268Y-111893574D02*
X179802739Y-111985016D01*
X179730809Y-114541966D02*
X179771334Y-114450546D01*
X179802739Y-111985016D02*
X179836061Y-112079298D01*
X179771334Y-114450546D02*
X179804712Y-114356281D01*
X179836061Y-112079298D02*
X179862037Y-112175862D01*
X179804712Y-114356281D02*
X179830745Y-114259729D01*
X179862037Y-112175862D02*
X179880514Y-112274137D01*
X179830745Y-114259729D02*
X179849279Y-114161462D01*
X179880514Y-112274137D02*
X179891382Y-112373542D01*
X179849279Y-114161462D02*
X179860205Y-114062061D01*
X179891382Y-112373542D02*
X179894577Y-112473488D01*
X179860205Y-114062061D02*
X179863458Y-113962114D01*
X179894577Y-112473488D02*
X179863458Y-113962114D01*
X183612711Y-115271771D02*
X183513011Y-115264027D01*
X183644584Y-111166000D02*
X183544880Y-111173687D01*
X183513011Y-115264027D02*
X183414201Y-115248642D01*
X183544880Y-111173687D02*
X183446062Y-111189015D01*
X183414201Y-115248642D02*
X183316866Y-115225707D01*
X183446062Y-111189015D02*
X183348715Y-111211893D01*
X183316866Y-115225707D02*
X183221582Y-115195358D01*
X183348715Y-111211893D02*
X183253415Y-111242186D01*
X183221582Y-115195358D02*
X183128913Y-115157775D01*
X183253415Y-111242186D02*
X183160725Y-111279715D01*
X183128913Y-115157775D02*
X183039407Y-115113180D01*
X183160725Y-111279715D02*
X183071194Y-111324258D01*
X183039407Y-115113180D02*
X182953594Y-115061837D01*
X183071194Y-111324258D02*
X182985352Y-111375551D01*
X182953594Y-115061837D02*
X182871981Y-115004050D01*
X182985352Y-111375551D02*
X182903707Y-111433291D01*
X182871981Y-115004050D02*
X182795051Y-114940161D01*
X182903707Y-111433291D02*
X182826742Y-111497136D01*
X182795051Y-114940161D02*
X182723260Y-114870548D01*
X182826742Y-111497136D02*
X182754912Y-111566708D01*
X182723260Y-114870548D02*
X182657032Y-114795623D01*
X182754912Y-111566708D02*
X182688642Y-111641595D01*
X182657032Y-114795623D02*
X182596759Y-114715829D01*
X182688642Y-111641595D02*
X182628324Y-111721354D01*
X182596759Y-114715829D02*
X182542798Y-114631638D01*
X182628324Y-111721354D02*
X182574315Y-111805513D01*
X182542798Y-114631638D02*
X182495468Y-114543548D01*
X182574315Y-111805513D02*
X182526935Y-111893574D01*
X182495468Y-114543548D02*
X182455049Y-114452081D01*
X182526935Y-111893574D02*
X182486464Y-111985016D01*
X182455049Y-114452081D02*
X182421780Y-114357778D01*
X182486464Y-111985016D02*
X182453142Y-112079298D01*
X182421780Y-114357778D02*
X182395858Y-114261197D01*
X182453142Y-112079298D02*
X182427166Y-112175862D01*
X182395858Y-114261197D02*
X182377437Y-114162909D01*
X182427166Y-112175862D02*
X182408689Y-112274137D01*
X182377437Y-114162909D02*
X182366626Y-114063496D01*
X182408689Y-112274137D02*
X182397821Y-112373542D01*
X182366626Y-114063496D02*
X182363488Y-113963546D01*
X182397821Y-112373542D02*
X182394626Y-112473488D01*
X182394626Y-112473488D02*
X182363488Y-113963546D01*
X162175004Y-124549776D02*
X162175004Y-130038988D01*
X162175004Y-119549763D02*
X162175004Y-115194990D01*
X171826617Y-119653085D02*
X171825000Y-115264990D01*
X171828457Y-124653085D02*
X171831012Y-131585004D01*
X162175004Y-124549776D02*
X162182691Y-124450072D01*
X171828457Y-124653085D02*
X171820733Y-124553384D01*
X162182691Y-124450072D02*
X162198019Y-124351254D01*
X171820733Y-124553384D02*
X171805368Y-124454572D01*
X162198019Y-124351254D02*
X162220897Y-124253907D01*
X171805368Y-124454572D02*
X171782453Y-124357233D01*
X162220897Y-124253907D02*
X162251190Y-124158607D01*
X171782453Y-124357233D02*
X171752124Y-124261943D01*
X162251190Y-124158607D02*
X162288719Y-124065917D01*
X171752124Y-124261943D02*
X171714560Y-124169266D01*
X162288719Y-124065917D02*
X162333262Y-123976386D01*
X171714560Y-124169266D02*
X171669983Y-124079751D01*
X162333262Y-123976386D02*
X162384555Y-123890544D01*
X171669983Y-124079751D02*
X171618657Y-123993927D01*
X162384555Y-123890544D02*
X162442295Y-123808899D01*
X171618657Y-123993927D02*
X171560886Y-123912302D01*
X162442295Y-123808899D02*
X162506140Y-123731934D01*
X171560886Y-123912302D02*
X171497012Y-123835359D01*
X162506140Y-123731934D02*
X162575712Y-123660104D01*
X171497012Y-123835359D02*
X171427413Y-123763553D01*
X162575712Y-123660104D02*
X162650599Y-123593834D01*
X171427413Y-123763553D02*
X171352500Y-123697309D01*
X162650599Y-123593834D02*
X162730358Y-123533516D01*
X171352500Y-123697309D02*
X171272717Y-123637019D01*
X162730358Y-123533516D02*
X162814517Y-123479507D01*
X171272717Y-123637019D02*
X171188536Y-123583040D01*
X162814517Y-123479507D02*
X162902578Y-123432127D01*
X171188536Y-123583040D02*
X171100455Y-123535691D01*
X162902578Y-123432127D02*
X162994020Y-123391656D01*
X171100455Y-123535691D02*
X171008995Y-123495253D01*
X162994020Y-123391656D02*
X163088302Y-123358334D01*
X171008995Y-123495253D02*
X170914697Y-123461965D01*
X163088302Y-123358334D02*
X163184866Y-123332358D01*
X170914697Y-123461965D02*
X170818119Y-123436024D01*
X163184866Y-123332358D02*
X163283141Y-123313881D01*
X170818119Y-123436024D02*
X170719833Y-123417583D01*
X163283141Y-123313881D02*
X163382546Y-123303013D01*
X170719833Y-123417583D02*
X170620420Y-123406751D01*
X163382546Y-123303013D02*
X163482492Y-123299818D01*
X170620420Y-123406751D02*
X170520469Y-123403593D01*
X163482492Y-123299818D02*
X170520469Y-123403593D01*
X171826617Y-119653085D02*
X171818967Y-119752792D01*
X162175004Y-119549763D02*
X162182691Y-119649467D01*
X171818967Y-119752792D02*
X171803676Y-119851616D01*
X162182691Y-119649467D02*
X162198019Y-119748285D01*
X171803676Y-119851616D02*
X171780834Y-119948972D01*
X162198019Y-119748285D02*
X162220897Y-119845632D01*
X171780834Y-119948972D02*
X171750576Y-120044284D01*
X162220897Y-119845632D02*
X162251190Y-119940932D01*
X171750576Y-120044284D02*
X171713081Y-120136988D01*
X162251190Y-119940932D02*
X162288719Y-120033622D01*
X171713081Y-120136988D02*
X171668571Y-120226536D01*
X162288719Y-120033622D02*
X162333262Y-120123153D01*
X171668571Y-120226536D02*
X171617309Y-120312398D01*
X162333262Y-120123153D02*
X162384555Y-120208995D01*
X171617309Y-120312398D02*
X171559599Y-120394066D01*
X162384555Y-120208995D02*
X162442295Y-120290640D01*
X171559599Y-120394066D02*
X171495782Y-120471056D01*
X162442295Y-120290640D02*
X162506140Y-120367605D01*
X171495782Y-120471056D02*
X171426236Y-120542913D01*
X162506140Y-120367605D02*
X162575712Y-120439435D01*
X171426236Y-120542913D02*
X171351372Y-120609212D01*
X162575712Y-120439435D02*
X162650599Y-120505705D01*
X171351372Y-120609212D02*
X171271633Y-120669560D01*
X162650599Y-120505705D02*
X162730358Y-120566023D01*
X171271633Y-120669560D02*
X171187491Y-120723600D01*
X162730358Y-120566023D02*
X162814517Y-120620032D01*
X171187491Y-120723600D02*
X171099444Y-120771012D01*
X162814517Y-120620032D02*
X162902578Y-120667412D01*
X171099444Y-120771012D02*
X171008013Y-120811516D01*
X162902578Y-120667412D02*
X162994020Y-120707883D01*
X171008013Y-120811516D02*
X170913739Y-120844872D01*
X162994020Y-120707883D02*
X163088302Y-120741205D01*
X170913739Y-120844872D02*
X170817180Y-120870883D01*
X163088302Y-120741205D02*
X163184866Y-120767181D01*
X170817180Y-120870883D02*
X170718907Y-120889395D01*
X163184866Y-120767181D02*
X163283141Y-120785658D01*
X170718907Y-120889395D02*
X170619502Y-120900298D01*
X163283141Y-120785658D02*
X163382546Y-120796526D01*
X170619502Y-120900298D02*
X170519553Y-120903528D01*
X163382546Y-120796526D02*
X163482492Y-120799721D01*
X163482492Y-120799721D02*
X170519553Y-120903528D01*
X177979147Y-131585004D02*
X171831012Y-131585004D01*
X182979140Y-131585004D02*
X189209002Y-131585004D01*
X183019108Y-134991000D02*
X189350000Y-134991000D01*
X178019140Y-134991000D02*
X178118844Y-134983313D01*
X178118844Y-134983313D02*
X178217662Y-134967985D01*
X177979147Y-131585004D02*
X178078851Y-131592691D01*
X178217662Y-134967985D02*
X178315009Y-134945107D01*
X178078851Y-131592691D02*
X178177669Y-131608019D01*
X178315009Y-134945107D02*
X178410309Y-134914814D01*
X178177669Y-131608019D02*
X178275016Y-131630897D01*
X178410309Y-134914814D02*
X178502999Y-134877285D01*
X178275016Y-131630897D02*
X178370316Y-131661190D01*
X178502999Y-134877285D02*
X178592530Y-134832742D01*
X178370316Y-131661190D02*
X178463006Y-131698719D01*
X178592530Y-134832742D02*
X178678372Y-134781449D01*
X178463006Y-131698719D02*
X178552537Y-131743262D01*
X178678372Y-134781449D02*
X178760017Y-134723709D01*
X178552537Y-131743262D02*
X178638379Y-131794555D01*
X178760017Y-134723709D02*
X178836982Y-134659864D01*
X178638379Y-131794555D02*
X178720024Y-131852295D01*
X178836982Y-134659864D02*
X178908812Y-134590292D01*
X178720024Y-131852295D02*
X178796989Y-131916140D01*
X178908812Y-134590292D02*
X178975082Y-134515405D01*
X178796989Y-131916140D02*
X178868819Y-131985712D01*
X178975082Y-134515405D02*
X179035400Y-134435646D01*
X178868819Y-131985712D02*
X178935089Y-132060599D01*
X179035400Y-134435646D02*
X179089409Y-134351487D01*
X178935089Y-132060599D02*
X178995407Y-132140358D01*
X179089409Y-134351487D02*
X179136789Y-134263426D01*
X178995407Y-132140358D02*
X179049416Y-132224517D01*
X179136789Y-134263426D02*
X179177260Y-134171984D01*
X179049416Y-132224517D02*
X179096796Y-132312578D01*
X179177260Y-134171984D02*
X179210582Y-134077702D01*
X179096796Y-132312578D02*
X179137267Y-132404020D01*
X179210582Y-134077702D02*
X179236558Y-133981138D01*
X179137267Y-132404020D02*
X179170589Y-132498302D01*
X179236558Y-133981138D02*
X179255035Y-133882863D01*
X179170589Y-132498302D02*
X179196565Y-132594866D01*
X179255035Y-133882863D02*
X179265903Y-133783458D01*
X179196565Y-132594866D02*
X179215042Y-132693141D01*
X179265903Y-133783458D02*
X179269098Y-133683512D01*
X179215042Y-132693141D02*
X179225910Y-132792546D01*
X179269098Y-133683512D02*
X179264601Y-133583616D01*
X179225910Y-132792546D02*
X179264601Y-133583616D01*
X182979140Y-131585004D02*
X182879436Y-131592691D01*
X182879436Y-131592691D02*
X182780618Y-131608019D01*
X183019108Y-134991000D02*
X182919404Y-134983313D01*
X182780618Y-131608019D02*
X182683271Y-131630897D01*
X182919404Y-134983313D02*
X182820586Y-134967985D01*
X182683271Y-131630897D02*
X182587971Y-131661190D01*
X182820586Y-134967985D02*
X182723239Y-134945107D01*
X182587971Y-131661190D02*
X182495281Y-131698719D01*
X182723239Y-134945107D02*
X182627939Y-134914814D01*
X182495281Y-131698719D02*
X182405750Y-131743262D01*
X182627939Y-134914814D02*
X182535249Y-134877285D01*
X182405750Y-131743262D02*
X182319908Y-131794555D01*
X182535249Y-134877285D02*
X182445718Y-134832742D01*
X182319908Y-131794555D02*
X182238263Y-131852295D01*
X182445718Y-134832742D02*
X182359876Y-134781449D01*
X182238263Y-131852295D02*
X182161298Y-131916140D01*
X182359876Y-134781449D02*
X182278231Y-134723709D01*
X182161298Y-131916140D02*
X182089468Y-131985712D01*
X182278231Y-134723709D02*
X182201266Y-134659864D01*
X182089468Y-131985712D02*
X182023198Y-132060599D01*
X182201266Y-134659864D02*
X182129436Y-134590292D01*
X182023198Y-132060599D02*
X181962880Y-132140358D01*
X182129436Y-134590292D02*
X182063166Y-134515405D01*
X181962880Y-132140358D02*
X181908871Y-132224517D01*
X182063166Y-134515405D02*
X182002848Y-134435646D01*
X181908871Y-132224517D02*
X181861491Y-132312578D01*
X182002848Y-134435646D02*
X181948839Y-134351487D01*
X181861491Y-132312578D02*
X181821020Y-132404020D01*
X181948839Y-134351487D02*
X181901459Y-134263426D01*
X181821020Y-132404020D02*
X181787698Y-132498302D01*
X181901459Y-134263426D02*
X181860988Y-134171984D01*
X181787698Y-132498302D02*
X181761722Y-132594866D01*
X181860988Y-134171984D02*
X181827666Y-134077702D01*
X181761722Y-132594866D02*
X181743245Y-132693141D01*
X181827666Y-134077702D02*
X181801690Y-133981138D01*
X181743245Y-132693141D02*
X181732377Y-132792546D01*
X181801690Y-133981138D02*
X181783213Y-133882863D01*
X181732377Y-132792546D02*
X181729182Y-132892492D01*
X181783213Y-133882863D02*
X181772345Y-133783458D01*
X181729182Y-132892492D02*
X181733679Y-132992388D01*
X181733679Y-132992388D02*
X181772345Y-133783458D01*
X144617313Y-130042402D02*
X131265000Y-130045000D01*
X149617294Y-130041429D02*
X162175004Y-130038988D01*
X149563213Y-134991000D02*
X178019140Y-134991000D01*
X144563208Y-134991000D02*
X131300000Y-134991000D01*
X144617313Y-130042402D02*
X144717019Y-130050069D01*
X144563208Y-134991000D02*
X144662912Y-134983313D01*
X144717019Y-130050069D02*
X144815841Y-130065377D01*
X144662912Y-134983313D02*
X144761730Y-134967985D01*
X144815841Y-130065377D02*
X144913194Y-130088236D01*
X144761730Y-134967985D02*
X144859077Y-134945107D01*
X144913194Y-130088236D02*
X145008502Y-130118511D01*
X144859077Y-134945107D02*
X144954377Y-134914814D01*
X145008502Y-130118511D02*
X145101201Y-130156022D01*
X144954377Y-134914814D02*
X145047067Y-134877285D01*
X145101201Y-130156022D02*
X145190742Y-130200547D01*
X145047067Y-134877285D02*
X145136598Y-134832742D01*
X145190742Y-130200547D02*
X145276596Y-130251823D01*
X145136598Y-134832742D02*
X145222440Y-134781449D01*
X145276596Y-130251823D02*
X145358255Y-130309547D01*
X145222440Y-134781449D02*
X145304085Y-134723709D01*
X145358255Y-130309547D02*
X145435235Y-130373377D01*
X145304085Y-134723709D02*
X145381050Y-134659864D01*
X145435235Y-130373377D02*
X145507081Y-130442935D01*
X145381050Y-134659864D02*
X145452880Y-134590292D01*
X145507081Y-130442935D02*
X145573368Y-130517810D01*
X145452880Y-134590292D02*
X145519150Y-134515405D01*
X145573368Y-130517810D02*
X145633704Y-130597559D01*
X145519150Y-134515405D02*
X145579468Y-134435646D01*
X145633704Y-130597559D02*
X145687731Y-130681710D01*
X145579468Y-134435646D02*
X145633477Y-134351487D01*
X145687731Y-130681710D02*
X145735130Y-130769765D01*
X145633477Y-134351487D02*
X145680857Y-134263426D01*
X145735130Y-130769765D02*
X145775620Y-130861203D01*
X145680857Y-134263426D02*
X145721328Y-134171984D01*
X145775620Y-130861203D02*
X145808962Y-130955483D01*
X145721328Y-134171984D02*
X145754650Y-134077702D01*
X145808962Y-130955483D02*
X145834958Y-131052047D01*
X145754650Y-134077702D02*
X145780626Y-133981138D01*
X145834958Y-131052047D02*
X145853455Y-131150324D01*
X145780626Y-133981138D02*
X145799103Y-133882863D01*
X145853455Y-131150324D02*
X145864343Y-131249732D01*
X145799103Y-133882863D02*
X145809971Y-133783458D01*
X145864343Y-131249732D02*
X145867558Y-131349683D01*
X145809971Y-133783458D02*
X145813166Y-133683512D01*
X145867558Y-131349683D02*
X145813166Y-133683512D01*
X149563213Y-134991000D02*
X149463509Y-134983313D01*
X149617294Y-130041429D02*
X149517591Y-130049136D01*
X149463509Y-134983313D02*
X149364691Y-134967985D01*
X149517591Y-130049136D02*
X149418775Y-130064484D01*
X149364691Y-134967985D02*
X149267344Y-134945107D01*
X149418775Y-130064484D02*
X149321431Y-130087382D01*
X149267344Y-134945107D02*
X149172044Y-134914814D01*
X149321431Y-130087382D02*
X149226135Y-130117695D01*
X149172044Y-134914814D02*
X149079354Y-134877285D01*
X149226135Y-130117695D02*
X149133451Y-130155243D01*
X149079354Y-134877285D02*
X148989823Y-134832742D01*
X149133451Y-130155243D02*
X149043927Y-130199804D01*
X148989823Y-134832742D02*
X148903981Y-134781449D01*
X149043927Y-130199804D02*
X148958093Y-130251115D01*
X148903981Y-134781449D02*
X148822336Y-134723709D01*
X148958093Y-130251115D02*
X148876457Y-130308872D01*
X148822336Y-134723709D02*
X148745371Y-134659864D01*
X148876457Y-130308872D02*
X148799502Y-130372733D01*
X148745371Y-134659864D02*
X148673541Y-134590292D01*
X148799502Y-130372733D02*
X148727683Y-130442320D01*
X148673541Y-134590292D02*
X148607271Y-134515405D01*
X148727683Y-130442320D02*
X148661425Y-130517222D01*
X148607271Y-134515405D02*
X148546953Y-134435646D01*
X148661425Y-130517222D02*
X148601120Y-130596995D01*
X148546953Y-134435646D02*
X148492944Y-134351487D01*
X148601120Y-130596995D02*
X148547125Y-130681167D01*
X148492944Y-134351487D02*
X148445564Y-134263426D01*
X148547125Y-130681167D02*
X148499760Y-130769240D01*
X148445564Y-134263426D02*
X148405093Y-134171984D01*
X148499760Y-130769240D02*
X148459305Y-130860693D01*
X148405093Y-134171984D02*
X148371771Y-134077702D01*
X148459305Y-130860693D02*
X148425999Y-130954985D01*
X148371771Y-134077702D02*
X148345795Y-133981138D01*
X148425999Y-130954985D02*
X148400039Y-131051558D01*
X148345795Y-133981138D02*
X148327318Y-133882863D01*
X148400039Y-131051558D02*
X148381579Y-131149841D01*
X148327318Y-133882863D02*
X148316450Y-133783458D01*
X148381579Y-131149841D02*
X148370728Y-131249252D01*
X148316450Y-133783458D02*
X148313255Y-133683512D01*
X148370728Y-131249252D02*
X148367550Y-131349203D01*
X148367550Y-131349203D02*
X148313255Y-133683512D01*
M02*
