M48
; DRILL file {KiCad (5.1.4)-1} date 4/9/2020 11:04:47 AM
; FORMAT={-:-/ absolute / metric / decimal}
; #@! TF.CreationDate,2020-04-09T11:04:47+02:00
; #@! TF.GenerationSoftware,Kicad,Pcbnew,(5.1.4)-1
FMAT,2
METRIC
T1C0.400
T2C0.600
T3C0.800
T4C0.900
T5C1.450
T6C2.000
T7C0.800
%
G90
G05
T1
X125.225Y-57.735
X125.25Y-80.21
X125.275Y-102.81
X125.3Y-125.285
X131.5Y-57.695
X131.525Y-80.17
X131.55Y-102.77
X131.575Y-125.245
X140.94Y-63.84
X140.952Y-55.443
X140.965Y-86.315
X140.977Y-77.918
X140.99Y-108.915
X141.002Y-100.518
X141.015Y-131.39
X141.027Y-122.993
X148.085Y-59.815
X148.11Y-82.29
X148.135Y-104.89
X148.16Y-127.365
X150.585Y-59.815
X150.61Y-82.29
X150.635Y-104.89
X150.66Y-127.365
X151.154Y-49.897
X151.179Y-72.372
X151.204Y-94.972
X151.229Y-117.447
X152.23Y-52.335
X152.255Y-74.81
X152.27Y-62.805
X152.28Y-97.41
X152.295Y-85.28
X152.305Y-119.885
X152.32Y-107.88
X152.345Y-130.355
X154.805Y-49.235
X154.83Y-71.71
X154.855Y-94.31
X154.88Y-116.785
X156.025Y-54.984
X156.05Y-77.459
X156.075Y-100.059
X156.1Y-122.534
X156.415Y-48.575
X156.44Y-71.05
X156.465Y-93.65
X156.49Y-116.125
X156.566Y-55.825
X156.591Y-78.3
X156.616Y-100.9
X156.641Y-123.375
X156.955Y-58.615
X156.98Y-81.09
X157.005Y-103.69
X157.03Y-126.165
X160.355Y-56.945
X160.38Y-79.42
X160.405Y-102.02
X160.43Y-124.495
X161.505Y-59.81
X161.53Y-82.285
X161.555Y-104.885
X161.58Y-127.36
X162.425Y-48.55
X162.425Y-50.3
X162.445Y-55.34
X162.45Y-71.025
X162.45Y-72.775
X162.47Y-77.815
X162.475Y-93.625
X162.475Y-95.375
X162.495Y-100.415
X162.5Y-116.1
X162.5Y-117.85
X162.52Y-122.89
X163.965Y-48.535
X163.965Y-50.285
X163.99Y-71.01
X163.99Y-72.76
X164.015Y-93.61
X164.015Y-95.36
X164.04Y-116.085
X164.04Y-117.835
X164.395Y-60.145
X164.42Y-82.62
X164.445Y-105.22
X164.47Y-127.695
X165.975Y-60.13
X165.975Y-61.88
X165.985Y-63.875
X166.0Y-82.605
X166.0Y-84.355
X166.01Y-86.35
X166.025Y-105.205
X166.025Y-106.955
X166.035Y-108.95
X166.05Y-127.68
X166.05Y-129.43
X166.06Y-131.425
X167.505Y-60.13
X167.505Y-61.88
X167.53Y-82.605
X167.53Y-84.355
X167.555Y-105.205
X167.555Y-106.955
X167.58Y-127.68
X167.58Y-129.43
X167.785Y-55.515
X167.81Y-77.99
X167.835Y-100.59
X167.86Y-123.065
X169.005Y-60.135
X169.005Y-61.885
X169.03Y-82.61
X169.03Y-84.36
X169.055Y-105.21
X169.055Y-106.96
X169.08Y-127.685
X169.08Y-129.435
X169.585Y-52.765
X169.61Y-75.24
X169.635Y-97.84
X169.66Y-120.315
X182.2Y-121.21
X182.235Y-96.165
X183.27Y-107.495
X184.19Y-124.23
X184.195Y-121.2
X184.195Y-122.73
X185.93Y-119.62
X185.94Y-124.23
X185.945Y-121.2
X185.945Y-122.73
X186.26Y-103.31
X186.26Y-105.81
X186.265Y-116.73
X187.46Y-112.18
X188.34Y-80.45
X188.38Y-86.725
X189.13Y-115.58
X190.25Y-111.791
X190.56Y-123.01
X190.632Y-96.177
X190.735Y-117.67
X191.091Y-111.25
X193.31Y-124.81
X193.74Y-107.455
X195.775Y-117.65
X195.79Y-119.19
X196.178Y-106.379
X196.84Y-110.03
X197.5Y-111.64
X197.525Y-117.65
X197.54Y-119.19
T2
X193.39Y-98.0
X139.968Y-120.293
X139.918Y-72.218
X142.825Y-94.71
X196.44Y-98.0
X196.332Y-95.118
X142.825Y-97.76
X139.943Y-94.818
X193.332Y-95.118
X139.943Y-97.818
X142.8Y-72.11
X139.968Y-117.293
X139.918Y-75.218
X139.893Y-52.743
X142.8Y-75.16
X142.85Y-120.235
X142.775Y-52.685
X142.775Y-49.635
X139.893Y-49.743
X142.85Y-117.185
T3
X136.505Y-53.535
X136.53Y-76.01
X136.555Y-98.61
X136.58Y-121.085
X139.865Y-61.165
X139.89Y-83.64
X139.915Y-106.24
X139.94Y-128.715
X157.795Y-61.715
X157.82Y-84.19
X157.845Y-106.79
X157.87Y-129.265
X166.08Y-48.665
X166.105Y-71.14
X166.13Y-93.74
X166.155Y-116.215
X171.53Y-48.665
X171.53Y-52.665
X171.555Y-71.14
X171.555Y-75.14
X171.58Y-93.74
X171.58Y-97.74
X171.605Y-116.215
X171.605Y-120.215
X184.36Y-113.02
X184.91Y-95.09
X192.54Y-91.73
X193.41Y-126.755
X197.41Y-121.305
X197.41Y-126.755
T4
X147.26Y-130.365
X154.06Y-130.365
X183.26Y-102.41
X183.26Y-109.21
X147.185Y-62.815
X153.985Y-62.815
X147.235Y-107.89
X154.035Y-107.89
T5
X123.8Y-72.12
X123.8Y-83.52
X130.15Y-72.12
X130.15Y-83.52
X136.5Y-72.12
X136.5Y-83.52
X185.03Y-79.0
X185.03Y-85.35
X185.03Y-91.7
X196.43Y-79.0
X196.43Y-85.35
X196.43Y-91.7
X123.85Y-117.195
X123.85Y-128.595
X130.2Y-117.195
X130.2Y-128.595
X136.55Y-117.195
X136.55Y-128.595
X123.825Y-94.72
X123.825Y-106.12
X130.175Y-94.72
X130.175Y-106.12
X136.525Y-94.72
X136.525Y-106.12
X123.775Y-49.645
X123.775Y-61.045
X130.125Y-49.645
X130.125Y-61.045
X136.475Y-49.645
X136.475Y-61.045
T6
X175.58Y-85.15
X175.5Y-115.495
X175.54Y-122.595
X175.475Y-93.02
X175.465Y-55.045
X175.605Y-107.75
X175.63Y-130.225
X175.45Y-70.42
X175.425Y-47.945
X198.13Y-130.65
X191.03Y-130.69
X175.49Y-77.52
X175.555Y-62.675
X183.4Y-130.78
X175.515Y-100.12
T7
X146.181Y-109.666
X147.639Y-109.666
X149.098Y-109.666
X150.556Y-109.666
X146.215Y-113.591
X147.674Y-113.591
X149.132Y-113.591
X150.591Y-113.591
X145.787Y-64.591
X147.246Y-64.591
X148.704Y-64.591
X150.163Y-64.591
X177.5Y-120.581
X177.5Y-122.04
X177.5Y-123.498
X177.5Y-124.957
X145.954Y-87.066
X147.413Y-87.066
X148.871Y-87.066
X150.33Y-87.066
X145.787Y-68.516
X147.246Y-68.516
X148.704Y-68.516
X150.163Y-68.516
X181.484Y-120.646
X181.484Y-122.104
X181.484Y-123.563
X181.484Y-125.021
X177.475Y-97.687
X177.475Y-99.146
X177.475Y-100.604
X177.475Y-102.063
X145.988Y-91.116
X147.446Y-91.116
X148.905Y-91.116
X150.363Y-91.116
X181.484Y-97.687
X181.484Y-99.146
X181.484Y-100.604
X181.484Y-102.063
T0
M30
